<svg xmlns="http://www.w3.org/2000/svg" width="820" height="533" viewBox="0 0 820 533">
  <g id="Grupo_1073088" data-name="Grupo 1073088" transform="translate(-390 -582)">
    <rect id="Rectángulo_378121" data-name="Rectángulo 378121" width="820" height="533" transform="translate(390 582)" fill="#ecfcff"/>
    <g id="Grupo_1072655" data-name="Grupo 1072655" transform="translate(0 -15)">
      <path id="Trazado_610521" data-name="Trazado 610521" d="M-7824.784-11018.766h763.017" transform="translate(8244 11700)" fill="none" stroke="#707070" stroke-width="1"/>
      <path id="Trazado_610526" data-name="Trazado 610526" d="M-7824.784-11018.766h763.017" transform="translate(8243.638 11861.59)" fill="none" stroke="#707070" stroke-width="1"/>
      <path id="Trazado_610522" data-name="Trazado 610522" d="M-7824.784-11018.766h763.017" transform="translate(8243.275 11753.863)" fill="none" stroke="#707070" stroke-width="1"/>
      <path id="Trazado_610525" data-name="Trazado 610525" d="M-7824.784-11018.766h763.017" transform="translate(8242.913 11915.453)" fill="none" stroke="#707070" stroke-width="1"/>
      <path id="Trazado_610523" data-name="Trazado 610523" d="M-7824.784-11018.766h763.017" transform="translate(8243.275 11807.727)" fill="none" stroke="#707070" stroke-width="1"/>
      <path id="Trazado_610524" data-name="Trazado 610524" d="M-7824.784-11018.766h763.017" transform="translate(8242.913 11969.316)" fill="none" stroke="#707070" stroke-width="1"/>
      <path id="Trazado_610527" data-name="Trazado 610527" d="M-7824.784-11018.766h763.017" transform="translate(8244 12023.18)" fill="none" stroke="#707070" stroke-width="1"/>
    </g>
    <rect id="Rectángulo_378109" data-name="Rectángulo 378109" width="54" height="228" transform="translate(430 761)" fill="#94eeff"/>
    <rect id="Rectángulo_378112" data-name="Rectángulo 378112" width="54" height="134" transform="translate(623 855)" fill="#94eeff"/>
    <rect id="Rectángulo_378118" data-name="Rectángulo 378118" width="54" height="242" transform="translate(1009 747)" fill="#94eeff"/>
    <rect id="Rectángulo_378115" data-name="Rectángulo 378115" width="54" height="188" transform="translate(816 801)" fill="#94eeff"/>
    <rect id="Rectángulo_378113" data-name="Rectángulo 378113" width="54" height="232" transform="translate(677 757)" fill="#ffe7af"/>
    <rect id="Rectángulo_378116" data-name="Rectángulo 378116" width="54" height="100" transform="translate(870 889)" fill="#ffe7af"/>
    <rect id="Rectángulo_378119" data-name="Rectángulo 378119" width="54" height="153" transform="translate(1063 836)" fill="#ffe7af"/>
    <rect id="Rectángulo_378114" data-name="Rectángulo 378114" width="54" height="107" transform="translate(731 882)" fill="#c3d7f5"/>
    <rect id="Rectángulo_378117" data-name="Rectángulo 378117" width="54" height="161" transform="translate(924 828)" fill="#c3d7f5"/>
    <rect id="Rectángulo_378120" data-name="Rectángulo 378120" width="54" height="268" transform="translate(1117 721)" fill="#c3d7f5"/>
    <rect id="Rectángulo_378110" data-name="Rectángulo 378110" width="54" height="126" transform="translate(484 863)" fill="#ffe7af"/>
    <rect id="Rectángulo_378111" data-name="Rectángulo 378111" width="54" height="107" transform="translate(538 882)" fill="#c3d7f5"/>
    <path id="Trazado_611158" data-name="Trazado 611158" d="M10.9-4.061A4.708,4.708,0,0,1,9.4-.927,4.911,4.911,0,0,1,6.047.176,4.509,4.509,0,0,1,2.413-1.45,6.542,6.542,0,0,1,1.046-5.8v-1.23a7.291,7.291,0,0,1,.637-3.138,4.76,4.76,0,0,1,1.806-2.079A5.029,5.029,0,0,1,6.2-12.973a4.624,4.624,0,0,1,3.27,1.138A4.765,4.765,0,0,1,10.9-8.684H9.2a3.677,3.677,0,0,0-.954-2.222A2.885,2.885,0,0,0,6.2-11.593a3.019,3.019,0,0,0-2.536,1.2,5.492,5.492,0,0,0-.918,3.4v1.24a5.645,5.645,0,0,0,.87,3.316A2.812,2.812,0,0,0,6.047-1.2,3.247,3.247,0,0,0,8.2-1.841a3.536,3.536,0,0,0,1-2.219ZM18.817,0a3.416,3.416,0,0,1-.229-1A3.628,3.628,0,0,1,15.882.176a3.357,3.357,0,0,1-2.307-.8,2.573,2.573,0,0,1-.9-2.017A2.688,2.688,0,0,1,13.8-4.944a5.325,5.325,0,0,1,3.177-.822h1.582v-.747a1.826,1.826,0,0,0-.51-1.358,2.049,2.049,0,0,0-1.5-.505,2.371,2.371,0,0,0-1.459.439A1.3,1.3,0,0,0,14.5-6.873H12.867a2.244,2.244,0,0,1,.505-1.375A3.449,3.449,0,0,1,14.744-9.3a4.613,4.613,0,0,1,1.9-.387,3.759,3.759,0,0,1,2.575.822A2.964,2.964,0,0,1,20.188-6.6v4.377a5.351,5.351,0,0,0,.334,2.083V0Zm-2.7-1.239a2.858,2.858,0,0,0,1.45-.4,2.392,2.392,0,0,0,.993-1.028V-4.614H17.288q-2.988,0-2.988,1.749a1.48,1.48,0,0,0,.51,1.2A1.959,1.959,0,0,0,16.119-1.239Zm8.824-10.573v2.3h1.775v1.257H24.943v5.9a1.32,1.32,0,0,0,.237.858,1,1,0,0,0,.809.286,3.937,3.937,0,0,0,.773-.105V0a4.742,4.742,0,0,1-1.248.175,2.025,2.025,0,0,1-1.644-.659,2.832,2.832,0,0,1-.554-1.872v-5.9H21.586V-9.51h1.731v-2.3ZM32.563.176a4.155,4.155,0,0,1-3.146-1.27,4.714,4.714,0,0,1-1.213-3.4v-.3a5.707,5.707,0,0,1,.541-2.527,4.217,4.217,0,0,1,1.512-1.74,3.8,3.8,0,0,1,2.1-.628,3.562,3.562,0,0,1,2.883,1.222,5.289,5.289,0,0,1,1.028,3.5v.677H29.83a3.38,3.38,0,0,0,.822,2.272,2.583,2.583,0,0,0,2,.866A2.832,2.832,0,0,0,34.11-1.5a3.666,3.666,0,0,0,1.046-.932l.993.773A3.993,3.993,0,0,1,32.563.176Zm-.2-8.525a2.169,2.169,0,0,0-1.652.716,3.482,3.482,0,0,0-.826,2.008h4.764v-.123a3.1,3.1,0,0,0-.668-1.92A2.042,2.042,0,0,0,32.361-8.35Zm5.405,3.516a5.589,5.589,0,0,1,1.028-3.538A3.289,3.289,0,0,1,41.52-9.686a3.271,3.271,0,0,1,2.716,1.23l.079-1.055H45.8V-.229a3.869,3.869,0,0,1-1.094,2.909,4.038,4.038,0,0,1-2.94,1.063A4.891,4.891,0,0,1,39.753,3.3a3.465,3.465,0,0,1-1.5-1.2l.844-.976a3.18,3.18,0,0,0,2.558,1.292,2.491,2.491,0,0,0,1.85-.668,2.553,2.553,0,0,0,.664-1.881V-.949A3.342,3.342,0,0,1,41.5.176a3.248,3.248,0,0,1-2.7-1.345A5.876,5.876,0,0,1,37.767-4.834Zm1.635.185a4.264,4.264,0,0,0,.659,2.527,2.142,2.142,0,0,0,1.846.918,2.382,2.382,0,0,0,2.259-1.4V-6.943a2.41,2.41,0,0,0-2.241-1.362,2.161,2.161,0,0,0-1.854.923A4.644,4.644,0,0,0,39.4-4.649Zm8.42-.193a5.617,5.617,0,0,1,.549-2.514A4.1,4.1,0,0,1,49.9-9.079a4.163,4.163,0,0,1,2.237-.606,4.01,4.01,0,0,1,3.142,1.345,5.174,5.174,0,0,1,1.2,3.577v.114a5.666,5.666,0,0,1-.532,2.492A4.038,4.038,0,0,1,54.426-.439a4.211,4.211,0,0,1-2.272.615,4,4,0,0,1-3.133-1.345,5.147,5.147,0,0,1-1.2-3.56Zm1.635.193a4.068,4.068,0,0,0,.734,2.54,2.349,2.349,0,0,0,1.964.958,2.335,2.335,0,0,0,1.969-.971,4.449,4.449,0,0,0,.729-2.72,4.061,4.061,0,0,0-.743-2.536,2.361,2.361,0,0,0-1.973-.971,2.335,2.335,0,0,0-1.942.958A4.416,4.416,0,0,0,49.456-4.649Zm13.658-3.4a4.873,4.873,0,0,0-.8-.062A2.143,2.143,0,0,0,60.144-6.75V0H58.518V-9.51H60.1l.026,1.1a2.532,2.532,0,0,1,2.268-1.274,1.661,1.661,0,0,1,.721.123ZM66.375,0H64.74V-9.51h1.635Zm.018-13.491h1.969l-2.355,2.584-1.31,0ZM74.927,0A3.416,3.416,0,0,1,74.7-1,3.628,3.628,0,0,1,71.991.176a3.357,3.357,0,0,1-2.307-.8,2.573,2.573,0,0,1-.9-2.017,2.688,2.688,0,0,1,1.129-2.307,5.325,5.325,0,0,1,3.177-.822h1.582v-.747a1.826,1.826,0,0,0-.51-1.358,2.049,2.049,0,0,0-1.5-.505,2.371,2.371,0,0,0-1.459.439,1.3,1.3,0,0,0-.589,1.063H68.977a2.244,2.244,0,0,1,.505-1.375A3.449,3.449,0,0,1,70.853-9.3a4.613,4.613,0,0,1,1.9-.387,3.759,3.759,0,0,1,2.575.822A2.964,2.964,0,0,1,76.3-6.6v4.377a5.351,5.351,0,0,0,.334,2.083V0Zm-2.7-1.239a2.858,2.858,0,0,0,1.45-.4,2.392,2.392,0,0,0,.993-1.028V-4.614H73.4q-2.988,0-2.988,1.749a1.48,1.48,0,0,0,.51,1.2A1.959,1.959,0,0,0,72.229-1.239ZM88.479,0H86.845V-10.837l-3.278,1.2v-1.477l4.658-1.749h.255Z" transform="translate(464 1025)" fill="#12263f"/>
    <path id="Trazado_611146" data-name="Trazado 611146" d="M7.928-4.3H9.7v1.327H7.928V0H6.293V-2.971H.466v-.958L6.2-12.8H7.928Zm-5.616,0H6.293v-6.275l-.193.352Zm8.974,6.847-.923-.633a4.241,4.241,0,0,0,.861-2.373V-1.925h1.591V-.65a4,4,0,0,1-.435,1.775A4.156,4.156,0,0,1,11.285,2.549Zm5.783-9.738H18.29A2.685,2.685,0,0,0,20.1-7.8a2.026,2.026,0,0,0,.659-1.591,1.985,1.985,0,0,0-2.241-2.25,2.331,2.331,0,0,0-1.683.6,2.107,2.107,0,0,0-.628,1.6H14.581a3.264,3.264,0,0,1,1.112-2.527,4.05,4.05,0,0,1,2.826-1.006,4,4,0,0,1,2.839.958,3.461,3.461,0,0,1,1.028,2.663,2.809,2.809,0,0,1-.541,1.617,3.264,3.264,0,0,1-1.472,1.169A3.145,3.145,0,0,1,22-5.458a3.076,3.076,0,0,1,.576,1.89A3.491,3.491,0,0,1,21.454-.835,4.213,4.213,0,0,1,18.527.176,4.324,4.324,0,0,1,15.6-.8a3.236,3.236,0,0,1-1.129-2.575H16.1a2.092,2.092,0,0,0,.659,1.617,2.507,2.507,0,0,0,1.767.606,2.46,2.46,0,0,0,1.8-.615,2.371,2.371,0,0,0,.624-1.767,2.151,2.151,0,0,0-.686-1.714,2.987,2.987,0,0,0-1.978-.615H17.068Z" transform="translate(445 789)" fill="#12263f"/>
    <path id="Trazado_611154" data-name="Trazado 611154" d="M9.448,0H1.063V-1.169l4.43-4.922A10.524,10.524,0,0,0,6.851-7.906a3.029,3.029,0,0,0,.374-1.446A2.3,2.3,0,0,0,6.618-11,2.12,2.12,0,0,0,5-11.637a2.511,2.511,0,0,0-1.885.69,2.635,2.635,0,0,0-.672,1.92H.817a3.774,3.774,0,0,1,1.138-2.856A4.219,4.219,0,0,1,5-12.973a4.054,4.054,0,0,1,2.821.936A3.193,3.193,0,0,1,8.859-9.545q0,1.89-2.408,4.5L3.023-1.327H9.448Zm1.837,2.549-.923-.633a4.241,4.241,0,0,0,.861-2.373V-1.925h1.591V-.65a4,4,0,0,1-.435,1.775A4.156,4.156,0,0,1,11.285,2.549Zm4.166-8.965L16.1-12.8h6.557v1.5H17.481L17.095-7.8a4.13,4.13,0,0,1,2.136-.554A3.531,3.531,0,0,1,22.008-7.2a4.53,4.53,0,0,1,1.028,3.125A4.372,4.372,0,0,1,21.968-.962,3.892,3.892,0,0,1,18.984.176a4.045,4.045,0,0,1-2.769-.94,3.754,3.754,0,0,1-1.222-2.6h1.538a2.582,2.582,0,0,0,.782,1.657,2.432,2.432,0,0,0,1.67.558,2.194,2.194,0,0,0,1.78-.773,3.233,3.233,0,0,0,.646-2.136,2.968,2.968,0,0,0-.7-2.061A2.377,2.377,0,0,0,18.853-6.9a2.681,2.681,0,0,0-1.67.466l-.431.352Z" transform="translate(638 884)" fill="#12263f"/>
    <path id="Trazado_611147" data-name="Trazado 611147" d="M7.928-4.3H9.7v1.327H7.928V0H6.293V-2.971H.466v-.958L6.2-12.8H7.928Zm-5.616,0H6.293v-6.275l-.193.352Zm8.974,6.847-.923-.633a4.241,4.241,0,0,0,.861-2.373V-1.925h1.591V-.65a4,4,0,0,1-.435,1.775A4.156,4.156,0,0,1,11.285,2.549ZM21.568-4.3h1.775v1.327H21.568V0H19.934V-2.971H14.106v-.958l5.73-8.868h1.731Zm-5.616,0h3.981v-6.275l-.193.352Z" transform="translate(692 786)" fill="#12263f"/>
    <path id="Trazado_611152" data-name="Trazado 611152" d="M3.428-7.189H4.649A2.685,2.685,0,0,0,6.46-7.8a2.026,2.026,0,0,0,.659-1.591,1.985,1.985,0,0,0-2.241-2.25,2.331,2.331,0,0,0-1.683.6,2.107,2.107,0,0,0-.628,1.6H.94a3.264,3.264,0,0,1,1.112-2.527,4.05,4.05,0,0,1,2.826-1.006,4,4,0,0,1,2.839.958A3.461,3.461,0,0,1,8.745-9.352,2.809,2.809,0,0,1,8.2-7.734,3.264,3.264,0,0,1,6.732-6.565a3.145,3.145,0,0,1,1.63,1.107,3.076,3.076,0,0,1,.576,1.89A3.491,3.491,0,0,1,7.813-.835,4.213,4.213,0,0,1,4.887.176,4.324,4.324,0,0,1,1.956-.8,3.236,3.236,0,0,1,.826-3.375H2.461A2.092,2.092,0,0,0,3.12-1.758a2.507,2.507,0,0,0,1.767.606,2.46,2.46,0,0,0,1.8-.615,2.371,2.371,0,0,0,.624-1.767,2.151,2.151,0,0,0-.686-1.714,2.987,2.987,0,0,0-1.978-.615H3.428Zm7.857,9.738-.923-.633a4.241,4.241,0,0,0,.861-2.373V-1.925h1.591V-.65a4,4,0,0,1-.435,1.775A4.156,4.156,0,0,1,11.285,2.549Zm4.166-8.965L16.1-12.8h6.557v1.5H17.481L17.095-7.8a4.13,4.13,0,0,1,2.136-.554A3.531,3.531,0,0,1,22.008-7.2a4.53,4.53,0,0,1,1.028,3.125A4.372,4.372,0,0,1,21.968-.962,3.892,3.892,0,0,1,18.984.176a4.045,4.045,0,0,1-2.769-.94,3.754,3.754,0,0,1-1.222-2.6h1.538a2.582,2.582,0,0,0,.782,1.657,2.432,2.432,0,0,0,1.67.558,2.194,2.194,0,0,0,1.78-.773,3.233,3.233,0,0,0,.646-2.136,2.968,2.968,0,0,0-.7-2.061A2.377,2.377,0,0,0,18.853-6.9a2.681,2.681,0,0,0-1.67.466l-.431.352Z" transform="translate(831 830)" fill="#12263f"/>
    <path id="Trazado_611148" data-name="Trazado 611148" d="M7.928-4.3H9.7v1.327H7.928V0H6.293V-2.971H.466v-.958L6.2-12.8H7.928Zm-5.616,0H6.293v-6.275l-.193.352Zm8.974,6.847-.923-.633a4.241,4.241,0,0,0,.861-2.373V-1.925h1.591V-.65a4,4,0,0,1-.435,1.775A4.156,4.156,0,0,1,11.285,2.549Zm4.166-8.965L16.1-12.8h6.557v1.5H17.481L17.095-7.8a4.13,4.13,0,0,1,2.136-.554A3.531,3.531,0,0,1,22.008-7.2a4.53,4.53,0,0,1,1.028,3.125A4.372,4.372,0,0,1,21.968-.962,3.892,3.892,0,0,1,18.984.176a4.045,4.045,0,0,1-2.769-.94,3.754,3.754,0,0,1-1.222-2.6h1.538a2.582,2.582,0,0,0,.782,1.657,2.432,2.432,0,0,0,1.67.558,2.194,2.194,0,0,0,1.78-.773,3.233,3.233,0,0,0,.646-2.136,2.968,2.968,0,0,0-.7-2.061A2.377,2.377,0,0,0,18.853-6.9a2.681,2.681,0,0,0-1.67.466l-.431.352Z" transform="translate(1024 776)" fill="#12263f"/>
    <path id="Trazado_611150" data-name="Trazado 611150" d="M9.448,0H1.063V-1.169l4.43-4.922A10.524,10.524,0,0,0,6.851-7.906a3.029,3.029,0,0,0,.374-1.446A2.3,2.3,0,0,0,6.618-11,2.12,2.12,0,0,0,5-11.637a2.511,2.511,0,0,0-1.885.69,2.635,2.635,0,0,0-.672,1.92H.817a3.774,3.774,0,0,1,1.138-2.856A4.219,4.219,0,0,1,5-12.973a4.054,4.054,0,0,1,2.821.936A3.193,3.193,0,0,1,8.859-9.545q0,1.89-2.408,4.5L3.023-1.327H9.448Zm1.837,2.549-.923-.633a4.241,4.241,0,0,0,.861-2.373V-1.925h1.591V-.65a4,4,0,0,1-.435,1.775A4.156,4.156,0,0,1,11.285,2.549ZM22.465-9.457a2.972,2.972,0,0,1-.505,1.705,3.439,3.439,0,0,1-1.367,1.169,3.668,3.668,0,0,1,1.586,1.257,3.163,3.163,0,0,1,.584,1.872A3.344,3.344,0,0,1,21.643-.809a4.305,4.305,0,0,1-2.949.984,4.286,4.286,0,0,1-2.958-.989,3.36,3.36,0,0,1-1.112-2.641,3.257,3.257,0,0,1,.567-1.872,3.528,3.528,0,0,1,1.569-1.266,3.354,3.354,0,0,1-1.345-1.169,3.014,3.014,0,0,1-.492-1.7,3.308,3.308,0,0,1,1.037-2.566,3.89,3.89,0,0,1,2.733-.949,3.894,3.894,0,0,1,2.729.949A3.3,3.3,0,0,1,22.465-9.457ZM21.138-3.489a2.359,2.359,0,0,0-.681-1.749,2.416,2.416,0,0,0-1.78-.677,2.373,2.373,0,0,0-1.762.668,2.385,2.385,0,0,0-.664,1.758A2.271,2.271,0,0,0,16.9-1.775a2.48,2.48,0,0,0,1.8.624,2.472,2.472,0,0,0,1.793-.628A2.266,2.266,0,0,0,21.138-3.489Zm-2.443-8.147a2.1,2.1,0,0,0-1.551.593,2.179,2.179,0,0,0-.593,1.613,2.169,2.169,0,0,0,.584,1.578,2.074,2.074,0,0,0,1.56.6,2.074,2.074,0,0,0,1.56-.6,2.169,2.169,0,0,0,.584-1.578,2.17,2.17,0,0,0-.606-1.591A2.068,2.068,0,0,0,18.694-11.637Z" transform="translate(1077 863)" fill="#12263f"/>
    <path id="Trazado_611149" data-name="Trazado 611149" d="M1.811-6.416l.65-6.381H9.018v1.5H3.841L3.454-7.8A4.13,4.13,0,0,1,5.59-8.358,3.531,3.531,0,0,1,8.367-7.2,4.53,4.53,0,0,1,9.4-4.078,4.372,4.372,0,0,1,8.328-.962,3.892,3.892,0,0,1,5.344.176a4.045,4.045,0,0,1-2.769-.94,3.754,3.754,0,0,1-1.222-2.6H2.892a2.582,2.582,0,0,0,.782,1.657,2.432,2.432,0,0,0,1.67.558,2.194,2.194,0,0,0,1.78-.773A3.233,3.233,0,0,0,7.77-4.061a2.968,2.968,0,0,0-.7-2.061A2.377,2.377,0,0,0,5.212-6.9a2.681,2.681,0,0,0-1.67.466l-.431.352Z" transform="translate(1139 750)" fill="#12263f"/>
    <path id="Trazado_611157" data-name="Trazado 611157" d="M6.407,0H4.772V-10.837l-3.278,1.2v-1.477l4.658-1.749h.255Zm4.878,2.549-.923-.633a4.241,4.241,0,0,0,.861-2.373V-1.925h1.591V-.65a4,4,0,0,1-.435,1.775A4.156,4.156,0,0,1,11.285,2.549ZM22.465-9.457a2.972,2.972,0,0,1-.505,1.705,3.439,3.439,0,0,1-1.367,1.169,3.668,3.668,0,0,1,1.586,1.257,3.163,3.163,0,0,1,.584,1.872A3.344,3.344,0,0,1,21.643-.809a4.305,4.305,0,0,1-2.949.984,4.286,4.286,0,0,1-2.958-.989,3.36,3.36,0,0,1-1.112-2.641,3.257,3.257,0,0,1,.567-1.872,3.528,3.528,0,0,1,1.569-1.266,3.354,3.354,0,0,1-1.345-1.169,3.014,3.014,0,0,1-.492-1.7,3.308,3.308,0,0,1,1.037-2.566,3.89,3.89,0,0,1,2.733-.949,3.894,3.894,0,0,1,2.729.949A3.3,3.3,0,0,1,22.465-9.457ZM21.138-3.489a2.359,2.359,0,0,0-.681-1.749,2.416,2.416,0,0,0-1.78-.677,2.373,2.373,0,0,0-1.762.668,2.385,2.385,0,0,0-.664,1.758A2.271,2.271,0,0,0,16.9-1.775a2.48,2.48,0,0,0,1.8.624,2.472,2.472,0,0,0,1.793-.628A2.266,2.266,0,0,0,21.138-3.489Zm-2.443-8.147a2.1,2.1,0,0,0-1.551.593,2.179,2.179,0,0,0-.593,1.613,2.169,2.169,0,0,0,.584,1.578,2.074,2.074,0,0,0,1.56.6,2.074,2.074,0,0,0,1.56-.6,2.169,2.169,0,0,0,.584-1.578,2.17,2.17,0,0,0-.606-1.591A2.068,2.068,0,0,0,18.694-11.637Z" transform="translate(885 918)" fill="#12263f"/>
    <path id="Trazado_611151" data-name="Trazado 611151" d="M3.428-7.189H4.649A2.685,2.685,0,0,0,6.46-7.8a2.026,2.026,0,0,0,.659-1.591,1.985,1.985,0,0,0-2.241-2.25,2.331,2.331,0,0,0-1.683.6,2.107,2.107,0,0,0-.628,1.6H.94a3.264,3.264,0,0,1,1.112-2.527,4.05,4.05,0,0,1,2.826-1.006,4,4,0,0,1,2.839.958A3.461,3.461,0,0,1,8.745-9.352,2.809,2.809,0,0,1,8.2-7.734,3.264,3.264,0,0,1,6.732-6.565a3.145,3.145,0,0,1,1.63,1.107,3.076,3.076,0,0,1,.576,1.89A3.491,3.491,0,0,1,7.813-.835,4.213,4.213,0,0,1,4.887.176,4.324,4.324,0,0,1,1.956-.8,3.236,3.236,0,0,1,.826-3.375H2.461A2.092,2.092,0,0,0,3.12-1.758a2.507,2.507,0,0,0,1.767.606,2.46,2.46,0,0,0,1.8-.615,2.371,2.371,0,0,0,.624-1.767,2.151,2.151,0,0,0-.686-1.714,2.987,2.987,0,0,0-1.978-.615H3.428Z" transform="translate(946 857)" fill="#12263f"/>
    <path id="Trazado_611156" data-name="Trazado 611156" d="M9.448,0H1.063V-1.169l4.43-4.922A10.524,10.524,0,0,0,6.851-7.906a3.029,3.029,0,0,0,.374-1.446A2.3,2.3,0,0,0,6.618-11,2.12,2.12,0,0,0,5-11.637a2.511,2.511,0,0,0-1.885.69,2.635,2.635,0,0,0-.672,1.92H.817a3.774,3.774,0,0,1,1.138-2.856A4.219,4.219,0,0,1,5-12.973a4.054,4.054,0,0,1,2.821.936A3.193,3.193,0,0,1,8.859-9.545q0,1.89-2.408,4.5L3.023-1.327H9.448Z" transform="translate(753 911)" fill="#12263f"/>
    <path id="Trazado_611153" data-name="Trazado 611153" d="M9.448,0H1.063V-1.169l4.43-4.922A10.524,10.524,0,0,0,6.851-7.906a3.029,3.029,0,0,0,.374-1.446A2.3,2.3,0,0,0,6.618-11,2.12,2.12,0,0,0,5-11.637a2.511,2.511,0,0,0-1.885.69,2.635,2.635,0,0,0-.672,1.92H.817a3.774,3.774,0,0,1,1.138-2.856A4.219,4.219,0,0,1,5-12.973a4.054,4.054,0,0,1,2.821.936A3.193,3.193,0,0,1,8.859-9.545q0,1.89-2.408,4.5L3.023-1.327H9.448Zm1.837,2.549-.923-.633a4.241,4.241,0,0,0,.861-2.373V-1.925h1.591V-.65a4,4,0,0,1-.435,1.775A4.156,4.156,0,0,1,11.285,2.549ZM21.568-4.3h1.775v1.327H21.568V0H19.934V-2.971H14.106v-.958l5.73-8.868h1.731Zm-5.616,0h3.981v-6.275l-.193.352Z" transform="translate(499 892)" fill="#12263f"/>
    <path id="Trazado_611155" data-name="Trazado 611155" d="M9.448,0H1.063V-1.169l4.43-4.922A10.524,10.524,0,0,0,6.851-7.906a3.029,3.029,0,0,0,.374-1.446A2.3,2.3,0,0,0,6.618-11,2.12,2.12,0,0,0,5-11.637a2.511,2.511,0,0,0-1.885.69,2.635,2.635,0,0,0-.672,1.92H.817a3.774,3.774,0,0,1,1.138-2.856A4.219,4.219,0,0,1,5-12.973a4.054,4.054,0,0,1,2.821.936A3.193,3.193,0,0,1,8.859-9.545q0,1.89-2.408,4.5L3.023-1.327H9.448Z" transform="translate(560 914)" fill="#12263f"/>
    <path id="Trazado_611160" data-name="Trazado 611160" d="M10.9-4.061A4.708,4.708,0,0,1,9.4-.927,4.911,4.911,0,0,1,6.047.176,4.509,4.509,0,0,1,2.413-1.45,6.542,6.542,0,0,1,1.046-5.8v-1.23a7.291,7.291,0,0,1,.637-3.138,4.76,4.76,0,0,1,1.806-2.079A5.029,5.029,0,0,1,6.2-12.973a4.624,4.624,0,0,1,3.27,1.138A4.765,4.765,0,0,1,10.9-8.684H9.2a3.677,3.677,0,0,0-.954-2.222A2.885,2.885,0,0,0,6.2-11.593a3.019,3.019,0,0,0-2.536,1.2,5.492,5.492,0,0,0-.918,3.4v1.24a5.645,5.645,0,0,0,.87,3.316A2.812,2.812,0,0,0,6.047-1.2,3.247,3.247,0,0,0,8.2-1.841a3.536,3.536,0,0,0,1-2.219ZM18.817,0a3.416,3.416,0,0,1-.229-1A3.628,3.628,0,0,1,15.882.176a3.357,3.357,0,0,1-2.307-.8,2.573,2.573,0,0,1-.9-2.017A2.688,2.688,0,0,1,13.8-4.944a5.325,5.325,0,0,1,3.177-.822h1.582v-.747a1.826,1.826,0,0,0-.51-1.358,2.049,2.049,0,0,0-1.5-.505,2.371,2.371,0,0,0-1.459.439A1.3,1.3,0,0,0,14.5-6.873H12.867a2.244,2.244,0,0,1,.505-1.375A3.449,3.449,0,0,1,14.744-9.3a4.613,4.613,0,0,1,1.9-.387,3.759,3.759,0,0,1,2.575.822A2.964,2.964,0,0,1,20.188-6.6v4.377a5.351,5.351,0,0,0,.334,2.083V0Zm-2.7-1.239a2.858,2.858,0,0,0,1.45-.4,2.392,2.392,0,0,0,.993-1.028V-4.614H17.288q-2.988,0-2.988,1.749a1.48,1.48,0,0,0,.51,1.2A1.959,1.959,0,0,0,16.119-1.239Zm8.824-10.573v2.3h1.775v1.257H24.943v5.9a1.32,1.32,0,0,0,.237.858,1,1,0,0,0,.809.286,3.937,3.937,0,0,0,.773-.105V0a4.742,4.742,0,0,1-1.248.175,2.025,2.025,0,0,1-1.644-.659,2.832,2.832,0,0,1-.554-1.872v-5.9H21.586V-9.51h1.731v-2.3ZM32.563.176a4.155,4.155,0,0,1-3.146-1.27,4.714,4.714,0,0,1-1.213-3.4v-.3a5.707,5.707,0,0,1,.541-2.527,4.217,4.217,0,0,1,1.512-1.74,3.8,3.8,0,0,1,2.1-.628,3.562,3.562,0,0,1,2.883,1.222,5.289,5.289,0,0,1,1.028,3.5v.677H29.83a3.38,3.38,0,0,0,.822,2.272,2.583,2.583,0,0,0,2,.866A2.832,2.832,0,0,0,34.11-1.5a3.666,3.666,0,0,0,1.046-.932l.993.773A3.993,3.993,0,0,1,32.563.176Zm-.2-8.525a2.169,2.169,0,0,0-1.652.716,3.482,3.482,0,0,0-.826,2.008h4.764v-.123a3.1,3.1,0,0,0-.668-1.92A2.042,2.042,0,0,0,32.361-8.35Zm5.405,3.516a5.589,5.589,0,0,1,1.028-3.538A3.289,3.289,0,0,1,41.52-9.686a3.271,3.271,0,0,1,2.716,1.23l.079-1.055H45.8V-.229a3.869,3.869,0,0,1-1.094,2.909,4.038,4.038,0,0,1-2.94,1.063A4.891,4.891,0,0,1,39.753,3.3a3.465,3.465,0,0,1-1.5-1.2l.844-.976a3.18,3.18,0,0,0,2.558,1.292,2.491,2.491,0,0,0,1.85-.668,2.553,2.553,0,0,0,.664-1.881V-.949A3.342,3.342,0,0,1,41.5.176a3.248,3.248,0,0,1-2.7-1.345A5.876,5.876,0,0,1,37.767-4.834Zm1.635.185a4.264,4.264,0,0,0,.659,2.527,2.142,2.142,0,0,0,1.846.918,2.382,2.382,0,0,0,2.259-1.4V-6.943a2.41,2.41,0,0,0-2.241-1.362,2.161,2.161,0,0,0-1.854.923A4.644,4.644,0,0,0,39.4-4.649Zm8.42-.193a5.617,5.617,0,0,1,.549-2.514A4.1,4.1,0,0,1,49.9-9.079a4.163,4.163,0,0,1,2.237-.606,4.01,4.01,0,0,1,3.142,1.345,5.174,5.174,0,0,1,1.2,3.577v.114a5.666,5.666,0,0,1-.532,2.492A4.038,4.038,0,0,1,54.426-.439a4.211,4.211,0,0,1-2.272.615,4,4,0,0,1-3.133-1.345,5.147,5.147,0,0,1-1.2-3.56Zm1.635.193a4.068,4.068,0,0,0,.734,2.54,2.349,2.349,0,0,0,1.964.958,2.335,2.335,0,0,0,1.969-.971,4.449,4.449,0,0,0,.729-2.72,4.061,4.061,0,0,0-.743-2.536,2.361,2.361,0,0,0-1.973-.971,2.335,2.335,0,0,0-1.942.958A4.416,4.416,0,0,0,49.456-4.649Zm13.658-3.4a4.873,4.873,0,0,0-.8-.062A2.143,2.143,0,0,0,60.144-6.75V0H58.518V-9.51H60.1l.026,1.1a2.532,2.532,0,0,1,2.268-1.274,1.661,1.661,0,0,1,.721.123ZM66.375,0H64.74V-9.51h1.635Zm.018-13.491h1.969l-2.355,2.584-1.31,0ZM74.927,0A3.416,3.416,0,0,1,74.7-1,3.628,3.628,0,0,1,71.991.176a3.357,3.357,0,0,1-2.307-.8,2.573,2.573,0,0,1-.9-2.017,2.688,2.688,0,0,1,1.129-2.307,5.325,5.325,0,0,1,3.177-.822h1.582v-.747a1.826,1.826,0,0,0-.51-1.358,2.049,2.049,0,0,0-1.5-.505,2.371,2.371,0,0,0-1.459.439,1.3,1.3,0,0,0-.589,1.063H68.977a2.244,2.244,0,0,1,.505-1.375A3.449,3.449,0,0,1,70.853-9.3a4.613,4.613,0,0,1,1.9-.387,3.759,3.759,0,0,1,2.575.822A2.964,2.964,0,0,1,76.3-6.6v4.377a5.351,5.351,0,0,0,.334,2.083V0Zm-2.7-1.239a2.858,2.858,0,0,0,1.45-.4,2.392,2.392,0,0,0,.993-1.028V-4.614H73.4q-2.988,0-2.988,1.749a1.48,1.48,0,0,0,.51,1.2A1.959,1.959,0,0,0,72.229-1.239ZM85.5-7.189h1.222A2.685,2.685,0,0,0,88.532-7.8a2.026,2.026,0,0,0,.659-1.591,1.985,1.985,0,0,0-2.241-2.25,2.331,2.331,0,0,0-1.683.6,2.107,2.107,0,0,0-.628,1.6H83.013a3.264,3.264,0,0,1,1.112-2.527,4.05,4.05,0,0,1,2.826-1.006,4,4,0,0,1,2.839.958,3.461,3.461,0,0,1,1.028,2.663,2.809,2.809,0,0,1-.541,1.617A3.264,3.264,0,0,1,88.8-6.565a3.145,3.145,0,0,1,1.63,1.107,3.076,3.076,0,0,1,.576,1.89A3.491,3.491,0,0,1,89.886-.835,4.213,4.213,0,0,1,86.959.176,4.324,4.324,0,0,1,84.028-.8,3.236,3.236,0,0,1,82.9-3.375h1.635a2.092,2.092,0,0,0,.659,1.617,2.507,2.507,0,0,0,1.767.606,2.46,2.46,0,0,0,1.8-.615,2.371,2.371,0,0,0,.624-1.767A2.151,2.151,0,0,0,88.7-5.247a2.987,2.987,0,0,0-1.978-.615H85.5Z" transform="translate(850 1025)" fill="#12263f"/>
    <path id="Trazado_611161" data-name="Trazado 611161" d="M10.9-4.061A4.708,4.708,0,0,1,9.4-.927,4.911,4.911,0,0,1,6.047.176,4.509,4.509,0,0,1,2.413-1.45,6.542,6.542,0,0,1,1.046-5.8v-1.23a7.291,7.291,0,0,1,.637-3.138,4.76,4.76,0,0,1,1.806-2.079A5.029,5.029,0,0,1,6.2-12.973a4.624,4.624,0,0,1,3.27,1.138A4.765,4.765,0,0,1,10.9-8.684H9.2a3.677,3.677,0,0,0-.954-2.222A2.885,2.885,0,0,0,6.2-11.593a3.019,3.019,0,0,0-2.536,1.2,5.492,5.492,0,0,0-.918,3.4v1.24a5.645,5.645,0,0,0,.87,3.316A2.812,2.812,0,0,0,6.047-1.2,3.247,3.247,0,0,0,8.2-1.841a3.536,3.536,0,0,0,1-2.219ZM18.817,0a3.416,3.416,0,0,1-.229-1A3.628,3.628,0,0,1,15.882.176a3.357,3.357,0,0,1-2.307-.8,2.573,2.573,0,0,1-.9-2.017A2.688,2.688,0,0,1,13.8-4.944a5.325,5.325,0,0,1,3.177-.822h1.582v-.747a1.826,1.826,0,0,0-.51-1.358,2.049,2.049,0,0,0-1.5-.505,2.371,2.371,0,0,0-1.459.439A1.3,1.3,0,0,0,14.5-6.873H12.867a2.244,2.244,0,0,1,.505-1.375A3.449,3.449,0,0,1,14.744-9.3a4.613,4.613,0,0,1,1.9-.387,3.759,3.759,0,0,1,2.575.822A2.964,2.964,0,0,1,20.188-6.6v4.377a5.351,5.351,0,0,0,.334,2.083V0Zm-2.7-1.239a2.858,2.858,0,0,0,1.45-.4,2.392,2.392,0,0,0,.993-1.028V-4.614H17.288q-2.988,0-2.988,1.749a1.48,1.48,0,0,0,.51,1.2A1.959,1.959,0,0,0,16.119-1.239Zm8.824-10.573v2.3h1.775v1.257H24.943v5.9a1.32,1.32,0,0,0,.237.858,1,1,0,0,0,.809.286,3.937,3.937,0,0,0,.773-.105V0a4.742,4.742,0,0,1-1.248.175,2.025,2.025,0,0,1-1.644-.659,2.832,2.832,0,0,1-.554-1.872v-5.9H21.586V-9.51h1.731v-2.3ZM32.563.176a4.155,4.155,0,0,1-3.146-1.27,4.714,4.714,0,0,1-1.213-3.4v-.3a5.707,5.707,0,0,1,.541-2.527,4.217,4.217,0,0,1,1.512-1.74,3.8,3.8,0,0,1,2.1-.628,3.562,3.562,0,0,1,2.883,1.222,5.289,5.289,0,0,1,1.028,3.5v.677H29.83a3.38,3.38,0,0,0,.822,2.272,2.583,2.583,0,0,0,2,.866A2.832,2.832,0,0,0,34.11-1.5a3.666,3.666,0,0,0,1.046-.932l.993.773A3.993,3.993,0,0,1,32.563.176Zm-.2-8.525a2.169,2.169,0,0,0-1.652.716,3.482,3.482,0,0,0-.826,2.008h4.764v-.123a3.1,3.1,0,0,0-.668-1.92A2.042,2.042,0,0,0,32.361-8.35Zm5.405,3.516a5.589,5.589,0,0,1,1.028-3.538A3.289,3.289,0,0,1,41.52-9.686a3.271,3.271,0,0,1,2.716,1.23l.079-1.055H45.8V-.229a3.869,3.869,0,0,1-1.094,2.909,4.038,4.038,0,0,1-2.94,1.063A4.891,4.891,0,0,1,39.753,3.3a3.465,3.465,0,0,1-1.5-1.2l.844-.976a3.18,3.18,0,0,0,2.558,1.292,2.491,2.491,0,0,0,1.85-.668,2.553,2.553,0,0,0,.664-1.881V-.949A3.342,3.342,0,0,1,41.5.176a3.248,3.248,0,0,1-2.7-1.345A5.876,5.876,0,0,1,37.767-4.834Zm1.635.185a4.264,4.264,0,0,0,.659,2.527,2.142,2.142,0,0,0,1.846.918,2.382,2.382,0,0,0,2.259-1.4V-6.943a2.41,2.41,0,0,0-2.241-1.362,2.161,2.161,0,0,0-1.854.923A4.644,4.644,0,0,0,39.4-4.649Zm8.42-.193a5.617,5.617,0,0,1,.549-2.514A4.1,4.1,0,0,1,49.9-9.079a4.163,4.163,0,0,1,2.237-.606,4.01,4.01,0,0,1,3.142,1.345,5.174,5.174,0,0,1,1.2,3.577v.114a5.666,5.666,0,0,1-.532,2.492A4.038,4.038,0,0,1,54.426-.439a4.211,4.211,0,0,1-2.272.615,4,4,0,0,1-3.133-1.345,5.147,5.147,0,0,1-1.2-3.56Zm1.635.193a4.068,4.068,0,0,0,.734,2.54,2.349,2.349,0,0,0,1.964.958,2.335,2.335,0,0,0,1.969-.971,4.449,4.449,0,0,0,.729-2.72,4.061,4.061,0,0,0-.743-2.536,2.361,2.361,0,0,0-1.973-.971,2.335,2.335,0,0,0-1.942.958A4.416,4.416,0,0,0,49.456-4.649Zm13.658-3.4a4.873,4.873,0,0,0-.8-.062A2.143,2.143,0,0,0,60.144-6.75V0H58.518V-9.51H60.1l.026,1.1a2.532,2.532,0,0,1,2.268-1.274,1.661,1.661,0,0,1,.721.123ZM66.375,0H64.74V-9.51h1.635Zm.018-13.491h1.969l-2.355,2.584-1.31,0ZM74.927,0A3.416,3.416,0,0,1,74.7-1,3.628,3.628,0,0,1,71.991.176a3.357,3.357,0,0,1-2.307-.8,2.573,2.573,0,0,1-.9-2.017,2.688,2.688,0,0,1,1.129-2.307,5.325,5.325,0,0,1,3.177-.822h1.582v-.747a1.826,1.826,0,0,0-.51-1.358,2.049,2.049,0,0,0-1.5-.505,2.371,2.371,0,0,0-1.459.439,1.3,1.3,0,0,0-.589,1.063H68.977a2.244,2.244,0,0,1,.505-1.375A3.449,3.449,0,0,1,70.853-9.3a4.613,4.613,0,0,1,1.9-.387,3.759,3.759,0,0,1,2.575.822A2.964,2.964,0,0,1,76.3-6.6v4.377a5.351,5.351,0,0,0,.334,2.083V0Zm-2.7-1.239a2.858,2.858,0,0,0,1.45-.4,2.392,2.392,0,0,0,.993-1.028V-4.614H73.4q-2.988,0-2.988,1.749a1.48,1.48,0,0,0,.51,1.2A1.959,1.959,0,0,0,72.229-1.239ZM90-4.3h1.775v1.327H90V0H88.365V-2.971H82.538v-.958l5.73-8.868H90Zm-5.616,0h3.981v-6.275l-.193.352Z" transform="translate(1043 1025)" fill="#12263f"/>
    <path id="Trazado_611159" data-name="Trazado 611159" d="M10.9-4.061A4.708,4.708,0,0,1,9.4-.927,4.911,4.911,0,0,1,6.047.176,4.509,4.509,0,0,1,2.413-1.45,6.542,6.542,0,0,1,1.046-5.8v-1.23a7.291,7.291,0,0,1,.637-3.138,4.76,4.76,0,0,1,1.806-2.079A5.029,5.029,0,0,1,6.2-12.973a4.624,4.624,0,0,1,3.27,1.138A4.765,4.765,0,0,1,10.9-8.684H9.2a3.677,3.677,0,0,0-.954-2.222A2.885,2.885,0,0,0,6.2-11.593a3.019,3.019,0,0,0-2.536,1.2,5.492,5.492,0,0,0-.918,3.4v1.24a5.645,5.645,0,0,0,.87,3.316A2.812,2.812,0,0,0,6.047-1.2,3.247,3.247,0,0,0,8.2-1.841a3.536,3.536,0,0,0,1-2.219ZM18.817,0a3.416,3.416,0,0,1-.229-1A3.628,3.628,0,0,1,15.882.176a3.357,3.357,0,0,1-2.307-.8,2.573,2.573,0,0,1-.9-2.017A2.688,2.688,0,0,1,13.8-4.944a5.325,5.325,0,0,1,3.177-.822h1.582v-.747a1.826,1.826,0,0,0-.51-1.358,2.049,2.049,0,0,0-1.5-.505,2.371,2.371,0,0,0-1.459.439A1.3,1.3,0,0,0,14.5-6.873H12.867a2.244,2.244,0,0,1,.505-1.375A3.449,3.449,0,0,1,14.744-9.3a4.613,4.613,0,0,1,1.9-.387,3.759,3.759,0,0,1,2.575.822A2.964,2.964,0,0,1,20.188-6.6v4.377a5.351,5.351,0,0,0,.334,2.083V0Zm-2.7-1.239a2.858,2.858,0,0,0,1.45-.4,2.392,2.392,0,0,0,.993-1.028V-4.614H17.288q-2.988,0-2.988,1.749a1.48,1.48,0,0,0,.51,1.2A1.959,1.959,0,0,0,16.119-1.239Zm8.824-10.573v2.3h1.775v1.257H24.943v5.9a1.32,1.32,0,0,0,.237.858,1,1,0,0,0,.809.286,3.937,3.937,0,0,0,.773-.105V0a4.742,4.742,0,0,1-1.248.175,2.025,2.025,0,0,1-1.644-.659,2.832,2.832,0,0,1-.554-1.872v-5.9H21.586V-9.51h1.731v-2.3ZM32.563.176a4.155,4.155,0,0,1-3.146-1.27,4.714,4.714,0,0,1-1.213-3.4v-.3a5.707,5.707,0,0,1,.541-2.527,4.217,4.217,0,0,1,1.512-1.74,3.8,3.8,0,0,1,2.1-.628,3.562,3.562,0,0,1,2.883,1.222,5.289,5.289,0,0,1,1.028,3.5v.677H29.83a3.38,3.38,0,0,0,.822,2.272,2.583,2.583,0,0,0,2,.866A2.832,2.832,0,0,0,34.11-1.5a3.666,3.666,0,0,0,1.046-.932l.993.773A3.993,3.993,0,0,1,32.563.176Zm-.2-8.525a2.169,2.169,0,0,0-1.652.716,3.482,3.482,0,0,0-.826,2.008h4.764v-.123a3.1,3.1,0,0,0-.668-1.92A2.042,2.042,0,0,0,32.361-8.35Zm5.405,3.516a5.589,5.589,0,0,1,1.028-3.538A3.289,3.289,0,0,1,41.52-9.686a3.271,3.271,0,0,1,2.716,1.23l.079-1.055H45.8V-.229a3.869,3.869,0,0,1-1.094,2.909,4.038,4.038,0,0,1-2.94,1.063A4.891,4.891,0,0,1,39.753,3.3a3.465,3.465,0,0,1-1.5-1.2l.844-.976a3.18,3.18,0,0,0,2.558,1.292,2.491,2.491,0,0,0,1.85-.668,2.553,2.553,0,0,0,.664-1.881V-.949A3.342,3.342,0,0,1,41.5.176a3.248,3.248,0,0,1-2.7-1.345A5.876,5.876,0,0,1,37.767-4.834Zm1.635.185a4.264,4.264,0,0,0,.659,2.527,2.142,2.142,0,0,0,1.846.918,2.382,2.382,0,0,0,2.259-1.4V-6.943a2.41,2.41,0,0,0-2.241-1.362,2.161,2.161,0,0,0-1.854.923A4.644,4.644,0,0,0,39.4-4.649Zm8.42-.193a5.617,5.617,0,0,1,.549-2.514A4.1,4.1,0,0,1,49.9-9.079a4.163,4.163,0,0,1,2.237-.606,4.01,4.01,0,0,1,3.142,1.345,5.174,5.174,0,0,1,1.2,3.577v.114a5.666,5.666,0,0,1-.532,2.492A4.038,4.038,0,0,1,54.426-.439a4.211,4.211,0,0,1-2.272.615,4,4,0,0,1-3.133-1.345,5.147,5.147,0,0,1-1.2-3.56Zm1.635.193a4.068,4.068,0,0,0,.734,2.54,2.349,2.349,0,0,0,1.964.958,2.335,2.335,0,0,0,1.969-.971,4.449,4.449,0,0,0,.729-2.72,4.061,4.061,0,0,0-.743-2.536,2.361,2.361,0,0,0-1.973-.971,2.335,2.335,0,0,0-1.942.958A4.416,4.416,0,0,0,49.456-4.649Zm13.658-3.4a4.873,4.873,0,0,0-.8-.062A2.143,2.143,0,0,0,60.144-6.75V0H58.518V-9.51H60.1l.026,1.1a2.532,2.532,0,0,1,2.268-1.274,1.661,1.661,0,0,1,.721.123ZM66.375,0H64.74V-9.51h1.635Zm.018-13.491h1.969l-2.355,2.584-1.31,0ZM74.927,0A3.416,3.416,0,0,1,74.7-1,3.628,3.628,0,0,1,71.991.176a3.357,3.357,0,0,1-2.307-.8,2.573,2.573,0,0,1-.9-2.017,2.688,2.688,0,0,1,1.129-2.307,5.325,5.325,0,0,1,3.177-.822h1.582v-.747a1.826,1.826,0,0,0-.51-1.358,2.049,2.049,0,0,0-1.5-.505,2.371,2.371,0,0,0-1.459.439,1.3,1.3,0,0,0-.589,1.063H68.977a2.244,2.244,0,0,1,.505-1.375A3.449,3.449,0,0,1,70.853-9.3a4.613,4.613,0,0,1,1.9-.387,3.759,3.759,0,0,1,2.575.822A2.964,2.964,0,0,1,76.3-6.6v4.377a5.351,5.351,0,0,0,.334,2.083V0Zm-2.7-1.239a2.858,2.858,0,0,0,1.45-.4,2.392,2.392,0,0,0,.993-1.028V-4.614H73.4q-2.988,0-2.988,1.749a1.48,1.48,0,0,0,.51,1.2A1.959,1.959,0,0,0,72.229-1.239ZM91.521,0H83.136V-1.169l4.43-4.922a10.524,10.524,0,0,0,1.358-1.815A3.029,3.029,0,0,0,89.3-9.352,2.3,2.3,0,0,0,88.69-11a2.12,2.12,0,0,0-1.617-.642,2.511,2.511,0,0,0-1.885.69,2.635,2.635,0,0,0-.672,1.92H82.89a3.774,3.774,0,0,1,1.138-2.856,4.219,4.219,0,0,1,3.045-1.09,4.054,4.054,0,0,1,2.821.936,3.193,3.193,0,0,1,1.037,2.492q0,1.89-2.408,4.5L85.1-1.327h6.425Z" transform="translate(657 1025)" fill="#12263f"/>
    <rect id="Rectángulo_378122" data-name="Rectángulo 378122" width="400" height="50" rx="19" transform="translate(600 1047)" fill="#fff"/>
    <g id="Grupo_1072657" data-name="Grupo 1072657" transform="translate(24 -23)">
      <path id="Trazado_611164" data-name="Trazado 611164" d="M5.256-5.7A7.935,7.935,0,0,1,2.1-7.238a2.93,2.93,0,0,1-.989-2.246,3.1,3.1,0,0,1,1.208-2.5,4.8,4.8,0,0,1,3.142-.989,5.243,5.243,0,0,1,2.351.51,3.866,3.866,0,0,1,1.6,1.406A3.6,3.6,0,0,1,9.976-9.1h-1.7a2.34,2.34,0,0,0-.738-1.83,3,3,0,0,0-2.083-.666,3.074,3.074,0,0,0-1.947.55,1.836,1.836,0,0,0-.7,1.528A1.652,1.652,0,0,0,3.476-8.19,6.509,6.509,0,0,0,5.735-7.2a10.481,10.481,0,0,1,2.5.99A3.788,3.788,0,0,1,9.567-4.948,3.219,3.219,0,0,1,10-3.252,2.99,2.99,0,0,1,8.789-.76,5.171,5.171,0,0,1,5.546.176,6.015,6.015,0,0,1,3.085-.33,4.142,4.142,0,0,1,1.323-1.714a3.378,3.378,0,0,1-.62-2H2.4a2.2,2.2,0,0,0,.857,1.833,3.608,3.608,0,0,0,2.29.672,3.317,3.317,0,0,0,2.048-.545,1.77,1.77,0,0,0,.712-1.485,1.738,1.738,0,0,0-.659-1.455A7.6,7.6,0,0,0,5.256-5.7Zm10.6,5.88a4.155,4.155,0,0,1-3.146-1.27,4.714,4.714,0,0,1-1.213-3.4v-.3a5.707,5.707,0,0,1,.541-2.527,4.217,4.217,0,0,1,1.512-1.74,3.8,3.8,0,0,1,2.1-.628,3.562,3.562,0,0,1,2.883,1.222,5.289,5.289,0,0,1,1.028,3.5v.677H13.122a3.38,3.38,0,0,0,.822,2.272,2.583,2.583,0,0,0,2,.866A2.832,2.832,0,0,0,17.4-1.5a3.666,3.666,0,0,0,1.046-.932l.993.773A3.993,3.993,0,0,1,15.855.176Zm-.2-8.525A2.169,2.169,0,0,0,14-7.633a3.482,3.482,0,0,0-.826,2.008h4.764v-.123a3.1,3.1,0,0,0-.668-1.92A2.042,2.042,0,0,0,15.653-8.35Zm10.389.3a4.873,4.873,0,0,0-.8-.062A2.143,2.143,0,0,0,23.071-6.75V0H21.445V-9.51h1.582l.026,1.1a2.532,2.532,0,0,1,2.268-1.274,1.661,1.661,0,0,1,.721.123ZM29.3,0H27.677V-9.51H29.3ZM27.545-12.032a.971.971,0,0,1,.242-.668.907.907,0,0,1,.716-.272.922.922,0,0,1,.721.272.96.96,0,0,1,.246.668.929.929,0,0,1-.246.659.938.938,0,0,1-.721.264.924.924,0,0,1-.716-.264A.938.938,0,0,1,27.545-12.032ZM35.851.176A4.155,4.155,0,0,1,32.7-1.094a4.714,4.714,0,0,1-1.213-3.4v-.3a5.707,5.707,0,0,1,.541-2.527,4.217,4.217,0,0,1,1.512-1.74,3.8,3.8,0,0,1,2.1-.628,3.562,3.562,0,0,1,2.883,1.222,5.289,5.289,0,0,1,1.028,3.5v.677H33.117a3.38,3.38,0,0,0,.822,2.272,2.583,2.583,0,0,0,2,.866A2.832,2.832,0,0,0,37.4-1.5a3.666,3.666,0,0,0,1.046-.932l.993.773A3.993,3.993,0,0,1,35.851.176Zm-.2-8.525A2.169,2.169,0,0,0,34-7.633a3.482,3.482,0,0,0-.826,2.008h4.764v-.123a3.1,3.1,0,0,0-.668-1.92A2.042,2.042,0,0,0,35.648-8.35ZM51.073,0H49.438V-10.837l-3.278,1.2v-1.477l4.658-1.749h.255Z" transform="translate(639 1101)" fill="#12263f"/>
      <path id="Trazado_611163" data-name="Trazado 611163" d="M5.256-5.7A7.935,7.935,0,0,1,2.1-7.238a2.93,2.93,0,0,1-.989-2.246,3.1,3.1,0,0,1,1.208-2.5,4.8,4.8,0,0,1,3.142-.989,5.243,5.243,0,0,1,2.351.51,3.866,3.866,0,0,1,1.6,1.406A3.6,3.6,0,0,1,9.976-9.1h-1.7a2.34,2.34,0,0,0-.738-1.83,3,3,0,0,0-2.083-.666,3.074,3.074,0,0,0-1.947.55,1.836,1.836,0,0,0-.7,1.528A1.652,1.652,0,0,0,3.476-8.19,6.509,6.509,0,0,0,5.735-7.2a10.481,10.481,0,0,1,2.5.99A3.788,3.788,0,0,1,9.567-4.948,3.219,3.219,0,0,1,10-3.252,2.99,2.99,0,0,1,8.789-.76,5.171,5.171,0,0,1,5.546.176,6.015,6.015,0,0,1,3.085-.33,4.142,4.142,0,0,1,1.323-1.714a3.378,3.378,0,0,1-.62-2H2.4a2.2,2.2,0,0,0,.857,1.833,3.608,3.608,0,0,0,2.29.672,3.317,3.317,0,0,0,2.048-.545,1.77,1.77,0,0,0,.712-1.485,1.738,1.738,0,0,0-.659-1.455A7.6,7.6,0,0,0,5.256-5.7Zm10.6,5.88a4.155,4.155,0,0,1-3.146-1.27,4.714,4.714,0,0,1-1.213-3.4v-.3a5.707,5.707,0,0,1,.541-2.527,4.217,4.217,0,0,1,1.512-1.74,3.8,3.8,0,0,1,2.1-.628,3.562,3.562,0,0,1,2.883,1.222,5.289,5.289,0,0,1,1.028,3.5v.677H13.122a3.38,3.38,0,0,0,.822,2.272,2.583,2.583,0,0,0,2,.866A2.832,2.832,0,0,0,17.4-1.5a3.666,3.666,0,0,0,1.046-.932l.993.773A3.993,3.993,0,0,1,15.855.176Zm-.2-8.525A2.169,2.169,0,0,0,14-7.633a3.482,3.482,0,0,0-.826,2.008h4.764v-.123a3.1,3.1,0,0,0-.668-1.92A2.042,2.042,0,0,0,15.653-8.35Zm10.389.3a4.873,4.873,0,0,0-.8-.062A2.143,2.143,0,0,0,23.071-6.75V0H21.445V-9.51h1.582l.026,1.1a2.532,2.532,0,0,1,2.268-1.274,1.661,1.661,0,0,1,.721.123ZM29.3,0H27.677V-9.51H29.3ZM27.545-12.032a.971.971,0,0,1,.242-.668.907.907,0,0,1,.716-.272.922.922,0,0,1,.721.272.96.96,0,0,1,.246.668.929.929,0,0,1-.246.659.938.938,0,0,1-.721.264.924.924,0,0,1-.716-.264A.938.938,0,0,1,27.545-12.032ZM35.851.176A4.155,4.155,0,0,1,32.7-1.094a4.714,4.714,0,0,1-1.213-3.4v-.3a5.707,5.707,0,0,1,.541-2.527,4.217,4.217,0,0,1,1.512-1.74,3.8,3.8,0,0,1,2.1-.628,3.562,3.562,0,0,1,2.883,1.222,5.289,5.289,0,0,1,1.028,3.5v.677H33.117a3.38,3.38,0,0,0,.822,2.272,2.583,2.583,0,0,0,2,.866A2.832,2.832,0,0,0,37.4-1.5a3.666,3.666,0,0,0,1.046-.932l.993.773A3.993,3.993,0,0,1,35.851.176Zm-.2-8.525A2.169,2.169,0,0,0,34-7.633a3.482,3.482,0,0,0-.826,2.008h4.764v-.123a3.1,3.1,0,0,0-.668-1.92A2.042,2.042,0,0,0,35.648-8.35ZM54.114,0H45.729V-1.169l4.43-4.922a10.524,10.524,0,0,0,1.358-1.815,3.029,3.029,0,0,0,.374-1.446A2.3,2.3,0,0,0,51.284-11a2.12,2.12,0,0,0-1.617-.642,2.511,2.511,0,0,0-1.885.69,2.635,2.635,0,0,0-.672,1.92H45.483a3.774,3.774,0,0,1,1.138-2.856,4.219,4.219,0,0,1,3.045-1.09,4.054,4.054,0,0,1,2.821.936,3.193,3.193,0,0,1,1.037,2.492q0,1.89-2.408,4.5L47.689-1.327h6.425Z" transform="translate(768 1102)" fill="#12263f"/>
      <path id="Trazado_611162" data-name="Trazado 611162" d="M5.256-5.7A7.935,7.935,0,0,1,2.1-7.238a2.93,2.93,0,0,1-.989-2.246,3.1,3.1,0,0,1,1.208-2.5,4.8,4.8,0,0,1,3.142-.989,5.243,5.243,0,0,1,2.351.51,3.866,3.866,0,0,1,1.6,1.406A3.6,3.6,0,0,1,9.976-9.1h-1.7a2.34,2.34,0,0,0-.738-1.83,3,3,0,0,0-2.083-.666,3.074,3.074,0,0,0-1.947.55,1.836,1.836,0,0,0-.7,1.528A1.652,1.652,0,0,0,3.476-8.19,6.509,6.509,0,0,0,5.735-7.2a10.481,10.481,0,0,1,2.5.99A3.788,3.788,0,0,1,9.567-4.948,3.219,3.219,0,0,1,10-3.252,2.99,2.99,0,0,1,8.789-.76,5.171,5.171,0,0,1,5.546.176,6.015,6.015,0,0,1,3.085-.33,4.142,4.142,0,0,1,1.323-1.714a3.378,3.378,0,0,1-.62-2H2.4a2.2,2.2,0,0,0,.857,1.833,3.608,3.608,0,0,0,2.29.672,3.317,3.317,0,0,0,2.048-.545,1.77,1.77,0,0,0,.712-1.485,1.738,1.738,0,0,0-.659-1.455A7.6,7.6,0,0,0,5.256-5.7Zm10.6,5.88a4.155,4.155,0,0,1-3.146-1.27,4.714,4.714,0,0,1-1.213-3.4v-.3a5.707,5.707,0,0,1,.541-2.527,4.217,4.217,0,0,1,1.512-1.74,3.8,3.8,0,0,1,2.1-.628,3.562,3.562,0,0,1,2.883,1.222,5.289,5.289,0,0,1,1.028,3.5v.677H13.122a3.38,3.38,0,0,0,.822,2.272,2.583,2.583,0,0,0,2,.866A2.832,2.832,0,0,0,17.4-1.5a3.666,3.666,0,0,0,1.046-.932l.993.773A3.993,3.993,0,0,1,15.855.176Zm-.2-8.525A2.169,2.169,0,0,0,14-7.633a3.482,3.482,0,0,0-.826,2.008h4.764v-.123a3.1,3.1,0,0,0-.668-1.92A2.042,2.042,0,0,0,15.653-8.35Zm10.389.3a4.873,4.873,0,0,0-.8-.062A2.143,2.143,0,0,0,23.071-6.75V0H21.445V-9.51h1.582l.026,1.1a2.532,2.532,0,0,1,2.268-1.274,1.661,1.661,0,0,1,.721.123ZM29.3,0H27.677V-9.51H29.3ZM27.545-12.032a.971.971,0,0,1,.242-.668.907.907,0,0,1,.716-.272.922.922,0,0,1,.721.272.96.96,0,0,1,.246.668.929.929,0,0,1-.246.659.938.938,0,0,1-.721.264.924.924,0,0,1-.716-.264A.938.938,0,0,1,27.545-12.032ZM35.851.176A4.155,4.155,0,0,1,32.7-1.094a4.714,4.714,0,0,1-1.213-3.4v-.3a5.707,5.707,0,0,1,.541-2.527,4.217,4.217,0,0,1,1.512-1.74,3.8,3.8,0,0,1,2.1-.628,3.562,3.562,0,0,1,2.883,1.222,5.289,5.289,0,0,1,1.028,3.5v.677H33.117a3.38,3.38,0,0,0,.822,2.272,2.583,2.583,0,0,0,2,.866A2.832,2.832,0,0,0,37.4-1.5a3.666,3.666,0,0,0,1.046-.932l.993.773A3.993,3.993,0,0,1,35.851.176Zm-.2-8.525A2.169,2.169,0,0,0,34-7.633a3.482,3.482,0,0,0-.826,2.008h4.764v-.123a3.1,3.1,0,0,0-.668-1.92A2.042,2.042,0,0,0,35.648-8.35Zm12.445,1.16h1.222A2.685,2.685,0,0,0,51.126-7.8a2.026,2.026,0,0,0,.659-1.591,1.985,1.985,0,0,0-2.241-2.25,2.331,2.331,0,0,0-1.683.6,2.107,2.107,0,0,0-.628,1.6H45.606a3.264,3.264,0,0,1,1.112-2.527,4.05,4.05,0,0,1,2.826-1.006,4,4,0,0,1,2.839.958,3.461,3.461,0,0,1,1.028,2.663,2.809,2.809,0,0,1-.541,1.617A3.264,3.264,0,0,1,51.4-6.565a3.145,3.145,0,0,1,1.63,1.107,3.076,3.076,0,0,1,.576,1.89A3.491,3.491,0,0,1,52.479-.835,4.213,4.213,0,0,1,49.553.176,4.324,4.324,0,0,1,46.622-.8a3.236,3.236,0,0,1-1.129-2.575h1.635a2.092,2.092,0,0,0,.659,1.617,2.507,2.507,0,0,0,1.767.606,2.46,2.46,0,0,0,1.8-.615,2.371,2.371,0,0,0,.624-1.767,2.151,2.151,0,0,0-.686-1.714,2.987,2.987,0,0,0-1.978-.615H48.094Z" transform="translate(897 1102)" fill="#12263f"/>
      <g id="Elipse_5887" data-name="Elipse 5887" transform="translate(600 1079)" fill="#94eeff" stroke="#707070" stroke-width="1">
        <circle cx="15.5" cy="15.5" r="15.5" stroke="none"/>
        <circle cx="15.5" cy="15.5" r="15" fill="none"/>
      </g>
      <g id="Elipse_5888" data-name="Elipse 5888" transform="translate(729 1080)" fill="#ffe7af" stroke="#707070" stroke-width="1">
        <circle cx="15.5" cy="15.5" r="15.5" stroke="none"/>
        <circle cx="15.5" cy="15.5" r="15" fill="none"/>
      </g>
      <g id="Elipse_5889" data-name="Elipse 5889" transform="translate(858 1080)" fill="#c3d7f5" stroke="#707070" stroke-width="1">
        <circle cx="15.5" cy="15.5" r="15.5" stroke="none"/>
        <circle cx="15.5" cy="15.5" r="15" fill="none"/>
      </g>
    </g>
  </g>
</svg>
