<svg id="Grupo_1073056" data-name="Grupo 1073056" xmlns="http://www.w3.org/2000/svg" xmlns:xlink="http://www.w3.org/1999/xlink" width="15.513" height="20.666" viewBox="0 0 15.513 20.666">
  <defs>
    <clipPath id="clip-path">
      <rect id="Rectángulo_378467" data-name="Rectángulo 378467" width="15.513" height="20.666" fill="#94eeff"/>
    </clipPath>
  </defs>
  <g id="Grupo_1073018" data-name="Grupo 1073018" clip-path="url(#clip-path)">
    <path id="Trazado_611104" data-name="Trazado 611104" d="M0,10.383Q0,6.541,0,2.7a2.7,2.7,0,0,1,.32-1.29A2.537,2.537,0,0,1,2.27.045,4.565,4.565,0,0,1,2.99,0q4.917,0,9.833,0A2.623,2.623,0,0,1,14.4.5a2.569,2.569,0,0,1,.9,1.173,3.262,3.262,0,0,1,.2,1.139c.011,3.243.007,6.486.008,9.73,0,1.712,0,3.424,0,5.137a3.34,3.34,0,0,1-.352,1.664,2.483,2.483,0,0,1-1.516,1.221,3.159,3.159,0,0,1-.907.1c-3.4,0-6.806.008-10.209,0a2.411,2.411,0,0,1-1.681-.683,2.653,2.653,0,0,1-.612-.882A3.04,3.04,0,0,1,0,17.835q0-3.726,0-7.452ZM7.766,2.574v0h-1.8c-.694,0-1.389,0-2.083,0A1.279,1.279,0,0,0,2.557,3.75c-.038.434,0,.871-.014,1.306a1.471,1.471,0,0,0,.128.665,1.253,1.253,0,0,0,.687.665,2.332,2.332,0,0,0,.9.121c.681.01,1.363,0,2.044,0,1.738-.006,3.476.014,5.214-.012a1.483,1.483,0,0,0,.487-.05,1.245,1.245,0,0,0,.939-1.24c-.01-.474,0-.948-.006-1.422a.971.971,0,0,0-.128-.531,1.253,1.253,0,0,0-1.087-.674c-1.319,0-2.639,0-3.958,0M5.787,18.127c.7-.011,1.4.018,2.095-.016A1.244,1.244,0,0,0,9.07,17.055a1.3,1.3,0,0,0-.662-1.4,1.32,1.32,0,0,0-.726-.141c-.539,0-1.078,0-1.616,0-.78,0-1.56,0-2.34.008a1.072,1.072,0,0,0-.882.467,1.286,1.286,0,0,0-.174,1.382,1.188,1.188,0,0,0,1.024.739c.7.051,1.4.008,2.094.02m3.3-5.189a1.279,1.279,0,0,0-1.271-1.308,1.3,1.3,0,0,0-.138,2.606,1.283,1.283,0,0,0,1.41-1.3M5.178,9.033a1.239,1.239,0,0,0-1.3-1.285,1.3,1.3,0,0,0-1.34,1.288A1.339,1.339,0,0,0,3.861,10.37,1.282,1.282,0,0,0,5.178,9.033m3.908.019a1.3,1.3,0,0,0-1.463-1.3A1.244,1.244,0,0,0,6.454,9.108a1.263,1.263,0,0,0,1.3,1.258A1.312,1.312,0,0,0,9.086,9.052m3.857,3.9a1.244,1.244,0,0,0-1.3-1.325,1.281,1.281,0,0,0-1.324,1.327,1.3,1.3,0,0,0,1.266,1.295,1.26,1.26,0,0,0,1.354-1.3M10.332,9.057a1.274,1.274,0,0,0,1.283,1.311,1.313,1.313,0,1,0-1.283-1.311m0,7.778a1.311,1.311,0,1,0,2.617-.123A1.3,1.3,0,0,0,11.632,15.5a1.282,1.282,0,0,0-1.3,1.332m-6.458-2.6a1.307,1.307,0,1,0-.026-2.614,1.25,1.25,0,0,0-1.293,1.358,1.263,1.263,0,0,0,1.319,1.255" transform="translate(0 0)" fill="#94eeff"/>
  </g>
</svg>
