<svg xmlns="http://www.w3.org/2000/svg" xmlns:xlink="http://www.w3.org/1999/xlink" width="107" height="107" viewBox="0 0 107 107">
  <defs>
    <clipPath id="clip-path">
      <rect id="Rectángulo_378429" data-name="Rectángulo 378429" width="70.737" height="71.445" fill="#fff"/>
    </clipPath>
  </defs>
  <g id="Grupo_1073077" data-name="Grupo 1073077" transform="translate(-285 -1780)">
    <g id="Grupo_156312" data-name="Grupo 156312" transform="translate(-3.668 -2668)">
      <path id="Elipse_5845" data-name="Elipse 5845" d="M53.5,0A53.5,53.5,0,1,1,0,53.5,53.5,53.5,0,0,1,53.5,0Z" transform="translate(288.668 4448)" fill="#345359"/>
    </g>
    <g id="Grupo_1072950" data-name="Grupo 1072950" transform="translate(308 1789)">
      <g id="Grupo_1072949" data-name="Grupo 1072949" transform="translate(-2 7)" clip-path="url(#clip-path)">
        <path id="Trazado_611049" data-name="Trazado 611049" d="M28.9,52.295c-.344,0-.689.018-1.032,0a2.582,2.582,0,0,1-2.428-2.567.757.757,0,0,0-.355-.72,2.633,2.633,0,0,1-1.1-2.307.5.5,0,0,0-.246-.467,2.447,2.447,0,0,1-1.122-1.875c-.038-.478-.02-.955-.035-1.433a12.793,12.793,0,0,0-1.858-6.5A11.207,11.207,0,0,1,19.609,34.2a8.793,8.793,0,0,1-.418-4.314A9.658,9.658,0,0,1,24.766,22.3a8.823,8.823,0,0,1,5.035-.919,9.916,9.916,0,0,1,8.872,9.686,8.986,8.986,0,0,1-1.458,5.076,12.368,12.368,0,0,0-1.341,2.748,11.932,11.932,0,0,0-.583,2.706c-.076.944-.061,1.892-.153,2.833a2.39,2.39,0,0,1-1.174,1.842.368.368,0,0,0-.206.389,2.538,2.538,0,0,1-1.255,2.465.437.437,0,0,0-.185.464,2.583,2.583,0,0,1-1.8,2.611,4.668,4.668,0,0,1-1.622.1M26.181,37.968c0-.956,0-1.912,0-2.869,0-.235.106-.535-.051-.689s-.437-.04-.664-.041a3.158,3.158,0,1,1,3.032-3.361c-.017.285.012.573.008.86,0,.112.012.178.14.2.484.076.578,0,.58-.483,0-.105,0-.21,0-.316a3.15,3.15,0,1,1,6.293.147,3.092,3.092,0,0,1-1.767,2.61,3.7,3.7,0,0,1-1.953.334c-.207-.008-.3.021-.306.272-.006,2.237-.022,4.474.013,6.712,0,.193.082.217.24.213.344-.008.689-.014,1.032,0,.2.01.229-.068.247-.243a15.546,15.546,0,0,1,.648-2.987A15.009,15.009,0,0,1,35.3,34.96a7.047,7.047,0,0,0,.554-6.567,7.188,7.188,0,0,0-6.223-4.713,7.141,7.141,0,0,0-5.85,1.958,7.382,7.382,0,0,0-2.4,5.713,6.6,6.6,0,0,0,.974,3.4,24.151,24.151,0,0,1,1.186,2.158,14.5,14.5,0,0,1,1.205,4.4c.024.188.08.267.283.254a6.4,6.4,0,0,1,.889,0c.221.017.273-.055.271-.268-.01-1.109,0-2.218,0-3.327m2.331-.032h0c0,1.109.02,2.219-.012,3.327-.01.358.187.291.387.31.227.022.347-.025.344-.3-.012-1.319,0-2.639,0-3.959,0-.87-.014-1.74,0-2.61.005-.286-.089-.384-.36-.334a.368.368,0,0,1-.115,0c-.185-.026-.246.04-.244.237.01,1.109,0,2.218,0,3.327m.4,5.948V43.9q-1.891,0-3.783,0c-.1,0-.258-.043-.266.132a.283.283,0,0,0,.253.326,1.348,1.348,0,0,0,.2.008q3.481,0,6.963-.009c.124,0,.248-.013.371-.023.181-.016.244-.135.236-.3-.009-.191-.159-.152-.279-.152h-3.7m-.006,2.779v-.014c-.792,0-1.584,0-2.377,0-.115,0-.274-.031-.3.144a.329.329,0,0,0,.23.383.867.867,0,0,0,.281.04q2.133,0,4.267,0c.076,0,.152-.014.228-.02.225-.017.239-.181.243-.35,0-.212-.152-.179-.282-.179H28.905m3.212-14.591c.354-.016.794.04,1.045-.474a.854.854,0,0,0-.134-.977.89.89,0,0,0-1.506.4,2.3,2.3,0,0,0-.042.483c0,.562,0,.562.637.57m-5.936-.592c-.009-.3.06-.617-.187-.867a.908.908,0,0,0-1.009-.149.851.851,0,0,0-.406,1.006.687.687,0,0,0,.679.58c.095.012.19.018.285.023.64.031.64.031.639-.593m2.694,18.042v-.011c-.314,0-.628,0-.942,0-.109,0-.256-.024-.244.153.009.139.029.314.217.317.637.011,1.275.011,1.912,0,.191,0,.214-.162.217-.31,0-.179-.139-.15-.247-.151-.3,0-.609,0-.913,0" transform="translate(-14.694 -16.407)" fill="#fff"/>
        <path id="Trazado_611050" data-name="Trazado 611050" d="M192.69,223.267q0,1.535,0,3.07a1.218,1.218,0,0,1-1.383,1.4,4.217,4.217,0,0,1-2.9-.871,3.861,3.861,0,0,1-1.377-3.033c-.032-1.328-.012-2.658,0-3.988,0-.214-.022-.31-.278-.323a5.614,5.614,0,0,1-4.455-2.349,5.547,5.547,0,0,1,1.7-8.1,5.834,5.834,0,0,1,3.031-.819c1.234.014,2.468-.034,3.7.029a6.97,6.97,0,0,0,2.593-.529,37.636,37.636,0,0,0,6.509-3.158c.813-.463,1.6-.983,2.45-1.369a2.436,2.436,0,0,1,2.867.7,2.719,2.719,0,0,1,.568,1.819c0,1.377,0,2.754-.007,4.131a.328.328,0,0,0,.254.371,3.783,3.783,0,0,1-.023,7.134c-.2.07-.23.158-.232.347-.009,1.53.034,3.059-.018,4.589a2.245,2.245,0,0,1-.449,1.246,2.4,2.4,0,0,1-3.1.766c-.995-.549-1.951-1.167-2.929-1.746a28.418,28.418,0,0,0-5.07-2.387c-.423-.148-.867-.231-1.283-.4-.2-.083-.205.041-.2.18.009.535.022,1.071.026,1.606,0,.564,0,1.128,0,1.693Zm7.083-9.171c0-1.636,0-2.917,0-4.2q.005-1.247.034-2.493c0-.182-.058-.171-.182-.106-.186.1-.377.184-.562.284a28.479,28.479,0,0,1-6.192,2.652.248.248,0,0,0-.211.287c.01.239.022.478.021.716-.008,1.969.03,3.938-.024,5.906-.006.212.058.3.269.348.545.137,1.087.294,1.622.466a29.853,29.853,0,0,1,4.966,2.2c.265.143.3.123.288-.166-.055-2.083-.019-4.167-.031-5.895m-9.394-.188h-.009c0-1-.009-2.007.006-3.01,0-.246-.046-.326-.31-.322-1.051.017-2.1.006-3.154.008a4.051,4.051,0,0,0-.743.023,3.391,3.391,0,0,0-2.677,2.9,3.288,3.288,0,0,0,2.981,3.688c1.24.1,2.484.028,3.726.049.191,0,.182-.1.182-.237,0-1.032,0-2.064,0-3.1m13.049-.122h-.008q0-4.043,0-8.085a1.648,1.648,0,0,0-.01-.229c-.027-.189-.1-.279-.3-.16q-.382.226-.778.427a.457.457,0,0,0-.266.488c.021.363.025.726.025,1.089q0,6.667,0,13.333c-.227.869.246,1.315.965,1.629.279.122.335.107.37-.206a1.288,1.288,0,0,0,0-.143q0-4.071,0-8.143m-13.033,8.669h0c0-.832,0-1.664,0-2.5,0-.425.006-.425-.4-.425-.153,0-.307.009-.459,0s-.217.032-.216.2c.007,1.434-.009,2.869.012,4.3A1.3,1.3,0,0,0,190,225.23c.1.058.211.2.327.127s.064-.229.065-.35c0-.851,0-1.7,0-2.552m15.339-9.673c0,.721-.032,1.387.013,2.1a1.508,1.508,0,0,0-.013-2.1" transform="translate(-139.499 -156.29)" fill="#fff"/>
        <path id="Trazado_611051" data-name="Trazado 611051" d="M95.57,103.078a3.9,3.9,0,0,1,2.433.754c.4.288.792.6,1.189.9a2.427,2.427,0,0,0,1.6.528,9.534,9.534,0,0,1,1.546.077,3.61,3.61,0,0,1,3.135,2.948c.1.554.262,1.095.4,1.639a1.8,1.8,0,0,0,.531.836q.6.579,1.213,1.138a3.778,3.778,0,0,1,1.177,2.421,3.412,3.412,0,0,1-.432,1.846,11.847,11.847,0,0,1-.617,1.2,3.213,3.213,0,0,0-.283,2.057,11.685,11.685,0,0,1,.2,1.415,3.572,3.572,0,0,1-1.975,3.252c-.128.067-.157.117-.1.26.814,1.873,1.617,3.75,2.432,5.622a.969.969,0,0,1-.162,1.093,1.171,1.171,0,0,1-1.135.4q-1.226-.216-2.445-.475c-.833-.178-.827-.188-1.268.525s-.88,1.433-1.342,2.134a1.1,1.1,0,0,1-1.937-.135c-.672-1.508-1.3-3.034-1.948-4.553-.075-.175-.161-.346-.233-.522a.229.229,0,0,0-.184-.161,7.89,7.89,0,0,1-1.127-.32,2.076,2.076,0,0,0-.712-.031.877.877,0,0,0-.716.621q-.725,1.573-1.459,3.143-.671,1.44-1.346,2.879a1.765,1.765,0,0,1-.134.253,1.086,1.086,0,0,1-1.986.017c-.369-.544-.665-1.137-1-1.706-.159-.272-.347-.53-.479-.814s-.335-.308-.6-.256c-.656.127-1.315.24-1.973.354-.254.044-.512.067-.766.111a1.14,1.14,0,0,1-1.308-1.679c.417-.911.852-1.814,1.276-2.722.55-1.176,1.094-2.354,1.652-3.526.079-.166.005-.19-.112-.237a4.117,4.117,0,0,1-1.689-1.147,3.763,3.763,0,0,1-.793-3.225c.075-.423.136-.849.184-1.276a2.441,2.441,0,0,0-.348-1.368c-.221-.444-.453-.883-.679-1.325a3.419,3.419,0,0,1,.773-4.063c.3-.29.61-.58.929-.854a3.188,3.188,0,0,0,1.081-2.021,4.965,4.965,0,0,1,.806-2.272,3.569,3.569,0,0,1,2.69-1.494c.486-.038.974-.059,1.461-.054a2.241,2.241,0,0,0,1.366-.438c.481-.346.946-.714,1.429-1.057a3.453,3.453,0,0,1,1.78-.686m3.522,23.288a1.137,1.137,0,0,0,1.1-.565c.326-.447.626-.914.931-1.377a4.107,4.107,0,0,1,1.843-1.581c.544-.231,1.086-.471,1.62-.725a1.337,1.337,0,0,0,.789-1.447c-.027-.237-.052-.476-.1-.708a4.957,4.957,0,0,1,.542-3.729c.219-.368.375-.772.569-1.155a1.233,1.233,0,0,0-.219-1.432,4.047,4.047,0,0,0-.336-.353c-.315-.307-.634-.609-.951-.914a3.933,3.933,0,0,1-1.145-1.788c-.174-.635-.342-1.271-.487-1.913a1.284,1.284,0,0,0-1.248-1.09c-.372-.023-.745-.038-1.117-.048a4.949,4.949,0,0,1-3.012-1.016,13.377,13.377,0,0,0-1.373-.986,1.2,1.2,0,0,0-1.277-.018,6.458,6.458,0,0,0-.679.478,6.438,6.438,0,0,1-2.562,1.407,15.593,15.593,0,0,1-2.312.186,1.211,1.211,0,0,0-1.1.742,3.724,3.724,0,0,0-.295,1.043,5.042,5.042,0,0,1-1.682,3.228,12.048,12.048,0,0,0-.931.894,1.307,1.307,0,0,0-.281,1.74c.261.542.539,1.075.8,1.619a3.63,3.63,0,0,1,.347,2c-.072.617-.128,1.236-.184,1.854a1.275,1.275,0,0,0,.867,1.446c.351.15.7.318,1.052.453a4.913,4.913,0,0,1,2.6,2.224c.142.249.307.484.463.724a1.5,1.5,0,0,0,2.016.687c.64-.23,1.3-.362,1.955-.551a1.787,1.787,0,0,1,1.047-.022c.647.2,1.32.309,1.954.556a1.884,1.884,0,0,0,.805.134m-6.875,2.407c.009-.148-.085-.131-.156-.141a2.68,2.68,0,0,1-.556-.128,3.886,3.886,0,0,1-1.991-1.6c-.227-.353-.456-.7-.678-1.061-.092-.148-.159-.147-.236.007-.094.187-.2.369-.288.559-.511,1.086-.98,2.192-1.531,3.26-.029.055-.1.111-.052.181s.135.049.209.038c.519-.078,1.038-.148,1.555-.238a1.2,1.2,0,0,1,1.3.571c.277.467.547.94.823,1.408.04.068.045.189.153.179.081-.008.1-.109.129-.177q.588-1.24,1.173-2.481c.061-.129.107-.264.15-.372m12.829.012c-.05-.126-.08-.2-.113-.282-.449-1.053-.9-2.1-1.346-3.158-.123-.29-.123-.294-.327-.055a21.066,21.066,0,0,0-1.218,1.8,3.684,3.684,0,0,1-.944.948,6.941,6.941,0,0,1-.839.432c-.148.076-.186.16-.115.318.228.5.445,1.013.665,1.52.074.171.137.242.268.026.292-.481.586-.963.911-1.422a1.087,1.087,0,0,1,1.325-.457,17.593,17.593,0,0,0,1.733.328" transform="translate(-63.808 -79.354)" fill="#fff"/>
        <path id="Trazado_611052" data-name="Trazado 611052" d="M222.308,35.283a3.756,3.756,0,0,1-1.164,2.8q-2.555,2.556-5.114,5.108-5.689,5.689-11.371,11.386a3.252,3.252,0,0,1-1.612.855c-1.435.354-2.856.764-4.286,1.14a1.8,1.8,0,0,1-1.066.1,1.124,1.124,0,0,1-.768-1.349c.4-1.5.858-2.991,1.189-4.509a4.473,4.473,0,0,1,1.363-2.278q8.043-8,16.051-16.036a3.568,3.568,0,0,1,3.07-1.159,2.825,2.825,0,0,1,1.23.444,5.711,5.711,0,0,1,2.2,2.4,2.626,2.626,0,0,1,.283,1.107M203.473,52.507a1.331,1.331,0,0,0,.147-.1c.148-.136.295-.273.437-.415q6.329-6.328,12.662-12.651c.2-.2.159-.294-.012-.462q-1.024-1-2.025-2.032c-.151-.156-.223-.116-.354.016q-3.586,3.6-7.18,7.182-2.891,2.89-5.781,5.782c-.284.284-.278.31.007.6q.974.973,1.95,1.944c.046.046.1.09.15.141M220,35.526a1.008,1.008,0,0,0-.254-.764,6.713,6.713,0,0,0-.887-.892,1.123,1.123,0,0,0-1.512,0c-.371.329-.708.7-1.074,1.031-.142.13-.143.22-.015.348.459.459.911.925,1.37,1.384.249.25.505.493.762.736.088.083.177.137.287.009.337-.39.743-.715,1.066-1.12a.978.978,0,0,0,.257-.736M199.686,53.754c-.027.2.07.212.2.175.4-.11.806-.222,1.211-.328.122-.032.145-.095.064-.178-.325-.335-.657-.664-.987-.993-.057-.057-.121-.078-.145.026a10.478,10.478,0,0,0-.348,1.3" transform="translate(-151.573 -24.103)" fill="#fff"/>
        <path id="Trazado_611053" data-name="Trazado 611053" d="M20.45,217.726a15.7,15.7,0,0,1,1.8-.042.294.294,0,0,0,.327-.233c.617-1.643,1.246-3.282,1.872-4.921a1.717,1.717,0,0,1,.81-1,1.531,1.531,0,0,1,2.182.788c.666,1.7,1.307,3.4,1.946,5.108a.329.329,0,0,0,.368.258q2.654,0,5.3.228a1.584,1.584,0,0,1,1.589,1.6,1.51,1.51,0,0,1-.664,1.269c-.971.79-1.952,1.569-2.926,2.355-.409.33-.809.671-1.222,1a.356.356,0,0,0-.138.438c.472,1.66.928,3.325,1.395,4.987a1.6,1.6,0,0,1-1.159,2.14,1.573,1.573,0,0,1-1.323-.307q-.979-.624-1.941-1.273c-.839-.566-1.714-1.079-2.527-1.684-.133-.1-.21-.019-.3.041q-1.907,1.247-3.813,2.495a7.061,7.061,0,0,1-1.075.655,1.585,1.585,0,0,1-2.083-1.832c.45-1.666.89-3.336,1.359-5a.7.7,0,0,0-.286-.861c-1.316-1.032-2.611-2.091-3.913-3.141a1.577,1.577,0,0,1-.631-1.659,1.632,1.632,0,0,1,1.557-1.221c1.154-.07,2.307-.177,3.5-.186m5.568-2.764c-.1.028-.093.11-.116.167-.464,1.191-.94,2.378-1.381,3.578a1.874,1.874,0,0,1-1.91,1.268c-1.061.032-2.122.055-3.183.084-.143,0-.286.016-.429.029-.045,0-.1,0-.122.056s.029.085.063.114c.051.044.106.081.158.123,1.032.836,2.074,1.661,3.093,2.514a1.349,1.349,0,0,1,.472,1.417c-.133.557-.268,1.113-.423,1.664-.215.762-.452,1.519-.606,2.3-.014.072-.052.164.015.217s.12-.026.173-.061l3.135-2.067a1.624,1.624,0,0,1,2.117.011q1.469.974,2.942,1.943a.932.932,0,0,0,.389.2.649.649,0,0,0-.053-.357c-.333-1.224-.664-2.449-1-3.672a1.556,1.556,0,0,1,.618-1.766c.923-.728,1.836-1.469,2.752-2.206.145-.117.287-.238.447-.371a.414.414,0,0,0-.276-.069c-1.118-.047-2.236-.077-3.354-.1a1.926,1.926,0,0,1-2.139-1.449c-.175-.544-.395-1.075-.61-1.6-.264-.649-.453-1.329-.773-1.955" transform="translate(-11.808 -162.699)" fill="#fff"/>
        <path id="Trazado_611054" data-name="Trazado 611054" d="M126.418,52.391a29.667,29.667,0,0,1,5.059.476,27.758,27.758,0,0,1,10.944,4.61,7.361,7.361,0,0,1,.759.564,1.107,1.107,0,0,1-.353,1.92,1.018,1.018,0,0,1-1-.151c-.476-.32-.933-.667-1.412-.981a26.13,26.13,0,0,0-5.077-2.561,23.926,23.926,0,0,0-5.485-1.37,27.094,27.094,0,0,0-5.212-.126c-.3.02-.611.033-.917.028a1.04,1.04,0,0,1-1.062-.991,1.068,1.068,0,0,1,.885-1.241,25.023,25.023,0,0,1,2.873-.177" transform="translate(-94.425 -40.333)" fill="#fff"/>
        <path id="Trazado_611055" data-name="Trazado 611055" d="M18.5,147.835a27.545,27.545,0,0,1,.653-5.709c.062-.27.087-.549.167-.812a1.115,1.115,0,0,1,.969-.858,1.11,1.11,0,0,1,1.224,1.382c-.13.665-.306,1.323-.4,1.992a27.174,27.174,0,0,0-.257,6.031,25.374,25.374,0,0,0,2.03,8.212,1.179,1.179,0,0,1-.049,1.253,1.126,1.126,0,0,1-1.136.451,1.111,1.111,0,0,1-.888-.8c-.287-.7-.564-1.4-.815-2.108a25.145,25.145,0,0,1-1.13-4.491,27.878,27.878,0,0,1-.371-4.54" transform="translate(-14.24 -108.12)" fill="#fff"/>
        <path id="Trazado_611056" data-name="Trazado 611056" d="M112.628,280.918a31.792,31.792,0,0,1-6.53-.736,8.875,8.875,0,0,1-1.274-.328,1.114,1.114,0,0,1,.655-2.128,26.848,26.848,0,0,0,7.693.847,25.23,25.23,0,0,0,4.678-.629,22.12,22.12,0,0,0,2.529-.726,3.292,3.292,0,0,1,.582-.149,1.087,1.087,0,0,1,1.2.628,1.117,1.117,0,0,1-.348,1.359,1.458,1.458,0,0,1-.4.218,27.9,27.9,0,0,1-5.759,1.343,22.834,22.834,0,0,1-3.027.3" transform="translate(-80.119 -213.287)" fill="#fff"/>
        <path id="Trazado_611057" data-name="Trazado 611057" d="M247.788,141.5c-.061,1.2-.089,2.361-.226,3.51a1.464,1.464,0,0,1-.371.881,1.03,1.03,0,0,1-1.167.3,1.092,1.092,0,0,1-.746-1.165c.052-.715.087-1.43.12-2.146a26.27,26.27,0,0,0-.328-6.078,23.52,23.52,0,0,0-.766-3.048,1.364,1.364,0,0,1,.019-1.166,1.088,1.088,0,0,1,1.08-.568,1.066,1.066,0,0,1,.983.8c.154.5.317,1,.451,1.507a35.028,35.028,0,0,1,.7,3.505c.193,1.23.164,2.477.247,3.666" transform="translate(-187.98 -101.634)" fill="#fff"/>
        <path id="Trazado_611058" data-name="Trazado 611058" d="M58.921,2.217c0,.316,0,.631,0,.946a1.069,1.069,0,0,1-1.087,1.122,1.137,1.137,0,0,1-1.192-1.072c-.024-.706-.02-1.415.01-2.121A1.174,1.174,0,0,1,57.779,0a1.087,1.087,0,0,1,1.108,1.015c.039.4.007.8.007,1.2h.028" transform="translate(-43.593 0)" fill="#fff"/>
        <path id="Trazado_611059" data-name="Trazado 611059" d="M86.138,12.8a1.125,1.125,0,0,1-1.01-1.636c.376-.573.675-1.2,1.033-1.782a1.126,1.126,0,0,1,1.124-.6,1.082,1.082,0,0,1,.952.8.977.977,0,0,1-.072.8c-.354.632-.7,1.267-1.084,1.884a1.016,1.016,0,0,1-.942.531" transform="translate(-65.424 -6.755)" fill="#fff"/>
        <path id="Trazado_611060" data-name="Trazado 611060" d="M27.244,11.661a1.089,1.089,0,0,1-.731,1.063,1.02,1.02,0,0,1-1.2-.3,10.427,10.427,0,0,1-1.274-2.23,1.118,1.118,0,0,1,2-.93c.37.612.725,1.233,1.081,1.854a1.155,1.155,0,0,1,.121.547" transform="translate(-18.457 -6.743)" fill="#fff"/>
        <path id="Trazado_611061" data-name="Trazado 611061" d="M108.761,32.868a1.081,1.081,0,0,1,1.006.677,1.053,1.053,0,0,1-.287,1.25,10.563,10.563,0,0,1-2.178,1.253,1.1,1.1,0,0,1-1.328-.5,1.161,1.161,0,0,1,.381-1.47c.586-.36,1.18-.706,1.772-1.055a1.207,1.207,0,0,1,.634-.151" transform="translate(-81.494 -25.303)" fill="#fff"/>
        <path id="Trazado_611062" data-name="Trazado 611062" d="M0,33.879a1.135,1.135,0,0,1,1.652-.936c.633.332,1.249.7,1.852,1.082a1.059,1.059,0,0,1,.352,1.5,1.056,1.056,0,0,1-1.435.426C1.8,35.633,1.2,35.285.605,34.923A1.128,1.128,0,0,1,0,33.879" transform="translate(0 -25.263)" fill="#fff"/>
        <path id="Trazado_611063" data-name="Trazado 611063" d="M112.044,139.8a8.179,8.179,0,0,1-7.986-8.245,8.091,8.091,0,0,1,16.181.082,8.117,8.117,0,0,1-8.2,8.163m-5.718-8.105a5.825,5.825,0,1,0,5.809-5.844,5.776,5.776,0,0,0-5.809,5.844" transform="translate(-80.108 -95.144)" fill="#fff"/>
      </g>
    </g>
  </g>
</svg>
