<svg xmlns="http://www.w3.org/2000/svg" xmlns:xlink="http://www.w3.org/1999/xlink" width="107" height="107" viewBox="0 0 107 107">
  <defs>
    <clipPath id="clip-path">
      <rect id="Rectángulo_378430" data-name="Rectángulo 378430" width="56.366" height="66.462" fill="#fff"/>
    </clipPath>
  </defs>
  <g id="Grupo_1073078" data-name="Grupo 1073078" transform="translate(-284.637 -1947)">
    <g id="Grupo_156312" data-name="Grupo 156312" transform="translate(-4.031 -2501)">
      <circle id="Elipse_5845" data-name="Elipse 5845" cx="53.5" cy="53.5" r="53.5" transform="translate(288.668 4448)" fill="#345359"/>
    </g>
    <g id="Grupo_1072952" data-name="Grupo 1072952" transform="translate(309.634 1967.27)">
      <g id="Grupo_1072951" data-name="Grupo 1072951" clip-path="url(#clip-path)">
        <path id="Trazado_611064" data-name="Trazado 611064" d="M28.184,66.46H1.484a2.252,2.252,0,0,1-.465-.033A1.162,1.162,0,0,1,0,65.14C.08,63.628.176,62.116.26,60.6c.028-.51.061-1.02.061-1.53,0-1.109.128-2.211.184-3.316.071-1.391.141-2.783.194-4.175.05-1.306.144-2.608.247-3.911.049-.612.016-1.227.051-1.842q.2-3.5.362-7c.134-2.9.342-5.8.435-8.709.026-.812.117-1.622.16-2.434.045-.838.071-1.676.1-2.515.041-1.228.172-2.451.164-3.682a1.4,1.4,0,0,1,.25-.755C3.49,19.142,4.429,17.5,5.413,15.88c.1-.17.212-.337.308-.511a1.342,1.342,0,0,1,1.328-.726c.576.019.584,0,.5-.579-.266-1.726-.414-3.467-.631-5.2-.079-.626-.119-1.256-.224-1.88a1.147,1.147,0,0,1,.96-1.314c1.17-.115,2.331-.311,3.5-.434,1.375-.145,2.744-.356,4.121-.48,1.594-.144,3.168-.45,4.766-.557a.534.534,0,0,0,.436-.265A9.391,9.391,0,0,1,24.022.972,9,9,0,0,1,28.177,0a9.486,9.486,0,0,1,7.03,3.115,9.68,9.68,0,0,1,2.049,3.426,6.334,6.334,0,0,1,.211.774.424.424,0,0,0,.363.352c.827.182,1.654.362,2.478.554,1.749.408,3.5.825,5.246,1.235.656.154,1.313.3,1.969.453a1.094,1.094,0,0,1,.918,1.267c-.08.759-.352,1.478-.493,2.225-.058.305-.144.6-.215.908-.078.336-.075.339.284.339.407,0,.815.014,1.221-.01a1.484,1.484,0,0,1,1.482.831c.91,1.561,1.817,3.126,2.8,4.642a4.211,4.211,0,0,1,.651,2.4c0,1.1.12,2.193.181,3.29.039.691,0,1.383.06,2.075.189,2.19.214,4.39.362,6.583.177,2.633.25,5.271.406,7.9.1,1.718.193,3.437.246,5.158.045,1.468.177,2.936.25,4.4.068,1.365.1,2.733.2,4.1.19,2.615.219,5.238.4,7.853.028.388.046.777.079,1.165a1.215,1.215,0,0,1-1.242,1.421c-.086,0-.173,0-.26,0H28.184m-.023-2.254h25.5c.353,0,.352,0,.344-.352-.043-1.721-.169-3.439-.249-5.158-.136-2.9-.3-5.8-.447-8.708Q53.164,47.06,53,44.131c-.057-1-.047-2.008-.116-3.008q-.184-2.654-.3-5.311c-.04-.985-.093-1.97-.143-2.955-.047-.907-.167-1.808-.165-2.719,0-.648-.044-1.3-.075-1.945-.088-1.8-.229-3.592-.279-5.391-.005-.18-.056-.256-.237-.233a1.428,1.428,0,0,1-.182,0H9.021q-2.155,0-4.311,0c-.148,0-.269-.009-.27.2-.008,1.2-.123,2.4-.2,3.6-.139,2.3-.176,4.6-.348,6.894-.145,1.931-.156,3.873-.286,5.807-.108,1.615-.151,3.232-.237,4.847-.115,2.16-.274,4.317-.328,6.48-.008.337,0,.674-.03,1.011-.07.8-.137,1.6-.178,2.406C2.752,55.478,2.7,57.139,2.6,58.8c-.1,1.641-.192,3.281-.249,4.924-.017.487-.009.485.485.485H28.16M13.231,20.25v0h2.311c.431,0,.44,0,.355-.42-.158-.779-.334-1.554-.548-2.319a5.829,5.829,0,0,1-.219-1.17.971.971,0,0,1,.532-.988,1.607,1.607,0,0,1,.529-.2c.727-.112,1.43-.332,2.145-.5q2.675-.622,5.339-1.287c.863-.213,1.74-.369,2.59-.636.143-.045.227-.091.191-.267-.241-1.179-.254-2.386-.441-3.574-.15-.954-.193-1.925-.338-2.883-.027-.182-.084-.268-.28-.23-.824.161-1.661.224-2.492.331-1.483.19-2.969.357-4.454.524-1.417.16-2.833.339-4.249.5-1.622.189-3.248.352-4.865.583-.352.05-.355.041-.3.4.075.452.188.9.225,1.355.143,1.741.387,3.47.585,5.2.2,1.769.421,3.535.621,5.3.025.22.1.288.318.285.813-.012,1.627,0,2.441,0m27.56,0v0c1.012,0,2.025,0,3.037,0,.18,0,.26-.05.3-.227.165-.661.3-1.33.462-1.992.442-1.82.847-3.649,1.281-5.471.17-.716.19-.722-.538-.892-1.714-.4-3.431-.791-5.146-1.19q-2.169-.5-4.336-1.017Q34.442,9.13,33.031,8.8c-.109-.026-.188-.053-.225.108-.159.689-.333,1.375-.5,2.063-.075.305-.027.353.287.271.459-.119.913-.261,1.376-.364a1.112,1.112,0,0,1,1.491.885c.029.1.055.2.079.3q.417,1.763.834,3.527c.352,1.477.711,2.953,1.058,4.432a.256.256,0,0,0,.3.236c1.021-.006,2.042,0,3.063,0m-14.042,0h0q3.934,0,7.867,0c.195,0,.451.09.567-.051.091-.111-.088-.328-.112-.507-.007-.051-.022-.1-.034-.152-.292-1.244-.58-2.489-.876-3.731-.19-.8-.394-1.59-.585-2.386-.042-.176-.147-.127-.258-.1-1.016.243-2.034.475-3.048.729q-2.148.538-4.306,1.034c-1.446.336-2.889.685-4.332,1.037-1.267.309-2.528.64-3.8.938-.244.057-.288.135-.23.36.223.861.442,1.723.638,2.59.044.2.109.248.3.247q4.1-.009,8.2,0M23.767,3.7a1.207,1.207,0,0,0,.146.013c.852-.081,1.705-.14,2.552-.268a1.069,1.069,0,0,1,1.236.845c.09.711.233,1.413.306,2.129.19,1.865.424,3.725.632,5.588.015.137.066.132.165.11q.43-.1.861-.185a.19.19,0,0,0,.178-.155c.188-.807.392-1.61.571-2.419.153-.691.334-1.376.481-2.068a1.088,1.088,0,0,1,1.334-.924c.855.126,1.68.4,2.526.563.081.016.176.093.243.025s-.012-.161-.046-.234a7.2,7.2,0,0,0-6.512-4.459A7.013,7.013,0,0,0,25,2.953a5.967,5.967,0,0,0-1.234.745m24.878,16.55c.692,0,1.384,0,2.076,0,.209,0,.267-.044.143-.247q-.919-1.5-1.819-3.019a.261.261,0,0,0-.243-.156q-.753,0-1.505,0c-.136,0-.209.055-.208.2a.793.793,0,0,1-.036.2c-.237.91-.394,1.84-.667,2.742-.06.2-.018.279.21.276.683-.012,1.367,0,2.05,0M6.834,20.242v0c.4,0,.8-.005,1.193,0,.185,0,.269-.036.23-.251-.074-.4-.127-.8-.177-1.2-.072-.583-.14-1.166-.2-1.75-.018-.186-.111-.227-.272-.227-.233,0-.3.188-.386.337-.58.95-1.149,1.908-1.736,2.854-.127.2-.051.232.127.233.406,0,.812,0,1.219,0" transform="translate(0 0.001)" fill="#fff"/>
        <path id="Trazado_611065" data-name="Trazado 611065" d="M80.808,128.089c0-.788,0-1.575,0-2.363a.286.286,0,0,0-.2-.308,3.345,3.345,0,0,1-2.065-2.922,3.185,3.185,0,0,1,1.376-2.873,3.362,3.362,0,0,1,5.308,2.1,3.44,3.44,0,0,1-2,3.679.31.31,0,0,0-.216.331c.009,1.229.02,2.458.012,3.687a7.3,7.3,0,0,0,1.747,4.976,6.955,6.955,0,0,0,4.377,2.473A7.253,7.253,0,0,0,97,132.784a7.472,7.472,0,0,0,.71-3.37q-.007-1.8.01-3.609a.4.4,0,0,0-.269-.427,3.394,3.394,0,0,1-2.015-2.984,3.041,3.041,0,0,1,.65-2.012,3.4,3.4,0,0,1,2.667-1.446,3.516,3.516,0,0,1,3.26,2.338,3.415,3.415,0,0,1-1.869,4.136.332.332,0,0,0-.225.37c.008,1.264-.01,2.527.007,3.791a9.222,9.222,0,0,1-1.674,5.437,9.4,9.4,0,0,1-5.693,3.932,9.559,9.559,0,0,1-10.87-5.3,8.673,8.673,0,0,1-.885-3.884c.014-.554,0-1.108,0-1.662m0-5.737a1,1,0,0,0,0,.13c.014.106-.058.258.051.307s.2-.083.273-.161a.97.97,0,0,1,.7-.291,1.076,1.076,0,0,1,.9.369c.16.176.247.111.281-.084a1.189,1.189,0,0,0-.252-1.068,1.136,1.136,0,0,0-1.309-.272,1.014,1.014,0,0,0-.642,1.07m19.106-.028A1.1,1.1,0,0,0,98.7,121.2a1.065,1.065,0,0,0-1,1.211c.009.1-.013.231.1.278s.162-.076.231-.132a1.317,1.317,0,0,1,1.454-.029c.118.09.218.325.348.246s.067-.318.083-.455" transform="translate(-62.183 -94.163)" fill="#fff"/>
      </g>
    </g>
  </g>
</svg>
