<svg xmlns="http://www.w3.org/2000/svg" xmlns:xlink="http://www.w3.org/1999/xlink" width="107" height="107" viewBox="0 0 107 107">
  <defs>
    <clipPath id="clip-path">
      <rect id="Rectángulo_378432" data-name="Rectángulo 378432" width="64.637" height="60.549" transform="translate(0 0)" fill="#fff"/>
    </clipPath>
  </defs>
  <g id="Grupo_1073080" data-name="Grupo 1073080" transform="translate(-284.637 -2247)">
    <g id="Grupo_156312" data-name="Grupo 156312" transform="translate(-4.031 -2201)">
      <circle id="Elipse_5845" data-name="Elipse 5845" cx="53.5" cy="53.5" r="53.5" transform="translate(288.668 4448)" fill="#345359"/>
    </g>
    <g id="Grupo_1072956" data-name="Grupo 1072956" transform="translate(305.363 2266.452)">
      <g id="Grupo_1072955" data-name="Grupo 1072955" transform="translate(0 -0.001)" clip-path="url(#clip-path)">
        <path id="Trazado_611075" data-name="Trazado 611075" d="M13.174,135.179c.609.133,1.226.236,1.824.405a11.9,11.9,0,0,1,4.754,2.537c.266.237.481.565.873.081a15.153,15.153,0,0,1,10.306-5.55c-6.821-2.533-9.474-6.358-8.5-12.145a10.109,10.109,0,0,1,19.772-.161A9.919,9.919,0,0,1,40.6,128.3a10.569,10.569,0,0,1-6.81,4.306A15.329,15.329,0,0,1,44,138.149c.271.331.454.4.793.09a11.8,11.8,0,0,1,6.479-2.974c.082-.011.154-.1.247-.172-4.46-1.4-6.749-4.711-6.084-8.755A7.549,7.549,0,0,1,53.116,120a7.629,7.629,0,0,1,7.274,6.365c.546,4.151-1.835,7.557-6.139,8.7.5.41,1.1.315,1.609.452a11.6,11.6,0,0,1,8.77,11.29c0,.673.019,1.346-.005,2.018a1.308,1.308,0,0,1-1.431,1.45c-.235.013-.471,0-.706,0H2.142c-1.806,0-2.038-.3-2.12-2.095-.163-3.542.633-6.726,3.172-9.337a11.573,11.573,0,0,1,6.831-3.552.993.993,0,0,0,.276-.107c.023-.011.029-.057.043-.088-5.263-1.549-6.613-5.575-6.01-8.966A7.524,7.524,0,0,1,12.191,120a7.649,7.649,0,0,1,7.168,7.167c.318,3.553-2.319,6.916-6.185,8.009m19.165,12.555H43.327c1.753,0,1.753,0,1.505-1.72,0-.033-.009-.067-.015-.1a12.611,12.611,0,0,0-25.043.815c-.036.8.166,1.03.972,1.022,3.864-.039,7.729-.018,11.593-.017m7.533-25.164a7.54,7.54,0,1,0-7.588,7.515,7.554,7.554,0,0,0,7.588-7.515M9.9,147.734c2.152,0,4.305-.022,6.457.013.645.01.854-.18.886-.839a13.9,13.9,0,0,1,1.386-5.522.807.807,0,0,0-.187-1.062,9.753,9.753,0,0,0-10.3-1.914,9.029,9.029,0,0,0-5.569,8.484c.009.67.227.86.873.851,2.152-.032,4.3-.012,6.457-.012m44.836,0h5.045c2.516,0,2.768-.294,2.173-2.811a8.862,8.862,0,0,0-6.431-6.847,9.342,9.342,0,0,0-9.185,2.154.878.878,0,0,0-.275,1.216,13.593,13.593,0,0,1,1.373,5.524c.03.634.257.782.843.774,2.152-.028,4.3-.011,6.457-.01M11.784,122.56a5.007,5.007,0,1,0-.03,10.014,5.007,5.007,0,1,0,.03-10.014m40.985,10.011a5.006,5.006,0,1,0,.257-10.008,5.006,5.006,0,1,0-.257,10.008" transform="translate(-0.001 -89.732)" fill="#fff"/>
        <path id="Trazado_611076" data-name="Trazado 611076" d="M113.43,17.8c.226-1.355.416-2.856.747-4.325a1.592,1.592,0,0,0-.57-1.749c-1.025-.919-1.979-1.917-2.976-2.868a1.415,1.415,0,0,1-.529-1.522,1.357,1.357,0,0,1,1.314-.907c1.4-.167,2.784-.417,4.181-.587a1.514,1.514,0,0,0,1.357-.987c.565-1.288,1.219-2.537,1.835-3.8.276-.568.624-1.062,1.336-1.052s1.034.486,1.309,1.073c.6,1.274,1.277,2.511,1.846,3.8a1.513,1.513,0,0,0,1.361.973c1.43.175,2.853.41,4.282.6a1.3,1.3,0,0,1,.74,2.341c-1.053,1.038-2.093,2.091-3.176,3.1a1.308,1.308,0,0,0-.468,1.323c.259,1.383.484,2.773.722,4.161.111.643.192,1.282-.428,1.744s-1.2.192-1.781-.119c-1.272-.68-2.561-1.328-3.822-2.026a1.113,1.113,0,0,0-1.209.006c-1.382.757-2.772,1.5-4.186,2.2-1.037.508-1.931-.1-1.885-1.368m2.935-2.049c1.02-.532,1.925-.966,2.791-1.468a1.7,1.7,0,0,1,1.881-.016c.859.5,1.761.928,2.815,1.476a20.819,20.819,0,0,0-.372-2.242,2.666,2.666,0,0,1,.955-3.194,17.816,17.816,0,0,0,1.7-1.692c-1.237-.193-2.253-.368-3.273-.506a1.56,1.56,0,0,1-1.292-.974c-.451-.959-.939-1.9-1.465-2.957-.5,1.009-.964,1.861-1.346,2.749A1.89,1.89,0,0,1,117.1,8.175c-.952.106-1.9.27-3,.432.7.711,1.243,1.344,1.871,1.872a2.264,2.264,0,0,1,.827,2.66,19.5,19.5,0,0,0-.432,2.612" transform="translate(-87.827 0.001)" fill="#fff"/>
        <path id="Trazado_611077" data-name="Trazado 611077" d="M18.477,68.973c.152-.9.261-1.868.5-2.807a1.179,1.179,0,0,0-.434-1.315c-.7-.632-1.352-1.31-2.026-1.967a1.265,1.265,0,0,1,.72-2.242,15.538,15.538,0,0,1,2.086-.31,2.091,2.091,0,0,0,2.2-1.633,12.579,12.579,0,0,1,.886-1.8c.656-1.162,1.754-1.147,2.4.036a23.054,23.054,0,0,1,1.153,2.346,1.505,1.505,0,0,0,1.458,1c.834.069,1.656.271,2.489.362a1.318,1.318,0,0,1,1.193.927,1.24,1.24,0,0,1-.443,1.351c-.637.647-1.263,1.31-1.954,1.9a1.4,1.4,0,0,0-.468,1.521c.181.852.324,1.712.5,2.564a1.321,1.321,0,0,1-.472,1.351,1.188,1.188,0,0,1-1.412.13c-.807-.412-1.638-.787-2.4-1.27a1.483,1.483,0,0,0-1.752.022,24.722,24.722,0,0,1-2.311,1.224c-1.083.505-1.967-.122-1.909-1.381M23.6,60.284a3.187,3.187,0,0,1-3.471,2.538,3.21,3.21,0,0,1,1.379,4.069c1.489-1.231,2.843-.993,4.3.008-.78-1.759-.13-3.007,1.219-4.109A3.139,3.139,0,0,1,23.6,60.284" transform="translate(-12.803 -44.724)" fill="#fff"/>
        <path id="Trazado_611078" data-name="Trazado 611078" d="M243.768,62.1a1.175,1.175,0,0,1-.445.9,11.07,11.07,0,0,1-1.453,1.391,2.238,2.238,0,0,0-.851,2.771,9.39,9.39,0,0,1,.317,2.081,1.208,1.208,0,0,1-1.875,1.215,24.43,24.43,0,0,1-2.4-1.262,1.313,1.313,0,0,0-1.567-.027c-.766.477-1.591.86-2.4,1.273A1.288,1.288,0,0,1,231.163,69a3.8,3.8,0,0,1,.09-.7c.921-2.165.044-3.683-1.7-4.941a1.542,1.542,0,0,1-.766-1.717c.22-.846.922-.861,1.577-.978.1-.018.2-.083.291-.074,2.355.24,3.5-1.11,4.176-3.127.232-.7.635-1.33,1.464-1.307.771.022,1.16.635,1.379,1.292.668,2.012,1.8,3.365,4.156,3.147a2.969,2.969,0,0,1,.984.178,1.2,1.2,0,0,1,.952,1.324m-5.516,4.875c.236-.86-.285-1.567-.047-2.3s1.111-1.033,1.44-1.893a2.934,2.934,0,0,1-3.39-2.388,3.226,3.226,0,0,1-3.474,2.544c1.6,1.028,1.815,2.406,1.359,4.119a2.9,2.9,0,0,1,4.112-.079" transform="translate(-182.566 -44.825)" fill="#fff"/>
        <path id="Trazado_611079" data-name="Trazado 611079" d="M178.026,245.954a1.2,1.2,0,0,1,1.826-1.112,8.969,8.969,0,0,1,3.745,4.337,1.1,1.1,0,0,1-.627,1.423,1.044,1.044,0,0,1-1.512-.321,11.759,11.759,0,0,0-3.088-3.522.922.922,0,0,1-.343-.806" transform="translate(-142.091 -195.277)" fill="#fff"/>
        <path id="Trazado_611080" data-name="Trazado 611080" d="M156.579,238.608c.022.935-.52,1.527-1.228,1.476a1.146,1.146,0,0,1-1.2-1.2,1.173,1.173,0,0,1,1.232-1.268,1.123,1.123,0,0,1,1.2.993" transform="translate(-123.033 -189.652)" fill="#fff"/>
      </g>
    </g>
  </g>
</svg>
