<svg xmlns="http://www.w3.org/2000/svg" xmlns:xlink="http://www.w3.org/1999/xlink" width="400" height="756.751" viewBox="0 0 400 756.751">
  <defs>
    <linearGradient id="linear-gradient" x1="0.5" x2="0.5" y2="1" gradientUnits="objectBoundingBox">
      <stop offset="0" stop-color="#e5fbff"/>
      <stop offset="1" stop-color="#edf3fc"/>
    </linearGradient>
    <clipPath id="clip-path">
      <rect id="Rectángulo_378159" data-name="Rectángulo 378159" width="50.683" height="74.381" fill="#4e5662"/>
    </clipPath>
    <clipPath id="clip-path-2">
      <rect id="Rectángulo_378160" data-name="Rectángulo 378160" width="54.162" height="63" fill="#345359"/>
    </clipPath>
    <clipPath id="clip-path-3">
      <rect id="Rectángulo_378161" data-name="Rectángulo 378161" width="58.81" height="67.962" fill="#345359"/>
    </clipPath>
    <clipPath id="clip-path-4">
      <rect id="Rectángulo_378162" data-name="Rectángulo 378162" width="67.005" height="66.942" fill="#345359"/>
    </clipPath>
  </defs>
  <g id="Grupo_1072697" data-name="Grupo 1072697" transform="translate(-285 -1144.755)">
    <path id="Trazado_610541" data-name="Trazado 610541" d="M0,0H400V756.751H0Z" transform="translate(285 1144.755)" fill="url(#linear-gradient)"/>
    <g id="Grupo_1072696" data-name="Grupo 1072696">
      <g id="Grupo_1072695" data-name="Grupo 1072695" transform="translate(314.782 1166.348)">
        <path id="Trazado_610606" data-name="Trazado 610606" d="M152.232.928l30.233,46.96,12.076,18.771Z" transform="translate(17.969 0.109)" fill="#94eeff"/>
        <path id="Trazado_610607" data-name="Trazado 610607" d="M199,66.658H114.407L156.7.924l30.228,46.963Z" transform="translate(13.504 0.109)" fill="#94eeff"/>
        <path id="Trazado_610608" data-name="Trazado 610608" d="M156.807,2.066l41.278,64.141H115.538Zm0-2.066L113.491,67.325h86.641Z" transform="translate(13.396)" fill="#345359"/>
        <path id="Trazado_610609" data-name="Trazado 610609" d="M118.873,59.714l-42.3,65.727H245.758L203.463,59.714Z" transform="translate(9.039 7.049)" fill="#76becc"/>
        <path id="Trazado_610610" data-name="Trazado 610610" d="M246.891,126.059H75.661l43.015-66.845h85.2ZM77.71,124.941H244.843L203.266,60.332H119.287Z" transform="translate(8.931 6.99)" fill="#345359"/>
        <path id="Trazado_610611" data-name="Trazado 610611" d="M38.748,184.229H292.519l-42.3-65.727H81.043Z" transform="translate(4.574 13.988)" fill="#94eeff"/>
        <path id="Trazado_610612" data-name="Trazado 610612" d="M293.652,184.847H37.831L80.845,118H250.636l.165.256ZM39.88,183.729H291.6L250.027,119.12H81.456Z" transform="translate(4.466 13.929)" fill="#345359"/>
        <path id="Trazado_610613" data-name="Trazado 610613" d="M43.209,177.29.916,243.014H339.31l-.257-.357-42.07-65.367Z" transform="translate(0.108 20.927)" fill="#76becc"/>
        <path id="Trazado_610614" data-name="Trazado 610614" d="M43.621,177.908H296.787l41.579,64.607H2.049Zm-.609-1.118L0,243.633H340.435l-.948-1.442-41.925-65.144-.167-.257Z" transform="translate(0 20.868)" fill="#345359"/>
      </g>
      <g id="Elipse_5890" data-name="Elipse 5890" transform="translate(465.75 1187.598)" fill="#ffe7af" stroke="#345359" stroke-width="1">
        <circle cx="19.25" cy="19.25" r="19.25" stroke="none"/>
        <circle cx="19.25" cy="19.25" r="18.75" fill="none"/>
      </g>
      <g id="Elipse_5898" data-name="Elipse 5898" transform="translate(465.75 1245.598)" fill="#ffe7af" stroke="#345359" stroke-width="1">
        <circle cx="19.25" cy="19.25" r="19.25" stroke="none"/>
        <circle cx="19.25" cy="19.25" r="18.75" fill="none"/>
      </g>
      <g id="Elipse_5899" data-name="Elipse 5899" transform="translate(465.75 1312.598)" fill="#ffe7af" stroke="#345359" stroke-width="1">
        <circle cx="19.25" cy="19.25" r="19.25" stroke="none"/>
        <circle cx="19.25" cy="19.25" r="18.75" fill="none"/>
      </g>
      <g id="Elipse_5900" data-name="Elipse 5900" transform="translate(465.75 1379.598)" fill="#ffe7af" stroke="#345359" stroke-width="1">
        <circle cx="19.25" cy="19.25" r="19.25" stroke="none"/>
        <circle cx="19.25" cy="19.25" r="18.75" fill="none"/>
      </g>
      <path id="Trazado_611165" data-name="Trazado 611165" d="M6.531,0H3.891V-8.406L1.3-7.648v-2l4.992-1.727h.242Z" transform="translate(480.5 1212.348)" fill="#12263f"/>
      <path id="Trazado_611166" data-name="Trazado 611166" d="M8.633,0H.7V-1.719L4.352-5.562A4.364,4.364,0,0,0,5.7-8.008a1.7,1.7,0,0,0-.32-1.117,1.144,1.144,0,0,0-.93-.383A1.158,1.158,0,0,0,3.477-9,2.1,2.1,0,0,0,3.1-7.719H.461A3.736,3.736,0,0,1,.984-9.652a3.671,3.671,0,0,1,1.453-1.387,4.317,4.317,0,0,1,2.078-.5,4.246,4.246,0,0,1,2.84.852,3.04,3.04,0,0,1,1,2.445A3.551,3.551,0,0,1,8.1-6.934,5.739,5.739,0,0,1,7.324-5.6a19.581,19.581,0,0,1-1.7,1.871l-1.469,1.7H8.633Z" transform="translate(480.5 1270.348)" fill="#12263f"/>
      <path id="Trazado_611167" data-name="Trazado 611167" d="M3.1-6.789H4.344A1.291,1.291,0,0,0,5.82-8.234a1.25,1.25,0,0,0-.352-.918,1.333,1.333,0,0,0-.992-.355,1.427,1.427,0,0,0-.91.3.93.93,0,0,0-.387.758H.547a2.7,2.7,0,0,1,.5-1.6,3.3,3.3,0,0,1,1.387-1.1,4.741,4.741,0,0,1,1.949-.395,4.658,4.658,0,0,1,2.984.867A2.883,2.883,0,0,1,8.453-8.289,2.4,2.4,0,0,1,8-6.9,3.2,3.2,0,0,1,6.7-5.844a3.058,3.058,0,0,1,1.422,1A2.623,2.623,0,0,1,8.633-3.2,2.935,2.935,0,0,1,7.461-.758,4.864,4.864,0,0,1,4.383.156,5.045,5.045,0,0,1,2.309-.27,3.25,3.25,0,0,1,.859-1.449,3.067,3.067,0,0,1,.367-3.164H3.016a1.185,1.185,0,0,0,.422.906,1.489,1.489,0,0,0,1.039.383,1.56,1.56,0,0,0,1.109-.387A1.293,1.293,0,0,0,6-3.25a1.511,1.511,0,0,0-.43-1.219,1.8,1.8,0,0,0-1.187-.359H3.1Z" transform="translate(480.5 1337.348)" fill="#12263f"/>
      <path id="Trazado_611168" data-name="Trazado 611168" d="M7.648-4.445H8.8v2.031H7.648V0H5.016V-2.414H.617L.461-4.023l4.555-7.328v-.023H7.648Zm-4.68,0H5.016v-3.5l-.164.266Z" transform="translate(480.5 1404.348)" fill="#12263f"/>
      <rect id="Rectángulo_378163" data-name="Rectángulo 378163" width="272" height="57" rx="28.5" transform="translate(383 1501)" fill="#94eeff"/>
      <rect id="Rectángulo_378168" data-name="Rectángulo 378168" width="272" height="57" rx="28.5" transform="translate(383 1700)" fill="#94eeff"/>
      <rect id="Rectángulo_378167" data-name="Rectángulo 378167" width="272" height="57" rx="28.5" transform="translate(317 1600)" fill="#94eeff"/>
      <rect id="Rectángulo_378169" data-name="Rectángulo 378169" width="272" height="57" rx="28.5" transform="translate(317 1800)" fill="#94eeff"/>
      <circle id="Elipse_5901" data-name="Elipse 5901" cx="50" cy="50" r="50" transform="translate(315 1479)" fill="#c3d7f5"/>
      <circle id="Elipse_5903" data-name="Elipse 5903" cx="50" cy="50" r="50" transform="translate(315 1678)" fill="#c3d7f5"/>
      <circle id="Elipse_5902" data-name="Elipse 5902" cx="50" cy="50" r="50" transform="translate(555 1578)" fill="#c3d7f5"/>
      <circle id="Elipse_5904" data-name="Elipse 5904" cx="50" cy="50" r="50" transform="translate(555 1778)" fill="#c3d7f5"/>
      <g id="Grupo_1072687" data-name="Grupo 1072687" transform="translate(339.317 1491.81)">
        <g id="Grupo_1072686" data-name="Grupo 1072686" clip-path="url(#clip-path)">
          <path id="Trazado_610569" data-name="Trazado 610569" d="M3.07,92.33c-.511-1.506-.953-2.815-1.4-4.123A2.649,2.649,0,0,1,1.5,86.737C2.222,83.375,2.9,80,3.642,76.648c.332-1.5,1.02-1.7,2.192-.722,2.5,2.083,4.978,4.189,7.478,6.269a3.174,3.174,0,0,1,1.027,1.5c.85,2.566,1.757,5.114,2.592,7.685.209.642.467.965,1.2.915a26.418,26.418,0,0,1,2.9-.006c.615.026.8-.2.788-.8-.033-1.781,0-3.564-.017-5.345-.009-.828.172-1.548,1.146-1.521.917.025,1.024.743,1.013,1.51-.023,1.743.021,3.487-.02,5.229-.017.7.2.938.918.939s1.033-.176,1.01-.965c-.051-1.742-.006-3.486-.018-5.229-.006-.777.178-1.478,1.073-1.484.952-.007,1.161.717,1.155,1.539-.011,1.743.033,3.487-.02,5.229-.022.739.261.831.927.919,1.694.222,2.578-.392,3.3-2,1.953-4.333,4.129-8.565,6.238-12.827,1.168-2.36,3.013-2.994,5.375-1.876,1.433.678,2.862,1.365,4.277,2.079a3.612,3.612,0,0,1,1.758,5.16c-1.353,2.823-2.741,5.63-4.127,8.437-.257.52-.465.916.311,1.224.5.2.565.774.567,1.306a22.523,22.523,0,0,0,3.252,11.235c1.442,2.522.776,4.426-1.964,5.465-.485.184-.517.474-.57.865-1.056,7.676-6.03,13.008-13.592,14.5a18.133,18.133,0,0,1-4.4.2c-.833-.042-1.191.16-1.125,1.077.083,1.156.01,2.323.022,3.485A1.178,1.178,0,0,1,26.973,132q-8.309,0-16.618,0c-.923,0-1.327-.483-1.326-1.379q.007-4.823,0-9.646a1.381,1.381,0,0,1,.956-1.4,17.452,17.452,0,0,0,7.566-6.981c.373-.614.3-.85-.386-1.164a6.059,6.059,0,0,1-3.663-6.585,6.15,6.15,0,0,1,5.589-5.086,5.734,5.734,0,0,1,4.191,1.4c.557.448.868.413,1.317-.115a11.011,11.011,0,0,0,2.595-5.73c.085-.605-.022-.826-.674-.825q-11.389.024-22.778,0c-.551,0-.879.155-.966.732-.867,5.74-.933,11.413,1.4,16.887a16.327,16.327,0,0,0,2.111,3.592c.5.646.811,1.3,0,1.9-.783.573-1.268.039-1.721-.556A23.048,23.048,0,0,1,.267,105.928,38.213,38.213,0,0,1,.749,94.144c.217-1.252.649-2.2,2.321-1.814m15.575,37.53c2.207,0,4.413-.024,6.619.014.714.012.955-.223.925-.932-.048-1.121-.02-2.245-.01-3.367.013-1.429.247-1.655,1.715-1.666.968-.007,1.936-.017,2.9,0a14.178,14.178,0,0,0,14.494-13.956,1.314,1.314,0,0,1,1.451-1.524c1.82-.078,2.176-.777,1.26-2.375a24.866,24.866,0,0,1-3.43-10.721c-.063-.9-.579-.828-1.173-.828-4.258,0-8.516.026-12.774-.018-.865-.009-1.165.225-1.286,1.111a12.481,12.481,0,0,1-4.439,8.149c-.863.723-1.549.722-2.247-.2a4.105,4.105,0,0,0-.955-.837,3.691,3.691,0,0,0-4.429-.032,3.878,3.878,0,0,0,1.927,7.035c1.4.139,1.775.731,1.208,2.017a19.48,19.48,0,0,1-8.412,9.295,1.335,1.335,0,0,0-.83,1.342c.048,2.167.044,4.335,0,6.5-.013.745.2,1.019.978,1,2.167-.046,4.335-.016,6.5-.016M33.711,92.276c3.042,0,5.892,0,8.741,0,.8,0,.812-.744,1.025-1.225.245-.555-.36-.557-.655-.713-.75-.4-1.536-.728-2.272-1.148a.932.932,0,0,1-.432-1.37.984.984,0,0,1,1.34-.56c.467.18.912.417,1.363.636,1.817.884,1.816.885,2.715-.96.737-1.511.748-1.532-.753-2.281-.7-.349-1.234-.761-.846-1.6s1.082-.712,1.773-.377c.277.135.547.287.833.4.233.091.523.424.719.154a4.267,4.267,0,0,0,.971-2.189,1.516,1.516,0,0,0-1.039-1.4c-1.4-.66-2.77-1.362-4.163-2.027-1.345-.642-1.928-.44-2.593.911q-2.277,4.62-4.529,9.254c-.707,1.447-1.412,2.895-2.2,4.5M6.763,86.45a2.528,2.528,0,0,0,2.656-1.056,12.012,12.012,0,0,1,1.433-1.35c.433-.362.58-.621.036-1.048-1.123-.882-2.2-1.827-3.29-2.747A.825.825,0,0,0,6.768,80c-1.069.3-2.055.633-2.093,2.029a9.386,9.386,0,0,1-.314,1.7c-.572,2.638-.575,2.638,2.4,2.717M12.6,85.388a15.077,15.077,0,0,1-1.492,1.387c-1.124.781-1.249,1.641-.762,2.935.992,2.634.9,2.652,3.682,2.581.639-.016.917-.079.644-.829-.708-1.943-1.341-3.914-2.073-6.074M4.12,88.576c.376,1.108.743,2.154,1.083,3.209.132.409.4.473.786.5,3.042.237,3.042.244,2.07-2.659-.143-.426-.2-.886-.835-.946a14.622,14.622,0,0,0-3.1-.106" transform="translate(0 -57.624)" fill="#4e5662"/>
          <path id="Trazado_610570" data-name="Trazado 610570" d="M69.8,22.426c0-1.007-.018-2.014,0-3.02a3.173,3.173,0,0,1,1.414-2.779,1.435,1.435,0,0,0,.659-1.449c.035-2.391-.2-4.8.534-7.145a15.19,15.19,0,0,1,1.469-3.27c.4-.661.9-1.011,1.616-.566s.652,1.064.246,1.711a13.188,13.188,0,0,0-1.209,2.629c-.18.506-.031.706.513.7,2.284-.018,4.569-.028,6.854-.013.8.005.642-.4.482-.9a13.823,13.823,0,0,0-4.148-6.053c-.368-.329-.82-.616-.764-1.22A1.148,1.148,0,0,1,78.1.139.956.956,0,0,1,79.28.3a15.14,15.14,0,0,1,5.642,9.436,36.948,36.948,0,0,1,.142,5.449,1.461,1.461,0,0,0,.677,1.449,2.843,2.843,0,0,1,1.27,2.482C87.019,21.323,87,23.53,87,25.737c0,.543-.127,1.02-.7,1.207a1.172,1.172,0,0,1-1.421-.486c-.5-.687-1.061-1.334-1.545-2.033-.293-.423-.505-.413-.912-.129a6.45,6.45,0,0,1-8.07-.018c-.367-.26-.562-.246-.825.126-.491.695-1.031,1.354-1.556,2.024-.349.445-.751.806-1.375.613-.666-.206-.831-.718-.818-1.362.023-1.084.006-2.168.006-3.253ZM78.52,11.4v.008c-1.2,0-2.4.038-3.593-.014-.731-.032-.942.248-.91.939.044.964.037,1.933-.008,2.9a.96.96,0,0,0,.661,1.048,3.126,3.126,0,0,1,1.87,2.6,3.426,3.426,0,0,1-.867,2.452c-.5.682-.322,1.076.335,1.467a4.376,4.376,0,0,0,4.208.293c1.435-.628,1.484-.806.723-2.152-.965-1.707-.833-3.378.686-4.252a2.325,2.325,0,0,0,1.249-2.609,9.188,9.188,0,0,1,.01-1.737c.082-.8-.276-.986-1-.955-1.119.049-2.241.013-3.362.013m6.032,11.071.3-.1c0-1.066.027-2.132-.011-3.2a1.085,1.085,0,0,0-.92-1.047,1.108,1.108,0,0,0-1.144.386.954.954,0,0,0,.007,1.269l1.764,2.688m-12.476-.14.254.088q.888-1.333,1.774-2.667c.247-.373.4-.754.05-1.158a1.122,1.122,0,0,0-1.227-.437,1.023,1.023,0,0,0-.847.97c-.015,1.068,0,2.136,0,3.2" transform="translate(-53.559 0)" fill="#4e5662"/>
          <path id="Trazado_610571" data-name="Trazado 610571" d="M181.2,35.08a1.051,1.051,0,0,1,1.062,1.139c-.023.692.105,1.082.935,1.026a1.038,1.038,0,0,1,1.229,1.085c0,.818-.545,1.176-1.306,1.129-.661-.041-.892.194-.852.851.042.7-.228,1.224-1.032,1.257-.874.035-1.173-.529-1.154-1.263.018-.662-.211-.88-.864-.845-.762.04-1.289-.315-1.28-1.148a1.039,1.039,0,0,1,1.242-1.067c.741.039.925-.256.905-.941A1.084,1.084,0,0,1,181.2,35.08" transform="translate(-136.575 -26.926)" fill="#4e5662"/>
          <path id="Trazado_610572" data-name="Trazado 610572" d="M26.9,29.742a.962.962,0,0,1-1.024-1.125c.045-.712-.125-1.074-.939-1a1,1,0,0,1-1.208-1.078.984.984,0,0,1,1.2-1.077c.8.068,1-.283.95-1.008a1.024,1.024,0,0,1,1.119-1.182,1,1,0,0,1,1.035,1.147c-.043.807.264,1.1,1.066,1.047A.958.958,0,0,1,30.2,26.52a1.01,1.01,0,0,1-1.192,1.1c-.783-.066-1,.25-.98.98.019.711-.32,1.188-1.131,1.142" transform="translate(-18.212 -17.866)" fill="#4e5662"/>
          <path id="Trazado_610573" data-name="Trazado 610573" d="M148.8,6.71c-.645-.024-1.09-.352-1.052-1.058.041-.754-.125-1.146-.995-1.07A1,1,0,0,1,145.6,3.454.974.974,0,0,1,146.71,2.4c.794.033,1.11-.24,1.033-1.055a.97.97,0,0,1,1.053-1.11.945.945,0,0,1,1.077,1.073c-.079.906.324,1.12,1.135,1.1a.963.963,0,0,1,1.046,1.113.982.982,0,0,1-1.117,1.054c-.937-.1-1.1.341-1.068,1.135.024.639-.388.971-1.071,1" transform="translate(-111.754 -0.182)" fill="#4e5662"/>
          <path id="Trazado_610574" data-name="Trazado 610574" d="M141.566,176.705a3.989,3.989,0,0,1,7.964-.022c.02.666-.218,1.155-.913,1.25a1.007,1.007,0,0,1-1.268-.993,1.811,1.811,0,0,0-3.622.014,1.015,1.015,0,0,1-1.287.979.977.977,0,0,1-.874-1.228" transform="translate(-108.649 -132.737)" fill="#4e5662"/>
          <path id="Trazado_610575" data-name="Trazado 610575" d="M80.313,203.757c-.053.649-.384,1.068-1.01,1.06a1,1,0,0,1-1.046-1.125.965.965,0,0,1,1.134-1.011c.674.049.9.5.922,1.077" transform="translate(-60.066 -155.566)" fill="#4e5662"/>
        </g>
      </g>
      <path id="Trazado_611169" data-name="Trazado 611169" d="M5.7,0H4.242V-9.633L1.328-8.562V-9.875L5.469-11.43H5.7Zm4.414-.758a.905.905,0,0,1,.223-.625A.848.848,0,0,1,11-1.633a.874.874,0,0,1,.676.25.887.887,0,0,1,.23.625.839.839,0,0,1-.23.6A.89.89,0,0,1,11,.086a.863.863,0,0,1-.668-.242A.855.855,0,0,1,10.109-.758ZM26.844-3.609A4.185,4.185,0,0,1,25.512-.824a4.365,4.365,0,0,1-2.98.98A4.008,4.008,0,0,1,19.3-1.289a5.815,5.815,0,0,1-1.215-3.867V-6.25a6.481,6.481,0,0,1,.566-2.789,4.231,4.231,0,0,1,1.605-1.848,4.47,4.47,0,0,1,2.406-.645A4.11,4.11,0,0,1,25.57-10.52a4.235,4.235,0,0,1,1.273,2.8H25.336a3.268,3.268,0,0,0-.848-1.975,2.565,2.565,0,0,0-1.824-.611A2.684,2.684,0,0,0,20.41-9.241a4.882,4.882,0,0,0-.816,3.026v1.1a5.018,5.018,0,0,0,.773,2.948A2.5,2.5,0,0,0,22.531-1.07a2.886,2.886,0,0,0,1.918-.566,3.143,3.143,0,0,0,.887-1.973ZM32.75-7.156a4.331,4.331,0,0,0-.711-.055A1.9,1.9,0,0,0,30.109-6V0H28.664V-8.453H30.07l.023.977a2.251,2.251,0,0,1,2.016-1.133,1.477,1.477,0,0,1,.641.109ZM37.438.156a3.693,3.693,0,0,1-2.8-1.129,4.19,4.19,0,0,1-1.078-3.02v-.266a5.073,5.073,0,0,1,.48-2.246,3.748,3.748,0,0,1,1.344-1.547,3.378,3.378,0,0,1,1.871-.559A3.166,3.166,0,0,1,39.82-7.523a4.7,4.7,0,0,1,.914,3.109v.6H35.008a3,3,0,0,0,.73,2.02,2.3,2.3,0,0,0,1.777.77,2.517,2.517,0,0,0,1.3-.312,3.259,3.259,0,0,0,.93-.828l.883.688A3.55,3.55,0,0,1,37.438.156Zm-.18-7.578a1.928,1.928,0,0,0-1.469.637A3.1,3.1,0,0,0,35.055-5h4.234v-.109A2.753,2.753,0,0,0,38.7-6.816,1.815,1.815,0,0,0,37.258-7.422ZM47.625,0a3.036,3.036,0,0,1-.2-.891A3.225,3.225,0,0,1,45.016.156a2.984,2.984,0,0,1-2.051-.707,2.287,2.287,0,0,1-.8-1.793,2.39,2.39,0,0,1,1-2.051,4.733,4.733,0,0,1,2.824-.73H47.4v-.664A1.623,1.623,0,0,0,46.945-7a1.821,1.821,0,0,0-1.336-.449,2.107,2.107,0,0,0-1.3.391,1.151,1.151,0,0,0-.523.945H42.336a2,2,0,0,1,.449-1.223A3.066,3.066,0,0,1,44-8.266,4.1,4.1,0,0,1,45.7-8.609a3.342,3.342,0,0,1,2.289.73,2.635,2.635,0,0,1,.859,2.012v3.891a4.757,4.757,0,0,0,.3,1.852V0Zm-2.4-1.1a2.54,2.54,0,0,0,1.289-.352,2.127,2.127,0,0,0,.883-.914V-4.1H46.266q-2.656,0-2.656,1.555a1.316,1.316,0,0,0,.453,1.063A1.742,1.742,0,0,0,45.227-1.1Zm7.844-9.4v2.047h1.578v1.117H53.07v5.249a1.173,1.173,0,0,0,.211.763A.888.888,0,0,0,54-1.07a3.5,3.5,0,0,0,.688-.094V0a4.215,4.215,0,0,1-1.109.155A1.8,1.8,0,0,1,52.117-.43a2.517,2.517,0,0,1-.492-1.664V-7.336H50.086V-8.453h1.539V-10.5ZM57.906,0H56.461V-8.453h1.445ZM56.344-10.7a.863.863,0,0,1,.215-.594.807.807,0,0,1,.637-.242.819.819,0,0,1,.641.242.854.854,0,0,1,.219.594.826.826,0,0,1-.219.586.834.834,0,0,1-.641.234.821.821,0,0,1-.637-.234A.834.834,0,0,1,56.344-10.7Zm6.664,8.734L65.1-8.453h1.477L63.547,0h-1.1L59.383-8.453h1.477ZM69.539,0H68.094V-8.453h1.445ZM67.977-10.7a.863.863,0,0,1,.215-.594.807.807,0,0,1,.637-.242.819.819,0,0,1,.641.242.854.854,0,0,1,.219.594.826.826,0,0,1-.219.586.834.834,0,0,1-.641.234.821.821,0,0,1-.637-.234A.834.834,0,0,1,67.977-10.7ZM71.5-4.3a4.952,4.952,0,0,1,.922-3.129,2.915,2.915,0,0,1,2.414-1.184,2.932,2.932,0,0,1,2.352,1.016V-12h1.445V0H77.3l-.07-.906A2.943,2.943,0,0,1,74.82.156a2.887,2.887,0,0,1-2.395-1.2A5.008,5.008,0,0,1,71.5-4.187Zm1.445.164a3.749,3.749,0,0,0,.594,2.25,1.92,1.92,0,0,0,1.641.813A2.109,2.109,0,0,0,77.188-2.3V-6.187a2.125,2.125,0,0,0-1.992-1.2,1.929,1.929,0,0,0-1.656.82A4.128,4.128,0,0,0,72.945-4.133ZM86.094,0a3.036,3.036,0,0,1-.2-.891A3.225,3.225,0,0,1,83.484.156a2.984,2.984,0,0,1-2.051-.707,2.288,2.288,0,0,1-.8-1.793,2.39,2.39,0,0,1,1-2.051,4.733,4.733,0,0,1,2.824-.73h1.406v-.664A1.623,1.623,0,0,0,85.414-7a1.821,1.821,0,0,0-1.336-.449,2.108,2.108,0,0,0-1.3.391,1.151,1.151,0,0,0-.523.945H80.8a2,2,0,0,1,.449-1.223,3.066,3.066,0,0,1,1.219-.934,4.1,4.1,0,0,1,1.691-.344,3.342,3.342,0,0,1,2.289.73,2.635,2.635,0,0,1,.859,2.012v3.891a4.757,4.757,0,0,0,.3,1.852V0ZM83.7-1.1a2.54,2.54,0,0,0,1.289-.352,2.127,2.127,0,0,0,.883-.914V-4.1H84.734q-2.656,0-2.656,1.555a1.316,1.316,0,0,0,.453,1.063A1.742,1.742,0,0,0,83.7-1.1Zm5.531-3.2a4.952,4.952,0,0,1,.922-3.129,2.915,2.915,0,0,1,2.414-1.184,2.932,2.932,0,0,1,2.352,1.016V-12h1.445V0H95.031l-.07-.906A2.943,2.943,0,0,1,92.547.156a2.887,2.887,0,0,1-2.395-1.2,5.008,5.008,0,0,1-.926-3.141Zm1.445.164a3.749,3.749,0,0,0,.594,2.25,1.92,1.92,0,0,0,1.641.813A2.109,2.109,0,0,0,94.914-2.3V-6.187a2.125,2.125,0,0,0-1.992-1.2,1.929,1.929,0,0,0-1.656.82A4.128,4.128,0,0,0,90.672-4.133Z" transform="translate(469 1535)" fill="#12263f"/>
      <path id="Trazado_611170" data-name="Trazado 611170" d="M8.4,0H.945V-1.039L4.883-5.414A9.354,9.354,0,0,0,6.09-7.027a2.693,2.693,0,0,0,.332-1.285,2.041,2.041,0,0,0-.539-1.461,1.885,1.885,0,0,0-1.437-.57A2.232,2.232,0,0,0,2.77-9.73a2.343,2.343,0,0,0-.6,1.707H.727a3.355,3.355,0,0,1,1.012-2.539,3.751,3.751,0,0,1,2.707-.969,3.6,3.6,0,0,1,2.508.832,2.838,2.838,0,0,1,.922,2.215q0,1.68-2.141,4L2.688-1.18H8.4Zm1.711-.758a.905.905,0,0,1,.223-.625A.848.848,0,0,1,11-1.633a.874.874,0,0,1,.676.25.887.887,0,0,1,.23.625.839.839,0,0,1-.23.6A.89.89,0,0,1,11,.086a.863.863,0,0,1-.668-.242A.855.855,0,0,1,10.109-.758ZM26.844-3.609A4.185,4.185,0,0,1,25.512-.824a4.365,4.365,0,0,1-2.98.98A4.008,4.008,0,0,1,19.3-1.289a5.815,5.815,0,0,1-1.215-3.867V-6.25a6.481,6.481,0,0,1,.566-2.789,4.231,4.231,0,0,1,1.605-1.848,4.47,4.47,0,0,1,2.406-.645A4.11,4.11,0,0,1,25.57-10.52a4.235,4.235,0,0,1,1.273,2.8H25.336a3.268,3.268,0,0,0-.848-1.975,2.565,2.565,0,0,0-1.824-.611A2.684,2.684,0,0,0,20.41-9.241a4.882,4.882,0,0,0-.816,3.026v1.1a5.018,5.018,0,0,0,.773,2.948A2.5,2.5,0,0,0,22.531-1.07a2.886,2.886,0,0,0,1.918-.566,3.143,3.143,0,0,0,.887-1.973Zm1.438-.7a4.993,4.993,0,0,1,.488-2.234A3.643,3.643,0,0,1,30.129-8.07a3.7,3.7,0,0,1,1.988-.539,3.565,3.565,0,0,1,2.793,1.2,4.6,4.6,0,0,1,1.066,3.18v.1A5.036,5.036,0,0,1,35.5-1.918,3.589,3.589,0,0,1,34.152-.391a3.743,3.743,0,0,1-2.02.547,3.556,3.556,0,0,1-2.785-1.2A4.575,4.575,0,0,1,28.281-4.2Zm1.453.172a3.616,3.616,0,0,0,.652,2.258,2.088,2.088,0,0,0,1.746.852,2.075,2.075,0,0,0,1.75-.863A3.955,3.955,0,0,0,34.531-4.3a3.61,3.61,0,0,0-.66-2.254,2.1,2.1,0,0,0-1.754-.863,2.075,2.075,0,0,0-1.727.852A3.925,3.925,0,0,0,29.734-4.133Zm9.414-4.32.039.938A3.122,3.122,0,0,1,41.7-8.609,2.417,2.417,0,0,1,44.109-7.25a3.2,3.2,0,0,1,1.1-.984,3.242,3.242,0,0,1,1.6-.375q2.781,0,2.828,2.945V0H48.188V-5.578a1.941,1.941,0,0,0-.414-1.355,1.823,1.823,0,0,0-1.391-.449,1.917,1.917,0,0,0-1.336.48,1.949,1.949,0,0,0-.617,1.293V0H42.977V-5.539a1.613,1.613,0,0,0-1.8-1.844,1.934,1.934,0,0,0-1.945,1.211V0H37.781V-8.453Zm19.8,4.32a5.062,5.062,0,0,1-.883,3.109A2.829,2.829,0,0,1,55.68.156,3.1,3.1,0,0,1,53.258-.82V3.25H51.813v-11.7h1.32l.07.938a2.977,2.977,0,0,1,2.453-1.094,2.882,2.882,0,0,1,2.41,1.148,5.117,5.117,0,0,1,.887,3.2ZM57.508-4.3A3.735,3.735,0,0,0,56.9-6.555a1.963,1.963,0,0,0-1.672-.828,2.125,2.125,0,0,0-1.969,1.164V-2.18a2.129,2.129,0,0,0,1.984,1.156,1.954,1.954,0,0,0,1.652-.824A4.077,4.077,0,0,0,57.508-4.3ZM64.3.156A3.693,3.693,0,0,1,61.5-.973a4.19,4.19,0,0,1-1.078-3.02v-.266A5.073,5.073,0,0,1,60.9-6.5a3.748,3.748,0,0,1,1.344-1.547,3.378,3.378,0,0,1,1.871-.559A3.166,3.166,0,0,1,66.68-7.523a4.7,4.7,0,0,1,.914,3.109v.6H61.867a3,3,0,0,0,.73,2.02,2.3,2.3,0,0,0,1.777.77,2.517,2.517,0,0,0,1.3-.312,3.259,3.259,0,0,0,.93-.828l.883.688A3.55,3.55,0,0,1,64.3.156Zm-.18-7.578a1.928,1.928,0,0,0-1.469.637A3.1,3.1,0,0,0,61.914-5h4.234v-.109a2.753,2.753,0,0,0-.594-1.707A1.815,1.815,0,0,0,64.117-7.422ZM71.227-10.5v2.047H72.8v1.117H71.227v5.249a1.173,1.173,0,0,0,.211.763.888.888,0,0,0,.719.254,3.5,3.5,0,0,0,.688-.094V0a4.215,4.215,0,0,1-1.109.155A1.8,1.8,0,0,1,70.273-.43a2.517,2.517,0,0,1-.492-1.664V-7.336H68.242V-8.453h1.539V-10.5ZM76.063,0H74.617V-8.453h1.445ZM74.5-10.7a.863.863,0,0,1,.215-.594.807.807,0,0,1,.637-.242.819.819,0,0,1,.641.242.854.854,0,0,1,.219.594.826.826,0,0,1-.219.586.834.834,0,0,1-.641.234.821.821,0,0,1-.637-.234A.834.834,0,0,1,74.5-10.7Zm5.836.2v2.047h1.578v1.117H80.336v5.249a1.173,1.173,0,0,0,.211.763.888.888,0,0,0,.719.254,3.5,3.5,0,0,0,.688-.094V0a4.215,4.215,0,0,1-1.109.155A1.8,1.8,0,0,1,79.383-.43a2.517,2.517,0,0,1-.492-1.664V-7.336H77.352V-8.453h1.539V-10.5ZM85.172,0H83.727V-8.453h1.445ZM83.609-10.7a.863.863,0,0,1,.215-.594.807.807,0,0,1,.637-.242.819.819,0,0,1,.641.242.854.854,0,0,1,.219.594.826.826,0,0,1-.219.586.834.834,0,0,1-.641.234.821.821,0,0,1-.637-.234A.834.834,0,0,1,83.609-10.7Zm6.664,8.734,2.094-6.492h1.477L90.813,0h-1.1L86.648-8.453h1.477ZM96.8,0H95.359V-8.453H96.8ZM95.242-10.7a.863.863,0,0,1,.215-.594.807.807,0,0,1,.637-.242.819.819,0,0,1,.641.242.854.854,0,0,1,.219.594.826.826,0,0,1-.219.586.834.834,0,0,1-.641.234.821.821,0,0,1-.637-.234A.834.834,0,0,1,95.242-10.7Zm3.523,6.4a4.952,4.952,0,0,1,.922-3.129A2.915,2.915,0,0,1,102.1-8.609a2.932,2.932,0,0,1,2.352,1.016V-12H105.9V0H104.57l-.07-.906A2.943,2.943,0,0,1,102.086.156a2.887,2.887,0,0,1-2.395-1.2,5.008,5.008,0,0,1-.926-3.141Zm1.445.164a3.749,3.749,0,0,0,.594,2.25,1.92,1.92,0,0,0,1.641.813A2.109,2.109,0,0,0,104.453-2.3V-6.187a2.125,2.125,0,0,0-1.992-1.2,1.929,1.929,0,0,0-1.656.82A4.128,4.128,0,0,0,100.211-4.133ZM113.359,0a3.036,3.036,0,0,1-.2-.891A3.225,3.225,0,0,1,110.75.156,2.984,2.984,0,0,1,108.7-.551a2.288,2.288,0,0,1-.8-1.793,2.39,2.39,0,0,1,1-2.051,4.733,4.733,0,0,1,2.824-.73h1.406v-.664A1.623,1.623,0,0,0,112.68-7a1.821,1.821,0,0,0-1.336-.449,2.108,2.108,0,0,0-1.3.391,1.151,1.151,0,0,0-.523.945H108.07a2,2,0,0,1,.449-1.223,3.066,3.066,0,0,1,1.219-.934,4.1,4.1,0,0,1,1.691-.344,3.342,3.342,0,0,1,2.289.73,2.635,2.635,0,0,1,.859,2.012v3.891a4.757,4.757,0,0,0,.3,1.852V0Zm-2.4-1.1a2.54,2.54,0,0,0,1.289-.352,2.127,2.127,0,0,0,.883-.914V-4.1H112q-2.656,0-2.656,1.555a1.316,1.316,0,0,0,.453,1.063A1.742,1.742,0,0,0,110.961-1.1Zm5.531-3.2a4.952,4.952,0,0,1,.922-3.129,2.915,2.915,0,0,1,2.414-1.184,2.932,2.932,0,0,1,2.352,1.016V-12h1.445V0H122.3l-.07-.906A2.943,2.943,0,0,1,119.813.156a2.887,2.887,0,0,1-2.395-1.2,5.008,5.008,0,0,1-.926-3.141Zm1.445.164a3.749,3.749,0,0,0,.594,2.25,1.92,1.92,0,0,0,1.641.813A2.109,2.109,0,0,0,122.18-2.3V-6.187a2.125,2.125,0,0,0-1.992-1.2,1.929,1.929,0,0,0-1.656.82A4.128,4.128,0,0,0,117.938-4.133Z" transform="translate(382 1634)" fill="#12263f"/>
      <path id="Trazado_611171" data-name="Trazado 611171" d="M3.047-6.391H4.133A2.387,2.387,0,0,0,5.742-6.93a1.8,1.8,0,0,0,.586-1.414,1.764,1.764,0,0,0-1.992-2,2.072,2.072,0,0,0-1.5.535,1.873,1.873,0,0,0-.559,1.418H.836a2.9,2.9,0,0,1,.988-2.246,3.6,3.6,0,0,1,2.512-.895,3.558,3.558,0,0,1,2.523.852,3.076,3.076,0,0,1,.914,2.367,2.5,2.5,0,0,1-.48,1.438A2.9,2.9,0,0,1,5.984-5.836a2.8,2.8,0,0,1,1.449.984,2.734,2.734,0,0,1,.512,1.68,3.1,3.1,0,0,1-1,2.43,3.745,3.745,0,0,1-2.6.9A3.844,3.844,0,0,1,1.738-.711,2.877,2.877,0,0,1,.734-3H2.188a1.859,1.859,0,0,0,.586,1.438,2.229,2.229,0,0,0,1.57.539,2.187,2.187,0,0,0,1.6-.547A2.108,2.108,0,0,0,6.5-3.141a1.912,1.912,0,0,0-.609-1.523,2.655,2.655,0,0,0-1.758-.547H3.047ZM10.109-.758a.905.905,0,0,1,.223-.625A.848.848,0,0,1,11-1.633a.874.874,0,0,1,.676.25.887.887,0,0,1,.23.625.839.839,0,0,1-.23.6A.89.89,0,0,1,11,.086a.863.863,0,0,1-.668-.242A.855.855,0,0,1,10.109-.758ZM20.086,0h-1.5V-11.375h1.5Zm3.883-8.453.047,1.063a3.08,3.08,0,0,1,2.531-1.219q2.68,0,2.7,3.023V0H27.8V-5.594a1.946,1.946,0,0,0-.418-1.352,1.675,1.675,0,0,0-1.277-.437,2.086,2.086,0,0,0-1.234.375,2.546,2.546,0,0,0-.828.984V0H22.6V-8.453Zm8.828,0,.047,1.063a3.08,3.08,0,0,1,2.531-1.219q2.68,0,2.7,3.023V0H36.633V-5.594a1.946,1.946,0,0,0-.418-1.352,1.675,1.675,0,0,0-1.277-.437,2.086,2.086,0,0,0-1.234.375,2.546,2.546,0,0,0-.828.984V0H31.43V-8.453ZM39.875-4.3a4.993,4.993,0,0,1,.488-2.234A3.643,3.643,0,0,1,41.723-8.07a3.7,3.7,0,0,1,1.988-.539,3.565,3.565,0,0,1,2.793,1.2,4.6,4.6,0,0,1,1.066,3.18v.1A5.036,5.036,0,0,1,47.1-1.918,3.589,3.589,0,0,1,45.746-.391a3.743,3.743,0,0,1-2.02.547,3.556,3.556,0,0,1-2.785-1.2A4.575,4.575,0,0,1,39.875-4.2Zm1.453.172a3.616,3.616,0,0,0,.652,2.258,2.088,2.088,0,0,0,1.746.852,2.075,2.075,0,0,0,1.75-.863A3.955,3.955,0,0,0,46.125-4.3a3.61,3.61,0,0,0-.66-2.254,2.1,2.1,0,0,0-1.754-.863,2.075,2.075,0,0,0-1.727.852A3.925,3.925,0,0,0,41.328-4.133ZM52.055-1.961l2.094-6.492h1.477L52.594,0h-1.1L48.43-8.453h1.477ZM62.117,0a3.036,3.036,0,0,1-.2-.891A3.225,3.225,0,0,1,59.508.156a2.984,2.984,0,0,1-2.051-.707,2.287,2.287,0,0,1-.8-1.793,2.39,2.39,0,0,1,1-2.051,4.733,4.733,0,0,1,2.824-.73h1.406v-.664A1.623,1.623,0,0,0,61.438-7,1.821,1.821,0,0,0,60.1-7.445a2.107,2.107,0,0,0-1.3.391,1.151,1.151,0,0,0-.523.945H56.828a2,2,0,0,1,.449-1.223A3.066,3.066,0,0,1,58.5-8.266a4.1,4.1,0,0,1,1.691-.344,3.342,3.342,0,0,1,2.289.73,2.635,2.635,0,0,1,.859,2.012v3.891a4.757,4.757,0,0,0,.3,1.852V0Zm-2.4-1.1a2.54,2.54,0,0,0,1.289-.352,2.127,2.127,0,0,0,.883-.914V-4.1H60.758Q58.1-4.1,58.1-2.547a1.316,1.316,0,0,0,.453,1.063A1.742,1.742,0,0,0,59.719-1.1Zm9.273.078a2.082,2.082,0,0,0,1.352-.469,1.649,1.649,0,0,0,.641-1.172h1.367a2.621,2.621,0,0,1-.5,1.383,3.293,3.293,0,0,1-1.23,1.047,3.55,3.55,0,0,1-1.629.391A3.482,3.482,0,0,1,66.246-1a4.59,4.59,0,0,1-1.02-3.152v-.242a5.089,5.089,0,0,1,.453-2.2,3.451,3.451,0,0,1,1.3-1.492,3.7,3.7,0,0,1,2-.531,3.39,3.39,0,0,1,2.363.852,3.043,3.043,0,0,1,1,2.211H70.984a1.992,1.992,0,0,0-.621-1.348,1.932,1.932,0,0,0-1.379-.527,2.023,2.023,0,0,0-1.707.793,3.724,3.724,0,0,0-.605,2.293v.273a3.65,3.65,0,0,0,.6,2.25A2.033,2.033,0,0,0,68.992-1.023ZM75.547,0H74.1V-8.453h1.445ZM73.984-10.7a.863.863,0,0,1,.215-.594.807.807,0,0,1,.637-.242.819.819,0,0,1,.641.242.854.854,0,0,1,.219.594.826.826,0,0,1-.219.586.834.834,0,0,1-.641.234.821.821,0,0,1-.637-.234A.834.834,0,0,1,73.984-10.7ZM77.477-4.3a4.993,4.993,0,0,1,.488-2.234A3.643,3.643,0,0,1,79.324-8.07a3.7,3.7,0,0,1,1.988-.539,3.565,3.565,0,0,1,2.793,1.2,4.6,4.6,0,0,1,1.066,3.18v.1A5.036,5.036,0,0,1,84.7-1.918,3.589,3.589,0,0,1,83.348-.391a3.743,3.743,0,0,1-2.02.547,3.556,3.556,0,0,1-2.785-1.2A4.575,4.575,0,0,1,77.477-4.2Zm1.453.172a3.616,3.616,0,0,0,.652,2.258,2.088,2.088,0,0,0,1.746.852,2.075,2.075,0,0,0,1.75-.863A3.955,3.955,0,0,0,83.727-4.3a3.61,3.61,0,0,0-.66-2.254,2.1,2.1,0,0,0-1.754-.863,2.075,2.075,0,0,0-1.727.852A3.925,3.925,0,0,0,78.93-4.133ZM81.969-12h1.75L81.625-9.7l-1.164,0Zm6.383,3.547L88.4-7.391A3.08,3.08,0,0,1,90.93-8.609q2.68,0,2.7,3.023V0H92.188V-5.594a1.946,1.946,0,0,0-.418-1.352,1.675,1.675,0,0,0-1.277-.437,2.086,2.086,0,0,0-1.234.375,2.546,2.546,0,0,0-.828.984V0H86.984V-8.453Z" transform="translate(475 1734)" fill="#12263f"/>
      <path id="Trazado_611172" data-name="Trazado 611172" d="M7.047-3.82H8.625v1.18H7.047V0H5.594V-2.641H.414v-.852l5.094-7.883H7.047Zm-4.992,0H5.594V-9.4l-.172.313ZM10.109-.758a.905.905,0,0,1,.223-.625A.848.848,0,0,1,11-1.633a.874.874,0,0,1,.676.25.887.887,0,0,1,.23.625.839.839,0,0,1-.23.6A.89.89,0,0,1,11,.086a.863.863,0,0,1-.668-.242A.855.855,0,0,1,10.109-.758ZM20.086,0h-1.5V-11.375h1.5Zm3.883-8.453.047,1.063a3.08,3.08,0,0,1,2.531-1.219q2.68,0,2.7,3.023V0H27.8V-5.594a1.946,1.946,0,0,0-.418-1.352,1.675,1.675,0,0,0-1.277-.437,2.086,2.086,0,0,0-1.234.375,2.546,2.546,0,0,0-.828.984V0H22.6V-8.453ZM32.141,0V-7.336H30.8V-8.453h1.336V-9.32a2.878,2.878,0,0,1,.727-2.1,2.745,2.745,0,0,1,2.055-.742,3.816,3.816,0,0,1,.992.132l-.078,1.165a4.151,4.151,0,0,0-.781-.07,1.41,1.41,0,0,0-1.086.411,1.669,1.669,0,0,0-.383,1.18v.893h1.8v1.117h-1.8V0ZM36.6-4.3a4.993,4.993,0,0,1,.488-2.234A3.643,3.643,0,0,1,38.449-8.07a3.7,3.7,0,0,1,1.988-.539,3.565,3.565,0,0,1,2.793,1.2A4.6,4.6,0,0,1,44.3-4.234v.1a5.036,5.036,0,0,1-.473,2.215A3.589,3.589,0,0,1,42.473-.391a3.743,3.743,0,0,1-2.02.547,3.556,3.556,0,0,1-2.785-1.2A4.575,4.575,0,0,1,36.6-4.2Zm1.453.172a3.616,3.616,0,0,0,.652,2.258,2.088,2.088,0,0,0,1.746.852,2.075,2.075,0,0,0,1.75-.863A3.955,3.955,0,0,0,42.852-4.3a3.61,3.61,0,0,0-.66-2.254,2.1,2.1,0,0,0-1.754-.863,2.075,2.075,0,0,0-1.727.852A3.925,3.925,0,0,0,38.055-4.133ZM50.2-7.156a4.331,4.331,0,0,0-.711-.055A1.9,1.9,0,0,0,47.555-6V0H46.109V-8.453h1.406l.023.977a2.251,2.251,0,0,1,2.016-1.133A1.477,1.477,0,0,1,50.2-8.5Zm2.688-1.3.039.938A3.122,3.122,0,0,1,55.43-8.609,2.417,2.417,0,0,1,57.844-7.25a3.2,3.2,0,0,1,1.1-.984,3.242,3.242,0,0,1,1.6-.375q2.781,0,2.828,2.945V0H61.922V-5.578a1.941,1.941,0,0,0-.414-1.355,1.823,1.823,0,0,0-1.391-.449,1.917,1.917,0,0,0-1.336.48,1.949,1.949,0,0,0-.617,1.293V0H56.711V-5.539a1.613,1.613,0,0,0-1.8-1.844,1.934,1.934,0,0,0-1.945,1.211V0H51.516V-8.453ZM70.766,0a3.036,3.036,0,0,1-.2-.891A3.225,3.225,0,0,1,68.156.156a2.984,2.984,0,0,1-2.051-.707,2.288,2.288,0,0,1-.8-1.793,2.39,2.39,0,0,1,1-2.051,4.733,4.733,0,0,1,2.824-.73h1.406v-.664A1.623,1.623,0,0,0,70.086-7a1.821,1.821,0,0,0-1.336-.449,2.108,2.108,0,0,0-1.3.391,1.151,1.151,0,0,0-.523.945H65.477a2,2,0,0,1,.449-1.223,3.066,3.066,0,0,1,1.219-.934,4.1,4.1,0,0,1,1.691-.344,3.342,3.342,0,0,1,2.289.73,2.635,2.635,0,0,1,.859,2.012v3.891a4.757,4.757,0,0,0,.3,1.852V0Zm-2.4-1.1a2.54,2.54,0,0,0,1.289-.352,2.127,2.127,0,0,0,.883-.914V-4.1H69.406q-2.656,0-2.656,1.555A1.316,1.316,0,0,0,67.2-1.484,1.742,1.742,0,0,0,68.367-1.1Zm9.273.078a2.082,2.082,0,0,0,1.352-.469,1.649,1.649,0,0,0,.641-1.172H81a2.621,2.621,0,0,1-.5,1.383A3.293,3.293,0,0,1,79.27-.234a3.55,3.55,0,0,1-1.629.391A3.482,3.482,0,0,1,74.895-1a4.59,4.59,0,0,1-1.02-3.152v-.242a5.089,5.089,0,0,1,.453-2.2,3.451,3.451,0,0,1,1.3-1.492,3.7,3.7,0,0,1,2-.531A3.39,3.39,0,0,1,80-7.758a3.043,3.043,0,0,1,1,2.211H79.633a1.992,1.992,0,0,0-.621-1.348,1.932,1.932,0,0,0-1.379-.527,2.023,2.023,0,0,0-1.707.793,3.724,3.724,0,0,0-.605,2.293v.273a3.65,3.65,0,0,0,.6,2.25A2.033,2.033,0,0,0,77.641-1.023ZM84.2,0H82.75V-8.453H84.2ZM82.633-10.7a.863.863,0,0,1,.215-.594.807.807,0,0,1,.637-.242.819.819,0,0,1,.641.242.854.854,0,0,1,.219.594.826.826,0,0,1-.219.586.834.834,0,0,1-.641.234.821.821,0,0,1-.637-.234A.834.834,0,0,1,82.633-10.7ZM86.125-4.3a4.993,4.993,0,0,1,.488-2.234A3.643,3.643,0,0,1,87.973-8.07a3.7,3.7,0,0,1,1.988-.539,3.565,3.565,0,0,1,2.793,1.2,4.6,4.6,0,0,1,1.066,3.18v.1a5.036,5.036,0,0,1-.473,2.215A3.589,3.589,0,0,1,92-.391a3.743,3.743,0,0,1-2.02.547,3.556,3.556,0,0,1-2.785-1.2A4.575,4.575,0,0,1,86.125-4.2Zm1.453.172a3.616,3.616,0,0,0,.652,2.258,2.088,2.088,0,0,0,1.746.852,2.075,2.075,0,0,0,1.75-.863A3.955,3.955,0,0,0,92.375-4.3a3.61,3.61,0,0,0-.66-2.254,2.1,2.1,0,0,0-1.754-.863,2.075,2.075,0,0,0-1.727.852A3.925,3.925,0,0,0,87.578-4.133ZM90.617-12h1.75L90.273-9.7l-1.164,0ZM97-8.453l.047,1.063a3.08,3.08,0,0,1,2.531-1.219q2.68,0,2.7,3.023V0h-1.445V-5.594a1.946,1.946,0,0,0-.418-1.352,1.675,1.675,0,0,0-1.277-.437,2.086,2.086,0,0,0-1.234.375,2.546,2.546,0,0,0-.828.984V0H95.633V-8.453Zm14.188,6.336,1.969-6.336H114.7L111.3,1.3q-.789,2.109-2.508,2.109l-.273-.023-.539-.1V2.117l.391.031a1.923,1.923,0,0,0,1.145-.3A2.149,2.149,0,0,0,110.2.766l.32-.859L107.5-8.453h1.578Zm12.156,1.094a2.082,2.082,0,0,0,1.352-.469,1.649,1.649,0,0,0,.641-1.172H126.7a2.621,2.621,0,0,1-.5,1.383,3.293,3.293,0,0,1-1.23,1.047,3.55,3.55,0,0,1-1.629.391A3.482,3.482,0,0,1,120.6-1a4.59,4.59,0,0,1-1.02-3.152v-.242a5.089,5.089,0,0,1,.453-2.2,3.451,3.451,0,0,1,1.3-1.492,3.7,3.7,0,0,1,2-.531,3.39,3.39,0,0,1,2.363.852,3.043,3.043,0,0,1,1,2.211h-1.367a1.992,1.992,0,0,0-.621-1.348,1.932,1.932,0,0,0-1.379-.527,2.023,2.023,0,0,0-1.707.793,3.724,3.724,0,0,0-.605,2.293v.273a3.65,3.65,0,0,0,.6,2.25A2.033,2.033,0,0,0,123.344-1.023Zm4.6-3.281a4.993,4.993,0,0,1,.488-2.234,3.642,3.642,0,0,1,1.359-1.531,3.7,3.7,0,0,1,1.988-.539,3.565,3.565,0,0,1,2.793,1.2,4.6,4.6,0,0,1,1.066,3.18v.1a5.036,5.036,0,0,1-.473,2.215,3.589,3.589,0,0,1-1.352,1.527,3.743,3.743,0,0,1-2.02.547,3.556,3.556,0,0,1-2.785-1.2A4.575,4.575,0,0,1,127.945-4.2Zm1.453.172a3.616,3.616,0,0,0,.652,2.258,2.088,2.088,0,0,0,1.746.852,2.075,2.075,0,0,0,1.75-.863A3.954,3.954,0,0,0,134.2-4.3a3.61,3.61,0,0,0-.66-2.254,2.1,2.1,0,0,0-1.754-.863,2.075,2.075,0,0,0-1.727.852A3.925,3.925,0,0,0,129.4-4.133Zm9.422-4.32.047,1.063A3.08,3.08,0,0,1,141.4-8.609q2.68,0,2.7,3.023V0h-1.445V-5.594a1.946,1.946,0,0,0-.418-1.352,1.675,1.675,0,0,0-1.277-.437,2.086,2.086,0,0,0-1.234.375,2.546,2.546,0,0,0-.828.984V0h-1.445V-8.453ZM145.9-4.3a4.993,4.993,0,0,1,.488-2.234,3.642,3.642,0,0,1,1.359-1.531,3.7,3.7,0,0,1,1.988-.539,3.565,3.565,0,0,1,2.793,1.2,4.6,4.6,0,0,1,1.066,3.18v.1a5.036,5.036,0,0,1-.473,2.215A3.589,3.589,0,0,1,151.77-.391a3.743,3.743,0,0,1-2.02.547,3.556,3.556,0,0,1-2.785-1.2A4.575,4.575,0,0,1,145.9-4.2Zm1.453.172A3.616,3.616,0,0,0,148-1.875a2.088,2.088,0,0,0,1.746.852,2.075,2.075,0,0,0,1.75-.863,3.954,3.954,0,0,0,.648-2.418,3.61,3.61,0,0,0-.66-2.254,2.1,2.1,0,0,0-1.754-.863,2.075,2.075,0,0,0-1.727.852A3.925,3.925,0,0,0,147.352-4.133ZM158.8-1.023a2.082,2.082,0,0,0,1.352-.469,1.649,1.649,0,0,0,.641-1.172h1.367a2.621,2.621,0,0,1-.5,1.383,3.293,3.293,0,0,1-1.23,1.047A3.55,3.55,0,0,1,158.8.156,3.482,3.482,0,0,1,156.051-1a4.59,4.59,0,0,1-1.02-3.152v-.242a5.089,5.089,0,0,1,.453-2.2,3.451,3.451,0,0,1,1.3-1.492,3.7,3.7,0,0,1,2-.531,3.39,3.39,0,0,1,2.363.852,3.043,3.043,0,0,1,1,2.211h-1.367a1.992,1.992,0,0,0-.621-1.348,1.932,1.932,0,0,0-1.379-.527,2.023,2.023,0,0,0-1.707.793,3.724,3.724,0,0,0-.605,2.293v.273a3.65,3.65,0,0,0,.6,2.25A2.033,2.033,0,0,0,158.8-1.023ZM165.352,0h-1.445V-8.453h1.445Zm-1.562-10.7a.863.863,0,0,1,.215-.594.807.807,0,0,1,.637-.242.819.819,0,0,1,.641.242.854.854,0,0,1,.219.594.826.826,0,0,1-.219.586.834.834,0,0,1-.641.234.821.821,0,0,1-.637-.234A.834.834,0,0,1,163.789-10.7Zm5.234,2.242.039.938a3.122,3.122,0,0,1,2.508-1.094,2.417,2.417,0,0,1,2.414,1.359,3.2,3.2,0,0,1,1.1-.984,3.242,3.242,0,0,1,1.6-.375q2.781,0,2.828,2.945V0h-1.445V-5.578a1.941,1.941,0,0,0-.414-1.355,1.823,1.823,0,0,0-1.391-.449,1.917,1.917,0,0,0-1.336.48,1.949,1.949,0,0,0-.617,1.293V0h-1.453V-5.539a1.613,1.613,0,0,0-1.8-1.844A1.934,1.934,0,0,0,169.1-6.172V0h-1.445V-8.453ZM183.258,0h-1.445V-8.453h1.445ZM181.7-10.7a.863.863,0,0,1,.215-.594.807.807,0,0,1,.637-.242.819.819,0,0,1,.641.242.854.854,0,0,1,.219.594.826.826,0,0,1-.219.586.834.834,0,0,1-.641.234.821.821,0,0,1-.637-.234A.834.834,0,0,1,181.7-10.7ZM189.078.156a3.693,3.693,0,0,1-2.8-1.129,4.19,4.19,0,0,1-1.078-3.02v-.266a5.073,5.073,0,0,1,.48-2.246,3.748,3.748,0,0,1,1.344-1.547,3.378,3.378,0,0,1,1.871-.559,3.166,3.166,0,0,1,2.563,1.086,4.7,4.7,0,0,1,.914,3.109v.6h-5.727a3,3,0,0,0,.73,2.02,2.3,2.3,0,0,0,1.777.77,2.517,2.517,0,0,0,1.3-.312,3.258,3.258,0,0,0,.93-.828l.883.688A3.55,3.55,0,0,1,189.078.156Zm-.18-7.578a1.928,1.928,0,0,0-1.469.637A3.1,3.1,0,0,0,186.7-5h4.234v-.109a2.753,2.753,0,0,0-.594-1.707A1.815,1.815,0,0,0,188.9-7.422Zm6.516-1.031.047,1.063a3.08,3.08,0,0,1,2.531-1.219q2.68,0,2.7,3.023V0H199.25V-5.594a1.946,1.946,0,0,0-.418-1.352,1.675,1.675,0,0,0-1.277-.437,2.086,2.086,0,0,0-1.234.375,2.546,2.546,0,0,0-.828.984V0h-1.445V-8.453Zm9.422-2.047v2.047h1.578v1.117h-1.578v5.249a1.173,1.173,0,0,0,.211.763.888.888,0,0,0,.719.254,3.5,3.5,0,0,0,.688-.094V0a4.215,4.215,0,0,1-1.109.155,1.8,1.8,0,0,1-1.461-.586,2.517,2.517,0,0,1-.492-1.664V-7.336h-1.539V-8.453h1.539V-10.5Zm2.727,6.2a4.993,4.993,0,0,1,.488-2.234A3.642,3.642,0,0,1,209.41-8.07a3.7,3.7,0,0,1,1.988-.539,3.565,3.565,0,0,1,2.793,1.2,4.6,4.6,0,0,1,1.066,3.18v.1a5.036,5.036,0,0,1-.473,2.215,3.589,3.589,0,0,1-1.352,1.527,3.743,3.743,0,0,1-2.02.547,3.556,3.556,0,0,1-2.785-1.2A4.575,4.575,0,0,1,207.563-4.2Zm1.453.172a3.616,3.616,0,0,0,.652,2.258,2.088,2.088,0,0,0,1.746.852,2.075,2.075,0,0,0,1.75-.863,3.954,3.954,0,0,0,.648-2.418,3.61,3.61,0,0,0-.66-2.254,2.1,2.1,0,0,0-1.754-.863,2.075,2.075,0,0,0-1.727.852A3.925,3.925,0,0,0,209.016-4.133Z" transform="translate(334 1834)" fill="#12263f"/>
      <g id="Grupo_1072689" data-name="Grupo 1072689" transform="translate(578 1595)">
        <g id="Grupo_1072688" data-name="Grupo 1072688" clip-path="url(#clip-path-2)">
          <path id="Trazado_610576" data-name="Trazado 610576" d="M27.059,120.292H1.577a2.466,2.466,0,0,1-.465-.033A1.218,1.218,0,0,1,.008,119c-.012-.3,0-.607,0-.911q0-10.45,0-20.9A3.982,3.982,0,0,1,.483,95.13a3.636,3.636,0,0,1,3.106-1.9c.4-.023.8-.01,1.206-.01q6.069,0,12.138.01c.227,0,.312-.04.3-.29a8.519,8.519,0,0,1,.074-1.569,3.728,3.728,0,0,1,3.458-3.063c.427-.014.854-.011,1.28-.011H33.127a3.705,3.705,0,0,1,2.98,1.42,3.893,3.893,0,0,1,.819,2.571q.011,2.781,0,5.563c0,.259.075.307.316.306q6.536-.015,13.073-.014a3.7,3.7,0,0,1,2.87,1.23,3.594,3.594,0,0,1,.97,2.483q0,2.265,0,4.529c0,4.135-.011,8.271.011,12.406a1.364,1.364,0,0,1-1.523,1.5q-12.791,0-25.581,0m7.416-15.565h0q0-4.406,0-8.812c0-1.313-.018-2.626.005-3.938A1.242,1.242,0,0,0,33.2,90.745c-.935.024-1.871.006-2.806.006q-4.715,0-9.429,0a1.249,1.249,0,0,0-1.148.627,1.51,1.51,0,0,0-.14.836q0,5.526,0,11.052a4.184,4.184,0,0,1-.034.663,1.25,1.25,0,0,1-1.6.882,1.374,1.374,0,0,1-.821-1.385q-.005-3.754,0-7.507c0-.157,0-.247-.213-.246q-6.684.011-13.368.007a1.174,1.174,0,0,0-1.192,1.209q0,10.363,0,20.725c0,.182.046.242.232.237.541-.014,1.083-.011,1.625-.011q6.315,0,12.629.011c.239,0,.3-.059.295-.3-.016-.837,0-1.674-.008-2.51a2.154,2.154,0,0,1,.062-.536,1.154,1.154,0,0,1,.838-.911,1.2,1.2,0,0,1,1.552,1.225c.013.91.011,1.822,0,2.732,0,.216.029.294.274.293q7.164-.013,14.328,0c.175,0,.2-.062.2-.216q-.006-6.449,0-12.9m2.452,4.483v7.975c0,.156.008.312,0,.467s.053.2.2.193c.229-.01.459-.007.689-.007q6.794,0,13.589.008c.225,0,.3-.037.3-.288q-.013-7.839-.007-15.678A1.189,1.189,0,0,0,50.43,100.6q-6.622,0-13.244-.006c-.228,0-.263.069-.263.274q.01,4.172,0,8.344" transform="translate(0 -57.293)" fill="#345359"/>
          <path id="Trazado_610577" data-name="Trazado 610577" d="M45.044,27.785c.027-.512.171-1.055.216-1.61.093-1.153.378-2.279.453-3.435a.349.349,0,0,0-.118-.3c-1.055-1.092-2.1-2.19-3.159-3.279a3.149,3.149,0,0,1,1.631-5.326c.926-.171,1.845-.377,2.772-.541.588-.1,1.178-.2,1.764-.321a.712.712,0,0,0,.552-.41c.665-1.279,1.352-2.547,2.026-3.821a3.322,3.322,0,0,1,1.483-1.452,3.116,3.116,0,0,1,4.055,1.253c.6,1.046,1.161,2.11,1.739,3.167.193.352.385.7.572,1.06a.362.362,0,0,0,.262.2c1.015.232,2.055.322,3.072.541a18.578,18.578,0,0,1,1.991.428,3.058,3.058,0,0,1,2.113,2.443,2.984,2.984,0,0,1-.82,2.713c-1.022,1.11-2.071,2.2-3.116,3.285a.684.684,0,0,0-.216.648c.227,1.489.426,2.983.629,4.476a3.219,3.219,0,0,1-2.76,3.535,3.308,3.308,0,0,1-1.86-.323c-1.3-.623-2.613-1.219-3.9-1.865a.888.888,0,0,0-.927.007c-1.276.652-2.577,1.256-3.864,1.885a3.181,3.181,0,0,1-4.393-1.829,3.646,3.646,0,0,1-.2-1.13m19.022-10.8a.754.754,0,0,0-.684-.813c-1.113-.193-2.225-.395-3.337-.592-.637-.113-1.283-.166-1.911-.334a1.2,1.2,0,0,1-.752-.508c-.093-.145-.185-.291-.267-.442-.557-1.022-1.106-2.047-1.667-3.067a16.7,16.7,0,0,0-.827-1.48A.722.722,0,0,0,53.4,9.74a4.084,4.084,0,0,0-.271.467Q52,12.324,50.883,14.442a1.433,1.433,0,0,1-1.019.771c-.641.141-1.29.229-1.934.348q-1.642.3-3.282.619a1.052,1.052,0,0,0-.371.125.757.757,0,0,0-.077,1.211q1.79,1.865,3.588,3.721a1.429,1.429,0,0,1,.447,1.225c-.133,1.024-.254,2.05-.413,3.07-.12.77-.2,1.544-.294,2.317a.662.662,0,0,0,.69.792,1.149,1.149,0,0,0,.538-.145c1.537-.753,3.079-1.5,4.616-2.252a1.239,1.239,0,0,1,1.154-.007c1.587.763,3.179,1.516,4.767,2.276a.883.883,0,0,0,.913.009.769.769,0,0,0,.268-.793c-.125-1.529-.4-3.038-.647-4.548a2.034,2.034,0,0,1,.673-2.159.2.2,0,0,0,.017-.018l3.319-3.5a.628.628,0,0,0,.228-.521" transform="translate(-26.934 -4.524)" fill="#345359"/>
          <path id="Trazado_610578" data-name="Trazado 610578" d="M124.119,39.257c.791.118,1.648.186,2.5.33,1.024.173,2.054.321,3.081.477a1.21,1.21,0,1,1-.308,2.4c-1.278-.144-2.549-.336-3.82-.524-.574-.085-1.145-.194-1.719-.283a1.239,1.239,0,0,1-1.012-1.291,1.27,1.27,0,0,1,1.281-1.1" transform="translate(-79.705 -25.474)" fill="#345359"/>
          <path id="Trazado_610579" data-name="Trazado 610579" d="M8.655,41.277A1.251,1.251,0,0,1,9.687,40.1c1.711-.239,3.411-.551,5.128-.749a2.762,2.762,0,0,1,.829-.046,1.248,1.248,0,0,1,1,1.155,1.217,1.217,0,0,1-.969,1.2c-1,.141-2,.315-3.01.456-.876.123-1.752.237-2.628.359a1.237,1.237,0,0,1-1.385-1.2" transform="translate(-5.616 -25.49)" fill="#345359"/>
          <path id="Trazado_610580" data-name="Trazado 610580" d="M27.8,4.035a1.178,1.178,0,0,1-1.723,1.048q-1.292-.735-2.581-1.478Q22.437,3,21.383,2.392a1.4,1.4,0,0,1-.848-1.151A1.194,1.194,0,0,1,21.965.028a3.717,3.717,0,0,1,1.014.49Q24.864,1.6,26.748,2.693c.177.1.35.212.521.325A1.093,1.093,0,0,1,27.8,4.035" transform="translate(-13.324 0)" fill="#345359"/>
          <path id="Trazado_610581" data-name="Trazado 610581" d="M117.227,75.238a1.4,1.4,0,0,1-.934-.463q-1.234-1.236-2.467-2.473c-.493-.493-1-.975-1.481-1.476a1.2,1.2,0,0,1-.153-1.373,1.283,1.283,0,0,1,1.323-.6,1.426,1.426,0,0,1,.646.39q1.979,1.968,3.945,3.951a1.116,1.116,0,0,1,.214,1.342,1.206,1.206,0,0,1-1.093.7" transform="translate(-72.705 -44.661)" fill="#345359"/>
          <path id="Trazado_610582" data-name="Trazado 610582" d="M113.017,3.963a1.068,1.068,0,0,1,.65-1.017c.735-.43,1.474-.854,2.212-1.28q1.18-.683,2.36-1.367A1.382,1.382,0,0,1,119.52.108a1.185,1.185,0,0,1,.38,1.963,4.05,4.05,0,0,1-.8.526q-2.009,1.163-4.023,2.319a1.567,1.567,0,0,1-.987.317,1.191,1.191,0,0,1-1.076-1.27" transform="translate(-73.334 -0.013)" fill="#345359"/>
          <path id="Trazado_610583" data-name="Trazado 610583" d="M30.367,70.158a1.016,1.016,0,0,1-.341.706q-.7.708-1.405,1.411c-.84.841-1.678,1.685-2.522,2.521a1.157,1.157,0,0,1-1.427.3,1.191,1.191,0,0,1-.38-1.885c.384-.425.806-.817,1.211-1.224L28,69.484a3.913,3.913,0,0,1,.479-.423,1.042,1.042,0,0,1,1.2-.094,1.253,1.253,0,0,1,.689,1.191" transform="translate(-15.559 -44.657)" fill="#345359"/>
          <path id="Trazado_610584" data-name="Trazado 610584" d="M20.82,126.169c.119.006.238.017.358.017.8,0,1.608,0,2.412,0a1.405,1.405,0,0,1,.917.286,1.157,1.157,0,0,1,.4,1.214,1.071,1.071,0,0,1-.765.854,2.009,2.009,0,0,1-.652.107q-2.216,0-4.431,0a1.732,1.732,0,0,1-.743-.144,1.114,1.114,0,0,1-.687-1.019,3.662,3.662,0,0,1,1.1-2.7,14.08,14.08,0,0,1,1.817-1.542,6.591,6.591,0,0,0,1.53-1.484,2.122,2.122,0,0,0,.29-2.18,1.3,1.3,0,0,0-1.545-.732,1.057,1.057,0,0,0-.607.506,1.667,1.667,0,0,1-.766.735,1.066,1.066,0,0,1-1.219-.259,1.046,1.046,0,0,1-.353-1.155,3.484,3.484,0,0,1,1.773-1.953,3.681,3.681,0,0,1,5.073,2.256,4.57,4.57,0,0,1-.7,4.224,9.949,9.949,0,0,1-2.061,2q-.578.457-1.157.91l.016.069" transform="translate(-11.437 -75.49)" fill="#345359"/>
          <path id="Trazado_610585" data-name="Trazado 610585" d="M73.567,107.7q0,2.117,0,4.234c0,.116-.04.249.166.251a1.2,1.2,0,0,1,1.21,1.176A1.148,1.148,0,0,1,73.8,114.6a14.48,14.48,0,0,1-2.947-.016,1.156,1.156,0,0,1-1.033-1.257,1.2,1.2,0,0,1,1.193-1.142c.162-.009.185-.068.185-.206q0-3.1,0-6.2c0-.167-.056-.2-.21-.2a1.243,1.243,0,0,1-1.076-.77,1.135,1.135,0,0,1,.3-1.344,9.113,9.113,0,0,1,1.321-.8,1.869,1.869,0,0,1,.641-.3,1.16,1.16,0,0,1,1.382,1.135c0,1.4,0,2.806,0,4.209" transform="translate(-45.306 -66.406)" fill="#345359"/>
          <path id="Trazado_610586" data-name="Trazado 610586" d="M51.561,145.628a1.212,1.212,0,1,1-1.166-1.239,1.211,1.211,0,0,1,1.166,1.239" transform="translate(-31.885 -93.692)" fill="#345359"/>
          <path id="Trazado_610587" data-name="Trazado 610587" d="M122.463,133.94a3.372,3.372,0,0,1-.27,1.58c-.062.116-.006.177.049.26a4.567,4.567,0,0,1,.78,1.762,4.252,4.252,0,0,1-2.616,4.8,4.1,4.1,0,0,1-4.119-.532,1.234,1.234,0,0,1-.492-1.3,1.2,1.2,0,0,1,1.683-.791,2.446,2.446,0,0,1,.272.168,1.85,1.85,0,0,0,2.9-1.128,1.768,1.768,0,0,0-.439-1.615,4.669,4.669,0,0,0-.473-.429,1.188,1.188,0,0,1-.068-1.728,1.222,1.222,0,0,0,.308-1.4,1.239,1.239,0,0,0-1.983-.439,1.415,1.415,0,0,1-1.094.519,1.142,1.142,0,0,1-1.006-.683,1.117,1.117,0,0,1,.113-1.232,3.607,3.607,0,0,1,5.907.354,3.3,3.3,0,0,1,.551,1.835" transform="translate(-75.115 -84.602)" fill="#345359"/>
        </g>
      </g>
      <g id="Grupo_1072691" data-name="Grupo 1072691" transform="translate(335.595 1693.519)">
        <g id="Grupo_1072690" data-name="Grupo 1072690" clip-path="url(#clip-path-3)">
          <path id="Trazado_610588" data-name="Trazado 610588" d="M91.867.011C99,.011,104.9,4.56,106.394,11.133a15.619,15.619,0,0,1-1.8,10.9,21.717,21.717,0,0,1-2.619,3.877,8.524,8.524,0,0,0-1.064,1.588,1.067,1.067,0,0,0,.147,1.391,2.748,2.748,0,0,1,.276,3.193,1.08,1.08,0,0,0-.045,1.15,2.919,2.919,0,0,1-1.9,4.355,1.2,1.2,0,0,0-.917.857,6.86,6.86,0,0,1-12.872-.1.979.979,0,0,0-.762-.731A2.911,2.911,0,0,1,82.8,33.244a1.062,1.062,0,0,0-.02-1.15,2.763,2.763,0,0,1,.379-3.356.937.937,0,0,0,.134-1.229,10.556,10.556,0,0,0-1.2-1.755,19.081,19.081,0,0,1-4.584-10.9C77.053,7.6,82.3,1.78,88.922.333A11.323,11.323,0,0,1,91.867.011m12.826,14.033a9.914,9.914,0,0,0-.515-3.462A12.768,12.768,0,0,0,87.887,2.718c-5.395,1.946-8.679,6.606-8.377,12.034a16.146,16.146,0,0,0,3.3,8.632,12.907,12.907,0,0,1,1.915,2.668A2.3,2.3,0,0,0,87.641,27.7a1.392,1.392,0,0,1,.213,0c1.443,0,1.413.006,1.085-1.371-1.042-4.38-2.056-8.767-3.09-13.149-.139-.589-.208-1.148.422-1.486s1.068.059,1.484.477c1.228,1.236,2.485,2.443,3.676,3.713.5.529.787.591,1.316.022,1.234-1.326,2.55-2.574,3.826-3.861a1.076,1.076,0,0,1,1.325-.366c.606.292.595.822.49,1.374-.046.244-.1.487-.16.728-.9,3.685-1.807,7.367-2.689,11.056-.732,3.061-.719,3.054,2.475,2.874a.844.844,0,0,0,.876-.594,11.1,11.1,0,0,1,1.824-2.859,16.576,16.576,0,0,0,3.978-10.217M88.879,15.991l-.207.163a3.354,3.354,0,0,0,.044.492c.817,3.445,1.66,6.885,2.44,10.338.135.6.388.719.926.732.578.014.784-.211.907-.763.425-1.9.923-3.784,1.376-5.678.4-1.673.778-3.352,1.166-5.029l-.268-.18c-.722.766-1.454,1.524-2.165,2.3a1.181,1.181,0,0,1-1.99.023l-2.23-2.4M92.027,31.66c2.1,0,4.2-.014,6.293.008.726.007,1.357-.164,1.362-.973s-.627-1-1.349-1q-6.293.013-12.586,0c-.728,0-1.325.2-1.3,1.037.026.769.6.939,1.285.933,2.1-.018,4.2-.006,6.293-.006m.021,4.011c2.06,0,4.121-.01,6.181.005.743.005,1.454-.122,1.451-1,0-.915-.762-.949-1.478-.947q-6.181.011-12.363,0c-.683,0-1.377.049-1.389.92-.012.9.67,1.034,1.417,1.029,2.06-.014,4.121,0,6.181,0m-.037,2.068v-.045c-1.242,0-2.485.013-3.727-.006-.578-.009-.832.125-.466.714a4.92,4.92,0,0,0,8.459.056c.353-.563.172-.732-.432-.725-1.278.016-2.556,0-3.834,0" transform="translate(-60.957 0)" fill="#345359"/>
          <path id="Trazado_610589" data-name="Trazado 610589" d="M41.2,200.726l8.228-4.74c.831-.478,1.646-.985,2.5-1.427a4.636,4.636,0,0,1,6.273,1.8,4.581,4.581,0,0,1-1.716,6.293q-12.147,7.071-24.34,14.065a7.469,7.469,0,0,1-5.877.606,48.594,48.594,0,0,0-8.169-1.909,16.972,16.972,0,0,0-4.875.276c-.441.088-.7.165-.7.7a1.709,1.709,0,0,1-1.458,1.719c-.955.268-1.9.561-2.871.782a1.861,1.861,0,0,1-2.471-1.527Q2.932,207,.151,196.624c-.43-1.6.046-2.438,1.623-2.868.821-.224,1.641-.448,2.466-.652a1.785,1.785,0,0,1,2.431,1.108c.256.614.566.473.978.382a47.06,47.06,0,0,0,6.152-2.042,7.025,7.025,0,0,1,6.882.686c1.34.923,2.841,1.609,4.223,2.476a6.721,6.721,0,0,0,5.717.767c1.055-.307,2.141-.52,3.175-.885a5.446,5.446,0,0,1,7.4,5.13m-12.537,6.933c-.545-.056-1.113-.086-1.671-.178-.713-.118-1.225-.471-1.045-1.295.174-.8.822-.859,1.43-.682a5.652,5.652,0,0,0,3.049-.111c2.061-.524,4.113-1.084,6.158-1.665a3.242,3.242,0,0,0,2.447-3.985,3.3,3.3,0,0,0-4.248-2.338c-1.3.342-2.611.666-3.9,1.049a8.1,8.1,0,0,1-6.659-.83c-1.655-.966-3.358-1.858-4.968-2.892a4.677,4.677,0,0,0-4.268-.44,59.951,59.951,0,0,1-6.662,2.191c-.851.172-.913.472-.716,1.194q2.086,7.642,4.109,15.3c.176.669.376.908,1.142.75a18.138,18.138,0,0,1,6.35-.2,48.227,48.227,0,0,1,7.013,1.73,6.24,6.24,0,0,0,5.226-.443q11.884-6.89,23.786-13.749A2.658,2.658,0,1,0,52.57,196.5q-3.608,2.055-7.2,4.143a34.824,34.824,0,0,0-5.19,3.12,9.936,9.936,0,0,1-4.353,2.27c-2.382.527-4.665,1.5-7.166,1.627m-20.6,9.184c.375-.1.75-.207,1.126-.307,1.34-.355,1.33-.351.973-1.682q-2.386-8.88-4.759-17.763c-.571-2.149-.543-2.13-2.645-1.517-.583.17-.72.38-.549.966.487,1.666.918,3.348,1.366,5.025q1.949,7.291,3.906,14.58c.075.279-.019.8.583.7" transform="translate(0 -151.012)" fill="#345359"/>
          <path id="Trazado_610590" data-name="Trazado 610590" d="M234.844,65.585c-.636,0-1.274.028-1.909-.008s-1.089-.36-1.084-1.051a.959.959,0,0,1,1.037-.985c1.342-.038,2.687-.042,4.028.007a.935.935,0,0,1,.975,1.035.98.98,0,0,1-1.033.99c-.669.039-1.343.009-2.015.011" transform="translate(-182.388 -49.962)" fill="#345359"/>
          <path id="Trazado_610591" data-name="Trazado 610591" d="M34.823,65.579c-.671,0-1.344.034-2.012-.01a.976.976,0,0,1-1.023-1,.939.939,0,0,1,.985-1.025c1.34-.05,2.683-.048,4.023-.006a.944.944,0,0,1,1.02.994c0,.7-.449,1.008-1.087,1.041s-1.271.007-1.906.007v0" transform="translate(-25.007 -49.96)" fill="#345359"/>
          <path id="Trazado_610592" data-name="Trazado 610592" d="M51.945,110.269a1,1,0,0,1-.576.767q-1.653.963-3.316,1.907a.947.947,0,0,1-1.458-.321,1.009,1.009,0,0,1,.487-1.439c1.079-.611,2.139-1.256,3.231-1.841.861-.461,1.619-.089,1.632.928" transform="translate(-36.546 -85.86)" fill="#345359"/>
          <path id="Trazado_610593" data-name="Trazado 610593" d="M220.771,109.024a2.792,2.792,0,0,1,.523.185c1.112.627,2.222,1.257,3.321,1.906a.96.96,0,0,1,.458,1.433.979.979,0,0,1-1.478.286c-1.108-.635-2.22-1.264-3.32-1.912a1,1,0,0,1-.488-1.274.95.95,0,0,1,.984-.624" transform="translate(-172.842 -85.765)" fill="#345359"/>
          <path id="Trazado_610594" data-name="Trazado 610594" d="M51.911,11.957c-.062.7-.537,1.133-1.135.905a19.971,19.971,0,0,1-4.052-2.289A.887.887,0,0,1,46.559,9.4a.811.811,0,0,1,1.077-.447,26.812,26.812,0,0,1,4.037,2.321c.219.151.218.431.239.681" transform="translate(-36.515 -6.988)" fill="#345359"/>
          <path id="Trazado_610595" data-name="Trazado 610595" d="M220.7,12.937c-.444-.1-.8-.254-.93-.68a.911.911,0,0,1,.357-1.13c1.215-.732,2.435-1.457,3.686-2.123a.893.893,0,0,1,1.276.407.9.9,0,0,1-.335,1.3c-1.181.718-2.389,1.391-3.591,2.072a2.3,2.3,0,0,1-.462.155" transform="translate(-172.836 -6.984)" fill="#345359"/>
        </g>
      </g>
      <g id="Grupo_1072693" data-name="Grupo 1072693" transform="translate(571.579 1794.029)">
        <g id="Grupo_1072692" data-name="Grupo 1072692" clip-path="url(#clip-path-4)">
          <path id="Trazado_610596" data-name="Trazado 610596" d="M51.989,98.24c-3.721,0-7.441.006-11.162-.006a1.635,1.635,0,0,0-1.316.486,6.566,6.566,0,0,1-4.061,1.631,13.1,13.1,0,0,1-6.283-.579,2.577,2.577,0,0,1-1.116-.584c-.864-1.065-2.011-.957-3.176-.955q-10.365.019-20.73.006c-3.293,0-4.642-1.8-3.982-5.028,1.3-6.372,2.5-12.764,3.75-19.148.352-1.8.69-3.611,1.069-5.41a2.231,2.231,0,0,1,2.173-1.836,6.37,6.37,0,0,1,1.062,0c.8.087,1.283-.055,1.389-1.033a1.941,1.941,0,0,1,1.838-1.775c.773-.084.841-.364.705-1.094a8.918,8.918,0,0,1,.885-6.175,2.029,2.029,0,0,0,.37-1.278,4.45,4.45,0,0,1,2.2-4.4c.316-.206.606-.326.695-.816a5.41,5.41,0,0,1,5.929-4.72,2.513,2.513,0,0,0,2.117-.8A7.605,7.605,0,0,1,33.1,43.46a1.186,1.186,0,0,0,1.407-.056,4.5,4.5,0,0,1,5.962.78,1.482,1.482,0,0,0,1.055.573,9.469,9.469,0,0,1,9,7.262,1.13,1.13,0,0,0,.753.779A4.555,4.555,0,0,1,54.2,58.264a1.438,1.438,0,0,0,.084,1.024,6.653,6.653,0,0,1,.7,3.809c-.033.443-.069.823.562.912A2.15,2.15,0,0,1,57.47,66.1c.07.619.34.766.887.721.387-.032.779-.011,1.169,0a2.275,2.275,0,0,1,2.519,2.063q2.333,11.916,4.645,23.836c.074.381.175.758.239,1.141.436,2.613-1,4.361-3.67,4.38-3.756.027-7.512.007-11.269.007M59.14,90.8a2.2,2.2,0,0,0-.039-1.128q-1.024-6.175-2.04-12.35-.86-5.18-1.744-10.357c-.053-.308.038-.772-.5-.8-.375-.017-.768-.146-1.034.3a4.382,4.382,0,0,0-.547,1.137,6.5,6.5,0,0,1-1.9,3.5c-1.422,1.165-1.619,2.211-.784,3.858a3.272,3.272,0,0,1-1.333,4.1,3.354,3.354,0,0,1-4.212-.372,9.784,9.784,0,0,0-3.861-2.319,6.387,6.387,0,0,1-4.071-3.328c-.326-.763-2.314-1.317-2.965-.8a7.1,7.1,0,0,1-10.477-1.712.721.721,0,0,0-.859-.386,8.942,8.942,0,0,1-9.037-3.664c-.478-.637-1.008-.305-1.528-.315-.605-.012-.493.522-.549.858Q10.052,76.6,8.471,86.174c-.251,1.518-.491,3.037-.752,4.653a39.143,39.143,0,0,1,23.968-.182c.848.261.673-.259.673-.686q.007-6.22,0-12.439a8.26,8.26,0,0,1,.027-.955,1.041,1.041,0,0,1,1.134-1.023,1.024,1.024,0,0,1,1.066.978,7.358,7.358,0,0,1,.034.955c0,4.076.043,8.152-.026,12.226-.019,1.1.324,1.087,1.179.814a36.06,36.06,0,0,1,9.063-1.606,39.034,39.034,0,0,1,14.3,1.89m-9.3-21.445a6.991,6.991,0,0,1-5.816-.97,1.763,1.763,0,0,0-1.455-.282A3.743,3.743,0,0,1,38.7,66.462c-.459-.632-.655-1.332.094-1.864.679-.482,1.257-.2,1.706.453a1.619,1.619,0,0,0,2.223.633,1.588,1.588,0,0,0,.742-2.184,1.065,1.065,0,0,1,.61-1.557c.769-.3,1.3.121,1.556.859a3.819,3.819,0,0,1-.144,3.1c-.235.452-.169.708.294.9a4.817,4.817,0,0,0,5.033-.469,4.657,4.657,0,0,0,1.915-4.563c-.081-.67-.306-.894-.93-.469a1.013,1.013,0,0,1-1.36-.117,1.069,1.069,0,0,1-.292-1.258c.168-.428.6-.58.933-.836a2.372,2.372,0,0,0-1.8-4.25,4.479,4.479,0,0,0-1.165.494,1.118,1.118,0,0,1-1.636-.784,1.271,1.271,0,0,1,.991-1.446c.9-.319.85-.792.53-1.525a7.444,7.444,0,0,0-5.66-4.491c-.338-.07-.628-.108-.708.36a1.026,1.026,0,0,1-1.2.941c-.716-.072-.95-.579-1.045-1.256a2.383,2.383,0,0,0-2.287-2.238,2.356,2.356,0,0,0-2.428,2.192c-.136.795-.42,1.416-1.331,1.285s-1.12-.878-.9-1.615c.3-1.009-.245-1.324-1.015-1.542a6.287,6.287,0,0,0-1.551-.331,5.57,5.57,0,0,0-5.507,3.86c-.26.7-.624,1.258-1.455,1.047a1.044,1.044,0,0,1-.777-1.55c.192-.507-.11-.534-.471-.532a3.618,3.618,0,0,0-2.908,2.042c-.2.465-.174.7.373.814a4.264,4.264,0,0,1,2.268,1.3c.528.561.9,1.186.215,1.848-.657.638-1.241.354-1.826-.228a2.367,2.367,0,1,0-3.189,3.466c.545.469,1.048.941.529,1.692s-1.2.652-1.84.16c-.46-.354-.593-.244-.767.281A6.932,6.932,0,0,0,21.5,67.991c.369-.031.965.131,1.061-.4.107-.593-.272-.881-.886-1.071a3.662,3.662,0,0,1-2.606-2.95c-.22-1.088.111-1.776.869-1.859,1-.11,1.277.55,1.363,1.375a.975.975,0,0,0,.046.207A1.509,1.509,0,0,0,22.525,64.4c.636.106.548-.56.709-.882.386-.771.914-1.282,1.752-.879.883.426.661,1.155.306,1.909a4.831,4.831,0,0,0,7.724,5.586,1.675,1.675,0,0,1,1.911-.455,8.36,8.36,0,0,0,5.115.139c.8-.224,1.475-.024,1.683.815S41.3,71.8,40.618,72.051c-.406.152-1.137-.082-1.173.425s.629.787,1.067,1.08a3.378,3.378,0,0,0,.558.305c1.98.836,4.083,1.436,5.543,3.2a1.011,1.011,0,0,0,1.376.053,1.181,1.181,0,0,0,.486-1.393c-.444-1.625-.669-1.782-2.289-1.447-.035.007-.071.008-.1.018-.78.239-1.492.124-1.7-.736-.226-.929.394-1.277,1.241-1.472a6.912,6.912,0,0,0,4.22-2.732M52.2,95.93q5.422,0,10.845,0c1.545,0,1.877-.45,1.585-1.939-1.114-5.69-2.2-11.384-3.3-17.076-.465-2.395-.99-4.779-1.4-7.183-.18-1.041-.9-.56-1.39-.606-.831-.076-.411.562-.368.875.2,1.436.44,2.865.677,4.294.875,5.268,1.733,10.539,2.643,15.8.353,2.042-1.082,3.49-3.047,2.868A39.03,39.03,0,0,0,40.8,91.651c-.721.1-1,.29-.875,1.044a11.161,11.161,0,0,1,.155,2.116c-.021.852.262,1.154,1.166,1.141,3.65-.053,7.3-.022,10.951-.022m-37.4,0c3.65,0,7.3-.029,10.95.021.9.012,1.181-.284,1.161-1.142a17.745,17.745,0,0,1,.168-2.329c.052-.475-.081-.707-.588-.787A41.632,41.632,0,0,0,16.005,91.4a38.062,38.062,0,0,0-7.462,1.563A2.29,2.29,0,0,1,5.437,90.5c.208-1.469.5-2.926.744-4.391q1.337-8.058,2.647-16.121c.044-.273.476-.879-.271-.852-.516.019-1.3-.485-1.482.6-.286,1.707-.681,3.4-1.01,5.1C4.829,81.225,3.608,87.614,2.363,94c-.29,1.486.041,1.929,1.592,1.93q5.422.005,10.844,0m14.274-.3c-.037.916-.245,1.611.659,1.923a10.912,10.912,0,0,0,7.569-.035.89.89,0,0,0,.665-1.042c-.109-1.019-.2-2.043-.225-3.067-.023-.818-.271-1.238-1.11-.792a6.352,6.352,0,0,1-6.319-.014c-.031-.016-.068-.02-.1-.034-.59-.26-.911-.144-.94.576-.038.918-.144,1.833-.2,2.484" transform="translate(0 -33.548)" fill="#345359"/>
          <path id="Trazado_610597" data-name="Trazado 610597" d="M104.723,8.836c-.04.632-.254,1.017-.749,1.185a.97.97,0,0,1-1.288-.436c-.534-1.149-1.016-2.326-1.445-3.518a.977.977,0,0,1,.53-1.257.967.967,0,0,1,1.334.264,21.277,21.277,0,0,1,1.618,3.763" transform="translate(-79.654 -3.669)" fill="#345359"/>
          <path id="Trazado_610598" data-name="Trazado 610598" d="M32.942,80.473a19.7,19.7,0,0,1-3.567-1.532.974.974,0,0,1-.27-1.331.961.961,0,0,1,1.228-.57c1.187.431,2.362.907,3.5,1.45a.953.953,0,0,1,.476,1.264c-.2.519-.581.781-1.369.719" transform="translate(-22.803 -60.604)" fill="#345359"/>
          <path id="Trazado_610599" data-name="Trazado 610599" d="M261.826,80.544c-.8.033-1.132-.247-1.325-.71a.919.919,0,0,1,.376-1.207,15.01,15.01,0,0,1,3.792-1.543.923.923,0,0,1,1.07.674A.958.958,0,0,1,265.447,79a18.055,18.055,0,0,1-3.621,1.548" transform="translate(-205.02 -60.667)" fill="#345359"/>
          <path id="Trazado_610600" data-name="Trazado 610600" d="M200.55,6.3a22.7,22.7,0,0,1-1.491,3.5.965.965,0,0,1-1.307.355.989.989,0,0,1-.63-1.292c.41-1.158.879-2.3,1.393-3.416a1.019,1.019,0,0,1,1.355-.506c.543.184.743.609.681,1.361" transform="translate(-155.14 -3.824)" fill="#345359"/>
          <path id="Trazado_610601" data-name="Trazado 610601" d="M64.135,38.739a1.032,1.032,0,0,1-.5,1,1,1,0,0,1-1.2-.006A9.685,9.685,0,0,1,61,38.326a1.026,1.026,0,0,1,.155-1.515.974.974,0,0,1,1.436-.006c.58.584,1.392,1.008,1.541,1.934" transform="translate(-47.818 -28.73)" fill="#345359"/>
          <path id="Trazado_610602" data-name="Trazado 610602" d="M238.236,38.823a3.722,3.722,0,0,1,2.261-2.266,1.113,1.113,0,0,1,.989,1.578,4.25,4.25,0,0,1-1.664,1.714,1.064,1.064,0,0,1-1.586-1.025" transform="translate(-187.559 -28.781)" fill="#345359"/>
          <path id="Trazado_610603" data-name="Trazado 610603" d="M152.15,1.746c0-.563-.068-1.163.5-1.529a1.051,1.051,0,0,1,1.438.15,2.649,2.649,0,0,1-.015,2.681,1.034,1.034,0,0,1-1.435.127c-.511-.359-.488-.9-.485-1.43" transform="translate(-119.785 0)" fill="#345359"/>
          <path id="Trazado_610604" data-name="Trazado 610604" d="M141.921,113.381a8.151,8.151,0,0,1-3.3-1.865c-.545-.542-.777-1.154-.232-1.772.56-.635,1.2-.476,1.757.075a4.576,4.576,0,0,0,7.72-2.148c.171-.736.6-1.273,1.426-1.034.868.249.967.966.745,1.721a6.683,6.683,0,0,1-4.552,4.779,2.211,2.211,0,0,0-1.4,1.1,5.262,5.262,0,0,1-4.5,2.753c-.743.043-1.388-.121-1.447-1.009-.057-.853.477-1.17,1.259-1.234a3.241,3.241,0,0,0,2.519-1.37" transform="translate(-108.707 -83.909)" fill="#345359"/>
          <path id="Trazado_610605" data-name="Trazado 610605" d="M115.892,90.46a5.327,5.327,0,0,1,4.765-5.183c.736-.058,1.389.091,1.518.948.137.914-.45,1.252-1.244,1.375a2.818,2.818,0,0,0-2.762,2.81c-.09.753-.446,1.228-1.2,1.194a1.047,1.047,0,0,1-1.075-1.143" transform="translate(-91.24 -67.129)" fill="#345359"/>
        </g>
      </g>
    </g>
  </g>
</svg>
