<svg xmlns="http://www.w3.org/2000/svg" xmlns:xlink="http://www.w3.org/1999/xlink" width="400" height="538" viewBox="0 0 400 538">
  <defs>
    <clipPath id="clip-path">
      <path id="Trazado_194907" data-name="Trazado 194907" d="M0,104.834c0,28.445,25.243,51.5,56.381,51.5s56.38-23.059,56.38-51.5-25.243-51.5-56.381-51.5S0,76.391,0,104.835" transform="translate(0 -53.333)" fill="#7f4fc7"/>
    </clipPath>
    <clipPath id="clip-path-2">
      <rect id="Rectángulo_46351" data-name="Rectángulo 46351" width="115.414" height="119.42" fill="none"/>
    </clipPath>
    <clipPath id="clip-path-3">
      <rect id="Rectángulo_378184" data-name="Rectángulo 378184" width="301.464" height="498.5" fill="none"/>
    </clipPath>
  </defs>
  <g id="Grupo_1072715" data-name="Grupo 1072715" transform="translate(-1020 -1652)">
    <g id="Grupo_1072714" data-name="Grupo 1072714" transform="translate(-3 -5)">
      <g id="Grupo_1072713" data-name="Grupo 1072713">
        <g id="Grupo_155253" data-name="Grupo 155253" transform="translate(1048.546 2027.307)">
          <path id="Trazado_196478" data-name="Trazado 196478" d="M319.689,149.033q-.327.339-.648.683a52.147,52.147,0,0,0-14.068,37.632l21.849-.761a30.63,30.63,0,1,1,61.222-2.141l21.849-.761a52.492,52.492,0,0,0-90.2-34.646" transform="translate(-304.936 -133.025)" fill="#76becc"/>
          <path id="Trazado_196479" data-name="Trazado 196479" d="M304.88,231.066A52.492,52.492,0,1,0,409.8,227.4l-21.85.761a30.629,30.629,0,0,1-61.221,2.141Z" transform="translate(-304.844 -176.744)" fill="#4e5662"/>
        </g>
        <g id="Grupo_154805" data-name="Grupo 154805" transform="translate(1097.239 1677.685)">
          <g id="Grupo_152768" data-name="Grupo 152768" transform="translate(0)" clip-path="url(#clip-path)">
            <path id="Trazado_194826" data-name="Trazado 194826" d="M2.968,54.685a1.424,1.424,0,0,0-1.484-1.354,1.361,1.361,0,1,0,0,2.71,1.423,1.423,0,0,0,1.483-1.356" transform="translate(0 -53.333)" fill="#7f4fc7"/>
            <path id="Trazado_194827" data-name="Trazado 194827" d="M11.24,54.685a1.424,1.424,0,0,0-1.484-1.354,1.361,1.361,0,1,0,0,2.71,1.423,1.423,0,0,0,1.483-1.356" transform="translate(5.452 -53.333)" fill="#7f4fc7"/>
            <path id="Trazado_194828" data-name="Trazado 194828" d="M19.513,54.685a1.489,1.489,0,1,0-1.483,1.356,1.424,1.424,0,0,0,1.483-1.356" transform="translate(10.904 -53.333)" fill="#7f4fc7"/>
            <path id="Trazado_194829" data-name="Trazado 194829" d="M27.786,54.685A1.489,1.489,0,1,0,26.3,56.041a1.424,1.424,0,0,0,1.483-1.356" transform="translate(16.354 -53.333)" fill="#7f4fc7"/>
            <path id="Trazado_194830" data-name="Trazado 194830" d="M36.058,54.685a1.489,1.489,0,1,0-1.483,1.356,1.424,1.424,0,0,0,1.483-1.356" transform="translate(21.806 -53.333)" fill="#7f4fc7"/>
            <path id="Trazado_194831" data-name="Trazado 194831" d="M44.327,54.685a1.489,1.489,0,1,0-1.483,1.356,1.424,1.424,0,0,0,1.483-1.356" transform="translate(27.257 -53.333)" fill="#7f4fc7"/>
            <path id="Trazado_194832" data-name="Trazado 194832" d="M52.6,54.685a1.489,1.489,0,1,0-1.483,1.356A1.424,1.424,0,0,0,52.6,54.685" transform="translate(32.71 -53.333)" fill="#7f4fc7"/>
            <path id="Trazado_194833" data-name="Trazado 194833" d="M60.876,54.685a1.489,1.489,0,1,0-1.483,1.356,1.424,1.424,0,0,0,1.483-1.356" transform="translate(38.16 -53.333)" fill="#7f4fc7"/>
            <path id="Trazado_194834" data-name="Trazado 194834" d="M69.149,54.685a1.489,1.489,0,1,0-1.483,1.356,1.424,1.424,0,0,0,1.483-1.356" transform="translate(43.612 -53.333)" fill="#7f4fc7"/>
            <path id="Trazado_194835" data-name="Trazado 194835" d="M2.968,62.961a1.424,1.424,0,0,0-1.483-1.355,1.361,1.361,0,1,0,0,2.71,1.556,1.556,0,0,0,1.049-.4,1.3,1.3,0,0,0,.434-.959" transform="translate(0 -49.069)" fill="#7f4fc7"/>
            <path id="Trazado_194836" data-name="Trazado 194836" d="M11.24,62.961a1.424,1.424,0,0,0-1.483-1.355,1.361,1.361,0,1,0,0,2.71,1.556,1.556,0,0,0,1.049-.4,1.3,1.3,0,0,0,.434-.959" transform="translate(5.452 -49.069)" fill="#7f4fc7"/>
            <path id="Trazado_194837" data-name="Trazado 194837" d="M19.513,62.961a1.49,1.49,0,1,0-1.483,1.355,1.556,1.556,0,0,0,1.049-.4,1.3,1.3,0,0,0,.434-.959" transform="translate(10.904 -49.069)" fill="#7f4fc7"/>
            <path id="Trazado_194838" data-name="Trazado 194838" d="M27.786,62.961A1.49,1.49,0,1,0,26.3,64.316a1.556,1.556,0,0,0,1.049-.4,1.3,1.3,0,0,0,.434-.959" transform="translate(16.354 -49.069)" fill="#7f4fc7"/>
            <path id="Trazado_194839" data-name="Trazado 194839" d="M36.058,62.961a1.49,1.49,0,1,0-1.483,1.355,1.556,1.556,0,0,0,1.049-.4,1.3,1.3,0,0,0,.434-.959" transform="translate(21.806 -49.069)" fill="#7f4fc7"/>
            <path id="Trazado_194840" data-name="Trazado 194840" d="M44.327,62.961a1.49,1.49,0,1,0-1.483,1.355,1.556,1.556,0,0,0,1.049-.4,1.3,1.3,0,0,0,.434-.959" transform="translate(27.257 -49.069)" fill="#7f4fc7"/>
            <path id="Trazado_194841" data-name="Trazado 194841" d="M52.6,62.961a1.49,1.49,0,1,0-1.483,1.355,1.556,1.556,0,0,0,1.049-.4,1.3,1.3,0,0,0,.434-.959" transform="translate(32.71 -49.069)" fill="#7f4fc7"/>
            <path id="Trazado_194842" data-name="Trazado 194842" d="M60.876,62.961a1.49,1.49,0,1,0-1.483,1.355,1.424,1.424,0,0,0,1.483-1.355" transform="translate(38.16 -49.069)" fill="#7f4fc7"/>
            <path id="Trazado_194843" data-name="Trazado 194843" d="M69.149,62.961a1.49,1.49,0,1,0-1.483,1.355,1.556,1.556,0,0,0,1.049-.4,1.3,1.3,0,0,0,.434-.959" transform="translate(43.612 -49.069)" fill="#7f4fc7"/>
            <path id="Trazado_194844" data-name="Trazado 194844" d="M2.968,71.234a1.424,1.424,0,0,0-1.483-1.355,1.361,1.361,0,1,0,0,2.71,1.556,1.556,0,0,0,1.049-.4,1.3,1.3,0,0,0,.434-.959" transform="translate(0 -44.804)" fill="#7f4fc7"/>
            <path id="Trazado_194845" data-name="Trazado 194845" d="M11.24,71.234a1.424,1.424,0,0,0-1.483-1.355,1.361,1.361,0,1,0,0,2.71,1.556,1.556,0,0,0,1.049-.4,1.3,1.3,0,0,0,.434-.959" transform="translate(5.452 -44.804)" fill="#7f4fc7"/>
            <path id="Trazado_194846" data-name="Trazado 194846" d="M19.513,71.234a1.49,1.49,0,1,0-1.483,1.355,1.556,1.556,0,0,0,1.049-.4,1.3,1.3,0,0,0,.434-.959" transform="translate(10.904 -44.804)" fill="#7f4fc7"/>
            <path id="Trazado_194847" data-name="Trazado 194847" d="M27.786,71.234A1.49,1.49,0,1,0,26.3,72.589a1.556,1.556,0,0,0,1.049-.4,1.3,1.3,0,0,0,.434-.959" transform="translate(16.354 -44.804)" fill="#7f4fc7"/>
            <path id="Trazado_194848" data-name="Trazado 194848" d="M36.058,71.234a1.49,1.49,0,1,0-1.483,1.355,1.556,1.556,0,0,0,1.049-.4,1.3,1.3,0,0,0,.434-.959" transform="translate(21.806 -44.804)" fill="#7f4fc7"/>
            <path id="Trazado_194849" data-name="Trazado 194849" d="M44.327,71.234a1.49,1.49,0,1,0-1.483,1.355,1.556,1.556,0,0,0,1.049-.4,1.3,1.3,0,0,0,.434-.959" transform="translate(27.257 -44.804)" fill="#7f4fc7"/>
            <path id="Trazado_194850" data-name="Trazado 194850" d="M52.6,71.234a1.49,1.49,0,1,0-1.483,1.355,1.556,1.556,0,0,0,1.049-.4,1.3,1.3,0,0,0,.434-.959" transform="translate(32.71 -44.804)" fill="#7f4fc7"/>
            <path id="Trazado_194851" data-name="Trazado 194851" d="M60.876,71.234a1.49,1.49,0,1,0-1.483,1.355,1.424,1.424,0,0,0,1.483-1.355" transform="translate(38.16 -44.804)" fill="#7f4fc7"/>
            <path id="Trazado_194852" data-name="Trazado 194852" d="M69.149,71.234a1.49,1.49,0,1,0-1.483,1.355,1.556,1.556,0,0,0,1.049-.4,1.3,1.3,0,0,0,.434-.959" transform="translate(43.612 -44.804)" fill="#7f4fc7"/>
            <path id="Trazado_194853" data-name="Trazado 194853" d="M2.968,79.506a1.424,1.424,0,0,0-1.483-1.355,1.361,1.361,0,1,0,0,2.71,1.556,1.556,0,0,0,1.049-.4,1.3,1.3,0,0,0,.434-.959" transform="translate(0 -40.541)" fill="#7f4fc7"/>
            <path id="Trazado_194854" data-name="Trazado 194854" d="M11.24,79.506a1.424,1.424,0,0,0-1.483-1.355,1.361,1.361,0,1,0,0,2.71,1.556,1.556,0,0,0,1.049-.4,1.3,1.3,0,0,0,.434-.959" transform="translate(5.452 -40.541)" fill="#7f4fc7"/>
            <path id="Trazado_194855" data-name="Trazado 194855" d="M19.513,79.506a1.49,1.49,0,1,0-1.483,1.355,1.556,1.556,0,0,0,1.049-.4,1.3,1.3,0,0,0,.434-.959" transform="translate(10.904 -40.541)" fill="#7f4fc7"/>
            <path id="Trazado_194856" data-name="Trazado 194856" d="M27.786,79.506A1.49,1.49,0,1,0,26.3,80.861a1.556,1.556,0,0,0,1.049-.4,1.3,1.3,0,0,0,.434-.959" transform="translate(16.354 -40.541)" fill="#7f4fc7"/>
            <path id="Trazado_194857" data-name="Trazado 194857" d="M36.058,79.506a1.49,1.49,0,1,0-1.483,1.355,1.556,1.556,0,0,0,1.049-.4,1.3,1.3,0,0,0,.434-.959" transform="translate(21.806 -40.541)" fill="#7f4fc7"/>
            <path id="Trazado_194858" data-name="Trazado 194858" d="M44.327,79.506a1.49,1.49,0,1,0-1.483,1.355,1.556,1.556,0,0,0,1.049-.4,1.3,1.3,0,0,0,.434-.959" transform="translate(27.257 -40.541)" fill="#7f4fc7"/>
            <path id="Trazado_194859" data-name="Trazado 194859" d="M52.6,79.506a1.49,1.49,0,1,0-1.483,1.355,1.556,1.556,0,0,0,1.049-.4,1.3,1.3,0,0,0,.434-.959" transform="translate(32.71 -40.541)" fill="#7f4fc7"/>
            <path id="Trazado_194860" data-name="Trazado 194860" d="M60.876,79.506a1.49,1.49,0,1,0-1.483,1.355,1.424,1.424,0,0,0,1.483-1.355" transform="translate(38.16 -40.541)" fill="#7f4fc7"/>
            <path id="Trazado_194861" data-name="Trazado 194861" d="M69.149,79.506a1.49,1.49,0,1,0-1.483,1.355,1.556,1.556,0,0,0,1.049-.4,1.3,1.3,0,0,0,.434-.959" transform="translate(43.612 -40.541)" fill="#7f4fc7"/>
            <path id="Trazado_194862" data-name="Trazado 194862" d="M2.968,87.779a1.424,1.424,0,0,0-1.484-1.354,1.361,1.361,0,1,0,0,2.71,1.556,1.556,0,0,0,1.05-.4,1.3,1.3,0,0,0,.434-.959" transform="translate(0 -36.276)" fill="#7f4fc7"/>
            <path id="Trazado_194863" data-name="Trazado 194863" d="M11.24,87.779a1.424,1.424,0,0,0-1.484-1.354,1.361,1.361,0,1,0,0,2.71,1.556,1.556,0,0,0,1.05-.4,1.3,1.3,0,0,0,.434-.959" transform="translate(5.452 -36.276)" fill="#7f4fc7"/>
            <path id="Trazado_194864" data-name="Trazado 194864" d="M19.513,87.779a1.489,1.489,0,1,0-1.483,1.356,1.556,1.556,0,0,0,1.05-.4,1.3,1.3,0,0,0,.434-.959" transform="translate(10.904 -36.276)" fill="#7f4fc7"/>
            <path id="Trazado_194865" data-name="Trazado 194865" d="M27.786,87.779A1.489,1.489,0,1,0,26.3,89.135a1.556,1.556,0,0,0,1.05-.4,1.3,1.3,0,0,0,.434-.959" transform="translate(16.354 -36.276)" fill="#7f4fc7"/>
            <path id="Trazado_194866" data-name="Trazado 194866" d="M36.058,87.779a1.489,1.489,0,1,0-1.483,1.356,1.556,1.556,0,0,0,1.05-.4,1.3,1.3,0,0,0,.434-.959" transform="translate(21.806 -36.276)" fill="#7f4fc7"/>
            <path id="Trazado_194867" data-name="Trazado 194867" d="M44.327,87.779a1.489,1.489,0,1,0-1.483,1.356,1.556,1.556,0,0,0,1.05-.4,1.3,1.3,0,0,0,.434-.959" transform="translate(27.257 -36.276)" fill="#7f4fc7"/>
            <path id="Trazado_194868" data-name="Trazado 194868" d="M52.6,87.779a1.489,1.489,0,1,0-1.483,1.356,1.556,1.556,0,0,0,1.05-.4,1.3,1.3,0,0,0,.434-.959" transform="translate(32.71 -36.276)" fill="#7f4fc7"/>
            <path id="Trazado_194869" data-name="Trazado 194869" d="M60.876,87.779a1.489,1.489,0,1,0-1.483,1.356,1.424,1.424,0,0,0,1.483-1.356" transform="translate(38.16 -36.276)" fill="#7f4fc7"/>
            <path id="Trazado_194870" data-name="Trazado 194870" d="M69.149,87.779a1.489,1.489,0,1,0-1.483,1.356,1.556,1.556,0,0,0,1.05-.4,1.3,1.3,0,0,0,.434-.959" transform="translate(43.612 -36.276)" fill="#7f4fc7"/>
            <path id="Trazado_194871" data-name="Trazado 194871" d="M2.968,96.052A1.424,1.424,0,0,0,1.484,94.7a1.361,1.361,0,1,0,0,2.71,1.557,1.557,0,0,0,1.049-.4,1.3,1.3,0,0,0,.434-.959" transform="translate(0 -32.012)" fill="#7f4fc7"/>
            <path id="Trazado_194872" data-name="Trazado 194872" d="M11.24,96.052A1.424,1.424,0,0,0,9.756,94.7a1.361,1.361,0,1,0,0,2.71,1.557,1.557,0,0,0,1.049-.4,1.3,1.3,0,0,0,.434-.959" transform="translate(5.452 -32.012)" fill="#7f4fc7"/>
            <path id="Trazado_194873" data-name="Trazado 194873" d="M19.513,96.052a1.49,1.49,0,1,0-1.483,1.355,1.557,1.557,0,0,0,1.049-.4,1.3,1.3,0,0,0,.434-.959" transform="translate(10.904 -32.012)" fill="#7f4fc7"/>
            <path id="Trazado_194874" data-name="Trazado 194874" d="M27.786,96.052A1.49,1.49,0,1,0,26.3,97.407a1.557,1.557,0,0,0,1.049-.4,1.3,1.3,0,0,0,.434-.959" transform="translate(16.354 -32.012)" fill="#7f4fc7"/>
            <path id="Trazado_194875" data-name="Trazado 194875" d="M36.058,96.052a1.49,1.49,0,1,0-1.483,1.355,1.557,1.557,0,0,0,1.049-.4,1.3,1.3,0,0,0,.434-.959" transform="translate(21.806 -32.012)" fill="#7f4fc7"/>
            <path id="Trazado_194876" data-name="Trazado 194876" d="M44.327,96.052a1.49,1.49,0,1,0-1.483,1.355,1.557,1.557,0,0,0,1.049-.4,1.3,1.3,0,0,0,.434-.959" transform="translate(27.257 -32.012)" fill="#7f4fc7"/>
            <path id="Trazado_194877" data-name="Trazado 194877" d="M52.6,96.052a1.49,1.49,0,1,0-1.483,1.355,1.557,1.557,0,0,0,1.049-.4,1.3,1.3,0,0,0,.434-.959" transform="translate(32.71 -32.012)" fill="#7f4fc7"/>
            <path id="Trazado_194878" data-name="Trazado 194878" d="M60.876,96.052a1.49,1.49,0,1,0-1.483,1.355,1.424,1.424,0,0,0,1.483-1.355" transform="translate(38.16 -32.012)" fill="#7f4fc7"/>
            <path id="Trazado_194879" data-name="Trazado 194879" d="M69.149,96.052a1.49,1.49,0,1,0-1.483,1.355,1.556,1.556,0,0,0,1.049-.4,1.3,1.3,0,0,0,.434-.959" transform="translate(43.612 -32.012)" fill="#7f4fc7"/>
            <path id="Trazado_194880" data-name="Trazado 194880" d="M2.968,104.324a1.424,1.424,0,0,0-1.483-1.355,1.361,1.361,0,1,0,0,2.71,1.556,1.556,0,0,0,1.049-.4,1.3,1.3,0,0,0,.434-.959" transform="translate(0 -27.748)" fill="#7f4fc7"/>
            <path id="Trazado_194881" data-name="Trazado 194881" d="M11.24,104.324a1.424,1.424,0,0,0-1.483-1.355,1.361,1.361,0,1,0,0,2.71,1.556,1.556,0,0,0,1.049-.4,1.3,1.3,0,0,0,.434-.959" transform="translate(5.452 -27.748)" fill="#7f4fc7"/>
            <path id="Trazado_194882" data-name="Trazado 194882" d="M19.513,104.324a1.49,1.49,0,1,0-1.483,1.355,1.556,1.556,0,0,0,1.049-.4,1.3,1.3,0,0,0,.434-.959" transform="translate(10.904 -27.748)" fill="#7f4fc7"/>
            <path id="Trazado_194883" data-name="Trazado 194883" d="M27.786,104.324a1.49,1.49,0,1,0-1.483,1.355,1.556,1.556,0,0,0,1.049-.4,1.3,1.3,0,0,0,.434-.959" transform="translate(16.354 -27.748)" fill="#7f4fc7"/>
            <path id="Trazado_194884" data-name="Trazado 194884" d="M36.058,104.324a1.49,1.49,0,1,0-1.483,1.355,1.556,1.556,0,0,0,1.049-.4,1.3,1.3,0,0,0,.434-.959" transform="translate(21.806 -27.748)" fill="#7f4fc7"/>
            <path id="Trazado_194885" data-name="Trazado 194885" d="M44.327,104.324a1.49,1.49,0,1,0-1.483,1.355,1.556,1.556,0,0,0,1.049-.4,1.3,1.3,0,0,0,.434-.959" transform="translate(27.257 -27.748)" fill="#7f4fc7"/>
            <path id="Trazado_194886" data-name="Trazado 194886" d="M52.6,104.324a1.49,1.49,0,1,0-1.483,1.355,1.556,1.556,0,0,0,1.049-.4,1.3,1.3,0,0,0,.434-.959" transform="translate(32.71 -27.748)" fill="#7f4fc7"/>
            <path id="Trazado_194887" data-name="Trazado 194887" d="M60.876,104.324a1.49,1.49,0,1,0-1.483,1.355,1.424,1.424,0,0,0,1.483-1.355" transform="translate(38.16 -27.748)" fill="#7f4fc7"/>
            <path id="Trazado_194888" data-name="Trazado 194888" d="M69.149,104.324a1.49,1.49,0,1,0-1.483,1.355,1.556,1.556,0,0,0,1.049-.4,1.3,1.3,0,0,0,.434-.959" transform="translate(43.612 -27.748)" fill="#7f4fc7"/>
            <path id="Trazado_194889" data-name="Trazado 194889" d="M2.968,112.6a1.424,1.424,0,0,0-1.483-1.355,1.361,1.361,0,1,0,0,2.71,1.556,1.556,0,0,0,1.049-.4,1.3,1.3,0,0,0,.434-.959" transform="translate(0 -23.484)" fill="#7f4fc7"/>
            <path id="Trazado_194890" data-name="Trazado 194890" d="M11.24,112.6a1.424,1.424,0,0,0-1.483-1.355,1.361,1.361,0,1,0,0,2.71,1.556,1.556,0,0,0,1.049-.4,1.3,1.3,0,0,0,.434-.959" transform="translate(5.452 -23.484)" fill="#7f4fc7"/>
            <path id="Trazado_194891" data-name="Trazado 194891" d="M19.513,112.6a1.49,1.49,0,1,0-1.483,1.355,1.556,1.556,0,0,0,1.049-.4,1.3,1.3,0,0,0,.434-.959" transform="translate(10.904 -23.484)" fill="#7f4fc7"/>
            <path id="Trazado_194892" data-name="Trazado 194892" d="M27.786,112.6a1.49,1.49,0,1,0-1.483,1.355,1.556,1.556,0,0,0,1.049-.4,1.3,1.3,0,0,0,.434-.959" transform="translate(16.354 -23.484)" fill="#7f4fc7"/>
            <path id="Trazado_194893" data-name="Trazado 194893" d="M36.058,112.6a1.49,1.49,0,1,0-1.483,1.355,1.556,1.556,0,0,0,1.049-.4,1.3,1.3,0,0,0,.434-.959" transform="translate(21.806 -23.484)" fill="#7f4fc7"/>
            <path id="Trazado_194894" data-name="Trazado 194894" d="M44.327,112.6a1.49,1.49,0,1,0-1.483,1.355,1.556,1.556,0,0,0,1.049-.4,1.3,1.3,0,0,0,.434-.959" transform="translate(27.257 -23.484)" fill="#7f4fc7"/>
            <path id="Trazado_194895" data-name="Trazado 194895" d="M52.6,112.6a1.49,1.49,0,1,0-1.483,1.355,1.556,1.556,0,0,0,1.049-.4,1.3,1.3,0,0,0,.434-.959" transform="translate(32.71 -23.484)" fill="#7f4fc7"/>
            <path id="Trazado_194896" data-name="Trazado 194896" d="M60.876,112.6a1.49,1.49,0,1,0-1.483,1.355,1.424,1.424,0,0,0,1.483-1.355" transform="translate(38.16 -23.484)" fill="#7f4fc7"/>
            <path id="Trazado_194897" data-name="Trazado 194897" d="M69.149,112.6a1.49,1.49,0,1,0-1.483,1.355,1.556,1.556,0,0,0,1.049-.4,1.3,1.3,0,0,0,.434-.959" transform="translate(43.612 -23.484)" fill="#7f4fc7"/>
            <path id="Trazado_194898" data-name="Trazado 194898" d="M2.968,120.869a1.424,1.424,0,0,0-1.483-1.355,1.361,1.361,0,1,0,0,2.71,1.556,1.556,0,0,0,1.049-.4,1.3,1.3,0,0,0,.434-.959" transform="translate(0 -19.22)" fill="#7f4fc7"/>
            <path id="Trazado_194899" data-name="Trazado 194899" d="M11.24,120.869a1.424,1.424,0,0,0-1.483-1.355,1.361,1.361,0,1,0,0,2.71,1.556,1.556,0,0,0,1.049-.4,1.3,1.3,0,0,0,.434-.959" transform="translate(5.452 -19.22)" fill="#7f4fc7"/>
            <path id="Trazado_194900" data-name="Trazado 194900" d="M19.513,120.869a1.49,1.49,0,1,0-1.483,1.355,1.556,1.556,0,0,0,1.049-.4,1.3,1.3,0,0,0,.434-.959" transform="translate(10.904 -19.22)" fill="#7f4fc7"/>
            <path id="Trazado_194901" data-name="Trazado 194901" d="M27.786,120.869a1.49,1.49,0,1,0-1.483,1.355,1.556,1.556,0,0,0,1.049-.4,1.3,1.3,0,0,0,.434-.959" transform="translate(16.354 -19.22)" fill="#7f4fc7"/>
            <path id="Trazado_194902" data-name="Trazado 194902" d="M36.058,120.869a1.49,1.49,0,1,0-1.483,1.355,1.556,1.556,0,0,0,1.049-.4,1.3,1.3,0,0,0,.434-.959" transform="translate(21.806 -19.22)" fill="#7f4fc7"/>
            <path id="Trazado_194903" data-name="Trazado 194903" d="M44.327,120.869a1.49,1.49,0,1,0-1.483,1.355,1.556,1.556,0,0,0,1.049-.4,1.3,1.3,0,0,0,.434-.959" transform="translate(27.257 -19.22)" fill="#7f4fc7"/>
            <path id="Trazado_194904" data-name="Trazado 194904" d="M52.6,120.869a1.49,1.49,0,1,0-1.483,1.355,1.556,1.556,0,0,0,1.049-.4,1.3,1.3,0,0,0,.434-.959" transform="translate(32.71 -19.22)" fill="#7f4fc7"/>
            <path id="Trazado_194905" data-name="Trazado 194905" d="M60.876,120.869a1.49,1.49,0,1,0-1.483,1.355,1.424,1.424,0,0,0,1.483-1.355" transform="translate(38.16 -19.22)" fill="#7f4fc7"/>
            <path id="Trazado_194906" data-name="Trazado 194906" d="M69.149,120.869a1.49,1.49,0,1,0-1.483,1.355,1.556,1.556,0,0,0,1.049-.4,1.3,1.3,0,0,0,.434-.959" transform="translate(43.612 -19.22)" fill="#7f4fc7"/>
          </g>
        </g>
        <g id="Grupo_154801" data-name="Grupo 154801" transform="translate(1284.293 2072.579)">
          <g id="Grupo_154721" data-name="Grupo 154721" clip-path="url(#clip-path-2)">
            <line id="Línea_1878" data-name="Línea 1878" x1="21.605" y2="101.839" transform="translate(61.14 29.463)" fill="none" stroke="#1e0b4a" stroke-linecap="round" stroke-linejoin="round" stroke-width="1.052"/>
            <path id="Trazado_196481" data-name="Trazado 196481" d="M238.009,274.732a8.116,8.116,0,1,1-8.116-8.116,8.116,8.116,0,0,1,8.116,8.116" transform="translate(-147.148 -245.268)" fill="#afc2dd"/>
            <path id="Trazado_196482" data-name="Trazado 196482" d="M250.969,334.8c-8.993,25.883-37.317,39.553-37.317,39.553s-13.743-28.29-4.749-54.171,37.317-39.552,37.317-39.552,13.743,28.289,4.749,54.17" transform="translate(-144.709 -243.048)" fill="#12263f"/>
            <path id="Trazado_196483" data-name="Trazado 196483" d="M294.477,324.773c4.17,39.347-24.428,74.631-24.428,74.631s-35.357-28.508-39.526-67.855,24.429-74.631,24.429-74.631,35.356,28.508,39.525,67.855" transform="translate(-213.683 -246.805)" fill="#afc2dd"/>
            <path id="Trazado_196484" data-name="Trazado 196484" d="M301.225,323.107A14.827,14.827,0,1,1,286.4,308.28a14.827,14.827,0,0,1,14.827,14.827" transform="translate(-268.053 -238.666)" fill="#12263f"/>
            <line id="Línea_1879" data-name="Línea 1879" x2="14.585" y2="137.648" transform="translate(41.781 14.95)" fill="none" stroke="#1e0b4a" stroke-linecap="round" stroke-linejoin="round" stroke-width="1.052"/>
            <line id="Línea_1880" data-name="Línea 1880" y1="17.929" x2="27.876" transform="translate(50.522 79.509)" fill="none" stroke="#1e0b4a" stroke-linecap="round" stroke-linejoin="round" stroke-width="1.052"/>
            <line id="Línea_1881" data-name="Línea 1881" x1="23.957" y1="12.551" transform="translate(22.858 49.911)" fill="none" stroke="#1e0b4a" stroke-linecap="round" stroke-linejoin="round" stroke-width="1.052"/>
            <line id="Línea_1882" data-name="Línea 1882" x2="26.068" y2="53.467" transform="translate(18.345 84.441)" fill="none" stroke="#1e0b4a" stroke-linecap="round" stroke-linejoin="round" stroke-width="1.052"/>
          </g>
        </g>
        <g id="Grupo_155255" data-name="Grupo 155255" transform="translate(1048.546 1863.5)">
          <g id="Grupo_154317" data-name="Grupo 154317">
            <g id="Grupo_154315" data-name="Grupo 154315" transform="translate(47.652 8.224)">
              <path id="Trazado_195058" data-name="Trazado 195058" d="M14.7,227.158H73.5a2.2,2.2,0,1,0,0-4.407H14.7a2.2,2.2,0,1,0,0,4.407" transform="translate(-12.5 -222.751)" fill="#4e5662"/>
              <path id="Trazado_195059" data-name="Trazado 195059" d="M84.665,227.158H99.51a2.2,2.2,0,1,0,0-4.407H84.665a2.2,2.2,0,1,0,0,4.407" transform="translate(-13.851 -222.751)" fill="#4e5662"/>
              <path id="Trazado_195064" data-name="Trazado 195064" d="M126.12,232.612h-41.3a1.548,1.548,0,1,0,0,3.1h41.3a1.548,1.548,0,0,0,0-3.1" transform="translate(-13.866 -222.941)" fill="#4e5662"/>
              <path id="Trazado_195065" data-name="Trazado 195065" d="M77.591,232.612H67.161a1.548,1.548,0,1,0,0,3.1H77.591a1.548,1.548,0,0,0,0-3.1" transform="translate(-13.525 -222.941)" fill="#4e5662"/>
            </g>
            <g id="Grupo_154316" data-name="Grupo 154316">
              <path id="Trazado_195062" data-name="Trazado 195062" d="M183.977,1.333h-69.41c-1.437,0-2.6.694-2.6,1.547s1.164,1.548,2.6,1.548h69.408c1.437,0,2.6-.694,2.6-1.548s-1.166-1.547-2.6-1.547" transform="translate(-66.719 -1.333)" fill="#4e5662"/>
              <path id="Trazado_195063" data-name="Trazado 195063" d="M125.591,1.333H98.352c-2.234,0-4.043.694-4.043,1.547s1.808,1.548,4.043,1.548h27.239c2.234,0,4.043-.694,4.043-1.548s-1.808-1.547-4.043-1.547" transform="translate(-94.309 -1.333)" fill="#4e5662"/>
            </g>
          </g>
        </g>
        <g id="Grupo_155256" data-name="Grupo 155256" transform="translate(1315 1785.287)">
          <rect id="Rectángulo_45220" data-name="Rectángulo 45220" width="162.947" height="38.696" transform="translate(73.64) rotate(90)" fill="#4e5662"/>
          <rect id="Rectángulo_45221" data-name="Rectángulo 45221" width="5.012" height="5.012" transform="translate(0 35.157) rotate(-90)" fill="#afc2dd"/>
          <rect id="Rectángulo_45222" data-name="Rectángulo 45222" width="5.012" height="5.012" transform="translate(0 45.805) rotate(-90)" fill="#afc2dd"/>
          <rect id="Rectángulo_45223" data-name="Rectángulo 45223" width="5.012" height="5.012" transform="translate(0 56.454) rotate(-90)" fill="#afc2dd"/>
          <rect id="Rectángulo_45224" data-name="Rectángulo 45224" width="5.011" height="5.012" transform="translate(0 67.104) rotate(-90)" fill="#afc2dd"/>
          <rect id="Rectángulo_45225" data-name="Rectángulo 45225" width="5.012" height="5.012" transform="translate(0 77.753) rotate(-90)" fill="#afc2dd"/>
          <rect id="Rectángulo_45226" data-name="Rectángulo 45226" width="5.011" height="5.012" transform="translate(0 88.402) rotate(-90)" fill="#afc2dd"/>
          <rect id="Rectángulo_45227" data-name="Rectángulo 45227" width="5.012" height="5.012" transform="translate(0 99.051) rotate(-90)" fill="#afc2dd"/>
          <rect id="Rectángulo_45228" data-name="Rectángulo 45228" width="5.011" height="5.012" transform="translate(0 109.701) rotate(-90)" fill="#afc2dd"/>
          <rect id="Rectángulo_45229" data-name="Rectángulo 45229" width="5.012" height="5.012" transform="translate(0 120.35) rotate(-90)" fill="#afc2dd"/>
          <rect id="Rectángulo_46135" data-name="Rectángulo 46135" width="5.012" height="5.012" transform="translate(0 152.297) rotate(-90)" fill="#afc2dd"/>
          <rect id="Rectángulo_46159" data-name="Rectángulo 46159" width="5.012" height="5.012" transform="translate(0 184.246) rotate(-90)" fill="#afc2dd"/>
          <rect id="Rectángulo_45230" data-name="Rectángulo 45230" width="5.012" height="5.012" transform="translate(0 130.998) rotate(-90)" fill="#afc2dd"/>
          <rect id="Rectángulo_46125" data-name="Rectángulo 46125" width="5.012" height="5.012" transform="translate(0 162.947) rotate(-90)" fill="#afc2dd"/>
          <rect id="Rectángulo_46160" data-name="Rectángulo 46160" width="5.012" height="5.012" transform="translate(0 194.894) rotate(-90)" fill="#afc2dd"/>
          <rect id="Rectángulo_46168" data-name="Rectángulo 46168" width="5.012" height="5.012" transform="translate(0 216.191) rotate(-90)" fill="#afc2dd"/>
          <rect id="Rectángulo_45231" data-name="Rectángulo 45231" width="5.012" height="5.012" transform="translate(0 141.648) rotate(-90)" fill="#afc2dd"/>
          <rect id="Rectángulo_46123" data-name="Rectángulo 46123" width="5.012" height="5.012" transform="translate(0 173.596) rotate(-90)" fill="#afc2dd"/>
          <rect id="Rectángulo_46161" data-name="Rectángulo 46161" width="5.012" height="5.012" transform="translate(0 205.543) rotate(-90)" fill="#afc2dd"/>
          <rect id="Rectángulo_46162" data-name="Rectángulo 46162" width="5.012" height="5.012" transform="translate(0 226.841) rotate(-90)" fill="#afc2dd"/>
          <rect id="Rectángulo_45232" data-name="Rectángulo 45232" width="5.012" height="5.012" transform="translate(10.65 35.157) rotate(-90)" fill="#afc2dd"/>
          <rect id="Rectángulo_45233" data-name="Rectángulo 45233" width="5.012" height="5.012" transform="translate(10.65 45.805) rotate(-90)" fill="#afc2dd"/>
          <rect id="Rectángulo_45234" data-name="Rectángulo 45234" width="5.012" height="5.012" transform="translate(10.65 56.454) rotate(-90)" fill="#afc2dd"/>
          <rect id="Rectángulo_45235" data-name="Rectángulo 45235" width="5.011" height="5.012" transform="translate(10.65 67.104) rotate(-90)" fill="#afc2dd"/>
          <rect id="Rectángulo_45236" data-name="Rectángulo 45236" width="5.012" height="5.012" transform="translate(10.65 77.753) rotate(-90)" fill="#afc2dd"/>
          <rect id="Rectángulo_45237" data-name="Rectángulo 45237" width="5.011" height="5.012" transform="translate(10.65 88.402) rotate(-90)" fill="#afc2dd"/>
          <rect id="Rectángulo_45238" data-name="Rectángulo 45238" width="5.012" height="5.012" transform="translate(10.65 99.051) rotate(-90)" fill="#afc2dd"/>
          <rect id="Rectángulo_45239" data-name="Rectángulo 45239" width="5.011" height="5.012" transform="translate(10.65 109.701) rotate(-90)" fill="#afc2dd"/>
          <rect id="Rectángulo_45240" data-name="Rectángulo 45240" width="5.012" height="5.012" transform="translate(10.65 120.35) rotate(-90)" fill="#afc2dd"/>
          <rect id="Rectángulo_46136" data-name="Rectángulo 46136" width="5.012" height="5.012" transform="translate(10.65 152.297) rotate(-90)" fill="#afc2dd"/>
          <rect id="Rectángulo_46156" data-name="Rectángulo 46156" width="5.012" height="5.012" transform="translate(10.65 184.246) rotate(-90)" fill="#afc2dd"/>
          <rect id="Rectángulo_45241" data-name="Rectángulo 45241" width="5.012" height="5.012" transform="translate(10.65 130.998) rotate(-90)" fill="#afc2dd"/>
          <rect id="Rectángulo_46126" data-name="Rectángulo 46126" width="5.012" height="5.012" transform="translate(10.65 162.947) rotate(-90)" fill="#afc2dd"/>
          <rect id="Rectángulo_46157" data-name="Rectángulo 46157" width="5.012" height="5.012" transform="translate(10.65 194.894) rotate(-90)" fill="#afc2dd"/>
          <rect id="Rectángulo_46169" data-name="Rectángulo 46169" width="5.012" height="5.012" transform="translate(10.65 216.191) rotate(-90)" fill="#afc2dd"/>
          <rect id="Rectángulo_45242" data-name="Rectángulo 45242" width="5.012" height="5.012" transform="translate(10.65 141.648) rotate(-90)" fill="#afc2dd"/>
          <rect id="Rectángulo_46124" data-name="Rectángulo 46124" width="5.012" height="5.012" transform="translate(10.65 173.596) rotate(-90)" fill="#afc2dd"/>
          <rect id="Rectángulo_46158" data-name="Rectángulo 46158" width="5.012" height="5.012" transform="translate(10.65 205.543) rotate(-90)" fill="#afc2dd"/>
          <rect id="Rectángulo_46163" data-name="Rectángulo 46163" width="5.012" height="5.012" transform="translate(10.65 226.841) rotate(-90)" fill="#afc2dd"/>
          <rect id="Rectángulo_45243" data-name="Rectángulo 45243" width="5.012" height="5.012" transform="translate(19.604 35.157) rotate(-90)" fill="#afc2dd"/>
          <rect id="Rectángulo_45244" data-name="Rectángulo 45244" width="5.012" height="5.012" transform="translate(19.604 45.805) rotate(-90)" fill="#afc2dd"/>
          <rect id="Rectángulo_45245" data-name="Rectángulo 45245" width="5.012" height="5.012" transform="translate(19.604 56.454) rotate(-90)" fill="#afc2dd"/>
          <rect id="Rectángulo_45246" data-name="Rectángulo 45246" width="5.011" height="5.012" transform="translate(19.604 67.104) rotate(-90)" fill="#afc2dd"/>
          <rect id="Rectángulo_45247" data-name="Rectángulo 45247" width="5.012" height="5.012" transform="translate(19.604 77.753) rotate(-90)" fill="#afc2dd"/>
          <rect id="Rectángulo_45248" data-name="Rectángulo 45248" width="5.011" height="5.012" transform="translate(19.604 88.402) rotate(-90)" fill="#afc2dd"/>
          <rect id="Rectángulo_45249" data-name="Rectángulo 45249" width="5.012" height="5.012" transform="translate(19.604 99.051) rotate(-90)" fill="#afc2dd"/>
          <rect id="Rectángulo_45250" data-name="Rectángulo 45250" width="5.011" height="5.012" transform="translate(19.604 109.701) rotate(-90)" fill="#afc2dd"/>
          <rect id="Rectángulo_45251" data-name="Rectángulo 45251" width="5.012" height="5.012" transform="translate(19.604 120.35) rotate(-90)" fill="#afc2dd"/>
          <rect id="Rectángulo_46137" data-name="Rectángulo 46137" width="5.012" height="5.012" transform="translate(19.604 152.297) rotate(-90)" fill="#afc2dd"/>
          <rect id="Rectángulo_46146" data-name="Rectángulo 46146" width="5.012" height="5.012" transform="translate(19.604 184.246) rotate(-90)" fill="#afc2dd"/>
          <rect id="Rectángulo_45252" data-name="Rectángulo 45252" width="5.012" height="5.012" transform="translate(19.604 130.998) rotate(-90)" fill="#afc2dd"/>
          <rect id="Rectángulo_46127" data-name="Rectángulo 46127" width="5.012" height="5.012" transform="translate(19.604 162.947) rotate(-90)" fill="#afc2dd"/>
          <rect id="Rectángulo_46147" data-name="Rectángulo 46147" width="5.012" height="5.012" transform="translate(19.604 194.894) rotate(-90)" fill="#afc2dd"/>
          <rect id="Rectángulo_46170" data-name="Rectángulo 46170" width="5.012" height="5.012" transform="translate(19.604 216.191) rotate(-90)" fill="#afc2dd"/>
          <rect id="Rectángulo_45253" data-name="Rectángulo 45253" width="5.012" height="5.012" transform="translate(19.604 141.648) rotate(-90)" fill="#afc2dd"/>
          <rect id="Rectángulo_46128" data-name="Rectángulo 46128" width="5.012" height="5.012" transform="translate(19.604 173.596) rotate(-90)" fill="#afc2dd"/>
          <rect id="Rectángulo_46148" data-name="Rectángulo 46148" width="5.012" height="5.012" transform="translate(19.604 205.543) rotate(-90)" fill="#afc2dd"/>
          <rect id="Rectángulo_46164" data-name="Rectángulo 46164" width="5.012" height="5.012" transform="translate(19.604 226.841) rotate(-90)" fill="#afc2dd"/>
          <rect id="Rectángulo_45221-2" data-name="Rectángulo 45221" width="5.012" height="5.012" transform="translate(28.588 35.157) rotate(-90)" fill="#afc2dd"/>
          <rect id="Rectángulo_45222-2" data-name="Rectángulo 45222" width="5.012" height="5.012" transform="translate(28.588 45.805) rotate(-90)" fill="#afc2dd"/>
          <rect id="Rectángulo_45223-2" data-name="Rectángulo 45223" width="5.012" height="5.012" transform="translate(28.588 56.454) rotate(-90)" fill="#afc2dd"/>
          <rect id="Rectángulo_45224-2" data-name="Rectángulo 45224" width="5.011" height="5.012" transform="translate(28.588 67.104) rotate(-90)" fill="#afc2dd"/>
          <rect id="Rectángulo_45225-2" data-name="Rectángulo 45225" width="5.012" height="5.012" transform="translate(28.588 77.753) rotate(-90)" fill="#afc2dd"/>
          <rect id="Rectángulo_45226-2" data-name="Rectángulo 45226" width="5.011" height="5.012" transform="translate(28.588 88.402) rotate(-90)" fill="#afc2dd"/>
          <rect id="Rectángulo_45227-2" data-name="Rectángulo 45227" width="5.012" height="5.012" transform="translate(28.588 99.051) rotate(-90)" fill="#afc2dd"/>
          <rect id="Rectángulo_45228-2" data-name="Rectángulo 45228" width="5.011" height="5.012" transform="translate(28.588 109.701) rotate(-90)" fill="#afc2dd"/>
          <rect id="Rectángulo_45229-2" data-name="Rectángulo 45229" width="5.012" height="5.012" transform="translate(28.588 120.35) rotate(-90)" fill="#afc2dd"/>
          <rect id="Rectángulo_46138" data-name="Rectángulo 46138" width="5.012" height="5.012" transform="translate(28.588 152.297) rotate(-90)" fill="#afc2dd"/>
          <rect id="Rectángulo_46149" data-name="Rectángulo 46149" width="5.012" height="5.012" transform="translate(28.588 184.246) rotate(-90)" fill="#afc2dd"/>
          <rect id="Rectángulo_45230-2" data-name="Rectángulo 45230" width="5.012" height="5.012" transform="translate(28.588 130.998) rotate(-90)" fill="#afc2dd"/>
          <rect id="Rectángulo_46129" data-name="Rectángulo 46129" width="5.012" height="5.012" transform="translate(28.588 162.947) rotate(-90)" fill="#afc2dd"/>
          <rect id="Rectángulo_46150" data-name="Rectángulo 46150" width="5.012" height="5.012" transform="translate(28.588 194.894) rotate(-90)" fill="#afc2dd"/>
          <rect id="Rectángulo_46171" data-name="Rectángulo 46171" width="5.012" height="5.012" transform="translate(28.588 216.191) rotate(-90)" fill="#afc2dd"/>
          <rect id="Rectángulo_45231-2" data-name="Rectángulo 45231" width="5.012" height="5.012" transform="translate(28.588 141.648) rotate(-90)" fill="#afc2dd"/>
          <rect id="Rectángulo_46130" data-name="Rectángulo 46130" width="5.012" height="5.012" transform="translate(28.588 173.596) rotate(-90)" fill="#afc2dd"/>
          <rect id="Rectángulo_46151" data-name="Rectángulo 46151" width="5.012" height="5.012" transform="translate(28.588 205.543) rotate(-90)" fill="#afc2dd"/>
          <rect id="Rectángulo_46165" data-name="Rectángulo 46165" width="5.012" height="5.012" transform="translate(28.588 226.841) rotate(-90)" fill="#afc2dd"/>
          <rect id="Rectángulo_45232-2" data-name="Rectángulo 45232" width="5.012" height="5.012" transform="translate(38.39 35.157) rotate(-90)" fill="#afc2dd"/>
          <rect id="Rectángulo_45233-2" data-name="Rectángulo 45233" width="5.012" height="5.012" transform="translate(38.39 45.805) rotate(-90)" fill="#afc2dd"/>
          <rect id="Rectángulo_45234-2" data-name="Rectángulo 45234" width="5.012" height="5.012" transform="translate(38.39 56.454) rotate(-90)" fill="#afc2dd"/>
          <rect id="Rectángulo_45235-2" data-name="Rectángulo 45235" width="5.011" height="5.012" transform="translate(38.39 67.104) rotate(-90)" fill="#afc2dd"/>
          <rect id="Rectángulo_45236-2" data-name="Rectángulo 45236" width="5.012" height="5.012" transform="translate(38.39 77.753) rotate(-90)" fill="#afc2dd"/>
          <rect id="Rectángulo_45237-2" data-name="Rectángulo 45237" width="5.011" height="5.012" transform="translate(38.39 88.402) rotate(-90)" fill="#afc2dd"/>
          <rect id="Rectángulo_45238-2" data-name="Rectángulo 45238" width="5.012" height="5.012" transform="translate(38.39 99.051) rotate(-90)" fill="#afc2dd"/>
          <rect id="Rectángulo_45239-2" data-name="Rectángulo 45239" width="5.011" height="5.012" transform="translate(38.39 109.701) rotate(-90)" fill="#afc2dd"/>
          <rect id="Rectángulo_45240-2" data-name="Rectángulo 45240" width="5.012" height="5.012" transform="translate(38.39 120.35) rotate(-90)" fill="#afc2dd"/>
          <rect id="Rectángulo_46139" data-name="Rectángulo 46139" width="5.012" height="5.012" transform="translate(38.39 152.297) rotate(-90)" fill="#afc2dd"/>
          <rect id="Rectángulo_46152" data-name="Rectángulo 46152" width="5.012" height="5.012" transform="translate(38.39 184.246) rotate(-90)" fill="#afc2dd"/>
          <rect id="Rectángulo_45241-2" data-name="Rectángulo 45241" width="5.012" height="5.012" transform="translate(38.39 130.998) rotate(-90)" fill="#afc2dd"/>
          <rect id="Rectángulo_46131" data-name="Rectángulo 46131" width="5.012" height="5.012" transform="translate(38.39 162.947) rotate(-90)" fill="#afc2dd"/>
          <rect id="Rectángulo_46153" data-name="Rectángulo 46153" width="5.012" height="5.012" transform="translate(38.39 194.894) rotate(-90)" fill="#afc2dd"/>
          <rect id="Rectángulo_46172" data-name="Rectángulo 46172" width="5.012" height="5.012" transform="translate(38.39 216.191) rotate(-90)" fill="#afc2dd"/>
          <rect id="Rectángulo_45242-2" data-name="Rectángulo 45242" width="5.012" height="5.012" transform="translate(38.39 141.648) rotate(-90)" fill="#afc2dd"/>
          <rect id="Rectángulo_46132" data-name="Rectángulo 46132" width="5.012" height="5.012" transform="translate(38.39 173.596) rotate(-90)" fill="#afc2dd"/>
          <rect id="Rectángulo_46154" data-name="Rectángulo 46154" width="5.012" height="5.012" transform="translate(38.39 205.543) rotate(-90)" fill="#afc2dd"/>
          <rect id="Rectángulo_46166" data-name="Rectángulo 46166" width="5.012" height="5.012" transform="translate(38.39 226.841) rotate(-90)" fill="#afc2dd"/>
          <rect id="Rectángulo_45243-2" data-name="Rectángulo 45243" width="5.012" height="5.012" transform="translate(48.192 35.157) rotate(-90)" fill="#afc2dd"/>
          <rect id="Rectángulo_45244-2" data-name="Rectángulo 45244" width="5.012" height="5.012" transform="translate(48.192 45.805) rotate(-90)" fill="#afc2dd"/>
          <rect id="Rectángulo_45245-2" data-name="Rectángulo 45245" width="5.012" height="5.012" transform="translate(48.192 56.454) rotate(-90)" fill="#afc2dd"/>
          <rect id="Rectángulo_45246-2" data-name="Rectángulo 45246" width="5.011" height="5.012" transform="translate(48.192 67.104) rotate(-90)" fill="#afc2dd"/>
          <rect id="Rectángulo_45247-2" data-name="Rectángulo 45247" width="5.012" height="5.012" transform="translate(48.192 77.753) rotate(-90)" fill="#afc2dd"/>
          <rect id="Rectángulo_45248-2" data-name="Rectángulo 45248" width="5.011" height="5.012" transform="translate(48.192 88.402) rotate(-90)" fill="#afc2dd"/>
          <rect id="Rectángulo_45249-2" data-name="Rectángulo 45249" width="5.012" height="5.012" transform="translate(48.192 99.051) rotate(-90)" fill="#afc2dd"/>
          <rect id="Rectángulo_45250-2" data-name="Rectángulo 45250" width="5.011" height="5.012" transform="translate(48.192 109.701) rotate(-90)" fill="#afc2dd"/>
          <rect id="Rectángulo_45251-2" data-name="Rectángulo 45251" width="5.012" height="5.012" transform="translate(48.192 120.35) rotate(-90)" fill="#afc2dd"/>
          <rect id="Rectángulo_46140" data-name="Rectángulo 46140" width="5.012" height="5.012" transform="translate(48.192 152.297) rotate(-90)" fill="#afc2dd"/>
          <rect id="Rectángulo_46144" data-name="Rectángulo 46144" width="5.012" height="5.012" transform="translate(48.192 184.246) rotate(-90)" fill="#afc2dd"/>
          <rect id="Rectángulo_45252-2" data-name="Rectángulo 45252" width="5.012" height="5.012" transform="translate(48.192 130.998) rotate(-90)" fill="#afc2dd"/>
          <rect id="Rectángulo_46133" data-name="Rectángulo 46133" width="5.012" height="5.012" transform="translate(48.192 162.947) rotate(-90)" fill="#afc2dd"/>
          <rect id="Rectángulo_46145" data-name="Rectángulo 46145" width="5.012" height="5.012" transform="translate(48.192 194.894) rotate(-90)" fill="#afc2dd"/>
          <rect id="Rectángulo_46173" data-name="Rectángulo 46173" width="5.012" height="5.012" transform="translate(48.192 216.191) rotate(-90)" fill="#afc2dd"/>
          <rect id="Rectángulo_45253-2" data-name="Rectángulo 45253" width="5.012" height="5.012" transform="translate(48.192 141.648) rotate(-90)" fill="#afc2dd"/>
          <rect id="Rectángulo_46134" data-name="Rectángulo 46134" width="5.012" height="5.012" transform="translate(48.192 173.596) rotate(-90)" fill="#afc2dd"/>
          <rect id="Rectángulo_46155" data-name="Rectángulo 46155" width="5.012" height="5.012" transform="translate(48.192 205.543) rotate(-90)" fill="#afc2dd"/>
          <rect id="Rectángulo_46167" data-name="Rectángulo 46167" width="5.012" height="5.012" transform="translate(48.192 226.841) rotate(-90)" fill="#afc2dd"/>
        </g>
        <g id="Grupo_1072712" data-name="Grupo 1072712" transform="translate(1094 1695.5)">
          <g id="Grupo_1072711" data-name="Grupo 1072711" clip-path="url(#clip-path-3)">
            <path id="Trazado_610616" data-name="Trazado 610616" d="M0,298.012l.1-.067.034-.019L0,298.012" transform="translate(301.331 51.085)" fill="#2fc3b0"/>
            <path id="Trazado_610617" data-name="Trazado 610617" d="M130.856,0c2.166,0,4.411.067,6.673.2a122.966,122.966,0,0,1,21.605,3.236,119.839,119.839,0,0,1,20.7,6.98,93.333,93.333,0,0,1,17.981,10.434,64.392,64.392,0,0,1,7.9,6.953,32.748,32.748,0,0,1,6.129,8.738,21.251,21.251,0,0,1,1.9,7.019,20.881,20.881,0,0,1-.009,3.7c-.032.353-.073.7-.123,1.044a18.3,18.3,0,0,1,2.776,1.343,23.935,23.935,0,0,1,2.7,1.878,19.808,19.808,0,0,1,4.038,4.377,21.742,21.742,0,0,1,3.494,10.9,32.731,32.731,0,0,1-.189,6.079,48.92,48.92,0,0,1-1.231,6.471,74.108,74.108,0,0,1-4.87,13.049,109.745,109.745,0,0,1-6.791,12.229,116.7,116.7,0,0,1-7.359,10.3,70.988,70.988,0,0,1-4.792,5.459.966.966,0,0,1-.9.745.765.765,0,0,1-.171-.019,119.724,119.724,0,0,0-17.52-2.086c-1.59-.094-3.182-.178-4.774-.262-5.732-.3-11.66-.616-17.443-1.421-1.884-.265-3.78-.609-5.547-.943q-2.794-.522-5.588-1.066c-3.769-.736-7.506-1.5-11.105-2.27-7.854-1.687-15.044-3.427-21.98-5.322-3.634-.992-7.3-2.064-10.9-3.185-1.881-.585-3.576-1.118-5.276-1.729-1.539-.556-3.1-1.195-4.755-1.954a107.4,107.4,0,0,1-12.893-7.282,1.282,1.282,0,0,1-.234-.176.832.832,0,0,1-.218-.329,1.152,1.152,0,0,1-.033-.121,83.9,83.9,0,0,1-3.125-13.829,54.279,54.279,0,0,1-.187-15.842,27.283,27.283,0,0,1,1.373-5.406,16.212,16.212,0,0,1-3.168-2.569,20.7,20.7,0,0,1-4.515-7.366A30.2,30.2,0,0,1,71.539,30.5a26.342,26.342,0,0,1,1.585-4.427,28.158,28.158,0,0,1,2.307-4.015,34.515,34.515,0,0,1,6.34-6.839,49.628,49.628,0,0,1,8.01-5.388,68.9,68.9,0,0,1,8.852-4.059,88.826,88.826,0,0,1,8.961-2.856,83.358,83.358,0,0,1,9.167-1.908A95.415,95.415,0,0,1,130.856,0" transform="translate(-7.991 0)" fill="#7c2213"/>
            <path id="Trazado_610618" data-name="Trazado 610618" d="M197.14,71.108a8.02,8.02,0,0,1,3.387.715,6.723,6.723,0,0,1,1.224.749h.029a.984.984,0,0,1,.773.332,13.581,13.581,0,0,1,2.78,5.62,39.663,39.663,0,0,1,1.044,5.374,55.4,55.4,0,0,1,.453,6.441A45.567,45.567,0,0,1,206.464,97a24.787,24.787,0,0,1-1.469,5.874,11.066,11.066,0,0,1-2.886,4.283,6.9,6.9,0,0,1-4.494,1.671,6.626,6.626,0,0,1-1.089-.089c-2.04-.334-4.017-1.585-6.047-3.824a22.227,22.227,0,0,1-2.253-3.008,29.109,29.109,0,0,1-1.73-3.1,27.5,27.5,0,0,1-2.3-7.545,24.158,24.158,0,0,1,.11-8.772,16.911,16.911,0,0,1,1.374-4.057,12.417,12.417,0,0,1,2.107-3.074,14.352,14.352,0,0,1,3.732-2.771,13,13,0,0,1,4.538-1.415,9.581,9.581,0,0,1,1.086-.064" transform="translate(-120.739 12.193)" fill="#f0bea9"/>
            <path id="Trazado_610619" data-name="Trazado 610619" d="M188.595,74.965a9.99,9.99,0,0,1,2.585.754,13.772,13.772,0,0,1,2.53,1.423,16.9,16.9,0,0,1,3.9,4.169,14.727,14.727,0,0,1,1.35,2.5,9.415,9.415,0,0,1,.412,1.268,10,10,0,0,1,.216,1.162,1.086,1.086,0,0,1-.911,1.222,1.1,1.1,0,0,1-.787-.2,1.14,1.14,0,0,1-.43-.719l0-.011a17.308,17.308,0,0,0-1.546-3.468,21.045,21.045,0,0,0-3.257-4.078c-.459-.433-.934-.854-1.422-1.252a10.845,10.845,0,0,0-1.689-1.1l.17.088a8.9,8.9,0,0,0-1.925-.759,6.7,6.7,0,0,0-1.393-.17,5.764,5.764,0,0,0-1.442.2l.014,0a6.545,6.545,0,0,0-.984.4.338.338,0,1,1-.265-.622,8.588,8.588,0,0,1,2.324-.792,7.205,7.205,0,0,1,1.273-.108,9.436,9.436,0,0,1,1.276.09m-.761,1.012.094.022-.094-.022" transform="translate(-113.121 12.839)" fill="#da8c67"/>
            <path id="Trazado_610620" data-name="Trazado 610620" d="M146.09,29.908h.43a138.877,138.877,0,0,1,14.882.824,99.189,99.189,0,0,1,16.239,3.039,64.124,64.124,0,0,1,7.652,2.683,43.39,43.39,0,0,1,6.751,3.557,30.421,30.421,0,0,1,5.613,4.664,21.69,21.69,0,0,1,2.528,3.307,21.429,21.429,0,0,1,1.767,3.589,25.313,25.313,0,0,1,1.571,7.741,38.665,38.665,0,0,1-.508,8.24,85.458,85.458,0,0,1-4.623,16.32c-.649,1.756-1.326,3.5-2,5.241l-.493,1.27-.489,1.259c-.365.943-.731,1.89-1.052,2.85a14.908,14.908,0,0,1,5.933-1.237,13.275,13.275,0,0,1,6.49,1.7,13.07,13.07,0,0,1,4.887,5.028,18.924,18.924,0,0,1,1.6,3.957,21.562,21.562,0,0,1,.76,4.3,22.012,22.012,0,0,1-1.017,8.278,25.9,25.9,0,0,1-3.822,7.443,29.285,29.285,0,0,1-2.761,3.256,30.093,30.093,0,0,1-3.213,2.82,32.5,32.5,0,0,1-10.762,5.26,27.5,27.5,0,0,1-6.606,1.13q-.385.016-.772.016a15.992,15.992,0,0,1-3.853-.451,45.839,45.839,0,0,0-3.212,6.225,50.426,50.426,0,0,0-3.359,12.375,48.607,48.607,0,0,0-.036,12.623,40.758,40.758,0,0,0,2.735,10.141l-.112-.2c.314.685.63,1.376.969,2.054a.912.912,0,0,1,.219,1.039.775.775,0,0,1-.139.268,26.243,26.243,0,0,1-7.016,7.859,45.32,45.32,0,0,1-10.826,6.082,55.816,55.816,0,0,1-12.583,3.434,52.716,52.716,0,0,1-7.887.617,44.659,44.659,0,0,1-5.056-.283,32.894,32.894,0,0,1-11.631-3.4,23.835,23.835,0,0,1-4.748-3.287,21.107,21.107,0,0,1-3.755-4.423c-.242-.376-.466-.76-.683-1.149a.589.589,0,0,1-.074-.134c-.045-.082-.09-.164-.131-.246a.884.884,0,0,1,.77-1.337.963.963,0,0,1,.237.029,21.719,21.719,0,0,0,2.939-3.084,28.657,28.657,0,0,0,3.463-6.042h0a41.962,41.962,0,0,0,2.759-10.294l.016-.137a47.873,47.873,0,0,0,.4-6.8A57.524,57.524,0,0,1,118.3,156.5a55.6,55.6,0,0,1-9.8-3.914,48.874,48.874,0,0,1-8.67-5.654,37.536,37.536,0,0,1-6.362-6.682,35.257,35.257,0,0,1-4.386-7.878,36.238,36.238,0,0,1-2.27-8.872,46.045,46.045,0,0,1-.032-10.349,95.517,95.517,0,0,1,1.794-11.122c.49-2.307,1.026-4.6,1.564-6.9,1.127-4.819,2.293-9.8,2.971-14.8v.021c.227-1.745.395-3.541.5-5.343.08-1.4.134-2.894.179-4.85.03-1.33.052-2.659.073-3.989.03-2,.062-3.992.128-5.986.2-6.019.742-13.045,3.237-19.526a32.533,32.533,0,0,1,3.391-6.546.913.913,0,0,1,.262-.656.923.923,0,0,1,.626-.259c4.614-.363,9.3-.826,13.833-1.272,10.061-.992,20.464-2.018,30.752-2.018" transform="translate(-13.962 5.128)" fill="#f6cfbe"/>
            <path id="Trazado_610621" data-name="Trazado 610621" d="M146.332,29.883a139.335,139.335,0,0,1,14.881.828,98.943,98.943,0,0,1,16.251,3.048,61.366,61.366,0,0,1,7.651,2.681A42.76,42.76,0,0,1,191.865,40a30.007,30.007,0,0,1,5.623,4.662,21.554,21.554,0,0,1,2.527,3.318,20.684,20.684,0,0,1,1.765,3.588,25.363,25.363,0,0,1,1.579,7.752,37.824,37.824,0,0,1-.443,7.782,56.047,56.047,0,0,1-13.055-.692h0l0,0-.032-.006a.134.134,0,0,0-.04-.007,36.178,36.178,0,0,1-9-2.829h.006l.008,0-.008,0a25.666,25.666,0,0,1-5.378-3.449l-.008-.007.008.007v0a.255.255,0,0,0-.027-.023.062.062,0,0,0-.021-.019,21.515,21.515,0,0,1-3.521-3.853v0l0-.006-.009-.012.009.012v0s-.009-.014-.019-.023l.009.009a21.139,21.139,0,0,1-2.348-4.375.3.3,0,0,0-.17-.146.385.385,0,0,0-.1-.018.281.281,0,0,0-.132.036.177.177,0,0,0-.03.021.243.243,0,0,0-.07.011,78.528,78.528,0,0,1-9.431,2.691,91.4,91.4,0,0,1-9.71,1.364c.023,0,.05,0,.078,0a99.168,99.168,0,0,1-13.861.2,108.109,108.109,0,0,1-13.509-1.6c.028,0,.05.014.078.019-1.785-.329-3.569-.66-5.355-1-1.931-.375-3.861-.768-5.784-1.217a58.412,58.412,0,0,1-11.546-3.8h0a25.269,25.269,0,0,1-4.5-2.7,40.61,40.61,0,0,1,1.556-5.037,32.177,32.177,0,0,1,3.395-6.544.861.861,0,0,1,.261-.669.992.992,0,0,1,.645-.269c4.365-.339,8.794-.768,13.334-1.217l.5-.05c10.072-.993,20.487-2.023,30.751-2.023Zm34.476,33.689.055.027a.4.4,0,0,0-.055-.027" transform="translate(-13.774 5.124)" fill="#f0bea9"/>
            <path id="Trazado_610622" data-name="Trazado 610622" d="M119.378,55.661l.021.019,0,0a.346.346,0,0,0-.032-.027Z" transform="translate(42.222 9.543)" fill="#f0bea9"/>
            <path id="Trazado_610623" data-name="Trazado 610623" d="M107.09,61.052Z" transform="translate(68.929 10.468)" fill="#f0bea9"/>
            <path id="Trazado_610624" data-name="Trazado 610624" d="M107.088,61.058l-.036-.007a.2.2,0,0,1,.036.007" transform="translate(68.968 10.468)" fill="#f0bea9"/>
            <path id="Trazado_610625" data-name="Trazado 610625" d="M107.048,61.058h0Z" transform="translate(69.01 10.469)" fill="#f0bea9"/>
            <path id="Trazado_610626" data-name="Trazado 610626" d="M163.743,138.243l-.009.008.009-.008h0a56.128,56.128,0,0,1-12.36,7.692h0l-.032.014.027-.014a49.344,49.344,0,0,1-6,2.261,45.759,45.759,0,0,1-6.185,1.428l-.019,0a40.649,40.649,0,0,1-5.163.472q-1.662.037-3.323-.064.283-1.381.481-2.809l.019-.137a47.407,47.407,0,0,0,.4-6.714,45.325,45.325,0,0,0,5.1.326,61.484,61.484,0,0,0,9.079-.619,79.813,79.813,0,0,0,17.608-4.59c2.071-.808,4.109-1.7,6.089-2.714a54.3,54.3,0,0,1-5.727,5.466" transform="translate(-21.104 22.767)" fill="#da8c67"/>
            <path id="Trazado_610627" data-name="Trazado 610627" d="M156.532,147.158h0" transform="translate(-38.448 25.232)" fill="#da8c67"/>
            <path id="Trazado_610628" data-name="Trazado 610628" d="M156.538,147.16h.019l-.019,0" transform="translate(-38.472 25.233)" fill="#da8c67"/>
            <path id="Trazado_610629" data-name="Trazado 610629" d="M110.2,93.028a1.115,1.115,0,0,1,.448.649,16.538,16.538,0,0,1,.532,5.972,19.98,19.98,0,0,1-1.488,6.109,20.343,20.343,0,0,1-1.446,2.8,18.252,18.252,0,0,1-1.822,2.453,15.169,15.169,0,0,1-4.613,3.647.422.422,0,1,1-.389-.75,11.761,11.761,0,0,0,1.263-.743A13.478,13.478,0,0,0,105.068,111a16.845,16.845,0,0,0,2.131-3.293,21.578,21.578,0,0,0,1.7-5.131,20.526,20.526,0,0,0,.319-5.177,17.7,17.7,0,0,0-.623-3.273,1.011,1.011,0,0,1,.146-.8,1.047,1.047,0,0,1,.875-.472,1.05,1.05,0,0,1,.581.175m-1.289,9.5-.006.029.006-.029" transform="translate(71.682 15.921)" fill="#da8c67"/>
            <path id="Trazado_610630" data-name="Trazado 610630" d="M98.051,90.5a10.759,10.759,0,0,1,7.487,3.029.3.3,0,0,1,.036.412.294.294,0,0,1-.412.036,8.108,8.108,0,0,0-1.5-1.217l.069.041a9.535,9.535,0,0,0-1.969-.92,10.389,10.389,0,0,0-2.482-.442,11.487,11.487,0,0,0-2.64.219l.1-.02a11.23,11.23,0,0,0-2.557.865,9.023,9.023,0,0,0-1.751,1.2,8.574,8.574,0,0,0-.849.934.9.9,0,0,1-1.258.105.883.883,0,0,1-.315-.613.873.873,0,0,1,.206-.641,10.583,10.583,0,0,1,1.71-1.355A11.051,11.051,0,0,1,97.78,90.5c.09,0,.18,0,.271,0" transform="translate(90.379 15.517)" fill="#da8c67"/>
            <path id="Trazado_610631" data-name="Trazado 610631" d="M140.519,22.777c4.1,0,8.292.168,12.448.5a135.5,135.5,0,0,1,20.59,3.2A76.845,76.845,0,0,1,189.84,32.2a46.3,46.3,0,0,1,13.585,9.831,32.238,32.238,0,0,1,4.833,6.748,29.294,29.294,0,0,1,2.935,8.331c1.164,6.1.526,13-1.894,20.521a72.921,72.921,0,0,1-3.936,9.639c-.308.635-.633,1.262-.956,1.888-.22.425-.44.852-.655,1.278-.412.833-.833,1.666-1.272,2.491-.566,1.052-1.126,1.993-1.713,2.874a16.868,16.868,0,0,1-2.1,2.621,6.99,6.99,0,0,1-2.475,1.668,3.863,3.863,0,0,1-1.285.234h0a4.09,4.09,0,0,1-1.521-.308c-2.074-.8-2.568-3.312-2.766-5.415a39.522,39.522,0,0,1,0-5.6l.041-.859a59.145,59.145,0,0,1,2.64-14.825,58.508,58.508,0,0,1,4.4-10.572,19.093,19.093,0,0,1-2.871-.6,23.215,23.215,0,0,1-7.472-3.8,25.5,25.5,0,0,1-8.982-12.288c-1.157.368-2.447.7-3.927,1.029-3.036.67-6.17,1.12-9.2,1.555l-.675.1a146.735,146.735,0,0,1-16.548,1.447q-1.973.058-3.95.06a120.515,120.515,0,0,1-13.45-.738,87.94,87.94,0,0,1-16.9-3.546,65.384,65.384,0,0,1-11.7-5A52.6,52.6,0,0,1,91.671,33.5a.952.952,0,0,1-.3-.635,1.008,1.008,0,0,1-.1-.122.87.87,0,0,1-.124-.683,6.168,6.168,0,0,1,.494-1.152,5.624,5.624,0,0,1,.739-.995,7.28,7.28,0,0,1,2.081-1.54,18.938,18.938,0,0,1,5.728-1.658c2.1-.332,4.3-.476,6.233-.6l.822-.054a35.474,35.474,0,0,0,4.259-.44l.445-.087c1.361-.264,2.725-.53,4.091-.76,1.671-.281,3.381-.534,5.084-.754,3.391-.443,6.91-.771,10.462-.975,2.96-.173,5.965-.261,8.932-.261" transform="translate(-17.037 3.905)" fill="#7c2213"/>
            <path id="Trazado_610632" data-name="Trazado 610632" d="M118.745,33.442c.582.5,1.176.993,1.79,1.469-.023-.018-.041-.032-.063-.05a51.147,51.147,0,0,0,11.151,6.461,69.928,69.928,0,0,0,9.544,3.182,88.384,88.384,0,0,0,10.041,1.908l-.05-.006a113.491,113.491,0,0,0,12.469.9c2.275.042,4.555.042,6.832-.055,2.5-.107,4.994-.342,7.476-.662-.041,0-.081.011-.122.018l.28-.04.059-.006-.037,0a191.715,191.715,0,0,0,23.467-5.185,1.511,1.511,0,1,1,.8,2.915,207.856,207.856,0,0,1-22.308,4.566,96.4,96.4,0,0,1-11.429.907c-3.195.046-6.4-.046-9.584-.271a82.8,82.8,0,0,1-18.729-3.368,60.123,60.123,0,0,1-16.822-8.2,63.819,63.819,0,0,1-5.176-4.077.289.289,0,0,1,0-.412.281.281,0,0,1,.2-.083.323.323,0,0,1,.212.083m12.928,7.9.059.026-.059-.026m46.419,5.226-.158.022c.06-.009.121-.016.179-.023h-.021" transform="translate(-40.547 5.72)" fill="#671c10"/>
            <path id="Trazado_610633" data-name="Trazado 610633" d="M104.815,41.024a19.934,19.934,0,0,0,.451,2.421,21.019,21.019,0,0,0,2.083,4.715,25.6,25.6,0,0,0,4.054,4.993l-.073-.067.093.087.087.082-.059-.056a26.6,26.6,0,0,0,5.381,3.9,20.677,20.677,0,0,0,4.681,1.816c-.06-.013-.115-.027-.175-.041.426.105.856.192,1.291.266a.7.7,0,0,1-.151,1.4,25.288,25.288,0,0,1-12.749-6.452,26.533,26.533,0,0,1-4.837-5.9,21.414,21.414,0,0,1-1.606-3.244c-.206-.527-.38-1.063-.54-1.6a16.693,16.693,0,0,1-.485-1.935,1.3,1.3,0,0,1,1.085-1.469,1.246,1.246,0,0,1,.186-.014,1.3,1.3,0,0,1,1.283,1.1M111.451,53.2l-.028-.026-.02-.02.048.046" transform="translate(58.434 6.846)" fill="#671c10"/>
            <path id="Trazado_610634" data-name="Trazado 610634" d="M182.926,30.086a1.393,1.393,0,0,1,1.012,1.694c-.046.109-.091.224-.134.334a1.417,1.417,0,0,1-.521.531c-.042.029-.08.059-.121.087-.487.38-.985.744-1.5,1.089-.6.4-1.227.773-1.853,1.13a40.473,40.473,0,0,1-3.779,1.876,50.885,50.885,0,0,1-8.337,2.8,64.438,64.438,0,0,1-17.765,1.611A78.266,78.266,0,0,1,137.807,39.7a80.965,80.965,0,0,1-11.179-3.157.3.3,0,0,1-.211-.357.294.294,0,0,1,.357-.21,54.537,54.537,0,0,0,6.059,1.688q3.219.713,6.5,1.114l-.014,0,.069.008h0l.015,0q1.086.132,2.179.232c.819.074,1.642.119,2.461.17,1.6.1,3.2.128,4.8.132a72.462,72.462,0,0,0,9.771-.627,61.1,61.1,0,0,0,14.907-3.908c-.114.05-.228.1-.343.146,1.51-.636,2.988-1.337,4.426-2.114q1.1-.6,2.173-1.263c.709-.43,1.437-.847,2.115-1.327a1.2,1.2,0,0,1,.677-.185,1.471,1.471,0,0,1,.361.043m.518,2.426c-.032.025-.062.049-.094.073.032-.023.062-.048.094-.073m-44.06,6.272-.053-.006.053.006" transform="translate(-30.598 5.151)" fill="#671c10"/>
            <path id="Trazado_610635" data-name="Trazado 610635" d="M151.8,22.043a74.9,74.9,0,0,0,7.967,3.442,72.058,72.058,0,0,0,8.321,2.5,67.575,67.575,0,0,0,7.439,1.257,56.531,56.531,0,0,0,7.75.323c1.312-.045,2.619-.132,3.928-.246,1.45-.123,2.888-.32,4.329-.508a1.328,1.328,0,0,1,.416,2.623,42.536,42.536,0,0,1-10.451.526c-1.726-.1-3.446-.307-5.153-.562s-3.432-.578-5.13-.984a80.738,80.738,0,0,1-9.925-3.058q-2.43-.933-4.8-2c-1.574-.709-3.111-1.491-4.645-2.274-.123-.064-.242-.128-.367-.187a.462.462,0,0,1-.26-.581.479.479,0,0,1,.422-.3.331.331,0,0,1,.155.037m16.158,5.908.1.023-.1-.023" transform="translate(-68.714 3.773)" fill="#671c10"/>
            <path id="Trazado_610636" data-name="Trazado 610636" d="M148.717,345.468c6.329,0,13.061.264,21.184.828a253.741,253.741,0,0,1,28.793,3.464A143.914,143.914,0,0,1,226.3,357.7c2.287.931,4.535,1.929,6.681,2.966l-.22-.75c-.733-2.747-1.4-5.252-2.062-7.616a.817.817,0,0,1,.1-.65.971.971,0,0,1,.6-.444,1.3,1.3,0,0,1,.194-.019.934.934,0,0,1,.89.723,448.663,448.663,0,0,1,9.77,44.068c2.216,12.867,4.029,26.183,5.536,40.708a.912.912,0,0,1-.7,1.079.877.877,0,0,1-.186.025l-.132.069.006.011a.9.9,0,0,1-.51.158,1.089,1.089,0,0,1-.221-.02q-1.118-.149-2.236-.273a170.351,170.351,0,0,0-19.071-.92c-4.575,0-9.249.116-13.618.242l-3.995.123-.787.023-.124,0c-3.813.112-7.757.23-11.633.289q-1.949.026-3.9.027c-1.467,0-2.935-.013-4.4-.023l-1.1-.008-1.107-.009c-2.105-.019-4.21-.036-6.32-.041h-.581c-9.718,0-19.613.2-29.181.385l-.38.008-.934.022-3.629.074q-3.24.06-6.488.111l-1.328.025c-3.186.056-6.331.111-9.471.189-4.416.115-8.841.274-13.261.435l-3.913.137c-5.39.192-11.771.394-18.232.431-.65,0-1.305.008-1.954.008-2.363,0-4.706-.028-6.966-.082q-2.218-.047-4.439-.146c-1.441-.068-2.869-.17-4.632-.334a.992.992,0,0,1-.638-.246.931.931,0,0,1-.287-.649.911.911,0,0,1,.251-.645.954.954,0,0,0-.021-.237,338.8,338.8,0,0,1-1.644-44.655c.252-10.37.92-21.266,1.987-32.385a.934.934,0,0,1,.908-.862.974.974,0,0,1,.709.334.847.847,0,0,1,.213.636c-.286,2.93-.562,6.148-.824,9.564,3.776-5.762,10.095-9.262,15.176-11.667,1.393-.667,2.98-1.367,5.144-2.275l.137-.06c1.9-.793,3.613-1.5,5.345-2.168a106.217,106.217,0,0,1,13.738-4.188,146.839,146.839,0,0,1,28.557-3.593c2.486-.092,4.973-.137,7.606-.137" transform="translate(-28.218 59.236)" fill="#021621"/>
            <path id="Trazado_610637" data-name="Trazado 610637" d="M156.476,392.329a31.154,31.154,0,0,0,4.989,4.407l-.028-.018a33.742,33.742,0,0,0,7.291,3.883,44.9,44.9,0,0,0,5.893,1.795,53.391,53.391,0,0,0,6.024.968c1.594.163,3.2.235,4.8.259a1.65,1.65,0,0,1,1.661,1.6,1.633,1.633,0,0,1-1.6,1.661,41.088,41.088,0,0,1-8.433-1.208,44.458,44.458,0,0,1-7.934-2.874,42.4,42.4,0,0,1-7.093-4.279,40.373,40.373,0,0,1-6.128-5.6.412.412,0,0,1-.018-.572.429.429,0,0,1,.308-.129.345.345,0,0,1,.262.11" transform="translate(-68.157 67.252)" fill="#04293e"/>
            <path id="Trazado_610638" data-name="Trazado 610638" d="M154.521,403.562c.965,3.73,1.913,7.459,2.819,11.2.449,1.871.874,3.752,1.286,5.632.219,1,.425,2,.613,3a20.477,20.477,0,0,1,.444,3.162,1.731,1.731,0,0,1-2.137,1.716,1.674,1.674,0,0,1-1.071-.778,28.481,28.481,0,0,1-1.656-5.648c-.421-1.885-.8-3.774-1.171-5.669-.764-3.9-1.515-7.794-2.5-11.642a1.778,1.778,0,0,1,1.2-2.173,1.65,1.65,0,0,1,.47-.067,1.763,1.763,0,0,1,1.708,1.265" transform="translate(-35.209 68.98)" fill="#04293e"/>
            <path id="Trazado_610639" data-name="Trazado 610639" d="M197.96,147.271a.89.89,0,0,1,.636.255.878.878,0,0,1,.24.453.693.693,0,0,1,.121.247,18.209,18.209,0,0,0,1.389,3.989l-.117-.2a45.387,45.387,0,0,0,5.2,7.6l.831,1.036c.651.811,1.3,1.622,1.942,2.447a45.772,45.772,0,0,1,2.7,3.9,110.892,110.892,0,0,1,8.973,17.986c4.258,10.861,7,23.129,8.618,38.61.394,3.729.694,7.412.989,11.17q.46,5.794.836,11.593c.412,6.141.775,12.286,1.137,18.432l.273,4.585c.87,14.715,1.868,30.357,3.629,45.623.965,8.4,2.163,16.51,3.554,24.115l-.046-.124c1.578,8.435,3.517,16.853,5.766,24.911,2.036,7.3,4.494,15.025,7.972,25.035a.856.856,0,0,1-.039.635.889.889,0,0,1-.22.667,102.194,102.194,0,0,1-19.784,17.176,114.442,114.442,0,0,1-23.057,11.694,137.413,137.413,0,0,1-25.194,6.727,166.327,166.327,0,0,1-26.236,2.307q-.914.011-1.826.011a189.273,189.273,0,0,1-24.265-1.608c-4.941-.643-9.754-1.5-14.3-2.53a129.1,129.1,0,0,1-14.567-4.228,112.585,112.585,0,0,1-15.189-6.682,94.787,94.787,0,0,1-13.868-9.039.747.747,0,0,1-.26-.414.9.9,0,0,1-.214-.6c-.175-4.038-.192-8.049-.2-12.146-.006-3.926.022-7.933.086-12.25.129-8.173.407-16.453.825-24.61.869-16.861,2.417-33.352,4.593-49.015,1.174-8.43,2.454-16.013,3.913-23.179,1.521-7.429,3.376-15.07,5.52-22.712a322.636,322.636,0,0,1,15.912-43.958c2.325-5.2,4.956-10.666,8.534-17.72,3.315-6.533,6.373-12.182,9.345-17.266,7.29-12.48,14.758-22.468,22.831-30.533a.859.859,0,0,1,.23-.4.907.907,0,0,1,.636-.257.848.848,0,0,1,.621.257,24.819,24.819,0,0,0,2.876,2.6,27.553,27.553,0,0,0,6.17,3.582l-.219-.07a36.393,36.393,0,0,0,8.843,2.338l-.237,0a47.621,47.621,0,0,0,5.644.346,45.871,45.871,0,0,0,6.006-.4,44.625,44.625,0,0,0,11.144-3.032l-.2.112a37.847,37.847,0,0,0,7.9-4.555,29.83,29.83,0,0,0,2.968-2.649.862.862,0,0,1,.626-.255" transform="translate(-37.157 25.252)" fill="#c3d7f5"/>
            <path id="Trazado_610640" data-name="Trazado 610640" d="M114.926,289.7a28.04,28.04,0,0,1,4.679.425,41.3,41.3,0,0,1,5.849,1.492,53.217,53.217,0,0,1,5.745,2.275,65.383,65.383,0,0,1,10.467,6.024,49.325,49.325,0,0,1,4.051,3.171,33.037,33.037,0,0,1,3.205,3.265,55.109,55.109,0,0,1,4.256,5.6,33.678,33.678,0,0,1,1.991,3.42,15.838,15.838,0,0,1,1.277,3.315,8,8,0,0,1,.242,3.185,6.332,6.332,0,0,1-.535,1.681,4.422,4.422,0,0,1-1.184,1.557,2.878,2.878,0,0,1-1.4.592,2.326,2.326,0,0,1-.392.033,4.334,4.334,0,0,1-1.246-.225,5.783,5.783,0,0,1-1.358-.674c.187.54.339,1.1.476,1.662a19.379,19.379,0,0,1,.549,4.2,10.531,10.531,0,0,1-.458,3.666,3.2,3.2,0,0,1-.961,1.4,2.272,2.272,0,0,1-1.509.48,3.7,3.7,0,0,1-1.556-.405,8.768,8.768,0,0,1-1.631-1.04,24.643,24.643,0,0,1-3.21-3.09,14.614,14.614,0,0,1,.291,2.009,9.692,9.692,0,0,1-.33,3.675,3.6,3.6,0,0,1-.588,1.084,2.723,2.723,0,0,1-1.005.772,2.485,2.485,0,0,1-1,.22h-.02a4.583,4.583,0,0,1-1.319-.183,9.55,9.55,0,0,1-2.392-1.154,21.754,21.754,0,0,1-2.349-1.758c-.648-.548-1.321-1.17-2.061-1.9-.473-.471-.944-.949-1.414-1.424-.573-.581-1.147-1.161-1.724-1.733a97.342,97.342,0,0,0-14.652-12.235c-.841-.559-1.757-1.133-2.8-1.753a66.186,66.186,0,0,0-6.752-3.458.905.905,0,0,1-.51-1.077,13.124,13.124,0,0,1-1.276-1.477,12.155,12.155,0,0,1-1.228-2.106,11.739,11.739,0,0,1-1.048-4.475,13.881,13.881,0,0,1,.517-4.14,18.6,18.6,0,0,1,1.026-2.967,14.713,14.713,0,0,1,1.406-2.465,12.743,12.743,0,0,1,1.75-1.973,12.271,12.271,0,0,1,4.195-2.52,17.307,17.307,0,0,1,5.935-.962" transform="translate(27.457 49.674)" fill="#f6cfbe"/>
            <path id="Trazado_610641" data-name="Trazado 610641" d="M113.387,313.145c1.236.934,2.458,1.88,3.661,2.856,1.263,1.02,2.471,2.1,3.634,3.239.586.572,1.153,1.162,1.71,1.762s1.072,1.231,1.57,1.877a25.715,25.715,0,0,1,2.549,4,.3.3,0,0,1-.151.389.3.3,0,0,1-.384-.151q-.329-.64-.7-1.253l.006.013a23.023,23.023,0,0,0-1.967-2.722,31.4,31.4,0,0,0-2.33-2.475l.074.073a52.458,52.458,0,0,0-4.045-3.431c-1.419-1.108-2.865-2.179-4.311-3.254a.571.571,0,0,1,.344-1.031.563.563,0,0,1,.337.111" transform="translate(43.165 53.675)" fill="#da8c67"/>
            <path id="Trazado_610642" data-name="Trazado 610642" d="M106.442,310.127a12.357,12.357,0,0,1,1.474.847,14.053,14.053,0,0,1,1.373,1.08c.444.38.86.791,1.272,1.212s.824.869,1.212,1.323.768.929,1.148,1.4.751.934,1.112,1.409c.7.91,1.365,1.849,2.014,2.8a.293.293,0,0,1-.457.365c-.545-.783-1.118-1.537-1.721-2.274a29.8,29.8,0,0,0-2.014-2.215l.014.013a35.286,35.286,0,0,0-2.947-2.539c-1.016-.778-2.077-1.5-3.148-2.2a.7.7,0,0,1-.234-.814.691.691,0,0,1,.367-.389.737.737,0,0,1,.292-.061.565.565,0,0,1,.244.052" transform="translate(61.772 53.167)" fill="#da8c67"/>
            <path id="Trazado_610643" data-name="Trazado 610643" d="M243.289,151.618a.876.876,0,0,1,.627.255.9.9,0,0,1,.258.641.866.866,0,0,1-.258.62c-.242.238-.49.472-.737.7l-.858,1.283c-7.236,10.823-14.718,22.013-21.568,33.342A298.994,298.994,0,0,0,201.4,225.629c-.032.083-.067.165-.1.247l-.062.146-.06.142c-1.415,3.352-2.731,6.633-3.835,9.408-1.49,3.753-2.742,7.051-3.829,10.085a134.167,134.167,0,0,0-5.692,20.054,136.584,136.584,0,0,1,19.917,6.042,202.515,202.515,0,0,1,19.028,8.511c3.013,1.529,6.123,3.179,9.244,4.906,2.714,1.495,5.238,2.849,7.715,4.141l.936.49c4.982,2.607,10.133,5.3,14.965,8.362,5.945,3.757,10.223,7.318,13.466,11.209a25.341,25.341,0,0,1,2.454,3.424,18.468,18.468,0,0,1,2.4,11.731,36.417,36.417,0,0,1-1.872,7.913c-.644,1.9-1.379,3.8-2.089,5.646-.316.818-.633,1.634-.941,2.454a1.762,1.762,0,0,1-.138.287.908.908,0,0,1-.855.957c-12.843-.52-25.463-1.54-37.192-2.564L232.28,339c-4.422-.385-9-.785-13.487-1.28-5.012-.553-9.59-1.189-13.994-1.945a130.35,130.35,0,0,1-27.535-7.574,85.619,85.619,0,0,1-12.514-6.329,68.832,68.832,0,0,1-11.1-8.535,57.478,57.478,0,0,1-9.36-11.46,52.609,52.609,0,0,1-5.753-13.036,55.906,55.906,0,0,1-2.105-13.827,64.948,64.948,0,0,1,1.212-14.162,75.863,75.863,0,0,1,4.224-14.092c.825-2.045,1.8-4.187,3.058-6.741,1.034-2.1,2.155-4.268,3.428-6.622a193.764,193.764,0,0,1,16.928-26.146,139.245,139.245,0,0,1,21.261-22.409,91.532,91.532,0,0,1,12.1-8.6,131.8,131.8,0,0,1,13.468-6.69q1.522-.678,3.046-1.346c3.4-1.5,6.919-3.045,10.307-4.717a76.613,76.613,0,0,0,12.651-7.668c1.294-1.007,2.542-2.069,3.711-3.157l.141-.207a1.068,1.068,0,0,1,.587-.481l.1-.1a.9.9,0,0,1,.635-.255m-67.4,113.862-.037-.013-.105.012c.234.023.47.046.7.071l-.477-.057-.061-.007h-.009l-.043-.006Zm36.839,69.713.036,0-.545-.067Z" transform="translate(-136.407 25.997)" fill="#c3d7f5"/>
            <path id="Trazado_610644" data-name="Trazado 610644" d="M207.589,204.331a.4.4,0,0,1,.34.589c-2.488,4.78-4.777,9.635-6.8,14.431-2.411,5.732-4.609,11.777-6.717,18.478-.887,2.821-1.791,5.919-2.763,9.471q-.633,2.319-1.227,4.64c-.206.784-.412,1.566-.6,2.352-.06.257-.114.511-.168.768l-.066.307c-.08.4-.144.709-.216,1.02,2.628.406,5.043.874,7.377,1.414,3.243.743,6.565,1.628,9.877,2.631,2.951.889,6.052,1.965,9.477,3.286,3.232,1.241,6.421,2.6,9.478,4.036,3.166,1.489,6.224,3.08,9.088,4.733,1.6.922,3.253,1.933,4.915,3,.824.531,1.543,1.02,2.2,1.5.264.194.517.395.772.6l.138.109.137.105A15.249,15.249,0,0,1,244,278.814a1.338,1.338,0,0,1,.388.521,1.293,1.293,0,0,1-.011,1.006,1.326,1.326,0,0,1-.7.683,1.113,1.113,0,0,1-.453.093,1.624,1.624,0,0,1-.548-.105,15.252,15.252,0,0,1-2.4-1.1c-.866-.465-1.69-.991-2.454-1.488-.474-.307-.947-.618-1.417-.929l-.176-.116c-.911-.6-1.819-1.2-2.748-1.775-1.187-.708-2.42-1.38-3.614-2.031l-.326-.177-.449-.247c-1.46-.8-2.929-1.574-4.4-2.343-3.425-1.785-6.312-3.193-9.082-4.434a136.2,136.2,0,0,0-18.527-6.813c-2.848-.793-5.672-1.475-8.36-2.018a.8.8,0,0,1-.377.093.942.942,0,0,1-.672-.306c-1.46-.276-2.92-.524-4.336-.729a104.991,104.991,0,0,0-14.408-1.1l-.8,0c-.6,0-1.208,0-1.816.019a.442.442,0,0,1-.479-.371.481.481,0,0,1,.117-.348.367.367,0,0,1,.26-.132c.811-.019,1.625-.023,2.44-.023a124.239,124.239,0,0,1,18.077,1.319l.814.123a15.142,15.142,0,0,1,.348-1.872l.047-.187.279-1.212q.177-.8.37-1.593c.408-1.669.87-3.391,1.414-5.267.964-3.316,2.086-6.729,3.432-10.434,2.18-6.037,4.883-12.462,8.507-20.222,1.648-3.53,3.436-7.148,5.314-10.755a.368.368,0,0,1,.33-.2" transform="translate(-137.292 35.036)" fill="#758aa8"/>
            <path id="Trazado_610645" data-name="Trazado 610645" d="M141.129,294.445a.236.236,0,0,1,.125.034l.589.324.63.348c1.785.982,3.567,1.962,5.359,2.932,1.934,1.046,4.222,2.264,6.534,3.382,2.275,1.1,4.573,2.093,6.831,2.965,2.448.948,4.98,1.71,7.363,2.411l-.225-.022a171.571,171.571,0,0,0,21.428,4.333c3.961.581,7.94,1.075,10.964,1.441,3.722.456,7.616.838,11.576,1.135,6.893.526,14.138.8,19.961,1.03,3.327.128,6.654.26,9.981.425,1.625.078,3.244.178,4.869.293.847.06,1.693.128,2.544.2.385.032.77.069,1.154.119.357.046.7.118,1.048.2l.321.068a1.152,1.152,0,0,1,.531.235.964.964,0,0,1,.1.093c-.24.64-.473,1.258-.706,1.875a11.566,11.566,0,0,1-1.328.117l-.381,0c-.312,0-.622-.007-.938-.016l-.2-.006c-1-.019-2-.05-3-.082-1.973-.06-3.908-.134-5.844-.216-3.871-.156-7.738-.32-11.6-.521-6.889-.358-15.029-.847-23.156-1.757-3.312-.374-6.882-.848-11.238-1.5-4.4-.66-7.74-1.223-10.828-1.825-3.9-.767-7.386-1.593-10.654-2.522-1.56-.437-3.236-.955-5.272-1.628-1.883-.619-3.585-1.241-5.2-1.9-1.816-.732-3.669-1.562-5.506-2.468s-3.694-1.914-5.41-2.869-3.43-1.943-5.137-2.932c-1.8-1.044-3.6-2.088-5.419-3.094a.316.316,0,0,1-.157-.414.326.326,0,0,1,.291-.194" transform="translate(-116.306 50.487)" fill="#758aa8"/>
            <path id="Trazado_610646" data-name="Trazado 610646" d="M133.588,125.925a28.184,28.184,0,0,1,4.525.485,44.693,44.693,0,0,1,9.413,2.874,66.6,66.6,0,0,1,8.947,4.654c2.631,1.6,5.354,3.459,8.32,5.683,1.757,1.314,3.633,2.787,5.728,4.5.412-.572.861-1.126,1.31-1.666a37.079,37.079,0,0,1,4.4-4.48,26.947,26.947,0,0,1,2.573-1.949,15.9,15.9,0,0,1,2.631-1.387,8.289,8.289,0,0,1,2.553-.622c.124-.009.247-.014.367-.014a5.242,5.242,0,0,1,2.1.449,6.7,6.7,0,0,1,3.313,4.174,11.172,11.172,0,0,1,.192,5.382,24.661,24.661,0,0,1-1.949,5.9,61.665,61.665,0,0,1-3.277,6.209c-1.2,2.045-2.489,4.083-3.729,6.054q-.9,1.415-1.785,2.837c-1.194,1.932-2.448,3.99-3.524,6.133a.719.719,0,0,1,.213.068c-.149.314-.293.629-.432.948-.377.87-.727,1.751-1.061,2.638q-.22.258-.439.51a14.614,14.614,0,0,0-.367,1.6.822.822,0,0,1-.406.535.914.914,0,0,1-.449.124.847.847,0,0,1-.238-.036.882.882,0,0,1-.412-.242c-.4.421-.838.838-1.277,1.239a38.8,38.8,0,0,1-6.571,4.892,27.523,27.523,0,0,1-7.267,3.029,19.922,19.922,0,0,1-4.824.609,18.482,18.482,0,0,1-2.713-.2,16.646,16.646,0,0,1-7.194-3.034,22.773,22.773,0,0,1-5.422-5.771,35.033,35.033,0,0,1-3.506-6.709,34.5,34.5,0,0,1-2.058-7.623,22.831,22.831,0,0,1,.274-8.723,14.826,14.826,0,0,1,4.091-7.262,12.257,12.257,0,0,1,1.048-6.868,64.956,64.956,0,0,1-5.716-5.427,16.549,16.549,0,0,1-2.27-2.988,6.512,6.512,0,0,1-.961-2.631,3.164,3.164,0,0,1,.6-2.223,3.915,3.915,0,0,1,2-1.3,9.681,9.681,0,0,1,2.924-.38Z" transform="translate(-38.34 21.592)" fill="#f6cfbe"/>
            <path id="Trazado_610647" data-name="Trazado 610647" d="M152.144,125.579a34.574,34.574,0,0,1,4.846.7,42.414,42.414,0,0,1,8.342,2.782,63.557,63.557,0,0,1,8.032,4.292c2.594,1.625,5.1,3.373,7.541,5.218,2.366,1.794,4.654,3.688,6.928,5.6a.292.292,0,1,1-.324.485c-2.782-2.329-5.661-4.544-8.635-6.613a77.33,77.33,0,0,0-9.481-5.692,56.244,56.244,0,0,0-5.969-2.554,44.8,44.8,0,0,0-6.147-1.694c.047.009.093.02.138.028a42.58,42.58,0,0,0-4.42-.636,26.28,26.28,0,0,0-3.592-.1,9.232,9.232,0,0,0-1.973.32,4.3,4.3,0,0,0-.722.329,2.6,2.6,0,0,0-.3.253,2.115,2.115,0,0,0-.136.2,2.063,2.063,0,0,0-.084.248,2.477,2.477,0,0,0-.018.373,4.124,4.124,0,0,0,.146.681,8.345,8.345,0,0,0,.766,1.526,23.5,23.5,0,0,0,2.6,3.21c1.075,1.145,2.223,2.22,3.395,3.267l-.055-.047q2.5,2.216,5.166,4.235c4.215,3.184,8.488,6.287,12.79,9.353a.677.677,0,0,1-.759,1.121c-3.19-2.036-6.306-4.2-9.39-6.388-1.712-1.217-3.431-2.421-5.1-3.707q-1.991-1.538-3.89-3.185a52.011,52.011,0,0,1-4.127-3.972,23.943,23.943,0,0,1-1.625-1.962,13.163,13.163,0,0,1-1.235-1.987,6.915,6.915,0,0,1-.389-.992,4.252,4.252,0,0,1-.184-.828,3.634,3.634,0,0,1,0-.888,3.987,3.987,0,0,1,.115-.508,3.862,3.862,0,0,1,.242-.535,2.882,2.882,0,0,1,.554-.686,3.494,3.494,0,0,1,.86-.581,5.513,5.513,0,0,1,1.061-.389,8.16,8.16,0,0,1,1.286-.238,15.963,15.963,0,0,1,1.865-.1c.624,0,1.249.029,1.868.07m-5.5,2.5-.064.041.064-.041m-.414.486c-.011.019-.021.039-.03.057.011-.019.021-.039.03-.057" transform="translate(-55.498 21.521)" fill="#da8c67"/>
            <path id="Trazado_610648" data-name="Trazado 610648" d="M171.578,138.076a.483.483,0,0,1,.3.609,12.171,12.171,0,0,0-.922,2.66,11.468,11.468,0,0,0-.176,2.816l-.014-.155a12.239,12.239,0,0,0,.558,2.786,16.872,16.872,0,0,0,1.817,3.689c-.041-.06-.077-.119-.118-.173a24.3,24.3,0,0,0,2.5,3.143.683.683,0,0,1,.05.828.7.7,0,0,1-.439.288.651.651,0,0,1-.513-.105,17.316,17.316,0,0,1-1.68-1.611,14.342,14.342,0,0,1-1.381-1.816,13.32,13.32,0,0,1-1.039-1.932,12.715,12.715,0,0,1-.672-2.05,12.858,12.858,0,0,1-.228-4.218,13.992,13.992,0,0,1,1.345-4.457.508.508,0,0,1,.247-.279.459.459,0,0,1,.209-.049.452.452,0,0,1,.152.026m-.22,8.818.015.047c0-.016-.011-.032-.015-.047" transform="translate(-72.844 23.671)" fill="#da8c67"/>
            <path id="Trazado_610649" data-name="Trazado 610649" d="M142.419,132.689a5.88,5.88,0,0,1,1.089.142,4.885,4.885,0,0,1,1.085.394,4.554,4.554,0,0,1,1.647,1.392,7.2,7.2,0,0,1,1.14,2.466,13.32,13.32,0,0,1,.389,3.432,21.96,21.96,0,0,1-.439,4.155,29,29,0,0,1-2.806,7.706,70.546,70.546,0,0,1-4.4,7.207c-2.631,3.908-5.422,7.761-7.349,12.081.023-.046.046-.1.069-.146q-.46,1.042-.847,2.118a.622.622,0,1,1-1.195-.348c3.113-8.424,9.761-14.894,13.4-23.044l-.069.15a29.021,29.021,0,0,0,1.163-3.07,21.416,21.416,0,0,0,.732-3.2l0,.04a21.191,21.191,0,0,0,.086-4.941,10.9,10.9,0,0,0-.521-2.348,6.15,6.15,0,0,0-.651-1.237,4.554,4.554,0,0,0-.561-.6,4.056,4.056,0,0,0-.767-.472,4.747,4.747,0,0,0-.873-.248,6.579,6.579,0,0,0-1.5-.015,11.135,11.135,0,0,0-2.458.641l.011,0a21.186,21.186,0,0,0-4.4,2.432l.027-.021a25.9,25.9,0,0,0-4.9,4.5l.018-.022-.054.067-.025.029.013-.015a16.033,16.033,0,0,0-1.033,1.434.456.456,0,0,1-.778-.476,22.5,22.5,0,0,1,3.236-3.927,30.483,30.483,0,0,1,4.453-3.661,16.55,16.55,0,0,1,4.79-2.293,8.013,8.013,0,0,1,2.12-.3l.172,0m3.7,6.6.007.055-.007-.055M129.459,141.9l.012-.014.036-.045a.708.708,0,0,1-.048.059m4.829-4.474.093-.066c-.029.023-.061.045-.093.066" transform="translate(4.238 22.751)" fill="#da8c67"/>
            <path id="Trazado_610650" data-name="Trazado 610650" d="M111.451,150.917q.385.6.809,1.181a28.106,28.106,0,0,0,4.832,4.736l-.2-.119a91.993,91.993,0,0,0,10.7,6.745l1.245.705c4.7,2.681,9.481,5.01,13.535,6.936l3.094,1.464c8.059,3.8,16.386,7.734,23.823,12.928a64.268,64.268,0,0,1,10.954,9.54,55.444,55.444,0,0,1,7.318,10.264,62.926,62.926,0,0,1,7.3,23.636,86.274,86.274,0,0,1-1.075,25.388,103.711,103.711,0,0,1-7.8,24.426,99.725,99.725,0,0,1-5.895,10.983,97.841,97.841,0,0,1-7.98,10.973,116.807,116.807,0,0,1-23.182,21.086,103.045,103.045,0,0,1-13.573,7.977,81.2,81.2,0,0,1-14.034,5.344,51.549,51.549,0,0,1-13.615,1.9c-.351,0-.709,0-1.061-.013a42.409,42.409,0,0,1-13.655-2.626A48.735,48.735,0,0,1,80.388,327.3a59.335,59.335,0,0,1-9.861-9.518,66.71,66.71,0,0,1-7.142-10.712,85.272,85.272,0,0,1-5.221-11.935A132.409,132.409,0,0,1,52.1,269.048C50.8,259.979,50.16,251,49.652,242.654q-.385-6.4-.737-12.813c-.3-5.55-.531-11.619-.7-18.561-.21-9.188-.265-18.533-.315-27.57q-.021-4.6-.055-9.189a.83.83,0,0,1,.06-.309c.836.039,1.674.061,2.512.062a85.608,85.608,0,0,0,11.34-.781c1.822-.239,3.637-.513,5.454-.811,1.584-.265,3.166-.535,4.75-.824a91.1,91.1,0,0,0,9.624-2.192,43.844,43.844,0,0,0,7.019-2.691.571.571,0,0,1,.183.242c4.58,11.5,10.123,22.8,15.481,33.73l1.7,3.473c5.986,12.214,11.756,24.221,16.534,36.8a63.9,63.9,0,0,0,7.188-7.78,32.34,32.34,0,0,0,3.982-6.686h0a28.245,28.245,0,0,0,1.926-7l.023-.179a33.849,33.849,0,0,0-.1-8.64,58.179,58.179,0,0,0-4.251-14.456c-.009-.022-.019-.046-.028-.073l0,0-.028-.069,0,0a205.206,205.206,0,0,0-9.674-18.931c-1.716-3.089-3.486-6.283-5.147-9.463-1.579-3.043-2.8-5.588-3.831-8.008a57.654,57.654,0,0,1-2.787-7.889.906.906,0,0,1,.019-.518.92.92,0,0,1,.439-.97.872.872,0,0,1,.425-.11.944.944,0,0,1,.787.453" transform="translate(50.046 25.8)" fill="#c3d7f5"/>
            <path id="Trazado_610651" data-name="Trazado 610651" d="M147.95,166.444l.02,0,.012,0-.032.007" transform="translate(-19.836 28.538)" fill="#fe514a"/>
            <path id="Trazado_610652" data-name="Trazado 610652" d="M82.343,170.546h0a13.32,13.32,0,0,0,2.245.228l.161,0h.159l.16,0a.939.939,0,0,1,.035.278c0,.586-.041,1.171-.082,1.757l-.009.142-.091,1.392c-.052.808-.1,1.612-.165,2.417-.022.274-.05.545-.077.814-.037.362-.069.727-.091,1.093-.047.636-.074,1.277-.1,1.918-.055,1.277-.083,2.557-.1,3.839-.053,3.256-.035,6.573-.016,9.781l0,.492q.021,2.567.027,5.135v2.763c0,9.289.009,18.881.33,28.312l-.061-.323c.239,5.685.531,10.8.916,15.63.392,4.965.971,10.147,1.721,15.4a169.5,169.5,0,0,0,5.463,26.014l-.123-.239a85.7,85.7,0,0,0,8.785,19.712,64.087,64.087,0,0,0,4.108,5.747,54.048,54.048,0,0,0,4.79,5.165l-.291-.217a60.356,60.356,0,0,0,11.824,8.6,51.139,51.139,0,0,0,12.078,4.671l-.15.009-.184-.036a47.124,47.124,0,0,0,10.152,1.167c.365,0,.727,0,1.093-.019l.162.009c1.2-.073,2.177-.151,3.082-.255,1.241-.142,2.493-.37,3.444-.554a68.667,68.667,0,0,0,7.435-1.877,90.847,90.847,0,0,0,20.426-9.622,116.218,116.218,0,0,0,10.048-7.086.561.561,0,0,1,.341-.117.525.525,0,0,1,.411.192.546.546,0,0,1,.114.407.5.5,0,0,1-.189.342,117.81,117.81,0,0,1-24.374,15.134,73.879,73.879,0,0,1-13.58,4.609,44.548,44.548,0,0,1-6.482,1.016c-.973.07-1.965.105-2.947.105-1.123,0-2.264-.043-3.391-.128a47.48,47.48,0,0,1-12.4-2.727,53.746,53.746,0,0,1-21.16-14.13,58.5,58.5,0,0,1-7.647-10.673c-4.071-7.087-7.166-15.242-9.74-25.666-.995-4.044-1.9-8.461-2.755-13.5-.827-4.89-1.518-9.767-2.055-14.5-1.068-9.5-1.661-19.875-1.861-32.659-.09-5.694-.089-11.228-.074-16.36q.014-4.084.046-8.173c.019-2.658,0-5.313-.027-7.972l-.023-2.214-.022-2.22.055-.965.008-.166c.135-2.448.274-4.979.216-7.467.036-.581.069-1.162.1-1.738.1-.889.2-1.772.312-2.656l.027-.023" transform="translate(15.522 29.243)" fill="#758aa8"/>
            <path id="Trazado_610653" data-name="Trazado 610653" d="M100.893,164.367l.019.008a1.593,1.593,0,0,1,.1.168,21.188,21.188,0,0,1,1.3,2.655c.243.554.477,1.108.71,1.666l.54,1.291q1.212,2.854,2.494,5.678c1.536,3.4,3.175,6.831,4.757,10.144l.51,1.064c1.77,3.709,3.573,7.4,5.375,11.1l.541,1.111q2.536,5.193,5.043,10.389c4.339,9.023,7.551,16.071,10.419,22.852q.956,2.253,1.877,4.517a4.19,4.19,0,0,1,.463-.49l.909-.841.439-.408c1.036-.958,1.811-1.715,2.517-2.457a44.214,44.214,0,0,0,4.353-5.288l.07-.1a41.317,41.317,0,0,0,2.489-4.283.488.488,0,0,1,.44-.272.408.408,0,0,1,.212.057.494.494,0,0,1,.214.651,78.973,78.973,0,0,1-4.719,8.508,30.468,30.468,0,0,1-3.031,3.881,22.552,22.552,0,0,1-1.768,1.676,10.245,10.245,0,0,1-1.851,1.264c.683,1.664,1.364,3.416,2.024,5.193,1.367,3.655,2.626,7.381,3.748,11.079,4.471,14.687,6.3,27.867,5.6,40.293a.32.32,0,0,1-.32.281.326.326,0,0,1-.313-.351c.1-1.7.132-3.5.1-5.334a90.635,90.635,0,0,0-1.482-14.249,141.144,141.144,0,0,0-3.373-14.272c-1.037-3.555-2.235-7.238-3.66-11.26-1.448-4.057-3.062-8.128-4.306-11.22-2.81-6.976-6.081-14.51-10-23.031-3.731-8.095-7.554-16.007-10.8-22.678l-.537-1.1c-1.633-3.36-3.288-6.764-5-10.072l-.954-1.836c-1.476-2.837-3.15-6.054-4.6-9.266-.491-1.087-.9-2.056-1.244-2.961-.179-.463-.335-.929-.481-1.406a12.747,12.747,0,0,1-.412-1.686,2.86,2.86,0,0,1,.743-.364c.336-.119.583-.206.831-.3Z" transform="translate(38.286 28.183)" fill="#758aa8"/>
            <path id="Trazado_610654" data-name="Trazado 610654" d="M167.716,70.585a.342.342,0,0,1,.175.048.347.347,0,0,1,.124.472c-.542,1.112-1.081,2.305-1.7,3.757-1.3,3.092-2.438,6.209-3.382,9.265a67.173,67.173,0,0,0-2.469,10.733,25.766,25.766,0,0,0-.115,6.559,11.4,11.4,0,0,0,.672,2.629,6.942,6.942,0,0,0,.749,1.287,6.062,6.062,0,0,0,.9.909,6.14,6.14,0,0,0,.977.571,7.907,7.907,0,0,0,1.48.392l.135.043h-.012c.315.007.7.025,1.087.025a17.187,17.187,0,0,0,2.218-.164,1.342,1.342,0,0,1,.925.383,1.3,1.3,0,0,1,0,1.851l-.1.075-.159.128a1.331,1.331,0,0,1-.667.182,16.055,16.055,0,0,1-1.968.114h-.334a12.2,12.2,0,0,1-1.48-.142,7.487,7.487,0,0,1-2.219-.719,6.548,6.548,0,0,1-2.906-2.952,12.215,12.215,0,0,1-1.136-4.416,23.958,23.958,0,0,1,.225-5.109,63.74,63.74,0,0,1,2.91-11.612c1.086-3.241,2.385-6.586,3.972-10.225.637-1.471,1.208-2.714,1.795-3.913a.321.321,0,0,1,.3-.171" transform="translate(-54.034 12.103)" fill="#da8c67"/>
            <path id="Trazado_610655" data-name="Trazado 610655" d="M170.262,107.254l.006,0,0,0a23.633,23.633,0,0,1,.388,7.057,15.5,15.5,0,0,1-2.024,6.457,10.743,10.743,0,0,1-2.075,2.5,10.446,10.446,0,0,1-1.305.971,10.828,10.828,0,0,1-1.622.82,11.936,11.936,0,0,1-3.669.82c-.334.033-.669.046-1,.046a12.292,12.292,0,0,1-3.165-.422,13.333,13.333,0,0,1-6.591-4.341,19.014,19.014,0,0,1-2.3-3.4c-.289-.541-.562-1.125-.861-1.836a17.786,17.786,0,0,1-.737-2.043.87.87,0,0,1-.033-.241c1.6-.125,3.157-.285,4.641-.487a75.016,75.016,0,0,0,7.659-1.414,66.606,66.606,0,0,0,7.728-2.337,51.683,51.683,0,0,0,4.949-2.155l.012,0" transform="translate(-39.488 18.39)" fill="#021621"/>
            <path id="Trazado_610656" data-name="Trazado 610656" d="M162.2,114.222c.326,0,.65.014.975.037a14.783,14.783,0,0,1-1.877,5.321,10.621,10.621,0,0,1-2.072,2.5,10.432,10.432,0,0,1-1.3.975,10.949,10.949,0,0,1-1.625.819,11.988,11.988,0,0,1-3.67.82c-.334.032-.668.046-1,.046a12.332,12.332,0,0,1-3.163-.422,11.56,11.56,0,0,1-2.97-1.25,26.4,26.4,0,0,1,4.393-4.132.546.546,0,0,1-.063.046,27.174,27.174,0,0,1,6.155-3.468l-.074.027a21.074,21.074,0,0,1,2.352-.773,18.518,18.518,0,0,1,2.288-.444h.014a.109.109,0,0,0,.036,0h-.009l.028,0s-.009,0-.019,0a13.812,13.812,0,0,1,1.525-.1Z" transform="translate(-32.156 19.585)" fill="#f68677"/>
            <path id="Trazado_610657" data-name="Trazado 610657" d="M147.743,114.308h0Z" transform="translate(-19.339 19.6)" fill="#f68677"/>
            <path id="Trazado_610658" data-name="Trazado 610658" d="M142.375,82.339h.115c.9.064,1.694.848,2.234,2.2a11.744,11.744,0,0,1,.642,4.971c-.261,3.769-1.888,6.72-3.7,6.72a2.19,2.19,0,0,1-1.512-.829c-1.092-1.245-1.658-3.676-1.478-6.345.261-3.767,1.888-6.72,3.7-6.72" transform="translate(-6.344 14.118)" fill="#021621"/>
            <path id="Trazado_610659" data-name="Trazado 610659" d="M181.016,78.7h.105a1.944,1.944,0,0,1,1.323.736c1.005,1.157,1.545,3.51,1.375,5.994-.242,3.534-1.77,6.3-3.476,6.3A1.945,1.945,0,0,1,178.92,91c-1-1.149-1.545-3.505-1.38-6,.248-3.534,1.775-6.3,3.476-6.3" transform="translate(-90.334 13.494)" fill="#021621"/>
            <path id="Trazado_610660" data-name="Trazado 610660" d="M131.98,57.976a21.51,21.51,0,0,1,7.994,1.763,20.4,20.4,0,0,1,7.427,5.027c1.731,1.97,2.338,3.883,1.709,5.39-.694,1.656-2.824,2.607-5.846,2.607A21.444,21.444,0,0,1,135.275,71c-6.328-2.642-10.424-7.317-9.132-10.421.689-1.656,2.816-2.607,5.836-2.607" transform="translate(4.618 9.941)" fill="#7c2213"/>
            <path id="Trazado_610661" data-name="Trazado 610661" d="M184.318,56.652c3.694,0,6.3,1.193,6.792,3.111.358,1.379-.4,2.958-2.138,4.447a17.85,17.85,0,0,1-7.031,3.429,20.3,20.3,0,0,1-5.041.674c-3.7,0-6.306-1.193-6.8-3.111-.357-1.376.4-2.954,2.139-4.443a17.843,17.843,0,0,1,7.03-3.428,20.343,20.343,0,0,1,5.051-.678" transform="translate(-88.895 9.714)" fill="#7c2213"/>
          </g>
        </g>
      </g>
      <rect id="Rectángulo_378185" data-name="Rectángulo 378185" width="348" height="10" rx="5" transform="translate(1047 2184)" fill="#345359"/>
    </g>
    <rect id="Rectángulo_378186" data-name="Rectángulo 378186" width="400" height="538" transform="translate(1020 1652)" fill="none"/>
  </g>
</svg>
