<svg xmlns="http://www.w3.org/2000/svg" xmlns:xlink="http://www.w3.org/1999/xlink" width="1030" height="495" viewBox="0 0 1030 495">
  <defs>
    <linearGradient id="linear-gradient" x1="0.5" x2="0.5" y2="1" gradientUnits="objectBoundingBox">
      <stop offset="0" stop-color="#e5fbff"/>
      <stop offset="1" stop-color="#edf3fc"/>
    </linearGradient>
    <clipPath id="clip-path">
      <rect id="Rectángulo_378158" data-name="Rectángulo 378158" width="806" height="429.642" fill="none"/>
    </clipPath>
    <clipPath id="clip-path-2">
      <rect id="Rectángulo_378159" data-name="Rectángulo 378159" width="47.543" height="69.773" fill="#345359"/>
    </clipPath>
    <clipPath id="clip-path-3">
      <rect id="Rectángulo_378160" data-name="Rectángulo 378160" width="54.162" height="63" fill="#345359"/>
    </clipPath>
    <clipPath id="clip-path-4">
      <rect id="Rectángulo_378161" data-name="Rectángulo 378161" width="58.81" height="67.962" fill="#345359"/>
    </clipPath>
    <clipPath id="clip-path-5">
      <rect id="Rectángulo_378162" data-name="Rectángulo 378162" width="67.005" height="66.942" fill="#345359"/>
    </clipPath>
  </defs>
  <g id="Grupo_1073067" data-name="Grupo 1073067" transform="translate(-285 -617)">
    <path id="Trazado_610541" data-name="Trazado 610541" d="M0,0H1030V495H0Z" transform="translate(285 617)" fill="url(#linear-gradient)"/>
    <g id="Grupo_1072682" data-name="Grupo 1072682" transform="translate(370 649.679)">
      <g id="Grupo_1072681" data-name="Grupo 1072681" clip-path="url(#clip-path)">
        <path id="Trazado_610542" data-name="Trazado 610542" d="M499.005,88.4H192.734c-13.6,0-24.634-9.144-24.634-20.423V26.287c0-11.279,11.03-20.423,24.634-20.423H499.005c13.606,0,24.636,9.144,24.636,20.423V67.974c0,11.279-11.03,20.423-24.636,20.423" transform="translate(108.359 4.785)" fill="#f1ecef"/>
        <path id="Trazado_610544" data-name="Trazado 610544" d="M478.123,146.635h-253.9A20.423,20.423,0,0,1,203.8,126.211V84.524A20.423,20.423,0,0,1,224.224,64.1h253.9a20.423,20.423,0,0,1,20.423,20.423v41.687a20.423,20.423,0,0,1-20.423,20.423" transform="translate(166.311 52.309)" fill="#f1ecef"/>
        <path id="Trazado_610545" data-name="Trazado 610545" d="M478.532,147.952h-253.9A21.355,21.355,0,0,1,203.3,126.62V84.933A21.355,21.355,0,0,1,224.633,63.6h253.9a21.353,21.353,0,0,1,21.329,21.331V126.62a21.353,21.353,0,0,1-21.329,21.331m-253.9-82.534a19.537,19.537,0,0,0-19.515,19.515V126.62a19.538,19.538,0,0,0,19.515,19.515h253.9a19.537,19.537,0,0,0,19.513-19.515V84.933a19.535,19.535,0,0,0-19.513-19.515Z" transform="translate(165.902 51.902)" fill="#345359"/>
        <path id="Trazado_611103" data-name="Trazado 611103" d="M532.262,147.952H228.8c-14.059,0-25.5-9.569-25.5-21.331V84.933c0-11.762,11.437-21.331,25.5-21.331H532.262c14.059,0,25.493,9.569,25.493,21.331V126.62c0,11.762-11.434,21.331-25.493,21.331M228.8,65.418c-12.861,0-23.325,8.753-23.325,19.515V126.62c0,10.76,10.464,19.515,23.325,19.515H532.262c12.861,0,23.323-8.755,23.323-19.515V84.933c0-10.762-10.462-19.515-23.323-19.515Z" transform="translate(74.804 -55.098)" fill="#345359"/>
        <path id="Trazado_610546" data-name="Trazado 610546" d="M516.751,206.607h-253.9a20.423,20.423,0,0,1-20.421-20.423V144.5a20.423,20.423,0,0,1,20.421-20.423h253.9A20.423,20.423,0,0,1,537.174,144.5v41.687a20.423,20.423,0,0,1-20.423,20.423" transform="translate(197.833 101.248)" fill="#f1ecef"/>
        <path id="Trazado_610547" data-name="Trazado 610547" d="M517.159,207.923H263.26a21.353,21.353,0,0,1-21.329-21.331V144.9a21.353,21.353,0,0,1,21.329-21.331h253.9A21.356,21.356,0,0,1,538.49,144.9v41.687a21.356,21.356,0,0,1-21.331,21.331m-253.9-82.534A19.535,19.535,0,0,0,243.747,144.9v41.687a19.537,19.537,0,0,0,19.513,19.515h253.9a19.538,19.538,0,0,0,19.515-19.515V144.9a19.537,19.537,0,0,0-19.515-19.515Z" transform="translate(197.425 100.84)" fill="#345359"/>
        <path id="Trazado_610548" data-name="Trazado 610548" d="M555.343,265.815h-253.9a20.423,20.423,0,0,1-20.421-20.423V203.7a20.423,20.423,0,0,1,20.421-20.423h253.9A20.423,20.423,0,0,1,575.766,203.7v41.687a20.423,20.423,0,0,1-20.423,20.423" transform="translate(229.326 149.564)" fill="#f1ecef"/>
        <path id="Trazado_610549" data-name="Trazado 610549" d="M555.753,267.132h-253.9A21.356,21.356,0,0,1,280.523,245.8V204.113a21.355,21.355,0,0,1,21.331-21.331h253.9a21.354,21.354,0,0,1,21.329,21.331V245.8a21.356,21.356,0,0,1-21.329,21.331M301.854,184.6a19.536,19.536,0,0,0-19.515,19.515V245.8a19.537,19.537,0,0,0,19.515,19.515h253.9A19.538,19.538,0,0,0,575.266,245.8V204.113A19.537,19.537,0,0,0,555.753,184.6Z" transform="translate(228.918 149.157)" fill="#345359"/>
        <path id="Trazado_610550" data-name="Trazado 610550" d="M183.122,18.151l57.361,89.117h-18.66L153.139.5H485.02a15.557,15.557,0,0,1,13.059,7.106l6.77,10.526Z" transform="translate(123.967 1.499)" fill="#345359"/>
        <path id="Trazado_610552" data-name="Trazado 610552" d="M152.232.928,201.339,77.2l19.615,30.489Z" transform="translate(124.227 0.757)" fill="#94eeff"/>
        <path id="Trazado_610553" data-name="Trazado 610553" d="M251.814,107.7H114.407L183.1.924l49.1,76.283Z" transform="translate(93.361 0.754)" fill="#94eeff"/>
        <path id="Trazado_610554" data-name="Trazado 610554" d="M254.225,109.358H113.491L183.852,0Zm-137.407-1.816H250.9L183.852,3.356Z" transform="translate(92.613)" fill="#345359"/>
        <path id="Trazado_610555" data-name="Trazado 610555" d="M220.054,77.36l57.361,89.117h-18.66L190.071,59.71H487.952a15.557,15.557,0,0,1,13.059,7.106l6.77,10.526Z" transform="translate(155.105 48.726)" fill="#345359"/>
        <path id="Trazado_610556" data-name="Trazado 610556" d="M145.278,59.714l-68.7,106.761h274.8L282.68,59.714Z" transform="translate(62.49 48.729)" fill="#76becc"/>
        <path id="Trazado_610557" data-name="Trazado 610557" d="M353.791,167.791H75.661l69.87-108.577H283.923Zm-274.8-1.816H350.464L282.931,61.03H146.523Z" transform="translate(61.742 48.321)" fill="#345359"/>
        <path id="Trazado_610558" data-name="Trazado 610558" d="M257.839,136.139,315.2,225.256H296.54L227.856,118.489H525.737A15.555,15.555,0,0,1,538.8,125.6l6.77,10.526Z" transform="translate(185.939 96.692)" fill="#345359"/>
        <path id="Trazado_610559" data-name="Trazado 610559" d="M38.748,225.263h412.2L382.25,118.5h-274.8Z" transform="translate(31.62 96.702)" fill="#94eeff"/>
        <path id="Trazado_610560" data-name="Trazado 610560" d="M453.363,226.579H37.831L107.7,118H383.492l.269.416Zm-412.2-1.816H450.034L382.5,119.818H108.691Z" transform="translate(30.872 96.294)" fill="#345359"/>
        <path id="Trazado_610561" data-name="Trazado 610561" d="M295.692,194.942l57.361,89.117h-18.66L265.709,177.292H563.59a15.555,15.555,0,0,1,13.059,7.106l6.77,10.526Z" transform="translate(216.829 144.677)" fill="#345359"/>
        <path id="Trazado_610562" data-name="Trazado 610562" d="M355.464,285.373H334.647l-.269-.416L264.793,176.792H564.34a16.416,16.416,0,0,1,13.822,7.52l7.671,11.928-287.73.018Zm-19.828-1.816h16.5l-57.361-89.115,287.728-.018-5.869-9.126a14.6,14.6,0,0,0-12.295-6.69H268.12Z" transform="translate(216.081 144.269)" fill="#345359"/>
        <path id="Trazado_610563" data-name="Trazado 610563" d="M555.375,284.048H.916l68.7-106.758H481.82l68.334,106.177Z" transform="translate(0.748 144.676)" fill="#76becc"/>
        <path id="Trazado_610564" data-name="Trazado 610564" d="M556.124,285.364H0L69.865,176.79h413.2l.269.416,68.1,105.815,4.793.532Zm-552.8-1.816H549.612L482.073,178.606H70.856Z" transform="translate(0 144.268)" fill="#345359"/>
      </g>
    </g>
    <g id="Elipse_5890" data-name="Elipse 5890" transform="translate(745 676.849)" fill="#ffe7af" stroke="#345359" stroke-width="2">
      <circle cx="28.5" cy="28.5" r="28.5" stroke="none"/>
      <circle cx="28.5" cy="28.5" r="27.5" fill="none"/>
    </g>
    <g id="Elipse_5892" data-name="Elipse 5892" transform="translate(810 783.849)" fill="#ffe7af" stroke="#345359" stroke-width="2">
      <circle cx="28.5" cy="28.5" r="28.5" stroke="none"/>
      <circle cx="28.5" cy="28.5" r="27.5" fill="none"/>
    </g>
    <g id="Elipse_5894" data-name="Elipse 5894" transform="translate(878 890.849)" fill="#ffe7af" stroke="#345359" stroke-width="2">
      <circle cx="28.5" cy="28.5" r="28.5" stroke="none"/>
      <circle cx="28.5" cy="28.5" r="27.5" fill="none"/>
    </g>
    <g id="Elipse_5896" data-name="Elipse 5896" transform="translate(949 999.849)" fill="#ffe7af" stroke="#345359" stroke-width="2">
      <circle cx="28.5" cy="28.5" r="28.5" stroke="none"/>
      <circle cx="28.5" cy="28.5" r="27.5" fill="none"/>
    </g>
    <path id="Trazado_611109" data-name="Trazado 611109" d="M7.348,0H4.377V-9.457L1.459-8.6v-2.25L7.075-12.8h.272Z" transform="translate(769 711.849)" fill="#12263f"/>
    <path id="Trazado_611110" data-name="Trazado 611110" d="M9.712,0H.782V-1.934L4.9-6.258A4.909,4.909,0,0,0,6.416-9.009a1.913,1.913,0,0,0-.36-1.257A1.287,1.287,0,0,0,5.01-10.7a1.3,1.3,0,0,0-1.1.576,2.366,2.366,0,0,0-.422,1.437H.519a4.2,4.2,0,0,1,.589-2.175,4.129,4.129,0,0,1,1.635-1.56,4.856,4.856,0,0,1,2.338-.562,4.777,4.777,0,0,1,3.195.958A3.42,3.42,0,0,1,9.4-9.272,4,4,0,0,1,9.114-7.8,6.456,6.456,0,0,1,8.24-6.3a22.029,22.029,0,0,1-1.912,2.1L4.676-2.285H9.712Z" transform="translate(834 818.849)" fill="#12263f"/>
    <path id="Trazado_611111" data-name="Trazado 611111" d="M3.489-7.638h1.4A1.453,1.453,0,0,0,6.548-9.264a1.406,1.406,0,0,0-.4-1.033,1.5,1.5,0,0,0-1.116-.4,1.606,1.606,0,0,0-1.024.343,1.046,1.046,0,0,0-.435.853H.615a3.032,3.032,0,0,1,.563-1.8,3.715,3.715,0,0,1,1.56-1.235,5.334,5.334,0,0,1,2.193-.444,5.241,5.241,0,0,1,3.357.976A3.243,3.243,0,0,1,9.51-9.325,2.7,2.7,0,0,1,9-7.765,3.6,3.6,0,0,1,7.532-6.574a3.441,3.441,0,0,1,1.6,1.121,2.951,2.951,0,0,1,.58,1.859A3.3,3.3,0,0,1,8.394-.853,5.472,5.472,0,0,1,4.931.176,5.675,5.675,0,0,1,2.6-.3,3.656,3.656,0,0,1,.967-1.63,3.45,3.45,0,0,1,.413-3.56H3.393a1.334,1.334,0,0,0,.475,1.02,1.676,1.676,0,0,0,1.169.431,1.755,1.755,0,0,0,1.248-.435A1.454,1.454,0,0,0,6.75-3.656a1.7,1.7,0,0,0-.483-1.371,2.021,2.021,0,0,0-1.336-.4H3.489Z" transform="translate(902 925.849)" fill="#12263f"/>
    <path id="Trazado_611112" data-name="Trazado 611112" d="M8.6-5h1.3v2.285H8.6V0H5.643V-2.716H.694L.519-4.526l5.124-8.244V-12.8H8.6ZM3.34-5h2.3V-8.938l-.185.3Z" transform="translate(973 1034.849)" fill="#12263f"/>
    <g id="Grupo_1072687" data-name="Grupo 1072687" transform="translate(622.503 679.962)">
      <g id="Grupo_1072686" data-name="Grupo 1072686" clip-path="url(#clip-path-2)">
        <path id="Trazado_610569" data-name="Trazado 610569" d="M2.88,91.261c-.479-1.412-.894-2.641-1.315-3.867a2.485,2.485,0,0,1-.159-1.38c.678-3.153,1.311-6.316,2.01-9.464.311-1.4.957-1.594,2.056-.677,2.344,1.954,4.67,3.929,7.015,5.881a2.978,2.978,0,0,1,.963,1.407c.8,2.407,1.648,4.8,2.432,7.209.2.6.438.905,1.122.859a24.78,24.78,0,0,1,2.724-.005c.577.025.75-.184.74-.75-.031-1.671,0-3.343-.016-5.014-.008-.777.162-1.452,1.075-1.427.861.024.96.7.951,1.417-.022,1.635.02,3.271-.019,4.905-.016.661.19.88.861.881s.969-.165.948-.906c-.048-1.634-.005-3.27-.017-4.905-.005-.728.167-1.386,1.006-1.392.893-.007,1.089.672,1.084,1.444-.01,1.635.031,3.271-.018,4.9-.021.693.245.78.87.862,1.589.208,2.419-.368,3.1-1.873,1.832-4.064,3.873-8.035,5.852-12.032,1.1-2.214,2.826-2.808,5.042-1.76,1.344.636,2.685,1.281,4.012,1.95a3.388,3.388,0,0,1,1.649,4.841c-1.269,2.648-2.571,5.281-3.872,7.914-.241.488-.437.859.292,1.148.469.186.53.726.532,1.225a21.127,21.127,0,0,0,3.05,10.539c1.353,2.365.728,4.152-1.842,5.126-.455.172-.485.445-.535.811a15.339,15.339,0,0,1-12.75,13.6,17.01,17.01,0,0,1-4.13.189c-.781-.039-1.117.15-1.055,1.01.078,1.085.009,2.179.02,3.269a1.1,1.1,0,0,1-1.254,1.277q-7.794,0-15.589,0c-.866,0-1.245-.454-1.243-1.294q.006-4.524,0-9.048a1.3,1.3,0,0,1,.9-1.311,16.371,16.371,0,0,0,7.1-6.548c.35-.576.286-.8-.362-1.092a5.683,5.683,0,0,1-3.436-6.177A5.769,5.769,0,0,1,17.9,98.235a5.378,5.378,0,0,1,3.931,1.315c.522.421.815.387,1.235-.107a10.329,10.329,0,0,0,2.434-5.375c.08-.568-.021-.775-.632-.774q-10.683.023-21.367,0c-.517,0-.824.145-.906.687-.813,5.384-.875,10.706,1.312,15.841a15.316,15.316,0,0,0,1.981,3.37c.469.606.761,1.219,0,1.78-.734.538-1.19.036-1.614-.522A21.62,21.62,0,0,1,.251,104.016,35.845,35.845,0,0,1,.7,92.963c.2-1.174.608-2.062,2.177-1.7m14.61,35.2c2.07,0,4.14-.022,6.209.013.669.012.9-.209.867-.874-.045-1.051-.019-2.106-.01-3.159.012-1.341.232-1.552,1.609-1.563.908-.007,1.816-.016,2.723,0a13.3,13.3,0,0,0,13.6-13.091,1.232,1.232,0,0,1,1.361-1.429c1.707-.073,2.041-.729,1.182-2.228A23.325,23.325,0,0,1,41.81,94.077c-.059-.847-.543-.777-1.1-.777-3.994,0-7.989.024-11.983-.017-.812-.008-1.092.211-1.206,1.042a11.708,11.708,0,0,1-4.164,7.644c-.81.678-1.453.677-2.108-.184a3.851,3.851,0,0,0-.9-.785,3.463,3.463,0,0,0-4.155-.03,3.638,3.638,0,0,0,1.808,6.6c1.314.13,1.665.686,1.133,1.892a18.273,18.273,0,0,1-7.891,8.719,1.252,1.252,0,0,0-.779,1.259c.045,2.032.041,4.067,0,6.1-.013.7.186.956.917.94,2.032-.043,4.066-.015,6.1-.015M31.623,91.21c2.853,0,5.527,0,8.2,0,.747,0,.762-.7.962-1.149.23-.52-.338-.522-.615-.669-.7-.372-1.441-.683-2.132-1.077a.875.875,0,0,1-.405-1.285.923.923,0,0,1,1.257-.525c.438.169.856.391,1.279.6,1.7.829,1.7.83,2.547-.9.691-1.418.7-1.438-.706-2.14-.657-.327-1.158-.714-.794-1.5s1.015-.668,1.663-.354c.26.126.513.269.782.374.219.086.49.4.674.145a4,4,0,0,0,.911-2.054,1.422,1.422,0,0,0-.975-1.317c-1.309-.619-2.6-1.278-3.905-1.9-1.262-.6-1.808-.413-2.432.854q-2.136,4.334-4.248,8.68c-.663,1.357-1.325,2.715-2.061,4.225M6.344,85.745a2.371,2.371,0,0,0,2.492-.991,11.267,11.267,0,0,1,1.344-1.266c.406-.339.544-.582.034-.983-1.054-.827-2.06-1.714-3.086-2.577a.774.774,0,0,0-.779-.234c-1,.286-1.928.594-1.963,1.9a8.8,8.8,0,0,1-.294,1.6c-.537,2.475-.539,2.474,2.253,2.548m5.475-1a14.143,14.143,0,0,1-1.4,1.3A2,2,0,0,0,9.7,88.8c.93,2.471.845,2.488,3.454,2.421.6-.015.86-.075.6-.778-.664-1.823-1.258-3.671-1.944-5.7m-7.953,2.99c.353,1.04.7,2.021,1.016,3.01.123.383.378.443.737.471,2.853.223,2.854.229,1.941-2.494-.134-.4-.191-.831-.783-.888a13.715,13.715,0,0,0-2.911-.1" transform="translate(0 -58.705)" fill="#345359"/>
        <path id="Trazado_610570" data-name="Trazado 610570" d="M69.8,21.037c0-.944-.017-1.889,0-2.833A2.976,2.976,0,0,1,71.13,15.6a1.346,1.346,0,0,0,.619-1.359c.033-2.243-.188-4.506.5-6.7a14.249,14.249,0,0,1,1.378-3.067c.371-.62.842-.949,1.516-.531s.612,1,.231,1.6A12.371,12.371,0,0,0,74.24,8.008c-.169.474-.029.662.482.658,2.143-.017,4.286-.026,6.429-.012.752,0,.6-.379.452-.842a12.967,12.967,0,0,0-3.891-5.678c-.345-.309-.769-.577-.716-1.145a1.077,1.077,0,0,1,.588-.86.9.9,0,0,1,1.107.15,14.2,14.2,0,0,1,5.292,8.852,34.66,34.66,0,0,1,.133,5.111,1.371,1.371,0,0,0,.635,1.36,2.667,2.667,0,0,1,1.192,2.328c.007,2.07-.011,4.141-.013,6.211,0,.51-.119.957-.654,1.132a1.1,1.1,0,0,1-1.333-.455c-.471-.645-1-1.251-1.449-1.907-.275-.4-.474-.388-.855-.121a6.05,6.05,0,0,1-7.57-.017c-.344-.244-.527-.231-.774.118-.461.652-.967,1.271-1.46,1.9-.327.417-.7.756-1.29.575-.625-.193-.78-.673-.768-1.278.021-1.016.006-2.034.006-3.051Zm8.18-10.343V10.7c-1.124,0-2.249.036-3.371-.013-.686-.03-.884.232-.854.881.041.9.034,1.813-.007,2.718a.9.9,0,0,0,.62.983,2.933,2.933,0,0,1,1.754,2.44,3.214,3.214,0,0,1-.813,2.3c-.467.64-.3,1.009.315,1.376a4.105,4.105,0,0,0,3.947.275c1.346-.589,1.392-.756.679-2.019-.905-1.6-.781-3.169.643-3.989a2.181,2.181,0,0,0,1.172-2.447,8.619,8.619,0,0,1,.009-1.629c.077-.749-.259-.925-.94-.9-1.049.046-2.1.012-3.153.012m5.658,10.385.286-.093c0-1,.025-2-.01-3A1.017,1.017,0,0,0,83.048,17a1.04,1.04,0,0,0-1.073.362.9.9,0,0,0,.007,1.191l1.654,2.521m-11.7-.132.238.082q.833-1.251,1.664-2.5c.232-.35.372-.708.047-1.086a1.052,1.052,0,0,0-1.151-.41.959.959,0,0,0-.795.91c-.014,1,0,2,0,3.005" transform="translate(-54.564 0)" fill="#345359"/>
        <path id="Trazado_610571" data-name="Trazado 610571" d="M180.993,35.08a.986.986,0,0,1,1,1.069c-.022.65.1,1.015.877.963a.973.973,0,0,1,1.153,1.018c0,.767-.511,1.1-1.225,1.059-.62-.038-.836.182-.8.8.039.653-.214,1.149-.968,1.179-.82.033-1.1-.5-1.082-1.185.017-.621-.2-.825-.81-.793-.715.038-1.209-.3-1.2-1.077a.975.975,0,0,1,1.165-1c.7.036.868-.24.849-.883a1.017,1.017,0,0,1,1.045-1.147" transform="translate(-139.137 -27.431)" fill="#345359"/>
        <path id="Trazado_610572" data-name="Trazado 610572" d="M26.7,29.342a.9.9,0,0,1-.961-1.055c.042-.668-.118-1.007-.881-.936a.941.941,0,0,1-1.134-1.011.923.923,0,0,1,1.122-1.01c.748.064.939-.266.891-.945a.961.961,0,0,1,1.05-1.109.935.935,0,0,1,.971,1.076c-.041.757.247,1.035,1,.982a.9.9,0,0,1,1.039.986.947.947,0,0,1-1.118,1.032c-.734-.062-.938.234-.919.919.018.667-.3,1.115-1.061,1.072" transform="translate(-18.553 -18.201)" fill="#345359"/>
        <path id="Trazado_610573" data-name="Trazado 610573" d="M148.6,6.308c-.6-.023-1.022-.331-.986-.993.038-.707-.118-1.075-.933-1A.934.934,0,0,1,145.6,3.255a.913.913,0,0,1,1.044-.986c.745.031,1.041-.225.969-.989A.91.91,0,0,1,148.6.238a.887.887,0,0,1,1.01,1.007c-.075.849.3,1.051,1.065,1.032a.9.9,0,0,1,.981,1.044.921.921,0,0,1-1.048.989c-.878-.094-1.03.32-1,1.065.023.6-.364.911-1,.934" transform="translate(-113.851 -0.185)" fill="#345359"/>
        <path id="Trazado_610574" data-name="Trazado 610574" d="M141.565,176.472a3.741,3.741,0,0,1,7.471-.021c.019.624-.2,1.083-.857,1.172a.945.945,0,0,1-1.19-.931,1.7,1.7,0,0,0-3.4.013.952.952,0,0,1-1.207.919.917.917,0,0,1-.82-1.152" transform="translate(-110.688 -135.228)" fill="#345359"/>
        <path id="Trazado_610575" data-name="Trazado 610575" d="M80.185,203.69c-.049.609-.36,1-.947.994a.941.941,0,0,1-.981-1.056.906.906,0,0,1,1.064-.948c.632.046.84.467.865,1.01" transform="translate(-61.193 -158.485)" fill="#345359"/>
      </g>
    </g>
    <g id="Grupo_1072689" data-name="Grupo 1072689" transform="translate(622.503 783.849)">
      <g id="Grupo_1072688" data-name="Grupo 1072688" clip-path="url(#clip-path-3)">
        <path id="Trazado_610576" data-name="Trazado 610576" d="M27.059,120.292H1.577a2.466,2.466,0,0,1-.465-.033A1.218,1.218,0,0,1,.008,119c-.012-.3,0-.607,0-.911q0-10.45,0-20.9A3.982,3.982,0,0,1,.483,95.13a3.636,3.636,0,0,1,3.106-1.9c.4-.023.8-.01,1.206-.01q6.069,0,12.138.01c.227,0,.312-.04.3-.29a8.519,8.519,0,0,1,.074-1.569,3.728,3.728,0,0,1,3.458-3.063c.427-.014.854-.011,1.28-.011H33.127a3.705,3.705,0,0,1,2.98,1.42,3.893,3.893,0,0,1,.819,2.571q.011,2.781,0,5.563c0,.259.075.307.316.306q6.536-.015,13.073-.014a3.7,3.7,0,0,1,2.87,1.23,3.594,3.594,0,0,1,.97,2.483q0,2.265,0,4.529c0,4.135-.011,8.271.011,12.406a1.364,1.364,0,0,1-1.523,1.5q-12.791,0-25.581,0m7.416-15.565h0q0-4.406,0-8.812c0-1.313-.018-2.626.005-3.938A1.242,1.242,0,0,0,33.2,90.745c-.935.024-1.871.006-2.806.006q-4.715,0-9.429,0a1.249,1.249,0,0,0-1.148.627,1.51,1.51,0,0,0-.14.836q0,5.526,0,11.052a4.184,4.184,0,0,1-.034.663,1.25,1.25,0,0,1-1.6.882,1.374,1.374,0,0,1-.821-1.385q-.005-3.754,0-7.507c0-.157,0-.247-.213-.246q-6.684.011-13.368.007a1.174,1.174,0,0,0-1.192,1.209q0,10.363,0,20.725c0,.182.046.242.232.237.541-.014,1.083-.011,1.625-.011q6.315,0,12.629.011c.239,0,.3-.059.295-.3-.016-.837,0-1.674-.008-2.51a2.154,2.154,0,0,1,.062-.536,1.154,1.154,0,0,1,.838-.911,1.2,1.2,0,0,1,1.552,1.225c.013.91.011,1.822,0,2.732,0,.216.029.294.274.293q7.164-.013,14.328,0c.175,0,.2-.062.2-.216q-.006-6.449,0-12.9m2.452,4.483v7.975c0,.156.008.312,0,.467s.053.2.2.193c.229-.01.459-.007.689-.007q6.794,0,13.589.008c.225,0,.3-.037.3-.288q-.013-7.839-.007-15.678A1.189,1.189,0,0,0,50.43,100.6q-6.622,0-13.244-.006c-.228,0-.263.069-.263.274q.01,4.172,0,8.344" transform="translate(0 -57.293)" fill="#345359"/>
        <path id="Trazado_610577" data-name="Trazado 610577" d="M45.044,27.785c.027-.512.171-1.055.216-1.61.093-1.153.378-2.279.453-3.435a.349.349,0,0,0-.118-.3c-1.055-1.092-2.1-2.19-3.159-3.279a3.149,3.149,0,0,1,1.631-5.326c.926-.171,1.845-.377,2.772-.541.588-.1,1.178-.2,1.764-.321a.712.712,0,0,0,.552-.41c.665-1.279,1.352-2.547,2.026-3.821a3.322,3.322,0,0,1,1.483-1.452,3.116,3.116,0,0,1,4.055,1.253c.6,1.046,1.161,2.11,1.739,3.167.193.352.385.7.572,1.06a.362.362,0,0,0,.262.2c1.015.232,2.055.322,3.072.541a18.578,18.578,0,0,1,1.991.428,3.058,3.058,0,0,1,2.113,2.443,2.984,2.984,0,0,1-.82,2.713c-1.022,1.11-2.071,2.2-3.116,3.285a.684.684,0,0,0-.216.648c.227,1.489.426,2.983.629,4.476a3.219,3.219,0,0,1-2.76,3.535,3.308,3.308,0,0,1-1.86-.323c-1.3-.623-2.613-1.219-3.9-1.865a.888.888,0,0,0-.927.007c-1.276.652-2.577,1.256-3.864,1.885a3.181,3.181,0,0,1-4.393-1.829,3.646,3.646,0,0,1-.2-1.13m19.022-10.8a.754.754,0,0,0-.684-.813c-1.113-.193-2.225-.395-3.337-.592-.637-.113-1.283-.166-1.911-.334a1.2,1.2,0,0,1-.752-.508c-.093-.145-.185-.291-.267-.442-.557-1.022-1.106-2.047-1.667-3.067a16.7,16.7,0,0,0-.827-1.48A.722.722,0,0,0,53.4,9.74a4.084,4.084,0,0,0-.271.467Q52,12.324,50.883,14.442a1.433,1.433,0,0,1-1.019.771c-.641.141-1.29.229-1.934.348q-1.642.3-3.282.619a1.052,1.052,0,0,0-.371.125.757.757,0,0,0-.077,1.211q1.79,1.865,3.588,3.721a1.429,1.429,0,0,1,.447,1.225c-.133,1.024-.254,2.05-.413,3.07-.12.77-.2,1.544-.294,2.317a.662.662,0,0,0,.69.792,1.149,1.149,0,0,0,.538-.145c1.537-.753,3.079-1.5,4.616-2.252a1.239,1.239,0,0,1,1.154-.007c1.587.763,3.179,1.516,4.767,2.276a.883.883,0,0,0,.913.009.769.769,0,0,0,.268-.793c-.125-1.529-.4-3.038-.647-4.548a2.034,2.034,0,0,1,.673-2.159.2.2,0,0,0,.017-.018l3.319-3.5a.628.628,0,0,0,.228-.521" transform="translate(-26.934 -4.524)" fill="#345359"/>
        <path id="Trazado_610578" data-name="Trazado 610578" d="M124.119,39.257c.791.118,1.648.186,2.5.33,1.024.173,2.054.321,3.081.477a1.21,1.21,0,1,1-.308,2.4c-1.278-.144-2.549-.336-3.82-.524-.574-.085-1.145-.194-1.719-.283a1.239,1.239,0,0,1-1.012-1.291,1.27,1.27,0,0,1,1.281-1.1" transform="translate(-79.705 -25.474)" fill="#345359"/>
        <path id="Trazado_610579" data-name="Trazado 610579" d="M8.655,41.277A1.251,1.251,0,0,1,9.687,40.1c1.711-.239,3.411-.551,5.128-.749a2.762,2.762,0,0,1,.829-.046,1.248,1.248,0,0,1,1,1.155,1.217,1.217,0,0,1-.969,1.2c-1,.141-2,.315-3.01.456-.876.123-1.752.237-2.628.359a1.237,1.237,0,0,1-1.385-1.2" transform="translate(-5.616 -25.49)" fill="#345359"/>
        <path id="Trazado_610580" data-name="Trazado 610580" d="M27.8,4.035a1.178,1.178,0,0,1-1.723,1.048q-1.292-.735-2.581-1.478Q22.437,3,21.383,2.392a1.4,1.4,0,0,1-.848-1.151A1.194,1.194,0,0,1,21.965.028a3.717,3.717,0,0,1,1.014.49Q24.864,1.6,26.748,2.693c.177.1.35.212.521.325A1.093,1.093,0,0,1,27.8,4.035" transform="translate(-13.324 0)" fill="#345359"/>
        <path id="Trazado_610581" data-name="Trazado 610581" d="M117.227,75.238a1.4,1.4,0,0,1-.934-.463q-1.234-1.236-2.467-2.473c-.493-.493-1-.975-1.481-1.476a1.2,1.2,0,0,1-.153-1.373,1.283,1.283,0,0,1,1.323-.6,1.426,1.426,0,0,1,.646.39q1.979,1.968,3.945,3.951a1.116,1.116,0,0,1,.214,1.342,1.206,1.206,0,0,1-1.093.7" transform="translate(-72.705 -44.661)" fill="#345359"/>
        <path id="Trazado_610582" data-name="Trazado 610582" d="M113.017,3.963a1.068,1.068,0,0,1,.65-1.017c.735-.43,1.474-.854,2.212-1.28q1.18-.683,2.36-1.367A1.382,1.382,0,0,1,119.52.108a1.185,1.185,0,0,1,.38,1.963,4.05,4.05,0,0,1-.8.526q-2.009,1.163-4.023,2.319a1.567,1.567,0,0,1-.987.317,1.191,1.191,0,0,1-1.076-1.27" transform="translate(-73.334 -0.013)" fill="#345359"/>
        <path id="Trazado_610583" data-name="Trazado 610583" d="M30.367,70.158a1.016,1.016,0,0,1-.341.706q-.7.708-1.405,1.411c-.84.841-1.678,1.685-2.522,2.521a1.157,1.157,0,0,1-1.427.3,1.191,1.191,0,0,1-.38-1.885c.384-.425.806-.817,1.211-1.224L28,69.484a3.913,3.913,0,0,1,.479-.423,1.042,1.042,0,0,1,1.2-.094,1.253,1.253,0,0,1,.689,1.191" transform="translate(-15.559 -44.657)" fill="#345359"/>
        <path id="Trazado_610584" data-name="Trazado 610584" d="M20.82,126.169c.119.006.238.017.358.017.8,0,1.608,0,2.412,0a1.405,1.405,0,0,1,.917.286,1.157,1.157,0,0,1,.4,1.214,1.071,1.071,0,0,1-.765.854,2.009,2.009,0,0,1-.652.107q-2.216,0-4.431,0a1.732,1.732,0,0,1-.743-.144,1.114,1.114,0,0,1-.687-1.019,3.662,3.662,0,0,1,1.1-2.7,14.08,14.08,0,0,1,1.817-1.542,6.591,6.591,0,0,0,1.53-1.484,2.122,2.122,0,0,0,.29-2.18,1.3,1.3,0,0,0-1.545-.732,1.057,1.057,0,0,0-.607.506,1.667,1.667,0,0,1-.766.735,1.066,1.066,0,0,1-1.219-.259,1.046,1.046,0,0,1-.353-1.155,3.484,3.484,0,0,1,1.773-1.953,3.681,3.681,0,0,1,5.073,2.256,4.57,4.57,0,0,1-.7,4.224,9.949,9.949,0,0,1-2.061,2q-.578.457-1.157.91l.016.069" transform="translate(-11.437 -75.49)" fill="#345359"/>
        <path id="Trazado_610585" data-name="Trazado 610585" d="M73.567,107.7q0,2.117,0,4.234c0,.116-.04.249.166.251a1.2,1.2,0,0,1,1.21,1.176A1.148,1.148,0,0,1,73.8,114.6a14.48,14.48,0,0,1-2.947-.016,1.156,1.156,0,0,1-1.033-1.257,1.2,1.2,0,0,1,1.193-1.142c.162-.009.185-.068.185-.206q0-3.1,0-6.2c0-.167-.056-.2-.21-.2a1.243,1.243,0,0,1-1.076-.77,1.135,1.135,0,0,1,.3-1.344,9.113,9.113,0,0,1,1.321-.8,1.869,1.869,0,0,1,.641-.3,1.16,1.16,0,0,1,1.382,1.135c0,1.4,0,2.806,0,4.209" transform="translate(-45.306 -66.406)" fill="#345359"/>
        <path id="Trazado_610586" data-name="Trazado 610586" d="M51.561,145.628a1.212,1.212,0,1,1-1.166-1.239,1.211,1.211,0,0,1,1.166,1.239" transform="translate(-31.885 -93.692)" fill="#345359"/>
        <path id="Trazado_610587" data-name="Trazado 610587" d="M122.463,133.94a3.372,3.372,0,0,1-.27,1.58c-.062.116-.006.177.049.26a4.567,4.567,0,0,1,.78,1.762,4.252,4.252,0,0,1-2.616,4.8,4.1,4.1,0,0,1-4.119-.532,1.234,1.234,0,0,1-.492-1.3,1.2,1.2,0,0,1,1.683-.791,2.446,2.446,0,0,1,.272.168,1.85,1.85,0,0,0,2.9-1.128,1.768,1.768,0,0,0-.439-1.615,4.669,4.669,0,0,0-.473-.429,1.188,1.188,0,0,1-.068-1.728,1.222,1.222,0,0,0,.308-1.4,1.239,1.239,0,0,0-1.983-.439,1.415,1.415,0,0,1-1.094.519,1.142,1.142,0,0,1-1.006-.683,1.117,1.117,0,0,1,.113-1.232,3.607,3.607,0,0,1,5.907.354,3.3,3.3,0,0,1,.551,1.835" transform="translate(-75.115 -84.602)" fill="#345359"/>
      </g>
    </g>
    <g id="Grupo_1072691" data-name="Grupo 1072691" transform="translate(616.87 885.367)">
      <g id="Grupo_1072690" data-name="Grupo 1072690" clip-path="url(#clip-path-4)">
        <path id="Trazado_610588" data-name="Trazado 610588" d="M91.867.011C99,.011,104.9,4.56,106.394,11.133a15.619,15.619,0,0,1-1.8,10.9,21.717,21.717,0,0,1-2.619,3.877,8.524,8.524,0,0,0-1.064,1.588,1.067,1.067,0,0,0,.147,1.391,2.748,2.748,0,0,1,.276,3.193,1.08,1.08,0,0,0-.045,1.15,2.919,2.919,0,0,1-1.9,4.355,1.2,1.2,0,0,0-.917.857,6.86,6.86,0,0,1-12.872-.1.979.979,0,0,0-.762-.731A2.911,2.911,0,0,1,82.8,33.244a1.062,1.062,0,0,0-.02-1.15,2.763,2.763,0,0,1,.379-3.356.937.937,0,0,0,.134-1.229,10.556,10.556,0,0,0-1.2-1.755,19.081,19.081,0,0,1-4.584-10.9C77.053,7.6,82.3,1.78,88.922.333A11.323,11.323,0,0,1,91.867.011m12.826,14.033a9.914,9.914,0,0,0-.515-3.462A12.768,12.768,0,0,0,87.887,2.718c-5.395,1.946-8.679,6.606-8.377,12.034a16.146,16.146,0,0,0,3.3,8.632,12.907,12.907,0,0,1,1.915,2.668A2.3,2.3,0,0,0,87.641,27.7a1.392,1.392,0,0,1,.213,0c1.443,0,1.413.006,1.085-1.371-1.042-4.38-2.056-8.767-3.09-13.149-.139-.589-.208-1.148.422-1.486s1.068.059,1.484.477c1.228,1.236,2.485,2.443,3.676,3.713.5.529.787.591,1.316.022,1.234-1.326,2.55-2.574,3.826-3.861a1.076,1.076,0,0,1,1.325-.366c.606.292.595.822.49,1.374-.046.244-.1.487-.16.728-.9,3.685-1.807,7.367-2.689,11.056-.732,3.061-.719,3.054,2.475,2.874a.844.844,0,0,0,.876-.594,11.1,11.1,0,0,1,1.824-2.859,16.576,16.576,0,0,0,3.978-10.217M88.879,15.991l-.207.163a3.354,3.354,0,0,0,.044.492c.817,3.445,1.66,6.885,2.44,10.338.135.6.388.719.926.732.578.014.784-.211.907-.763.425-1.9.923-3.784,1.376-5.678.4-1.673.778-3.352,1.166-5.029l-.268-.18c-.722.766-1.454,1.524-2.165,2.3a1.181,1.181,0,0,1-1.99.023l-2.23-2.4M92.027,31.66c2.1,0,4.2-.014,6.293.008.726.007,1.357-.164,1.362-.973s-.627-1-1.349-1q-6.293.013-12.586,0c-.728,0-1.325.2-1.3,1.037.026.769.6.939,1.285.933,2.1-.018,4.2-.006,6.293-.006m.021,4.011c2.06,0,4.121-.01,6.181.005.743.005,1.454-.122,1.451-1,0-.915-.762-.949-1.478-.947q-6.181.011-12.363,0c-.683,0-1.377.049-1.389.92-.012.9.67,1.034,1.417,1.029,2.06-.014,4.121,0,6.181,0m-.037,2.068v-.045c-1.242,0-2.485.013-3.727-.006-.578-.009-.832.125-.466.714a4.92,4.92,0,0,0,8.459.056c.353-.563.172-.732-.432-.725-1.278.016-2.556,0-3.834,0" transform="translate(-60.957 0)" fill="#345359"/>
        <path id="Trazado_610589" data-name="Trazado 610589" d="M41.2,200.726l8.228-4.74c.831-.478,1.646-.985,2.5-1.427a4.636,4.636,0,0,1,6.273,1.8,4.581,4.581,0,0,1-1.716,6.293q-12.147,7.071-24.34,14.065a7.469,7.469,0,0,1-5.877.606,48.594,48.594,0,0,0-8.169-1.909,16.972,16.972,0,0,0-4.875.276c-.441.088-.7.165-.7.7a1.709,1.709,0,0,1-1.458,1.719c-.955.268-1.9.561-2.871.782a1.861,1.861,0,0,1-2.471-1.527Q2.932,207,.151,196.624c-.43-1.6.046-2.438,1.623-2.868.821-.224,1.641-.448,2.466-.652a1.785,1.785,0,0,1,2.431,1.108c.256.614.566.473.978.382a47.06,47.06,0,0,0,6.152-2.042,7.025,7.025,0,0,1,6.882.686c1.34.923,2.841,1.609,4.223,2.476a6.721,6.721,0,0,0,5.717.767c1.055-.307,2.141-.52,3.175-.885a5.446,5.446,0,0,1,7.4,5.13m-12.537,6.933c-.545-.056-1.113-.086-1.671-.178-.713-.118-1.225-.471-1.045-1.295.174-.8.822-.859,1.43-.682a5.652,5.652,0,0,0,3.049-.111c2.061-.524,4.113-1.084,6.158-1.665a3.242,3.242,0,0,0,2.447-3.985,3.3,3.3,0,0,0-4.248-2.338c-1.3.342-2.611.666-3.9,1.049a8.1,8.1,0,0,1-6.659-.83c-1.655-.966-3.358-1.858-4.968-2.892a4.677,4.677,0,0,0-4.268-.44,59.951,59.951,0,0,1-6.662,2.191c-.851.172-.913.472-.716,1.194q2.086,7.642,4.109,15.3c.176.669.376.908,1.142.75a18.138,18.138,0,0,1,6.35-.2,48.227,48.227,0,0,1,7.013,1.73,6.24,6.24,0,0,0,5.226-.443q11.884-6.89,23.786-13.749A2.658,2.658,0,1,0,52.57,196.5q-3.608,2.055-7.2,4.143a34.824,34.824,0,0,0-5.19,3.12,9.936,9.936,0,0,1-4.353,2.27c-2.382.527-4.665,1.5-7.166,1.627m-20.6,9.184c.375-.1.75-.207,1.126-.307,1.34-.355,1.33-.351.973-1.682q-2.386-8.88-4.759-17.763c-.571-2.149-.543-2.13-2.645-1.517-.583.17-.72.38-.549.966.487,1.666.918,3.348,1.366,5.025q1.949,7.291,3.906,14.58c.075.279-.019.8.583.7" transform="translate(0 -151.012)" fill="#345359"/>
        <path id="Trazado_610590" data-name="Trazado 610590" d="M234.844,65.585c-.636,0-1.274.028-1.909-.008s-1.089-.36-1.084-1.051a.959.959,0,0,1,1.037-.985c1.342-.038,2.687-.042,4.028.007a.935.935,0,0,1,.975,1.035.98.98,0,0,1-1.033.99c-.669.039-1.343.009-2.015.011" transform="translate(-182.388 -49.962)" fill="#345359"/>
        <path id="Trazado_610591" data-name="Trazado 610591" d="M34.823,65.579c-.671,0-1.344.034-2.012-.01a.976.976,0,0,1-1.023-1,.939.939,0,0,1,.985-1.025c1.34-.05,2.683-.048,4.023-.006a.944.944,0,0,1,1.02.994c0,.7-.449,1.008-1.087,1.041s-1.271.007-1.906.007v0" transform="translate(-25.007 -49.96)" fill="#345359"/>
        <path id="Trazado_610592" data-name="Trazado 610592" d="M51.945,110.269a1,1,0,0,1-.576.767q-1.653.963-3.316,1.907a.947.947,0,0,1-1.458-.321,1.009,1.009,0,0,1,.487-1.439c1.079-.611,2.139-1.256,3.231-1.841.861-.461,1.619-.089,1.632.928" transform="translate(-36.546 -85.86)" fill="#345359"/>
        <path id="Trazado_610593" data-name="Trazado 610593" d="M220.771,109.024a2.792,2.792,0,0,1,.523.185c1.112.627,2.222,1.257,3.321,1.906a.96.96,0,0,1,.458,1.433.979.979,0,0,1-1.478.286c-1.108-.635-2.22-1.264-3.32-1.912a1,1,0,0,1-.488-1.274.95.95,0,0,1,.984-.624" transform="translate(-172.842 -85.765)" fill="#345359"/>
        <path id="Trazado_610594" data-name="Trazado 610594" d="M51.911,11.957c-.062.7-.537,1.133-1.135.905a19.971,19.971,0,0,1-4.052-2.289A.887.887,0,0,1,46.559,9.4a.811.811,0,0,1,1.077-.447,26.812,26.812,0,0,1,4.037,2.321c.219.151.218.431.239.681" transform="translate(-36.515 -6.988)" fill="#345359"/>
        <path id="Trazado_610595" data-name="Trazado 610595" d="M220.7,12.937c-.444-.1-.8-.254-.93-.68a.911.911,0,0,1,.357-1.13c1.215-.732,2.435-1.457,3.686-2.123a.893.893,0,0,1,1.276.407.9.9,0,0,1-.335,1.3c-1.181.718-2.389,1.391-3.591,2.072a2.3,2.3,0,0,1-.462.155" transform="translate(-172.836 -6.984)" fill="#345359"/>
      </g>
    </g>
    <g id="Grupo_1072693" data-name="Grupo 1072693" transform="translate(612.772 988.85)">
      <g id="Grupo_1072692" data-name="Grupo 1072692" clip-path="url(#clip-path-5)">
        <path id="Trazado_610596" data-name="Trazado 610596" d="M51.989,98.24c-3.721,0-7.441.006-11.162-.006a1.635,1.635,0,0,0-1.316.486,6.566,6.566,0,0,1-4.061,1.631,13.1,13.1,0,0,1-6.283-.579,2.577,2.577,0,0,1-1.116-.584c-.864-1.065-2.011-.957-3.176-.955q-10.365.019-20.73.006c-3.293,0-4.642-1.8-3.982-5.028,1.3-6.372,2.5-12.764,3.75-19.148.352-1.8.69-3.611,1.069-5.41a2.231,2.231,0,0,1,2.173-1.836,6.37,6.37,0,0,1,1.062,0c.8.087,1.283-.055,1.389-1.033a1.941,1.941,0,0,1,1.838-1.775c.773-.084.841-.364.705-1.094a8.918,8.918,0,0,1,.885-6.175,2.029,2.029,0,0,0,.37-1.278,4.45,4.45,0,0,1,2.2-4.4c.316-.206.606-.326.695-.816a5.41,5.41,0,0,1,5.929-4.72,2.513,2.513,0,0,0,2.117-.8A7.605,7.605,0,0,1,33.1,43.46a1.186,1.186,0,0,0,1.407-.056,4.5,4.5,0,0,1,5.962.78,1.482,1.482,0,0,0,1.055.573,9.469,9.469,0,0,1,9,7.262,1.13,1.13,0,0,0,.753.779A4.555,4.555,0,0,1,54.2,58.264a1.438,1.438,0,0,0,.084,1.024,6.653,6.653,0,0,1,.7,3.809c-.033.443-.069.823.562.912A2.15,2.15,0,0,1,57.47,66.1c.07.619.34.766.887.721.387-.032.779-.011,1.169,0a2.275,2.275,0,0,1,2.519,2.063q2.333,11.916,4.645,23.836c.074.381.175.758.239,1.141.436,2.613-1,4.361-3.67,4.38-3.756.027-7.512.007-11.269.007M59.14,90.8a2.2,2.2,0,0,0-.039-1.128q-1.024-6.175-2.04-12.35-.86-5.18-1.744-10.357c-.053-.308.038-.772-.5-.8-.375-.017-.768-.146-1.034.3a4.382,4.382,0,0,0-.547,1.137,6.5,6.5,0,0,1-1.9,3.5c-1.422,1.165-1.619,2.211-.784,3.858a3.272,3.272,0,0,1-1.333,4.1,3.354,3.354,0,0,1-4.212-.372,9.784,9.784,0,0,0-3.861-2.319,6.387,6.387,0,0,1-4.071-3.328c-.326-.763-2.314-1.317-2.965-.8a7.1,7.1,0,0,1-10.477-1.712.721.721,0,0,0-.859-.386,8.942,8.942,0,0,1-9.037-3.664c-.478-.637-1.008-.305-1.528-.315-.605-.012-.493.522-.549.858Q10.052,76.6,8.471,86.174c-.251,1.518-.491,3.037-.752,4.653a39.143,39.143,0,0,1,23.968-.182c.848.261.673-.259.673-.686q.007-6.22,0-12.439a8.26,8.26,0,0,1,.027-.955,1.041,1.041,0,0,1,1.134-1.023,1.024,1.024,0,0,1,1.066.978,7.358,7.358,0,0,1,.034.955c0,4.076.043,8.152-.026,12.226-.019,1.1.324,1.087,1.179.814a36.06,36.06,0,0,1,9.063-1.606,39.034,39.034,0,0,1,14.3,1.89m-9.3-21.445a6.991,6.991,0,0,1-5.816-.97,1.763,1.763,0,0,0-1.455-.282A3.743,3.743,0,0,1,38.7,66.462c-.459-.632-.655-1.332.094-1.864.679-.482,1.257-.2,1.706.453a1.619,1.619,0,0,0,2.223.633,1.588,1.588,0,0,0,.742-2.184,1.065,1.065,0,0,1,.61-1.557c.769-.3,1.3.121,1.556.859a3.819,3.819,0,0,1-.144,3.1c-.235.452-.169.708.294.9a4.817,4.817,0,0,0,5.033-.469,4.657,4.657,0,0,0,1.915-4.563c-.081-.67-.306-.894-.93-.469a1.013,1.013,0,0,1-1.36-.117,1.069,1.069,0,0,1-.292-1.258c.168-.428.6-.58.933-.836a2.372,2.372,0,0,0-1.8-4.25,4.479,4.479,0,0,0-1.165.494,1.118,1.118,0,0,1-1.636-.784,1.271,1.271,0,0,1,.991-1.446c.9-.319.85-.792.53-1.525a7.444,7.444,0,0,0-5.66-4.491c-.338-.07-.628-.108-.708.36a1.026,1.026,0,0,1-1.2.941c-.716-.072-.95-.579-1.045-1.256a2.383,2.383,0,0,0-2.287-2.238,2.356,2.356,0,0,0-2.428,2.192c-.136.795-.42,1.416-1.331,1.285s-1.12-.878-.9-1.615c.3-1.009-.245-1.324-1.015-1.542a6.287,6.287,0,0,0-1.551-.331,5.57,5.57,0,0,0-5.507,3.86c-.26.7-.624,1.258-1.455,1.047a1.044,1.044,0,0,1-.777-1.55c.192-.507-.11-.534-.471-.532a3.618,3.618,0,0,0-2.908,2.042c-.2.465-.174.7.373.814a4.264,4.264,0,0,1,2.268,1.3c.528.561.9,1.186.215,1.848-.657.638-1.241.354-1.826-.228a2.367,2.367,0,1,0-3.189,3.466c.545.469,1.048.941.529,1.692s-1.2.652-1.84.16c-.46-.354-.593-.244-.767.281A6.932,6.932,0,0,0,21.5,67.991c.369-.031.965.131,1.061-.4.107-.593-.272-.881-.886-1.071a3.662,3.662,0,0,1-2.606-2.95c-.22-1.088.111-1.776.869-1.859,1-.11,1.277.55,1.363,1.375a.975.975,0,0,0,.046.207A1.509,1.509,0,0,0,22.525,64.4c.636.106.548-.56.709-.882.386-.771.914-1.282,1.752-.879.883.426.661,1.155.306,1.909a4.831,4.831,0,0,0,7.724,5.586,1.675,1.675,0,0,1,1.911-.455,8.36,8.36,0,0,0,5.115.139c.8-.224,1.475-.024,1.683.815S41.3,71.8,40.618,72.051c-.406.152-1.137-.082-1.173.425s.629.787,1.067,1.08a3.378,3.378,0,0,0,.558.305c1.98.836,4.083,1.436,5.543,3.2a1.011,1.011,0,0,0,1.376.053,1.181,1.181,0,0,0,.486-1.393c-.444-1.625-.669-1.782-2.289-1.447-.035.007-.071.008-.1.018-.78.239-1.492.124-1.7-.736-.226-.929.394-1.277,1.241-1.472a6.912,6.912,0,0,0,4.22-2.732M52.2,95.93q5.422,0,10.845,0c1.545,0,1.877-.45,1.585-1.939-1.114-5.69-2.2-11.384-3.3-17.076-.465-2.395-.99-4.779-1.4-7.183-.18-1.041-.9-.56-1.39-.606-.831-.076-.411.562-.368.875.2,1.436.44,2.865.677,4.294.875,5.268,1.733,10.539,2.643,15.8.353,2.042-1.082,3.49-3.047,2.868A39.03,39.03,0,0,0,40.8,91.651c-.721.1-1,.29-.875,1.044a11.161,11.161,0,0,1,.155,2.116c-.021.852.262,1.154,1.166,1.141,3.65-.053,7.3-.022,10.951-.022m-37.4,0c3.65,0,7.3-.029,10.95.021.9.012,1.181-.284,1.161-1.142a17.745,17.745,0,0,1,.168-2.329c.052-.475-.081-.707-.588-.787A41.632,41.632,0,0,0,16.005,91.4a38.062,38.062,0,0,0-7.462,1.563A2.29,2.29,0,0,1,5.437,90.5c.208-1.469.5-2.926.744-4.391q1.337-8.058,2.647-16.121c.044-.273.476-.879-.271-.852-.516.019-1.3-.485-1.482.6-.286,1.707-.681,3.4-1.01,5.1C4.829,81.225,3.608,87.614,2.363,94c-.29,1.486.041,1.929,1.592,1.93q5.422.005,10.844,0m14.274-.3c-.037.916-.245,1.611.659,1.923a10.912,10.912,0,0,0,7.569-.035.89.89,0,0,0,.665-1.042c-.109-1.019-.2-2.043-.225-3.067-.023-.818-.271-1.238-1.11-.792a6.352,6.352,0,0,1-6.319-.014c-.031-.016-.068-.02-.1-.034-.59-.26-.911-.144-.94.576-.038.918-.144,1.833-.2,2.484" transform="translate(0 -33.548)" fill="#345359"/>
        <path id="Trazado_610597" data-name="Trazado 610597" d="M104.723,8.836c-.04.632-.254,1.017-.749,1.185a.97.97,0,0,1-1.288-.436c-.534-1.149-1.016-2.326-1.445-3.518a.977.977,0,0,1,.53-1.257.967.967,0,0,1,1.334.264,21.277,21.277,0,0,1,1.618,3.763" transform="translate(-79.654 -3.669)" fill="#345359"/>
        <path id="Trazado_610598" data-name="Trazado 610598" d="M32.942,80.473a19.7,19.7,0,0,1-3.567-1.532.974.974,0,0,1-.27-1.331.961.961,0,0,1,1.228-.57c1.187.431,2.362.907,3.5,1.45a.953.953,0,0,1,.476,1.264c-.2.519-.581.781-1.369.719" transform="translate(-22.803 -60.604)" fill="#345359"/>
        <path id="Trazado_610599" data-name="Trazado 610599" d="M261.826,80.544c-.8.033-1.132-.247-1.325-.71a.919.919,0,0,1,.376-1.207,15.01,15.01,0,0,1,3.792-1.543.923.923,0,0,1,1.07.674A.958.958,0,0,1,265.447,79a18.055,18.055,0,0,1-3.621,1.548" transform="translate(-205.02 -60.667)" fill="#345359"/>
        <path id="Trazado_610600" data-name="Trazado 610600" d="M200.55,6.3a22.7,22.7,0,0,1-1.491,3.5.965.965,0,0,1-1.307.355.989.989,0,0,1-.63-1.292c.41-1.158.879-2.3,1.393-3.416a1.019,1.019,0,0,1,1.355-.506c.543.184.743.609.681,1.361" transform="translate(-155.14 -3.824)" fill="#345359"/>
        <path id="Trazado_610601" data-name="Trazado 610601" d="M64.135,38.739a1.032,1.032,0,0,1-.5,1,1,1,0,0,1-1.2-.006A9.685,9.685,0,0,1,61,38.326a1.026,1.026,0,0,1,.155-1.515.974.974,0,0,1,1.436-.006c.58.584,1.392,1.008,1.541,1.934" transform="translate(-47.818 -28.73)" fill="#345359"/>
        <path id="Trazado_610602" data-name="Trazado 610602" d="M238.236,38.823a3.722,3.722,0,0,1,2.261-2.266,1.113,1.113,0,0,1,.989,1.578,4.25,4.25,0,0,1-1.664,1.714,1.064,1.064,0,0,1-1.586-1.025" transform="translate(-187.559 -28.781)" fill="#345359"/>
        <path id="Trazado_610603" data-name="Trazado 610603" d="M152.15,1.746c0-.563-.068-1.163.5-1.529a1.051,1.051,0,0,1,1.438.15,2.649,2.649,0,0,1-.015,2.681,1.034,1.034,0,0,1-1.435.127c-.511-.359-.488-.9-.485-1.43" transform="translate(-119.785 0)" fill="#345359"/>
        <path id="Trazado_610604" data-name="Trazado 610604" d="M141.921,113.381a8.151,8.151,0,0,1-3.3-1.865c-.545-.542-.777-1.154-.232-1.772.56-.635,1.2-.476,1.757.075a4.576,4.576,0,0,0,7.72-2.148c.171-.736.6-1.273,1.426-1.034.868.249.967.966.745,1.721a6.683,6.683,0,0,1-4.552,4.779,2.211,2.211,0,0,0-1.4,1.1,5.262,5.262,0,0,1-4.5,2.753c-.743.043-1.388-.121-1.447-1.009-.057-.853.477-1.17,1.259-1.234a3.241,3.241,0,0,0,2.519-1.37" transform="translate(-108.707 -83.909)" fill="#345359"/>
        <path id="Trazado_610605" data-name="Trazado 610605" d="M115.892,90.46a5.327,5.327,0,0,1,4.765-5.183c.736-.058,1.389.091,1.518.948.137.914-.45,1.252-1.244,1.375a2.818,2.818,0,0,0-2.762,2.81c-.09.753-.446,1.228-1.2,1.194a1.047,1.047,0,0,1-1.075-1.143" transform="translate(-91.24 -67.129)" fill="#345359"/>
      </g>
    </g>
    <path id="Trazado_611116" data-name="Trazado 611116" d="M11.32-4.333a4.673,4.673,0,0,1-.721,2.36A4.35,4.35,0,0,1,8.75-.387a6.3,6.3,0,0,1-2.72.563A5.025,5.025,0,0,1,2.057-1.468,6.786,6.786,0,0,1,.606-6.108v-.633a7.746,7.746,0,0,1,.655-3.292,4.961,4.961,0,0,1,1.885-2.18,5.26,5.26,0,0,1,2.848-.769,5.516,5.516,0,0,1,3.744,1.226,4.844,4.844,0,0,1,1.608,3.379H8.271a2.292,2.292,0,0,0-.589-1.679,2.422,2.422,0,0,0-1.687-.51A1.843,1.843,0,0,0,4.307-9.7a5.536,5.536,0,0,0-.562,2.751v.905A6.125,6.125,0,0,0,4.258-3.12a1.882,1.882,0,0,0,1.771.879,2.369,2.369,0,0,0,1.626-.5,2.126,2.126,0,0,0,.6-1.591Zm7.075-2.5L17.42-6.9a1.752,1.752,0,0,0-1.793.879V0H12.665V-9.51h2.777l.1,1.222a2.294,2.294,0,0,1,2.083-1.4,2.888,2.888,0,0,1,.826.105Zm5.5,7a4.889,4.889,0,0,1-3.542-1.305A4.507,4.507,0,0,1,19-4.526v-.246a5.84,5.84,0,0,1,.541-2.575A3.955,3.955,0,0,1,21.12-9.075a4.763,4.763,0,0,1,2.461-.611,4.117,4.117,0,0,1,3.164,1.244,4.887,4.887,0,0,1,1.16,3.467v1.151H22.017a2.135,2.135,0,0,0,.694,1.257,2.066,2.066,0,0,0,1.389.457,2.662,2.662,0,0,0,2.2-.984l1.354,1.6A3.784,3.784,0,0,1,26.082-.277,5.3,5.3,0,0,1,23.9.176ZM23.563-7.4q-1.3,0-1.547,1.723H25v-.229a1.467,1.467,0,0,0-.36-1.1A1.434,1.434,0,0,0,23.563-7.4ZM34.453,0a3.344,3.344,0,0,1-.281-.853A2.754,2.754,0,0,1,31.887.176,3.374,3.374,0,0,1,29.6-.637a2.588,2.588,0,0,1-.94-2.043A2.66,2.66,0,0,1,29.8-5.019a5.821,5.821,0,0,1,3.322-.791h.914v-.5q0-1.316-1.134-1.316a.927.927,0,0,0-1.055,1.042H28.89a2.655,2.655,0,0,1,1.173-2.239,4.931,4.931,0,0,1,2.993-.86A4.323,4.323,0,0,1,35.93-8.8a3.086,3.086,0,0,1,1.081,2.435v4.21a4.311,4.311,0,0,0,.4,2V0ZM32.6-1.934a1.652,1.652,0,0,0,.918-.237,1.487,1.487,0,0,0,.523-.536V-4.228h-.861q-1.547,0-1.547,1.389a.848.848,0,0,0,.272.655A.986.986,0,0,0,32.6-1.934Zm9.5-9.94V-9.51h1.564v2.057H42.1V-3.1a1.111,1.111,0,0,0,.193.747,1.037,1.037,0,0,0,.765.211A4.345,4.345,0,0,0,43.8-2.2V-.079a5.466,5.466,0,0,1-1.67.255,3.1,3.1,0,0,1-2.259-.721,2.954,2.954,0,0,1-.729-2.188v-4.72H37.925V-9.51h1.213v-2.364ZM47.953,0H44.982V-9.51h2.971ZM44.807-11.962A1.322,1.322,0,0,1,45.264-13a1.724,1.724,0,0,1,1.187-.4,1.724,1.724,0,0,1,1.187.4,1.322,1.322,0,0,1,.457,1.037,1.322,1.322,0,0,1-.457,1.037,1.724,1.724,0,0,1-1.187.4,1.724,1.724,0,0,1-1.187-.4A1.322,1.322,0,0,1,44.807-11.962Zm8.763,8.438,1.5-5.985h3.12L55.09,0H52.066l-3.1-9.51h3.129ZM62.2,0H59.229V-9.51H62.2ZM59.054-11.962A1.322,1.322,0,0,1,59.511-13a1.724,1.724,0,0,1,1.187-.4,1.724,1.724,0,0,1,1.187.4,1.322,1.322,0,0,1,.457,1.037,1.322,1.322,0,0,1-.457,1.037,1.724,1.724,0,0,1-1.187.4,1.724,1.724,0,0,1-1.187-.4A1.322,1.322,0,0,1,59.054-11.962Zm4.6,7.137a5.809,5.809,0,0,1,.976-3.56,3.211,3.211,0,0,1,2.725-1.3,2.731,2.731,0,0,1,2.145,1V-13.5h2.971V0H69.8l-.149-1.02a2.8,2.8,0,0,1-2.32,1.2,3.205,3.205,0,0,1-2.689-1.3A5.993,5.993,0,0,1,63.65-4.825Zm2.962.185q0,2.531,1.477,2.531A1.458,1.458,0,0,0,69.5-2.936V-6.557A1.419,1.419,0,0,0,68.106-7.4q-1.371,0-1.485,2.215ZM79.506,0a3.344,3.344,0,0,1-.281-.853A2.754,2.754,0,0,1,76.939.176a3.374,3.374,0,0,1-2.285-.813,2.588,2.588,0,0,1-.94-2.043,2.66,2.66,0,0,1,1.143-2.338,5.821,5.821,0,0,1,3.322-.791h.914v-.5q0-1.316-1.134-1.316A.927.927,0,0,0,76.9-6.587H73.942a2.655,2.655,0,0,1,1.173-2.239,4.931,4.931,0,0,1,2.993-.86,4.323,4.323,0,0,1,2.874.888,3.086,3.086,0,0,1,1.081,2.435v4.21a4.311,4.311,0,0,0,.4,2V0ZM77.651-1.934a1.652,1.652,0,0,0,.918-.237,1.487,1.487,0,0,0,.523-.536V-4.228h-.861q-1.547,0-1.547,1.389a.848.848,0,0,0,.272.655A.986.986,0,0,0,77.651-1.934Zm5.678-2.892a5.809,5.809,0,0,1,.976-3.56,3.211,3.211,0,0,1,2.725-1.3,2.731,2.731,0,0,1,2.145,1V-13.5h2.971V0H89.481l-.149-1.02a2.8,2.8,0,0,1-2.32,1.2,3.205,3.205,0,0,1-2.689-1.3A5.993,5.993,0,0,1,83.329-4.825Zm2.962.185q0,2.531,1.477,2.531a1.458,1.458,0,0,0,1.406-.826V-6.557A1.419,1.419,0,0,0,87.785-7.4q-1.371,0-1.485,2.215Z" transform="translate(854 710)" fill="#12263f"/>
    <path id="Trazado_611115" data-name="Trazado 611115" d="M11.32-4.333a4.673,4.673,0,0,1-.721,2.36A4.35,4.35,0,0,1,8.75-.387a6.3,6.3,0,0,1-2.72.563A5.025,5.025,0,0,1,2.057-1.468,6.786,6.786,0,0,1,.606-6.108v-.633a7.746,7.746,0,0,1,.655-3.292,4.961,4.961,0,0,1,1.885-2.18,5.26,5.26,0,0,1,2.848-.769,5.516,5.516,0,0,1,3.744,1.226,4.844,4.844,0,0,1,1.608,3.379H8.271a2.292,2.292,0,0,0-.589-1.679,2.422,2.422,0,0,0-1.687-.51A1.843,1.843,0,0,0,4.307-9.7a5.536,5.536,0,0,0-.562,2.751v.905A6.125,6.125,0,0,0,4.258-3.12a1.882,1.882,0,0,0,1.771.879,2.369,2.369,0,0,0,1.626-.5,2.126,2.126,0,0,0,.6-1.591Zm.949-.51a5.613,5.613,0,0,1,.554-2.536,3.96,3.96,0,0,1,1.591-1.709,4.791,4.791,0,0,1,2.435-.6,4.373,4.373,0,0,1,3.366,1.323,5.076,5.076,0,0,1,1.23,3.6v.105A4.925,4.925,0,0,1,20.21-1.129,4.384,4.384,0,0,1,16.866.176a4.434,4.434,0,0,1-3.261-1.217,4.761,4.761,0,0,1-1.327-3.3Zm2.962.185a3.538,3.538,0,0,0,.413,1.934,1.376,1.376,0,0,0,1.222.615q1.582,0,1.617-2.435v-.3q0-2.558-1.635-2.558-1.485,0-1.608,2.206ZM25.55-9.51l.1,1.116a3.27,3.27,0,0,1,2.716-1.292A2.407,2.407,0,0,1,30.8-8.253a3.165,3.165,0,0,1,2.795-1.433q2.892,0,2.971,3.5V0H33.592V-6a1.813,1.813,0,0,0-.246-1.063,1.048,1.048,0,0,0-.9-.334,1.4,1.4,0,0,0-1.31.782l.009.123V0H28.178V-5.985a1.906,1.906,0,0,0-.237-1.081,1.045,1.045,0,0,0-.905-.334,1.42,1.42,0,0,0-1.3.782V0H22.772V-9.51ZM47.083-4.685a5.735,5.735,0,0,1-1,3.538A3.2,3.2,0,0,1,43.392.176a2.742,2.742,0,0,1-2.153-.958V3.656H38.276V-9.51h2.769l.088.879a2.742,2.742,0,0,1,2.241-1.055,3.224,3.224,0,0,1,2.733,1.3,5.805,5.805,0,0,1,.976,3.564Zm-2.962-.185q0-2.531-1.477-2.531a1.394,1.394,0,0,0-1.406.756V-2.9a1.439,1.439,0,0,0,1.424.791q1.415,0,1.459-2.443ZM52.989.176a4.889,4.889,0,0,1-3.542-1.305,4.507,4.507,0,0,1-1.354-3.4v-.246a5.84,5.84,0,0,1,.541-2.575,3.955,3.955,0,0,1,1.578-1.727,4.763,4.763,0,0,1,2.461-.611,4.117,4.117,0,0,1,3.164,1.244A4.887,4.887,0,0,1,57-4.975v1.151H51.108A2.135,2.135,0,0,0,51.8-2.566a2.066,2.066,0,0,0,1.389.457,2.662,2.662,0,0,0,2.2-.984l1.354,1.6A3.784,3.784,0,0,1,55.173-.277,5.3,5.3,0,0,1,52.989.176ZM52.655-7.4q-1.3,0-1.547,1.723H54.1v-.229a1.467,1.467,0,0,0-.36-1.1A1.434,1.434,0,0,0,52.655-7.4Zm8.982-4.474V-9.51H63.2v2.057H61.638V-3.1a1.111,1.111,0,0,0,.193.747,1.037,1.037,0,0,0,.765.211,4.345,4.345,0,0,0,.738-.053V-.079a5.466,5.466,0,0,1-1.67.255,3.1,3.1,0,0,1-2.259-.721,2.954,2.954,0,0,1-.729-2.188v-4.72H57.463V-9.51h1.213v-2.364ZM67.491,0H64.521V-9.51h2.971ZM64.345-11.962A1.322,1.322,0,0,1,64.8-13a1.724,1.724,0,0,1,1.187-.4,1.724,1.724,0,0,1,1.187.4,1.322,1.322,0,0,1,.457,1.037,1.322,1.322,0,0,1-.457,1.037,1.724,1.724,0,0,1-1.187.4,1.724,1.724,0,0,1-1.187-.4A1.322,1.322,0,0,1,64.345-11.962Zm8.42.088V-9.51h1.564v2.057H72.765V-3.1a1.111,1.111,0,0,0,.193.747,1.037,1.037,0,0,0,.765.211,4.345,4.345,0,0,0,.738-.053V-.079a5.466,5.466,0,0,1-1.67.255,3.1,3.1,0,0,1-2.259-.721A2.954,2.954,0,0,1,69.8-2.733v-4.72H68.59V-9.51H69.8v-2.364ZM78.618,0H75.647V-9.51h2.971ZM75.472-11.962A1.322,1.322,0,0,1,75.929-13a1.724,1.724,0,0,1,1.187-.4A1.724,1.724,0,0,1,78.3-13a1.322,1.322,0,0,1,.457,1.037,1.322,1.322,0,0,1-.457,1.037,1.724,1.724,0,0,1-1.187.4,1.724,1.724,0,0,1-1.187-.4A1.322,1.322,0,0,1,75.472-11.962Zm8.763,8.438,1.5-5.985h3.12L85.755,0H82.731l-3.1-9.51h3.129ZM92.865,0H89.895V-9.51h2.971ZM89.719-11.962A1.322,1.322,0,0,1,90.176-13a1.724,1.724,0,0,1,1.187-.4,1.724,1.724,0,0,1,1.187.4,1.322,1.322,0,0,1,.457,1.037,1.322,1.322,0,0,1-.457,1.037,1.724,1.724,0,0,1-1.187.4,1.724,1.724,0,0,1-1.187-.4A1.322,1.322,0,0,1,89.719-11.962Zm4.6,7.137a5.809,5.809,0,0,1,.976-3.56,3.211,3.211,0,0,1,2.725-1.3,2.731,2.731,0,0,1,2.145,1V-13.5h2.971V0h-2.663l-.149-1.02A2.8,2.8,0,0,1,98,.176a3.205,3.205,0,0,1-2.689-1.3A5.993,5.993,0,0,1,94.315-4.825Zm2.962.185q0,2.531,1.477,2.531a1.458,1.458,0,0,0,1.406-.826V-6.557A1.419,1.419,0,0,0,98.771-7.4q-1.371,0-1.485,2.215ZM110.171,0a3.344,3.344,0,0,1-.281-.853A2.754,2.754,0,0,1,107.6.176a3.374,3.374,0,0,1-2.285-.813,2.588,2.588,0,0,1-.94-2.043,2.66,2.66,0,0,1,1.143-2.338,5.821,5.821,0,0,1,3.322-.791h.914v-.5q0-1.316-1.134-1.316a.927.927,0,0,0-1.055,1.042h-2.962a2.655,2.655,0,0,1,1.173-2.239,4.931,4.931,0,0,1,2.993-.86,4.323,4.323,0,0,1,2.874.888,3.086,3.086,0,0,1,1.081,2.435v4.21a4.311,4.311,0,0,0,.4,2V0Zm-1.854-1.934a1.652,1.652,0,0,0,.918-.237,1.487,1.487,0,0,0,.523-.536V-4.228H108.9q-1.547,0-1.547,1.389a.848.848,0,0,0,.272.655A.986.986,0,0,0,108.316-1.934Zm5.678-2.892a5.809,5.809,0,0,1,.976-3.56,3.211,3.211,0,0,1,2.725-1.3,2.731,2.731,0,0,1,2.145,1V-13.5h2.971V0h-2.663L120-1.02a2.8,2.8,0,0,1-2.32,1.2,3.205,3.205,0,0,1-2.689-1.3A5.993,5.993,0,0,1,113.994-4.825Zm2.962.185q0,2.531,1.477,2.531a1.458,1.458,0,0,0,1.406-.826V-6.557A1.419,1.419,0,0,0,118.45-7.4q-1.371,0-1.485,2.215Z" transform="translate(890 817.02)" fill="#12263f"/>
    <path id="Trazado_611114" data-name="Trazado 611114" d="M4.254,0H1.178V-12.8H4.254ZM8.982-9.51l.1,1.116a3.225,3.225,0,0,1,2.716-1.292,2.713,2.713,0,0,1,2.219.888,4.226,4.226,0,0,1,.76,2.672V0H11.8V-6a1.6,1.6,0,0,0-.29-1.059A1.342,1.342,0,0,0,10.459-7.4a1.413,1.413,0,0,0-1.292.686V0H6.205V-9.51Zm10.151,0,.1,1.116a3.225,3.225,0,0,1,2.716-1.292,2.713,2.713,0,0,1,2.219.888,4.226,4.226,0,0,1,.76,2.672V0H21.955V-6a1.6,1.6,0,0,0-.29-1.059A1.342,1.342,0,0,0,20.61-7.4a1.413,1.413,0,0,0-1.292.686V0H16.356V-9.51Zm7.058,4.667a5.613,5.613,0,0,1,.554-2.536,3.96,3.96,0,0,1,1.591-1.709,4.791,4.791,0,0,1,2.435-.6,4.373,4.373,0,0,1,3.366,1.323,5.076,5.076,0,0,1,1.23,3.6v.105a4.925,4.925,0,0,1-1.235,3.529A4.384,4.384,0,0,1,30.788.176a4.434,4.434,0,0,1-3.261-1.217,4.761,4.761,0,0,1-1.327-3.3Zm2.962.185a3.538,3.538,0,0,0,.413,1.934,1.376,1.376,0,0,0,1.222.615q1.582,0,1.617-2.435v-.3q0-2.558-1.635-2.558-1.485,0-1.608,2.206Zm11.18,1.134,1.5-5.985h3.12L41.854,0H38.83l-3.1-9.51h3.129ZM51.064,0a3.344,3.344,0,0,1-.281-.853A2.754,2.754,0,0,1,48.5.176a3.374,3.374,0,0,1-2.285-.813,2.588,2.588,0,0,1-.94-2.043,2.66,2.66,0,0,1,1.143-2.338,5.821,5.821,0,0,1,3.322-.791h.914v-.5q0-1.316-1.134-1.316a.927.927,0,0,0-1.055,1.042H45.5a2.655,2.655,0,0,1,1.173-2.239,4.931,4.931,0,0,1,2.993-.86,4.323,4.323,0,0,1,2.874.888,3.086,3.086,0,0,1,1.081,2.435v4.21a4.311,4.311,0,0,0,.4,2V0ZM49.21-1.934a1.652,1.652,0,0,0,.918-.237,1.487,1.487,0,0,0,.523-.536V-4.228H49.79q-1.547,0-1.547,1.389a.848.848,0,0,0,.272.655A.986.986,0,0,0,49.21-1.934Zm10.072-.176a1.317,1.317,0,0,0,.967-.338,1.241,1.241,0,0,0,.334-.945H63.36A3.288,3.288,0,0,1,62.24-.826a4.168,4.168,0,0,1-2.887,1,4.22,4.22,0,0,1-3.27-1.3,5.125,5.125,0,0,1-1.2-3.6v-.123A5.792,5.792,0,0,1,55.419-7.4a3.872,3.872,0,0,1,1.534-1.7,4.573,4.573,0,0,1,2.373-.593,4.116,4.116,0,0,1,2.944,1.028,3.647,3.647,0,0,1,1.09,2.786H60.583A1.626,1.626,0,0,0,60.223-7a1.244,1.244,0,0,0-.967-.4q-1.151,0-1.345,1.468a10.357,10.357,0,0,0-.062,1.283,4.068,4.068,0,0,0,.343,1.986A1.187,1.187,0,0,0,59.282-2.109ZM67.737,0H64.767V-9.51h2.971ZM64.591-11.962A1.322,1.322,0,0,1,65.048-13a1.724,1.724,0,0,1,1.187-.4,1.724,1.724,0,0,1,1.187.4,1.322,1.322,0,0,1,.457,1.037,1.322,1.322,0,0,1-.457,1.037,1.724,1.724,0,0,1-1.187.4,1.724,1.724,0,0,1-1.187-.4A1.322,1.322,0,0,1,64.591-11.962Zm4.6,7.119a5.613,5.613,0,0,1,.554-2.536,3.96,3.96,0,0,1,1.591-1.709,4.791,4.791,0,0,1,2.435-.6,4.373,4.373,0,0,1,3.366,1.323,5.076,5.076,0,0,1,1.23,3.6v.105a4.925,4.925,0,0,1-1.235,3.529A4.384,4.384,0,0,1,73.784.176a4.434,4.434,0,0,1-3.261-1.217,4.761,4.761,0,0,1-1.327-3.3Zm2.962.185a3.538,3.538,0,0,0,.413,1.934,1.376,1.376,0,0,0,1.222.615q1.582,0,1.617-2.435v-.3Q75.4-7.4,73.767-7.4q-1.485,0-1.608,2.206ZM74.171-13.5H77.3l-2.443,2.76-2.417,0Zm8.218,3.99.1,1.116A3.225,3.225,0,0,1,85.2-9.686,2.713,2.713,0,0,1,87.42-8.8a4.226,4.226,0,0,1,.76,2.672V0H85.21V-6a1.6,1.6,0,0,0-.29-1.059A1.342,1.342,0,0,0,83.865-7.4a1.413,1.413,0,0,0-1.292.686V0H79.611V-9.51Z" transform="translate(976 926)" fill="#12263f"/>
    <path id="Trazado_611113" data-name="Trazado 611113" d="M4.254,0H1.178V-12.8H4.254ZM8.982-9.51l.1,1.116a3.225,3.225,0,0,1,2.716-1.292,2.713,2.713,0,0,1,2.219.888,4.226,4.226,0,0,1,.76,2.672V0H11.8V-6a1.6,1.6,0,0,0-.29-1.059A1.342,1.342,0,0,0,10.459-7.4a1.413,1.413,0,0,0-1.292.686V0H6.205V-9.51ZM17.068,0V-7.453h-1.38V-9.51h1.38v-.756a3.286,3.286,0,0,1,.958-2.522,3.785,3.785,0,0,1,2.689-.9A5.89,5.89,0,0,1,22.1-13.5l.009,2.18a2.706,2.706,0,0,0-.729-.079q-1.345,0-1.345,1.16v.729h1.854v2.057H20.039V0Zm5.493-4.843a5.613,5.613,0,0,1,.554-2.536,3.96,3.96,0,0,1,1.591-1.709,4.791,4.791,0,0,1,2.435-.6,4.373,4.373,0,0,1,3.366,1.323,5.076,5.076,0,0,1,1.23,3.6v.105A4.925,4.925,0,0,1,30.5-1.129,4.384,4.384,0,0,1,27.158.176,4.434,4.434,0,0,1,23.9-1.042a4.761,4.761,0,0,1-1.327-3.3Zm2.962.185a3.538,3.538,0,0,0,.413,1.934,1.376,1.376,0,0,0,1.222.615q1.582,0,1.617-2.435v-.3q0-2.558-1.635-2.558-1.485,0-1.608,2.206ZM38.795-6.829l-.976-.07a1.752,1.752,0,0,0-1.793.879V0H33.064V-9.51h2.777l.1,1.222a2.294,2.294,0,0,1,2.083-1.4,2.888,2.888,0,0,1,.826.105ZM42.662-9.51l.1,1.116a3.27,3.27,0,0,1,2.716-1.292,2.407,2.407,0,0,1,2.435,1.433A3.165,3.165,0,0,1,50.7-9.686q2.892,0,2.971,3.5V0H50.7V-6a1.813,1.813,0,0,0-.246-1.063,1.048,1.048,0,0,0-.9-.334,1.4,1.4,0,0,0-1.31.782l.009.123V0H45.29V-5.985a1.906,1.906,0,0,0-.237-1.081,1.045,1.045,0,0,0-.905-.334,1.42,1.42,0,0,0-1.3.782V0H39.885V-9.51ZM60.724,0a3.344,3.344,0,0,1-.281-.853A2.754,2.754,0,0,1,58.157.176a3.374,3.374,0,0,1-2.285-.813,2.588,2.588,0,0,1-.94-2.043,2.66,2.66,0,0,1,1.143-2.338A5.821,5.821,0,0,1,59.4-5.81h.914v-.5q0-1.316-1.134-1.316a.927.927,0,0,0-1.055,1.042H55.16a2.655,2.655,0,0,1,1.173-2.239,4.931,4.931,0,0,1,2.993-.86A4.323,4.323,0,0,1,62.2-8.8a3.086,3.086,0,0,1,1.081,2.435v4.21a4.311,4.311,0,0,0,.4,2V0ZM58.869-1.934a1.652,1.652,0,0,0,.918-.237,1.487,1.487,0,0,0,.523-.536V-4.228h-.861q-1.547,0-1.547,1.389a.848.848,0,0,0,.272.655A.986.986,0,0,0,58.869-1.934Zm10.072-.176a1.317,1.317,0,0,0,.967-.338,1.241,1.241,0,0,0,.334-.945H73.02A3.288,3.288,0,0,1,71.9-.826a4.168,4.168,0,0,1-2.887,1,4.22,4.22,0,0,1-3.27-1.3,5.125,5.125,0,0,1-1.2-3.6v-.123A5.792,5.792,0,0,1,65.079-7.4a3.872,3.872,0,0,1,1.534-1.7,4.573,4.573,0,0,1,2.373-.593A4.116,4.116,0,0,1,71.93-8.657a3.647,3.647,0,0,1,1.09,2.786H70.242A1.626,1.626,0,0,0,69.882-7a1.244,1.244,0,0,0-.967-.4q-1.151,0-1.345,1.468a10.357,10.357,0,0,0-.062,1.283,4.068,4.068,0,0,0,.343,1.986A1.187,1.187,0,0,0,68.941-2.109ZM77.4,0H74.426V-9.51H77.4ZM74.25-11.962A1.322,1.322,0,0,1,74.707-13a1.724,1.724,0,0,1,1.187-.4,1.724,1.724,0,0,1,1.187.4,1.322,1.322,0,0,1,.457,1.037,1.322,1.322,0,0,1-.457,1.037,1.724,1.724,0,0,1-1.187.4,1.724,1.724,0,0,1-1.187-.4A1.322,1.322,0,0,1,74.25-11.962Zm4.6,7.119A5.613,5.613,0,0,1,79.4-7.378a3.96,3.96,0,0,1,1.591-1.709,4.791,4.791,0,0,1,2.435-.6,4.373,4.373,0,0,1,3.366,1.323,5.076,5.076,0,0,1,1.23,3.6v.105a4.925,4.925,0,0,1-1.235,3.529A4.384,4.384,0,0,1,83.443.176a4.434,4.434,0,0,1-3.261-1.217,4.761,4.761,0,0,1-1.327-3.3Zm2.962.185a3.538,3.538,0,0,0,.413,1.934,1.376,1.376,0,0,0,1.222.615q1.582,0,1.617-2.435v-.3q0-2.558-1.635-2.558-1.485,0-1.608,2.206ZM83.83-13.5h3.129l-2.443,2.76-2.417,0Zm8.218,3.99.1,1.116A3.225,3.225,0,0,1,94.86-9.686,2.713,2.713,0,0,1,97.08-8.8a4.226,4.226,0,0,1,.76,2.672V0H94.869V-6a1.6,1.6,0,0,0-.29-1.059A1.342,1.342,0,0,0,93.524-7.4a1.413,1.413,0,0,0-1.292.686V0H89.271V-9.51ZM11.32,20.667a4.673,4.673,0,0,1-.721,2.36,4.35,4.35,0,0,1-1.85,1.586,6.3,6.3,0,0,1-2.72.563,5.025,5.025,0,0,1-3.973-1.644,6.786,6.786,0,0,1-1.45-4.641v-.633a7.746,7.746,0,0,1,.655-3.292,4.961,4.961,0,0,1,1.885-2.18,5.26,5.26,0,0,1,2.848-.769,5.516,5.516,0,0,1,3.744,1.226,4.844,4.844,0,0,1,1.608,3.379H8.271a2.292,2.292,0,0,0-.589-1.679,2.422,2.422,0,0,0-1.687-.51,1.843,1.843,0,0,0-1.687.861,5.536,5.536,0,0,0-.562,2.751v.905a6.125,6.125,0,0,0,.514,2.927,1.882,1.882,0,0,0,1.771.879,2.369,2.369,0,0,0,1.626-.5,2.126,2.126,0,0,0,.6-1.591Zm.949-.51a5.613,5.613,0,0,1,.554-2.536,3.96,3.96,0,0,1,1.591-1.709,4.791,4.791,0,0,1,2.435-.6,4.373,4.373,0,0,1,3.366,1.323,5.076,5.076,0,0,1,1.23,3.6v.105a4.925,4.925,0,0,1-1.235,3.529,4.384,4.384,0,0,1-3.344,1.305,4.434,4.434,0,0,1-3.261-1.217,4.761,4.761,0,0,1-1.327-3.3Zm2.962.185a3.538,3.538,0,0,0,.413,1.934,1.376,1.376,0,0,0,1.222.615q1.582,0,1.617-2.435v-.3q0-2.558-1.635-2.558-1.485,0-1.608,2.206ZM25.471,15.49l.1,1.116a3.225,3.225,0,0,1,2.716-1.292A2.713,2.713,0,0,1,30.5,16.2a4.226,4.226,0,0,1,.76,2.672V25H28.292V19A1.6,1.6,0,0,0,28,17.938a1.342,1.342,0,0,0-1.055-.338,1.413,1.413,0,0,0-1.292.686V25H22.693V15.49Zm7.058,4.667a5.613,5.613,0,0,1,.554-2.536,3.96,3.96,0,0,1,1.591-1.709,4.791,4.791,0,0,1,2.435-.6,4.373,4.373,0,0,1,3.366,1.323,5.076,5.076,0,0,1,1.23,3.6v.105a4.925,4.925,0,0,1-1.235,3.529,4.384,4.384,0,0,1-3.344,1.305,4.434,4.434,0,0,1-3.261-1.217,4.761,4.761,0,0,1-1.327-3.3Zm2.962.185a3.538,3.538,0,0,0,.413,1.934,1.376,1.376,0,0,0,1.222.615q1.582,0,1.617-2.435v-.3q0-2.558-1.635-2.558-1.485,0-1.608,2.206Zm11.54,2.549A1.317,1.317,0,0,0,48,22.552a1.241,1.241,0,0,0,.334-.945h2.777a3.288,3.288,0,0,1-1.121,2.566,4.168,4.168,0,0,1-2.887,1,4.22,4.22,0,0,1-3.27-1.3,5.125,5.125,0,0,1-1.2-3.6v-.123a5.792,5.792,0,0,1,.532-2.544,3.872,3.872,0,0,1,1.534-1.7,4.573,4.573,0,0,1,2.373-.593,4.116,4.116,0,0,1,2.944,1.028,3.647,3.647,0,0,1,1.09,2.786H48.331A1.626,1.626,0,0,0,47.971,18,1.244,1.244,0,0,0,47,17.6q-1.151,0-1.345,1.468a10.357,10.357,0,0,0-.062,1.283,4.068,4.068,0,0,0,.343,1.986A1.187,1.187,0,0,0,47.03,22.891ZM55.485,25H52.515V15.49h2.971ZM52.339,13.038A1.322,1.322,0,0,1,52.8,12a1.943,1.943,0,0,1,2.373,0,1.405,1.405,0,0,1,0,2.074,1.943,1.943,0,0,1-2.373,0A1.322,1.322,0,0,1,52.339,13.038Zm7.77,2.452.1,1.116a3.27,3.27,0,0,1,2.716-1.292,2.407,2.407,0,0,1,2.435,1.433,3.165,3.165,0,0,1,2.795-1.433q2.892,0,2.971,3.5V25H68.15V19a1.813,1.813,0,0,0-.246-1.063,1.048,1.048,0,0,0-.9-.334,1.4,1.4,0,0,0-1.31.782l.009.123V25H62.736V19.015a1.906,1.906,0,0,0-.237-1.081,1.045,1.045,0,0,0-.905-.334,1.42,1.42,0,0,0-1.3.782V25H57.331V15.49ZM75.938,25H72.967V15.49h2.971ZM72.791,13.038A1.322,1.322,0,0,1,73.248,12a1.943,1.943,0,0,1,2.373,0,1.405,1.405,0,0,1,0,2.074,1.943,1.943,0,0,1-2.373,0A1.322,1.322,0,0,1,72.791,13.038Zm9.571,12.138a4.889,4.889,0,0,1-3.542-1.305,4.507,4.507,0,0,1-1.354-3.4v-.246a5.84,5.84,0,0,1,.541-2.575,3.955,3.955,0,0,1,1.578-1.727,4.763,4.763,0,0,1,2.461-.611,4.117,4.117,0,0,1,3.164,1.244,4.887,4.887,0,0,1,1.16,3.467v1.151H80.481a2.135,2.135,0,0,0,.694,1.257,2.066,2.066,0,0,0,1.389.457,2.662,2.662,0,0,0,2.2-.984l1.354,1.6a3.784,3.784,0,0,1-1.569,1.217A5.3,5.3,0,0,1,82.362,25.176ZM82.028,17.6q-1.3,0-1.547,1.723H83.47v-.229a1.467,1.467,0,0,0-.36-1.1A1.434,1.434,0,0,0,82.028,17.6Zm8.253-2.109.1,1.116a3.225,3.225,0,0,1,2.716-1.292,2.713,2.713,0,0,1,2.219.888,4.226,4.226,0,0,1,.76,2.672V25H93.1V19a1.6,1.6,0,0,0-.29-1.059,1.342,1.342,0,0,0-1.055-.338,1.413,1.413,0,0,0-1.292.686V25H87.5V15.49Zm10.881-2.364V15.49h1.564v2.057h-1.564V21.9a1.111,1.111,0,0,0,.193.747,1.037,1.037,0,0,0,.765.211,4.345,4.345,0,0,0,.738-.053v2.118a5.466,5.466,0,0,1-1.67.255,3.1,3.1,0,0,1-2.259-.721,2.954,2.954,0,0,1-.729-2.188v-4.72H96.987V15.49H98.2V13.126Zm2.092,7.031a5.613,5.613,0,0,1,.554-2.536,3.96,3.96,0,0,1,1.591-1.709,4.791,4.791,0,0,1,2.435-.6,4.373,4.373,0,0,1,3.366,1.323,5.076,5.076,0,0,1,1.23,3.6v.105a4.925,4.925,0,0,1-1.235,3.529,4.384,4.384,0,0,1-3.344,1.305,4.434,4.434,0,0,1-3.261-1.217,4.761,4.761,0,0,1-1.327-3.3Zm2.962.185a3.538,3.538,0,0,0,.413,1.934,1.376,1.376,0,0,0,1.222.615q1.582,0,1.617-2.435v-.3q0-2.558-1.635-2.558-1.485,0-1.608,2.206Z" transform="translate(1037 1022)" fill="#12263f"/>
  </g>
</svg>
