<svg xmlns="http://www.w3.org/2000/svg" xmlns:xlink="http://www.w3.org/1999/xlink" width="107" height="107" viewBox="0 0 107 107">
  <defs>
    <clipPath id="clip-path">
      <rect id="Rectángulo_378431" data-name="Rectángulo 378431" width="67.729" height="65.063" fill="#fff"/>
    </clipPath>
  </defs>
  <g id="Grupo_1073079" data-name="Grupo 1073079" transform="translate(-284.637 -2101)">
    <g id="Grupo_156312" data-name="Grupo 156312" transform="translate(-4.031 -2347)">
      <circle id="Elipse_5845" data-name="Elipse 5845" cx="53.5" cy="53.5" r="53.5" transform="translate(288.668 4448)" fill="#4e5662"/>
    </g>
    <g id="Grupo_1072954" data-name="Grupo 1072954" transform="translate(299.271 2121.969)">
      <g id="Grupo_1072953" data-name="Grupo 1072953" clip-path="url(#clip-path)">
        <path id="Trazado_611066" data-name="Trazado 611066" d="M18.02,24.688H11.749c-.353,0-.706.009-1.058,0-1.079-.038-1.654-.524-1.639-1.374s.586-1.3,1.7-1.3c2.75-.01,5.5-.022,8.251.011a1.639,1.639,0,0,0,1.43-.665,26.124,26.124,0,0,1,13.826-8.819c.686-.181.968-.448.875-1.133a2.925,2.925,0,0,1,0-.634,2.025,2.025,0,0,0-1.276-2.439,4.144,4.144,0,0,1-1.985-4.8A4.44,4.44,0,0,1,36.244.062c3.171-.08,6.348-.086,9.519,0a4.476,4.476,0,0,1,4.411,3.693,4.44,4.44,0,0,1-2.808,5,.787.787,0,0,0-.584.826c-.095,2.552-.1,2.522,2.106,3.272C59.07,16.318,65.28,23.315,67.293,33.88A25.693,25.693,0,0,1,63.68,52.5c-.4.659-.876,1.25-1.779.921a1.357,1.357,0,0,1-.566-2.167,26.512,26.512,0,0,0,2.808-6.342A23.987,23.987,0,1,0,53.7,58.8c1.014-.613,1.775-.562,2.235.136s.221,1.465-.67,2.028A25.747,25.747,0,0,1,44.015,64.9,26.323,26.323,0,0,1,23.147,58.21a25.06,25.06,0,0,1-6.687-9.377,1.381,1.381,0,0,0-1.55-1.009c-2.608.061-5.218.027-7.827.02-1.171,0-1.78-.473-1.771-1.336s.614-1.3,1.805-1.3c2.327-.009,4.655-.044,6.981.017.939.025,1.047-.305.858-1.11A18.6,18.6,0,0,1,14.441,41c-.045-.741-.341-.857-.971-.841-1.41.034-2.821.013-4.231.01-1.458,0-2.05-.411-2.037-1.4.013-.951.567-1.324,1.98-1.326,1.481,0,2.962-.02,4.443.009.548.011.749-.179.753-.723a16.09,16.09,0,0,1,.437-3.448c.154-.679.013-.912-.739-.906-4.019.035-8.039.017-12.059.015a4.205,4.205,0,0,1-.948-.037A1.227,1.227,0,0,1,.032,31.071,1.179,1.179,0,0,1,1.08,29.815a6.386,6.386,0,0,1,1.054-.051c4.2,0,8.392-.022,12.588.016a1.188,1.188,0,0,0,1.363-.958,25.478,25.478,0,0,1,1.936-4.134m22.9-18.309v0c1.584,0,3.169.021,4.753-.007a1.8,1.8,0,0,0,1.926-1.8,1.843,1.843,0,0,0-1.933-1.808q-4.647-.027-9.295,0a1.789,1.789,0,0,0-1.956,1.763,1.769,1.769,0,0,0,1.964,1.847c1.514.025,3.028.006,4.542.006M41,9.1H39.731c-1.982,0-1.982,0-1.9,1.973a1.807,1.807,0,0,1,0,.211c-.038.5.224.59.654.522a16.493,16.493,0,0,1,5.052-.008c.246.037.637.183.658-.262a5.681,5.681,0,0,0-.066-2.2c-.205-.535-1.009-.185-1.544-.231S41.529,9.1,41,9.1" transform="translate(-0.026 0)" fill="#fff"/>
        <path id="Trazado_611067" data-name="Trazado 611067" d="M117.424,84.305a20.521,20.521,0,1,1-20.51,20.336,20.539,20.539,0,0,1,20.51-20.336m17.8,20.526a17.85,17.85,0,1,0-17.852,17.852,17.819,17.819,0,0,0,17.852-17.852" transform="translate(-76.41 -66.469)" fill="#fff"/>
        <path id="Trazado_611068" data-name="Trazado 611068" d="M273.633,262.6a1.269,1.269,0,0,1-1.3-1.346,1.318,1.318,0,0,1,2.635.032,1.292,1.292,0,0,1-1.337,1.314" transform="translate(-214.714 -204.984)" fill="#fff"/>
        <path id="Trazado_611069" data-name="Trazado 611069" d="M1.386,213.746a1.3,1.3,0,0,1,.009,2.6,1.231,1.231,0,0,1-1.39-1.238,1.306,1.306,0,0,1,1.38-1.361" transform="translate(0 -168.525)" fill="#fff"/>
        <path id="Trazado_611070" data-name="Trazado 611070" d="M167.571,145.855a4.117,4.117,0,0,1-3.945-5.156,1.225,1.225,0,0,0-.382-1.46c-.762-.678-1.459-1.429-2.173-2.159a1.3,1.3,0,0,1-.1-1.969,1.259,1.259,0,0,1,1.96.057c.791.752,1.566,1.522,2.306,2.324a.987.987,0,0,0,1.2.3,3.137,3.137,0,0,1,2.267,0A1.075,1.075,0,0,0,170,137.44c1.893-1.94,3.824-3.843,5.739-5.763a1.359,1.359,0,0,1,1.788-.4c.884.509.931,1.418.073,2.291-1.829,1.858-3.662,3.712-5.536,5.523a1.536,1.536,0,0,0-.5,1.719,4.118,4.118,0,0,1-3.995,5.05m0-2.725a1.48,1.48,0,0,0,1.478-1.454A1.456,1.456,0,0,0,167.6,140.3a1.358,1.358,0,0,0-1.438,1.348,1.377,1.377,0,0,0,1.413,1.482" transform="translate(-126.598 -103.348)" fill="#fff"/>
        <path id="Trazado_611071" data-name="Trazado 611071" d="M189.739,238.006c.041.847-.057,1.6-1,1.87a1.14,1.14,0,0,1-1.383-.49,2.907,2.907,0,0,1-.074-2.633,1.126,1.126,0,0,1,1.313-.659c1.067.222,1.206,1.033,1.146,1.912" transform="translate(-147.438 -186.122)" fill="#fff"/>
        <path id="Trazado_611072" data-name="Trazado 611072" d="M122.57,174.9a1.748,1.748,0,0,1,1.561.424,1.218,1.218,0,0,1,.012,1.793,2.829,2.829,0,0,1-3.056.092,1.255,1.255,0,0,1-.144-1.8,1.649,1.649,0,0,1,1.627-.511" transform="translate(-95.11 -137.887)" fill="#fff"/>
        <path id="Trazado_611073" data-name="Trazado 611073" d="M250.473,174.951c1.3,0,2.028.48,2.021,1.321a1.236,1.236,0,0,1-.829,1.23,2.768,2.768,0,0,1-2.528-.156,1.178,1.178,0,0,1-.424-1.415c.266-.947,1.046-1.017,1.761-.98" transform="translate(-196.037 -137.932)" fill="#fff"/>
        <path id="Trazado_611074" data-name="Trazado 611074" d="M190.072,110.1c.058.812-.018,1.538-.893,1.841a1.227,1.227,0,0,1-1.422-.4,3.52,3.52,0,0,1-.123-2.737,1.226,1.226,0,0,1,1.336-.642c1.049.249,1.194,1.059,1.1,1.938" transform="translate(-147.763 -85.251)" fill="#fff"/>
      </g>
    </g>
  </g>
</svg>
