<svg xmlns="http://www.w3.org/2000/svg" xmlns:xlink="http://www.w3.org/1999/xlink" width="1030" height="525.76" viewBox="0 0 1030 525.76">
  <defs>
    <linearGradient id="linear-gradient" x1="0.5" x2="0.5" y2="1" gradientUnits="objectBoundingBox">
      <stop offset="0" stop-color="#e5fbff"/>
      <stop offset="1" stop-color="#edf3fc"/>
    </linearGradient>
    <clipPath id="clip-path">
      <rect id="Rectángulo_378300" data-name="Rectángulo 378300" width="697.841" height="476.864" fill="none"/>
    </clipPath>
    <clipPath id="clip-path-3">
      <path id="Trazado_610902" data-name="Trazado 610902" d="M314.939,234.613c-26.828,33.489,31.869,156.3,41.156,182.679,5.846,16.608,28.371,11.512,51.849,6.416,19.6-4.254,39.87-8.509,51.653-.133,55.792,48.175,135.412,78.813,199.432,20.783,65.867-59.7,41.549-221.8-25.427-284.977-16.263-15.339-42.852-21.824-74.089-21.824-85.45,0-205.694,48.522-244.574,97.056" fill="none"/>
    </clipPath>
    <clipPath id="clip-path-4">
      <rect id="Rectángulo_378295" data-name="Rectángulo 378295" width="208.741" height="208.208" transform="translate(470.925 268.656)" fill="none"/>
    </clipPath>
    <clipPath id="clip-path-5">
      <path id="Trazado_610882" data-name="Trazado 610882" d="M482.073,317.583s5.542-16.9,8.571-22.808c11.8-23.021,24.429-26.119,42.7-25.664,7.092.177,19.27,56.61,19.27,56.61s28.658-55.718,40.132-56.61c20.16-1.567,49.555-.837,60.394,31.737l20.778,64.519-63.867,2.607,17.917,108.875s-119.927,1.14-133.743-16.636l9.989-89.017Z" fill="none"/>
    </clipPath>
    <clipPath id="clip-path-6">
      <rect id="Rectángulo_378296" data-name="Rectángulo 378296" width="17.807" height="12.695" transform="translate(511.513 340.846)" fill="none"/>
    </clipPath>
    <clipPath id="clip-path-8">
      <path id="Trazado_610963" data-name="Trazado 610963" d="M149,0c-18.574.033-36.4,4.124-52.43,13.156-45.073,25.4-69.656,113.375-86.32,146.319C-2.487,184.648-6.571,233.2,17.084,270.566c46.812,73.948,154.637,79.2,224.138,30.195,76.624-54.033,121.835-152.347,61.065-221.486C262,33.441,202.687.069,149.4,0Z" fill="none"/>
    </clipPath>
    <clipPath id="clip-path-9">
      <rect id="Rectángulo_378298" data-name="Rectángulo 378298" width="19.209" height="7.509" transform="translate(174.444 300.758)" fill="none"/>
    </clipPath>
  </defs>
  <g id="Grupo_1072987" data-name="Grupo 1072987" transform="translate(-285 -5980)">
    <g id="Grupo_1072835" data-name="Grupo 1072835">
      <path id="Trazado_610834" data-name="Trazado 610834" d="M0,0H1030V525.76H0Z" transform="translate(285 5980)" fill="url(#linear-gradient)"/>
      <g id="Grupo_1072834" data-name="Grupo 1072834" transform="translate(0 1)">
        <g id="Grupo_1072812" data-name="Grupo 1072812" transform="translate(435.159 6004.448)">
          <g id="Grupo_1072811" data-name="Grupo 1072811" clip-path="url(#clip-path)">
            <g id="Grupo_1072791" data-name="Grupo 1072791">
              <g id="Grupo_1072790" data-name="Grupo 1072790" clip-path="url(#clip-path)">
                <path id="Trazado_610835" data-name="Trazado 610835" d="M312.931,33.851q2.986-.339,5.967-.641" fill="none" stroke="#407b86" stroke-linecap="round" stroke-miterlimit="10" stroke-width="4"/>
                <path id="Trazado_610836" data-name="Trazado 610836" d="M336.751,31.718a491.113,491.113,0,0,1,49.23-.791" fill="none" stroke="#407b86" stroke-linecap="round" stroke-miterlimit="10" stroke-width="4" stroke-dasharray="14.926 8.956 17.911 14.926"/>
                <path id="Trazado_610837" data-name="Trazado 610837" d="M393.437,31.248c27.693,1.418,53.321,5.279,75.158,11.208" fill="none" stroke="#407b86" stroke-linecap="round" stroke-miterlimit="10" stroke-width="4" stroke-dasharray="8.956 17.911 14.926 8.956 17.911 14.926"/>
                <path id="Trazado_610838" data-name="Trazado 610838" d="M475.769,44.52q2.908.886,5.715,1.824" fill="none" stroke="#407b86" stroke-linecap="round" stroke-miterlimit="10" stroke-width="4"/>
                <path id="Trazado_610839" data-name="Trazado 610839" d="M479.034,449.558q-2.88.6-5.885,1.154" fill="none" stroke="#407b86" stroke-linecap="round" stroke-miterlimit="10" stroke-width="4"/>
                <path id="Trazado_610840" data-name="Trazado 610840" d="M446.961,454.478a718.868,718.868,0,0,1-72.591,3.714" fill="none" stroke="#407b86" stroke-linecap="round" stroke-miterlimit="10" stroke-width="4" stroke-dasharray="22.053 13.232 26.463 22.053"/>
                <path id="Trazado_610841" data-name="Trazado 610841" d="M363.343,458.2c-53.657-.252-108.422-4.571-143.96-9.927A238.957,238.957,0,0,1,100.092,394.31c-19.568-16.642-38.228-37.981-50.184-64.554" fill="none" stroke="#407b86" stroke-linecap="round" stroke-miterlimit="10" stroke-width="4" stroke-dasharray="13.232 26.463 22.053 13.232 26.463 22.053"/>
                <path id="Trazado_610842" data-name="Trazado 610842" d="M45.726,319.48q-1.023-2.8-1.944-5.679" fill="none" stroke="#407b86" stroke-linecap="round" stroke-miterlimit="10" stroke-width="4"/>
                <path id="Trazado_610843" data-name="Trazado 610843" d="M547.532,78.736q2.5,1.669,4.954,3.386" fill="none" stroke="#407b86" stroke-linecap="round" stroke-miterlimit="10" stroke-width="4"/>
                <path id="Trazado_610844" data-name="Trazado 610844" d="M569.64,95.139a268.362,268.362,0,0,1,41.3,42.289" fill="none" stroke="#407b86" stroke-linecap="round" stroke-miterlimit="10" stroke-width="4" stroke-dasharray="17.945 10.767 21.534 17.945"/>
                <path id="Trazado_610845" data-name="Trazado 610845" d="M616.323,144.6c18.552,25.63,31.635,53.839,37.905,82.613" fill="none" stroke="#407b86" stroke-linecap="round" stroke-miterlimit="10" stroke-width="4" stroke-dasharray="10.767 21.534 17.945 10.767 21.534 17.945"/>
                <path id="Trazado_610846" data-name="Trazado 610846" d="M655.931,236.022q.5,2.962.9,5.93" fill="none" stroke="#407b86" stroke-linecap="round" stroke-miterlimit="10" stroke-width="4"/>
                <path id="Trazado_610847" data-name="Trazado 610847" d="M625.964,219.07c-60.75-57.3-164.252-66.491-217.345-.215-26.829,33.489-28.459,81.636-19.172,108.013,28.894,82.063,167.748,209.8,269.582,117.49,65.867-59.7,33.911-162.115-33.065-225.288" fill="#94eeff"/>
              </g>
            </g>
            <g id="Grupo_1072801" data-name="Grupo 1072801">
              <g id="Grupo_1072800" data-name="Grupo 1072800" clip-path="url(#clip-path-3)">
                <path id="Trazado_610848" data-name="Trazado 610848" d="M579.831,160.547s24.53-1.236,32.727,15.829c6.957,14.485.4,22.11,3.314,29.907s12.251,9.786,8.238,20.832,10.843,10.569,9.4,22.36-9.245,12.376-.19,18.722,16.238,25.6,5.33,32.647c-15.631,10.1-53.925-21.318-81.2-12.946s-55.427-2.5-52.3-13.289,20.52-13.93,15.406-23.3-8.057-21.4.382-30.281,5.007-8.295,5.149-19.553c.087-6.924,5.549-15.224,8.107-22.727,3.071-9,4.144-12.71,15.512-17.728,18.173-8.021,30.12-.47,30.12-.47" fill="#442017"/>
                <path id="Trazado_610849" data-name="Trazado 610849" d="M582.226,162.794s1.866-21.235,25.7-12.815,21.846,37.176-4.613,37.074-21.082-24.259-21.082-24.259" fill="#442017"/>
                <path id="Trazado_610850" data-name="Trazado 610850" d="M615.285,185.894a1.207,1.207,0,0,0,.375.005.868.868,0,0,0,.8-1.056c-.065-.246-6.777-24.666-34.752-25.225a.92.92,0,0,0-1.017.9,1.076,1.076,0,0,0,1.1.941c26.2.533,32.348,22.737,32.6,23.683a1.094,1.094,0,0,0,.9.754" fill="#fcf9ed"/>
                <path id="Trazado_610851" data-name="Trazado 610851" d="M580.082,178.832s1.917,18.628,6.356,23.139,10.438-3.238,10.438-3.238-5.15-28.961-16.794-19.9" fill="#442017"/>
                <path id="Trazado_610852" data-name="Trazado 610852" d="M558.05,175.139s7.109,16.453,20.417,15.545,6.883-13.094,6.883-13.094-21.6-14.257-27.3-2.451" fill="#442017"/>
                <path id="Trazado_610853" data-name="Trazado 610853" d="M561.666,174.6s-9.984,17.556-21.706,11.889,9.35-20.778,17.463-18.4,4.243,6.507,4.243,6.507" fill="#442017"/>
                <path id="Trazado_610854" data-name="Trazado 610854" d="M584.509,195.108s1.665,3.579-.828,14.753-4.333,13.716-4.333,13.716,8.938-7.706,10.322-23.614c2.041-23.45-5.161-4.855-5.161-4.855" fill="#442017"/>
                <path id="Trazado_610855" data-name="Trazado 610855" d="M482.073,317.583l7.038-18.743a45.846,45.846,0,0,1,42.919-29.728h77.49A45.844,45.844,0,0,1,654.314,305.2l13.781,63.259-51.547,36.548,11.215,71.244s-124.741-4.533-133.539-16.035l9.989-85.017Z" fill="#c1725c"/>
                <path id="Trazado_610856" data-name="Trazado 610856" d="M482.073,317.583l-26.9,30.608L400.7,294.776l-24.038,15.673s29.241,65.343,43.3,81.74,39.376,34.028,60.88,13.371l27.45-33.512Z" fill="#b76856"/>
                <path id="Trazado_610857" data-name="Trazado 610857" d="M463.427,363.262a.91.91,0,0,0,.464-.126.922.922,0,0,0,.33-1.259l-9.017-15.4a.92.92,0,1,0-1.589.929l9.017,15.4a.919.919,0,0,0,.8.456" fill="#7d351d"/>
                <path id="Trazado_610858" data-name="Trazado 610858" d="M482.073,317.583s5.543-16.9,8.571-22.807c11.8-23.022,24.429-26.12,42.7-25.664,7.093.177,19.271,56.609,19.271,56.609S581.272,270,592.746,269.112c20.16-1.567,49.554-.838,60.394,31.737l20.777,64.519-63.867,2.606L627.967,476.85s-119.927,1.139-133.743-16.636l9.989-89.017Z" fill="#6059c9"/>
                <path id="Trazado_610859" data-name="Trazado 610859" d="M601.414,207.134l-3.983-1-6.625,7.693a3.737,3.737,0,0,1-6.545-2.858l2.093-18.536a3.8,3.8,0,0,0-6.171-3.377l-5.114,4.153-4.693-1.185a12.979,12.979,0,0,1-9.789-11.978l-.132-2.831a12.979,12.979,0,0,1-16.247,6.958l-.135-.048-12.8,31.474c-5.037,12.388-.5,26.183,10.1,32.81L539.9,263.7c-1.154,11.948,7.968,22.7,20.272,23.886l.511.049c12.3,1.189,7.149,1,8.3-10.945l13.046.181,7.019-45.886,6,1.5a12.974,12.974,0,0,0,15.69-9.392l.07-.278a12.962,12.962,0,0,0-9.392-15.69" fill="#c1725c"/>
                <path id="Trazado_610860" data-name="Trazado 610860" d="M538.107,202.345a2.5,2.5,0,1,0,3.268-1.364,2.5,2.5,0,0,0-3.268,1.364" fill="#111"/>
                <path id="Trazado_610861" data-name="Trazado 610861" d="M557.76,207.441a2.74,2.74,0,1,0,3.086-2.343,2.741,2.741,0,0,0-3.086,2.343" fill="#111"/>
                <path id="Trazado_610862" data-name="Trazado 610862" d="M545.407,237.88a.519.519,0,0,0,.347.045,4.437,4.437,0,0,1,4.622,1.914.522.522,0,0,0,.892-.541c-1.943-3.194-5.7-2.4-5.739-2.391a.521.521,0,0,0-.122.973" fill="#7d351d"/>
                <path id="Trazado_610863" data-name="Trazado 610863" d="M572.157,200.123a7.978,7.978,0,0,1-3.168-.962c-1.073-.488-2.162-.951-3.123-1.321s-2.083-.758-3.206-1.115a7.94,7.94,0,0,1-2.989-1.409c-.691-.667-.642-1.8.81-2.651,1.379-.844,4.283-1.222,7.471,0s5.04,3.445,5.462,4.982c.464,1.592-.286,2.452-1.257,2.479" fill="#442017"/>
                <path id="Trazado_610864" data-name="Trazado 610864" d="M537.64,191.781a4.837,4.837,0,0,0,2.268.275c.813-.024,1.63-.026,2.339,0s1.526.09,2.335.175a4.827,4.827,0,0,0,2.279-.1c.622-.272.906-1.1.228-2.169a5.908,5.908,0,0,0-4.716-2.294,5.794,5.794,0,0,0-4.835,1.934c-.737,1.011-.5,1.863.1,2.181" fill="#381812"/>
                <path id="Trazado_610865" data-name="Trazado 610865" d="M562.638,211.214a3.9,3.9,0,0,0-4.784-.679" fill="#c1725c"/>
                <path id="Trazado_610866" data-name="Trazado 610866" d="M557.653,211.478a.964.964,0,0,1-.272-1.783,4.835,4.835,0,0,1,5.971.872.965.965,0,0,1-1.427,1.3,2.9,2.9,0,0,0-3.6-.491.959.959,0,0,1-.675.1" fill="#7d351d"/>
                <path id="Trazado_610867" data-name="Trazado 610867" d="M541.36,205.623a2.2,2.2,0,0,0-2.863-.193" fill="#c1725c"/>
                <path id="Trazado_610868" data-name="Trazado 610868" d="M538.3,206.372a.964.964,0,0,1-.351-1.733,3.133,3.133,0,0,1,4.108.313.964.964,0,0,1-1.377,1.349,1.207,1.207,0,0,0-1.625-.081.966.966,0,0,1-.755.152" fill="#7d351d"/>
                <path id="Trazado_610869" data-name="Trazado 610869" d="M559.636,219.886a2.238,2.238,0,0,0-2.734-.315,15.3,15.3,0,0,1-9.285,2.029,1.588,1.588,0,0,0-1.6,2c.531,2.265,3.2,9.164,9.159,7.784,7.26-1.682,6.32-9.587,4.458-11.5" fill="#fff"/>
                <path id="Trazado_610870" data-name="Trazado 610870" d="M550.767,199.863l-3.094,9.782-2.553-.38a2.052,2.052,0,0,0-2.627,1.233l-.64,1.775a2.825,2.825,0,0,0,1.668,3.606l4.4,1.646" fill="#c1725c"/>
                <path id="Trazado_610871" data-name="Trazado 610871" d="M547.721,218.469a1.136,1.136,0,0,1-.138-.04l-4.4-1.646a3.8,3.8,0,0,1-2.236-4.837l.64-1.774a3.018,3.018,0,0,1,3.861-1.814l1.552.218,2.847-9a.965.965,0,0,1,1.84.582l-3.343,10.566-3.366-.5a1.318,1.318,0,0,0-1.017-.008,1.083,1.083,0,0,0-.561.616l-.64,1.773a1.871,1.871,0,0,0,1.1,2.377l4.4,1.646a.964.964,0,0,1-.538,1.846" fill="#7d351d"/>
                <path id="Trazado_610872" data-name="Trazado 610872" d="M598.6,224.519a.974.974,0,0,1-.483-.263l-3.549-3.573a.964.964,0,0,1,.118-1.46l5.459-3.962a.964.964,0,0,1,1.134,1.56l-4.549,3.3,2.757,2.774a.965.965,0,0,1-.887,1.623" fill="#7d351d"/>
                <path id="Trazado_610873" data-name="Trazado 610873" d="M541.345,248.726s22.679,6.7,29.127-1.089h0s-2.635,14.77-30.418,14.448Z" fill="#7d351d"/>
                <path id="Trazado_610874" data-name="Trazado 610874" d="M596.131,238.326a5.841,5.841,0,1,1,.354.064c-.117-.017-.236-.039-.354-.064" fill="#467b6c"/>
                <path id="Trazado_610875" data-name="Trazado 610875" d="M574.04,220.091c-.342,1.6-2.782,2.432-5.448,1.861s-4.551-2.33-4.209-3.929,2.782-2.432,5.448-1.86,4.551,2.329,4.209,3.928" fill="#7d351d"/>
                <g id="Grupo_1072796" data-name="Grupo 1072796" opacity="0.2">
                  <g id="Grupo_1072795" data-name="Grupo 1072795">
                    <g id="Grupo_1072794" data-name="Grupo 1072794" clip-path="url(#clip-path-4)">
                      <g id="Grupo_1072793" data-name="Grupo 1072793">
                        <g id="Grupo_1072792" data-name="Grupo 1072792" clip-path="url(#clip-path-5)">
                          <path id="Trazado_610876" data-name="Trazado 610876" d="M673.487,288.878H477.105a6.18,6.18,0,0,1,0-12.36H673.487a6.18,6.18,0,1,1,0,12.36" fill="#f2eae1"/>
                          <path id="Trazado_610877" data-name="Trazado 610877" d="M673.487,324.538H477.105a6.18,6.18,0,0,1,0-12.36H673.487a6.18,6.18,0,0,1,0,12.36" fill="#f2eae1"/>
                          <path id="Trazado_610878" data-name="Trazado 610878" d="M673.487,360.2H477.105a6.18,6.18,0,0,1,0-12.36H673.487a6.18,6.18,0,0,1,0,12.36" fill="#f2eae1"/>
                          <path id="Trazado_610879" data-name="Trazado 610879" d="M673.487,395.858H477.105a6.18,6.18,0,0,1,0-12.36H673.487a6.18,6.18,0,0,1,0,12.36" fill="#f2eae1"/>
                          <path id="Trazado_610880" data-name="Trazado 610880" d="M673.487,431.518H477.105a6.18,6.18,0,0,1,0-12.36H673.487a6.18,6.18,0,0,1,0,12.36" fill="#f2eae1"/>
                          <path id="Trazado_610881" data-name="Trazado 610881" d="M673.487,467.177H477.105a6.18,6.18,0,0,1,0-12.359H673.487a6.18,6.18,0,1,1,0,12.359" fill="#f2eae1"/>
                        </g>
                      </g>
                    </g>
                  </g>
                </g>
                <path id="Trazado_610883" data-name="Trazado 610883" d="M507.322,380.414a.827.827,0,0,1-.758-.494l-4.975-11.336a35.216,35.216,0,0,1-.687-26.79l5.953-15.7a.828.828,0,0,1,1.548.586l-5.953,15.7a33.566,33.566,0,0,0,.654,25.538l4.976,11.336a.83.83,0,0,1-.425,1.091.849.849,0,0,1-.333.069" fill="#322380"/>
                <path id="Trazado_610884" data-name="Trazado 610884" d="M487.614,364.085c-2.571.069-4.786.9-5.053,3.957-1.115,5.4,3.617,7.486,8.08,7.935-4.33.84-2,7.884,3.411,9.909l28.756,12.472a14.639,14.639,0,0,0,6.673.909L627.3,437.851a35.077,35.077,0,0,0,47.26-36.762l-6.9-34.809-57.613,1.694,3.138,16.262L544.137,362.4a52.888,52.888,0,0,0-4.5-6.519s-16.457-16.749-23.05-21.316a7.58,7.58,0,0,0-2.27-1.2,2.781,2.781,0,0,0-2.454.387,3.7,3.7,0,0,0-.99,3.079c.118,3.472,1.459,6.742,2.8,9.972-2.875-.957-5.944-2-9.286-3.184-7.224-1.991-18.734-6.736-20.786,2.866-.428,3.394,1.906,4.868,4.651,5.538-4.034-.191-8.073.689-7.995,5.717-.584,4.548,3.289,5.83,7.358,6.342m4.8.414c.667.057,1.28.122,1.807.214-.533-.042-1.147-.123-1.807-.214" fill="#c1725c"/>
                <path id="Trazado_610885" data-name="Trazado 610885" d="M612.913,383.736a.88.88,0,0,0,.175-.017.92.92,0,0,0,.729-1.078l-3.009-15.594-7.5.06h-.024a2.665,2.665,0,0,1-2.671-2.55l-1.983-42.249a.909.909,0,0,0-.962-.876.922.922,0,0,0-.877.963l1.983,42.248a4.471,4.471,0,0,0,4.549,4.3l5.97-.048,2.72,14.09a.918.918,0,0,0,.9.746" fill="#322380"/>
                <g id="Grupo_1072799" data-name="Grupo 1072799" opacity="0.5">
                  <g id="Grupo_1072798" data-name="Grupo 1072798">
                    <g id="Grupo_1072797" data-name="Grupo 1072797" clip-path="url(#clip-path-6)">
                      <path id="Trazado_610886" data-name="Trazado 610886" d="M513.672,346.806l15.648,6.735s-14.871-11.735-17.807-12.695Z" fill="#af4e4a"/>
                    </g>
                  </g>
                </g>
                <path id="Trazado_610887" data-name="Trazado 610887" d="M497.853,355.92a.921.921,0,0,0,.3-1.792c-.981-.336-9.637-3.288-11.362-3.381a.905.905,0,0,0-.969.869.923.923,0,0,0,.871.969c1.106.06,7.25,2.047,10.863,3.285a.92.92,0,0,0,.3.05" fill="#7d351d"/>
                <path id="Trazado_610888" data-name="Trazado 610888" d="M623.426,388.762a.92.92,0,0,0,.292-1.793L604.3,380.461a.92.92,0,0,0-.585,1.745l19.414,6.508a.9.9,0,0,0,.292.048" fill="#7d351d"/>
                <path id="Trazado_610889" data-name="Trazado 610889" d="M495.559,367.709a.92.92,0,0,0,.283-1.8l-8.793-2.843a.92.92,0,1,0-.566,1.751l8.793,2.843a.9.9,0,0,0,.283.045" fill="#7d351d"/>
                <path id="Trazado_610890" data-name="Trazado 610890" d="M495.412,378.323a.92.92,0,0,0,.263-1.8l-4.771-1.427a.92.92,0,0,0-.526,1.764l4.771,1.426a.921.921,0,0,0,.263.039" fill="#7d351d"/>
                <path id="Trazado_610891" data-name="Trazado 610891" d="M387.92,280.685,403.373,297.4l-10.448,6.563-8.468-7.425Z" fill="#b76856"/>
                <path id="Trazado_610892" data-name="Trazado 610892" d="M394.627,318.2H351.743a2.607,2.607,0,0,1-2.606-2.607V238.382a2.607,2.607,0,0,1,2.606-2.607h42.884a2.607,2.607,0,0,1,2.607,2.607v77.207a2.607,2.607,0,0,1-2.607,2.607" fill="#2b2b39"/>
                <path id="Trazado_610893" data-name="Trazado 610893" d="M394.217,241.921v70.131a2.133,2.133,0,0,1-1.847,2.334H354a2.133,2.133,0,0,1-1.847-2.334V241.921A2.135,2.135,0,0,1,354,239.586h38.37a2.135,2.135,0,0,1,1.847,2.335" fill="#5f5f75"/>
                <path id="Trazado_610894" data-name="Trazado 610894" d="M367.7,294.268h0a5.781,5.781,0,0,1-5.846,5.68l-18.1-.261a5.764,5.764,0,0,1,.167-11.526l18.1.261a5.779,5.779,0,0,1,5.68,5.846" fill="#b76856"/>
                <path id="Trazado_610895" data-name="Trazado 610895" d="M368.063,282.648h0a5.781,5.781,0,0,1-5.846,5.68l-19.538-.282a5.764,5.764,0,0,1,.166-11.526l19.538.282a5.779,5.779,0,0,1,5.68,5.846" fill="#b76856"/>
                <path id="Trazado_610896" data-name="Trazado 610896" d="M398.2,300.358h0a5.782,5.782,0,0,1-8.151-.087L376.38,286.308a5.781,5.781,0,0,1,.086-8.151h0a5.781,5.781,0,0,1,8.15.087l13.67,13.963a5.782,5.782,0,0,1-.087,8.151" fill="#b76856"/>
                <path id="Trazado_610897" data-name="Trazado 610897" d="M363.634,305.582h0a5.781,5.781,0,0,1-5.847,5.68l-11.753-.169a5.764,5.764,0,0,1,.166-11.527l11.754.17a5.779,5.779,0,0,1,5.68,5.846" fill="#b76856"/>
                <path id="Trazado_610898" data-name="Trazado 610898" d="M363.363,316.553h0a5.781,5.781,0,0,1-5.846,5.68l-5.789-.084a5.764,5.764,0,1,1,.167-11.526l5.788.084a5.779,5.779,0,0,1,5.68,5.846" fill="#b76856"/>
                <path id="Trazado_610899" data-name="Trazado 610899" d="M342.643,288.539c0-.024,0-.048,0-.074a1.029,1.029,0,0,1,1.035-1.024l18.409.085a1.009,1.009,0,0,1,1.024,1.035,1.028,1.028,0,0,1-1.034,1.024l-18.409-.085a1.028,1.028,0,0,1-1.023-.961" fill="#7d351d"/>
                <path id="Trazado_610900" data-name="Trazado 610900" d="M342.715,300.577c0-.026,0-.052,0-.08a1.028,1.028,0,0,1,1.041-1.018l16.908.182a1.03,1.03,0,1,1-.022,2.06l-16.908-.182a1.031,1.031,0,0,1-1.017-.962" fill="#7d351d"/>
                <path id="Trazado_610901" data-name="Trazado 610901" d="M345.547,311.667c0-.017,0-.034,0-.051a1.031,1.031,0,0,1,1.013-1.048l13.285-.225a1.031,1.031,0,0,1,.034,2.061l-13.285.225a1.03,1.03,0,0,1-1.045-.962" fill="#7d351d"/>
              </g>
            </g>
            <g id="Grupo_1072803" data-name="Grupo 1072803">
              <g id="Grupo_1072802" data-name="Grupo 1072802" clip-path="url(#clip-path)">
                <path id="Trazado_610903" data-name="Trazado 610903" d="M445.825,226.786c2.769,2.664,5.035,1.7,5.035-2.143V212.252a7.007,7.007,0,0,1,6.987-6.987h38.21a7.007,7.007,0,0,0,6.987-6.986V149.3a7.007,7.007,0,0,0-6.987-6.986H363.024a7.007,7.007,0,0,0-6.986,6.986v48.974a7.007,7.007,0,0,0,6.986,6.986h53.44a20.028,20.028,0,0,1,12.022,4.844Z" fill="#f0c86a"/>
                <path id="Trazado_610904" data-name="Trazado 610904" d="M371.223,162.151H487.858a2.521,2.521,0,0,0,0-5.043H371.223a2.521,2.521,0,1,0,0,5.043" fill="#fff"/>
                <path id="Trazado_610905" data-name="Trazado 610905" d="M371.223,174.726H487.858a2.521,2.521,0,0,0,0-5.043H371.223a2.521,2.521,0,1,0,0,5.043" fill="#fff"/>
                <path id="Trazado_610906" data-name="Trazado 610906" d="M371.223,187.3H453.6a2.521,2.521,0,1,0,0-5.043H371.223a2.521,2.521,0,1,0,0,5.043" fill="#fff"/>
                <path id="Trazado_610907" data-name="Trazado 610907" d="M241.222,300.761c-69.5,49.01-177.326,43.752-224.138-30.195C-6.57,233.2-2.487,184.648,10.247,159.474c39.618-78.321,198.086-187.094,292.04-80.2,60.77,69.14,15.559,167.454-61.065,221.487" fill="#94eeff"/>
              </g>
            </g>
            <g id="Grupo_1072808" data-name="Grupo 1072808">
              <g id="Grupo_1072807" data-name="Grupo 1072807" clip-path="url(#clip-path-8)">
                <path id="Trazado_610908" data-name="Trazado 610908" d="M210.083,185.939l26.281,29.9,53.2-52.176,23.48,15.309-42.3,79.845c-7.017,27.04-41.766,34.672-59.469,13.06L184.47,239.14Z" fill="#e69773"/>
                <path id="Trazado_610909" data-name="Trazado 610909" d="M228.3,230.558a.888.888,0,0,1-.453-.123.9.9,0,0,1-.322-1.23l8.808-15.045a.9.9,0,1,1,1.552.908l-8.808,15.045a.9.9,0,0,1-.777.445" fill="#af4e4a"/>
                <path id="Trazado_610910" data-name="Trazado 610910" d="M289.758,166.014l-.07,0L289.2,163.6l0-.011h0c-2.588-12.776-9.369-26.845-12.028-39.605a8.886,8.886,0,0,1-.277-2.879,4.423,4.423,0,0,1,6.475-3.358,7.111,7.111,0,0,1,2.981,3.9c.79,2.059,1.533,4.125,2.339,6.179a2.023,2.023,0,0,0,3.9-.625q.672-11.829,1.315-23.659c.084-1.555.226-3.25,1.294-4.383a3.5,3.5,0,0,1,5.391.774,6.679,6.679,0,0,1,.538,2.514c.441,5.377,1.108,10.739,1.321,16.13.165,4.191.9,6.843.751,9.889.048-1-.01-2.489.038-3.489.294-6.056.658-12.1.7-18.159a5.715,5.715,0,0,1,.878-2.811,2.921,2.921,0,0,1,1.4-1.174,2.38,2.38,0,0,1,1.816.02,2.785,2.785,0,0,1,1.378,1.629,12.46,12.46,0,0,1,.736,3.675c.161,3.577.294,7.156.468,10.733.178,3.644.065,7.395.486,11.021a15.245,15.245,0,0,1,.173-3.1c.2-2.1.443-4.188.713-6.275s.328-4.614,1.992-6.147a2.4,2.4,0,0,1,2.624-.581,2.259,2.259,0,0,1,.9.941,8,8,0,0,1,.489,4.23q-.088,2.048-.173,4.1c-.117,2.761-.237,5.522-.394,8.281q-.1,2.368-.2,4.736l1.8-5.74c.657-2.215,2.927-5.745,5.013-4.752a2.685,2.685,0,0,1,1.414,3.2l-7.837,34.8" fill="#e69773"/>
                <path id="Trazado_610911" data-name="Trazado 610911" d="M289.758,166.014l-.07,0L289.2,163.6l0-.011h0c-2.588-12.776-9.369-26.845-12.028-39.605a8.886,8.886,0,0,1-.277-2.879,4.423,4.423,0,0,1,6.475-3.358,7.111,7.111,0,0,1,2.981,3.9c.79,2.059,1.533,4.125,2.339,6.179a2.023,2.023,0,0,0,3.9-.625q.672-11.829,1.315-23.659c.084-1.555.226-3.25,1.294-4.383a3.5,3.5,0,0,1,5.391.774,6.679,6.679,0,0,1,.538,2.514c.441,5.377,1.108,10.739,1.321,16.13.165,4.191.9,6.843.751,9.889.048-1-.01-2.489.038-3.489.294-6.056.658-12.1.7-18.159a5.715,5.715,0,0,1,.878-2.811,2.921,2.921,0,0,1,1.4-1.174,2.38,2.38,0,0,1,1.816.02,2.785,2.785,0,0,1,1.378,1.629,12.46,12.46,0,0,1,.736,3.675c.161,3.577.294,7.156.468,10.733.178,3.644.065,7.395.486,11.021a15.245,15.245,0,0,1,.173-3.1c.2-2.1.443-4.188.713-6.275s.328-4.614,1.992-6.147a2.4,2.4,0,0,1,2.624-.581,2.259,2.259,0,0,1,.9.941,8,8,0,0,1,.489,4.23q-.088,2.048-.173,4.1c-.117,2.761-.237,5.522-.394,8.281q-.1,2.368-.2,4.736l1.8-5.74c.657-2.215,2.927-5.745,5.013-4.752a2.685,2.685,0,0,1,1.414,3.2l-7.837,34.8-4.564,15.369Z" fill="#e69773"/>
                <path id="Trazado_610912" data-name="Trazado 610912" d="M297.088,144.552h0a.913.913,0,0,1-.344.044.875.875,0,0,1-.81-.938c.736-10.351-6.78-14.118-7.1-14.274a.876.876,0,0,1,.759-1.58c.09.041,8.9,4.515,8.09,15.98a.873.873,0,0,1-.594.768m-.312-.824.01-.008Z" fill="#af4e4a"/>
                <path id="Trazado_610913" data-name="Trazado 610913" d="M126.043,85.683a15.248,15.248,0,1,1-15.248-15.248,15.248,15.248,0,0,1,15.248,15.248" fill="#6059c9"/>
                <path id="Trazado_610914" data-name="Trazado 610914" d="M117.5,68.662a15.248,15.248,0,1,1-15.248-15.248A15.248,15.248,0,0,1,117.5,68.662" fill="#6059c9"/>
                <path id="Trazado_610915" data-name="Trazado 610915" d="M116.8,45.777a15.248,15.248,0,1,1-15.248-15.248A15.248,15.248,0,0,1,116.8,45.777" fill="#6059c9"/>
                <path id="Trazado_610916" data-name="Trazado 610916" d="M128.052,29.193A15.248,15.248,0,1,1,112.8,13.945a15.248,15.248,0,0,1,15.248,15.248" fill="#6059c9"/>
                <path id="Trazado_610917" data-name="Trazado 610917" d="M148.413,20.217A15.248,15.248,0,1,1,133.165,4.969a15.248,15.248,0,0,1,15.248,15.248" fill="#6059c9"/>
                <path id="Trazado_610918" data-name="Trazado 610918" d="M168.087,19.525A15.248,15.248,0,1,1,152.839,4.277a15.248,15.248,0,0,1,15.248,15.248" fill="#6059c9"/>
                <path id="Trazado_610919" data-name="Trazado 610919" d="M188.068,28.155A15.248,15.248,0,1,1,172.82,12.907a15.249,15.249,0,0,1,15.248,15.248" fill="#6059c9"/>
                <path id="Trazado_610920" data-name="Trazado 610920" d="M198.583,41.823a15.248,15.248,0,1,1-15.248-15.248,15.248,15.248,0,0,1,15.248,15.248" fill="#6059c9"/>
                <path id="Trazado_610921" data-name="Trazado 610921" d="M229.539,196.73,186.591,156.4a39.994,39.994,0,0,0-29.913-14.8l-66.033-1.94c-.67,0-1.329.044-1.987.1l-.073-.1-12.374.236c-18.2.346-34.981,11.061-41.853,27.92a45.711,45.711,0,0,0-2.211,6.975L20.695,226.513a5.941,5.941,0,0,0,5.61,7.222L59.576,234.8,52.09,330.666H201.2l-3.411-90.837,32.018-33.8a6.561,6.561,0,0,0-.272-9.294" fill="#d03f23"/>
                <path id="Trazado_610922" data-name="Trazado 610922" d="M169.165,57.6c-4.73-.524-9.084-8.633-9.084-8.633s-29.37-1.224-30.423-5.262l-2.665,24.062-7.142-.791-6.269-.694a11.919,11.919,0,0,0-2.928.05A12.058,12.058,0,0,0,100.31,76.9l-.129,1.166a12.057,12.057,0,0,0,10.625,13.272l3.188.353-7.611,39.533a21.315,21.315,0,0,0,16.9,24.959l2.042.393a21.313,21.313,0,0,0,24.958-16.9l2.867-14.891a19.47,19.47,0,0,0,21.178-17.234L179.5,60.87c.12-1.08.125-4.432.07-5.482-1.591.509-3.309,3-5.077,2.8Z" fill="#e69773"/>
                <path id="Trazado_610923" data-name="Trazado 610923" d="M110.306,83.262a.9.9,0,0,1-.307-1.7l3.458-1.746-3.23-4.509a.9.9,0,0,1,1.462-1.046l3.842,5.361a.9.9,0,0,1-.326,1.326l-4.4,2.219a.894.894,0,0,1-.5.091" fill="#af4e4a"/>
                <path id="Trazado_610924" data-name="Trazado 610924" d="M156.869,90.32l-3.348-.371a.9.9,0,1,1,.2-1.787l3.348.371a3.2,3.2,0,0,0,3.543-3.381l-.767-11.984a.9.9,0,0,1,1.794-.114l.767,11.983a5,5,0,0,1-5.535,5.283" fill="#af4e4a"/>
                <path id="Trazado_610925" data-name="Trazado 610925" d="M171.165,81.179a2.449,2.449,0,1,1-2.612-2.275,2.449,2.449,0,0,1,2.612,2.275" fill="#111"/>
                <path id="Trazado_610926" data-name="Trazado 610926" d="M152.349,111.777a.511.511,0,0,1-.336-.066,4.34,4.34,0,0,0-4.879.349.51.51,0,0,1-.66-.778c2.789-2.363,6.03-.465,6.063-.445a.51.51,0,0,1-.188.94" fill="#af4e4a"/>
                <path id="Trazado_610927" data-name="Trazado 610927" d="M136.32,68.8a10.327,10.327,0,0,0,4.292.114c1.521-.161,3.052-.285,4.386-.346s2.873-.081,4.4-.06a10.291,10.291,0,0,0,4.256-.51c1.124-.538,1.527-1.948.09-3.594-1.352-1.6-4.772-3.258-9.2-3.064-4.417.215-7.614,2.175-8.762,3.894-1.224,1.77-.653,3.135.531,3.566" fill="#2b2b39"/>
                <path id="Trazado_610928" data-name="Trazado 610928" d="M177.747,73.538a6.276,6.276,0,0,1-2.9-.59c-.991-.364-1.995-.7-2.88-.957s-1.914-.515-2.945-.741a6.244,6.244,0,0,1-2.762-1.061c-.654-.589-.662-1.731.608-2.763a7.667,7.667,0,0,1,6.744-.891,7.514,7.514,0,0,1,5.158,4.36c.494,1.546-.144,2.5-1.019,2.643" fill="#2b2b39"/>
                <path id="Trazado_610929" data-name="Trazado 610929" d="M149.885,79.676a2.679,2.679,0,1,1-2.14-3.127,2.68,2.68,0,0,1,2.14,3.127" fill="#111"/>
                <path id="Trazado_610930" data-name="Trazado 610930" d="M144.194,81.67a3.817,3.817,0,0,1,4.649.848" fill="#e69773"/>
                <path id="Trazado_610931" data-name="Trazado 610931" d="M148.744,83.411a.9.9,0,0,1-.567-.289,2.872,2.872,0,0,0-3.547-.665.9.9,0,0,1-.877-1.569,4.685,4.685,0,0,1,5.756,1.025.9.9,0,0,1-.765,1.5" fill="#af4e4a"/>
                <path id="Trazado_610932" data-name="Trazado 610932" d="M166.515,83.969a5.306,5.306,0,0,1,4.136.5" fill="#e69773"/>
                <path id="Trazado_610933" data-name="Trazado 610933" d="M170.552,85.364a.883.883,0,0,1-.393-.142,4.413,4.413,0,0,0-3.373-.395.9.9,0,0,1-.545-1.714,6.2,6.2,0,0,1,4.9.606.9.9,0,0,1-.592,1.645" fill="#af4e4a"/>
                <path id="Trazado_610934" data-name="Trazado 610934" d="M141.127,89.61a2.19,2.19,0,0,1,2.634.551,14.961,14.961,0,0,0,7.988,4.751,1.552,1.552,0,0,1,.865,2.347c-1.192,1.937-4.127,4.8-9.229,1.682-6.217-3.8-4.576-8.135-2.258-9.331" fill="#fff"/>
                <path id="Trazado_610935" data-name="Trazado 610935" d="M153.013,124.887s-21.924-1.007-26.321-10.42c0,0,.852,19.65,24,22.5Z" fill="#af4e4a"/>
                <path id="Trazado_610936" data-name="Trazado 610936" d="M130.217,84.761c-.158,1.422,1.638,2.788,4.01,3.051s4.424-.677,4.581-2.1-1.638-2.788-4.01-3.051-4.423.677-4.581,2.1" fill="#af4e4a"/>
                <path id="Trazado_610937" data-name="Trazado 610937" d="M141.533,88.77a13.323,13.323,0,1,1,13.45-13.2,13.337,13.337,0,0,1-13.45,13.2m.234-24.678a11.357,11.357,0,1,0,11.249,11.462,11.369,11.369,0,0,0-11.249-11.462" fill="#fdfeff"/>
                <path id="Trazado_610938" data-name="Trazado 610938" d="M171.979,92.98a13.323,13.323,0,1,1,13.45-13.2,13.338,13.338,0,0,1-13.45,13.2m.234-24.678a11.357,11.357,0,1,0,11.25,11.462A11.37,11.37,0,0,0,172.213,68.3" fill="#fdfeff"/>
                <path id="Trazado_610939" data-name="Trazado 610939" d="M159.012,79.222a3.29,3.29,0,0,0-4.516-.8l-1.036-1.671a5.2,5.2,0,0,1,7.149,1.318Z" fill="#fdfeff"/>
                <path id="Trazado_610940" data-name="Trazado 610940" d="M130.406,70.148a1.481,1.481,0,0,1-1.092-.382c-.141-.1-2.376-1.672-12.154-2.533a1.181,1.181,0,0,1-1.19-1.253,1.357,1.357,0,0,1,1.525-1.012c11.252.989,13.593,2.953,13.949,3.337a1.023,1.023,0,0,1-.262,1.6,1.564,1.564,0,0,1-.776.243" fill="#fdfeff"/>
                <path id="Trazado_610941" data-name="Trazado 610941" d="M184.988,44.441A15.248,15.248,0,1,1,169.74,29.193a15.248,15.248,0,0,1,15.248,15.248" fill="#6059c9"/>
                <path id="Trazado_610942" data-name="Trazado 610942" d="M164.286,35.465a15.248,15.248,0,1,1-15.248-15.248,15.249,15.249,0,0,1,15.248,15.248" fill="#6059c9"/>
                <path id="Trazado_610943" data-name="Trazado 610943" d="M143.3,39.992a15.248,15.248,0,1,1-15.248-15.248A15.248,15.248,0,0,1,143.3,39.992" fill="#6059c9"/>
                <path id="Trazado_610944" data-name="Trazado 610944" d="M130.287,61.192a11.639,11.639,0,1,1-11.639-11.639,11.639,11.639,0,0,1,11.639,11.639" fill="#6059c9"/>
                <path id="Trazado_610945" data-name="Trazado 610945" d="M124.141,51.424A11.639,11.639,0,1,1,112.5,39.785a11.639,11.639,0,0,1,11.639,11.639" fill="#6059c9"/>
                <path id="Trazado_610946" data-name="Trazado 610946" d="M161.059,149.669l-5.034-12.935c-.19-2.51-2.7-3.692-4.279-2.018l-18.46,19.3a.419.419,0,0,1-.568.034l-27.365-22.374a2.1,2.1,0,0,0-3.132.549l-7.654,15.694a4.592,4.592,0,0,0,.614,4.969l16.077,19.1a4.441,4.441,0,0,0,6.057.422L132.484,158.4a.8.8,0,0,1,1.138.057l9.591,10.851a2.257,2.257,0,0,0,4-.232l13.042-14.92a4.381,4.381,0,0,0,.8-4.489" fill="#750021"/>
                <path id="Trazado_610947" data-name="Trazado 610947" d="M171.452,75.46c1.23-.621,4.466-2.113,7.049-2.041a1.07,1.07,0,0,1,1.067,1.175,1.222,1.222,0,0,1-.571.915,1.242,1.242,0,0,1-.706.2c-2.092-.056-5.236,1.417-6.271,1.99a1.216,1.216,0,0,1-.568.142Z" fill="#fdfeff"/>
                <path id="Trazado_610948" data-name="Trazado 610948" d="M136.845,172.4a3.1,3.1,0,1,1-3.1-3.1,3.1,3.1,0,0,1,3.1,3.1" fill="#750021"/>
                <path id="Trazado_610949" data-name="Trazado 610949" d="M136.845,186.8a3.1,3.1,0,1,1-3.1-3.1,3.1,3.1,0,0,1,3.1,3.1" fill="#750021"/>
                <path id="Trazado_610950" data-name="Trazado 610950" d="M136.845,201.2a3.1,3.1,0,1,1-3.1-3.1,3.1,3.1,0,0,1,3.1,3.1" fill="#750021"/>
                <path id="Trazado_610951" data-name="Trazado 610951" d="M159.69,295.046l-77.681-44,3.065-15.884L28.8,233.506l-2.933,14.8c-5.312,37.114,42.359,55.11,42.359,55.11l76.043,25.551" fill="#e69773"/>
                <path id="Trazado_610952" data-name="Trazado 610952" d="M82.277,250.558a.841.841,0,0,1-.171-.017.9.9,0,0,1-.712-1.052l2.939-15.233,7.329.059h.022a2.6,2.6,0,0,0,2.61-2.491l1.937-41.269a.887.887,0,0,1,.94-.856.9.9,0,0,1,.856.94L96.09,231.908a4.367,4.367,0,0,1-4.443,4.205l-5.832-.047-2.657,13.763a.9.9,0,0,1-.881.729" fill="#750021"/>
                <path id="Trazado_610953" data-name="Trazado 610953" d="M62.816,258.225a.9.9,0,0,1-.285-1.752l18.963-6.357a.9.9,0,0,1,.571,1.705L63.1,258.178a.883.883,0,0,1-.285.047" fill="#af4e4a"/>
                <path id="Trazado_610954" data-name="Trazado 610954" d="M141.315,326.415a13.425,13.425,0,0,0,4.418,4.309l25.22,13.747c4.511,2.765,10.916.481,9.082-3.121,2.84,2.971,7.018,5.212,10.288,1.365,2.054-1.913,1.411-3.985.01-5.881,2.665,2.651,5.774,4.726,8.731,1.741,3.676-2.777,2.036-6.192-.377-9,2.032,1.606,4.412,2.462,6.623.239,5.781-6.895-4.135-12.536-9.645-16.634-2.74-1.747-5.223-3.376-7.535-4.914,3.087-.854,6.206-1.729,8.781-3.6a3.389,3.389,0,0,0,1.667-2.451,2.55,2.55,0,0,0-1.1-1.991,6.954,6.954,0,0,0-2.145-.965c-7.016-2.189-28.394-4.638-28.394-4.638a48.22,48.22,0,0,0-7.245.425" fill="#e69773"/>
                <path id="Trazado_610955" data-name="Trazado 610955" d="M186.154,332.412c.364.329.756.735,1.173,1.185-.437-.426-.842-.823-1.173-1.185" fill="#e69773"/>
                <g id="Grupo_1072806" data-name="Grupo 1072806" opacity="0.3">
                  <g id="Grupo_1072805" data-name="Grupo 1072805">
                    <g id="Grupo_1072804" data-name="Grupo 1072804" clip-path="url(#clip-path-9)">
                      <path id="Trazado_610956" data-name="Trazado 610956" d="M188.13,308.267l-13.686-7.509s16.861,4.129,19.209,5.709Z" fill="#af4e4a"/>
                    </g>
                  </g>
                </g>
                <path id="Trazado_610957" data-name="Trazado 610957" d="M190.462,324.834a.843.843,0,0,1,1.125-1.225c.8.519,7.808,5.109,8.847,6.3a.83.83,0,0,1-.08,1.19.846.846,0,0,1-1.192-.083,94.225,94.225,0,0,0-8.5-6,.85.85,0,0,1-.2-.188" fill="#af4e4a"/>
                <path id="Trazado_610958" data-name="Trazado 610958" d="M183.236,333.136a.843.843,0,0,1,1.138-1.217l7.01,4.751a.843.843,0,0,1-.946,1.4l-7.01-4.751a.842.842,0,0,1-.192-.179" fill="#af4e4a"/>
                <path id="Trazado_610959" data-name="Trazado 610959" d="M175.65,339.226a.844.844,0,0,1,1.154-1.206l3.72,2.643a.844.844,0,0,1-.978,1.375l-3.72-2.643a.884.884,0,0,1-.176-.169" fill="#af4e4a"/>
                <path id="Trazado_610960" data-name="Trazado 610960" d="M130.939,323.285s5.228-21.747,17.674-34.653a12.893,12.893,0,0,1,9.212,3.185,88.317,88.317,0,0,0-18.566,36.323,11.91,11.91,0,0,1-8.32-4.855" fill="#2b2b39"/>
                <path id="Trazado_610961" data-name="Trazado 610961" d="M155.586,306.516a12.249,12.249,0,1,0-16.489,5.309,12.249,12.249,0,0,0,16.489-5.309" fill="#2b2b39"/>
                <path id="Trazado_610962" data-name="Trazado 610962" d="M148.711,293.082a8.816,8.816,0,1,0,3.821,11.867,8.827,8.827,0,0,0-3.821-11.867" fill="#fff"/>
              </g>
            </g>
            <g id="Grupo_1072810" data-name="Grupo 1072810">
              <g id="Grupo_1072809" data-name="Grupo 1072809" clip-path="url(#clip-path)">
                <path id="Trazado_610964" data-name="Trazado 610964" d="M249.238,101.173c-2.754,2.651-5.008,1.69-5.008-2.132V86.716a6.97,6.97,0,0,0-6.95-6.949H221.509a6.97,6.97,0,0,1-6.949-6.95V24.1a6.97,6.97,0,0,1,6.949-6.95h73.955a6.971,6.971,0,0,1,6.95,6.95V72.817a6.97,6.97,0,0,1-6.95,6.95H278.443a19.92,19.92,0,0,0-11.958,4.817Z" fill="#467b6c"/>
                <path id="Trazado_610968" data-name="Trazado 610968" d="M291.188,233.055H186.729a8.3,8.3,0,0,0-8.005,6.1L154.66,326.382H84.673a1.594,1.594,0,0,0-1.326,2.479l5.526,8.29H271.041L299.2,243.837a8.365,8.365,0,0,0-8.008-10.782" fill="#5f5f75"/>
                <path id="Trazado_610969" data-name="Trazado 610969" d="M280.015,337.366H160.663l27.035-98a8.3,8.3,0,0,1,8.005-6.1H300.162a8.365,8.365,0,0,1,8.008,10.782Z" fill="#2b2b39"/>
                <path id="Trazado_610970" data-name="Trazado 610970" d="M228.115,289.019a13.4,13.4,0,1,1,13.4,13.4,13.42,13.42,0,0,1-13.4-13.4m2.044,0a11.359,11.359,0,1,0,11.36-11.36,11.371,11.371,0,0,0-11.36,11.36" fill="#f6eee3"/>
                <path id="Trazado_610971" data-name="Trazado 610971" d="M510.839,85.486a1.415,1.415,0,0,1-.537-.106l-6.509-2.646a1.427,1.427,0,0,1-.784-1.86l2.047-5.031a17.034,17.034,0,0,1-3.119-2.751L497,75.172a1.427,1.427,0,0,1-1.869-.76L492.4,67.939a1.427,1.427,0,0,1,.761-1.87l4.605-1.941a17.03,17.03,0,0,1-.127-3.669l-4.524-1.841a1.426,1.426,0,0,1-.785-1.859l2.647-6.508a1.427,1.427,0,0,1,1.86-.785l4.284,1.743a17.023,17.023,0,0,1,3.2-3.21l-1.941-4.6a1.428,1.428,0,0,1,.76-1.87l6.474-2.731a1.427,1.427,0,0,1,1.87.761l2.08,4.935a16.992,16.992,0,0,1,2.451,0l2.152-5.293a1.427,1.427,0,0,1,1.86-.784l6.508,2.646a1.427,1.427,0,0,1,.785,1.86l-2.055,5.051a17.023,17.023,0,0,1,3.209,3.2l4.6-1.941a1.427,1.427,0,0,1,1.87.76l2.731,6.474a1.427,1.427,0,0,1-.761,1.869l-4.933,2.081a17.141,17.141,0,0,1-.072,3.316l5.051,2.054a1.426,1.426,0,0,1,.785,1.859l-2.646,6.509a1.428,1.428,0,0,1-1.86.784l-5.293-2.153a17.288,17.288,0,0,1-1.711,1.755l2.081,4.933a1.427,1.427,0,0,1-.761,1.869l-6.473,2.731a1.427,1.427,0,0,1-1.87-.76l-1.94-4.6a17.09,17.09,0,0,1-2.795.172L512.161,84.6a1.429,1.429,0,0,1-1.322.89m-4.648-4.858,3.864,1.571,2.167-5.329a1.419,1.419,0,0,1,1.44-.885,14.217,14.217,0,0,0,4.186-.274,1.423,1.423,0,0,1,1.617.84l1.83,4.34,3.843-1.621L523.2,74.678A1.428,1.428,0,0,1,523.639,73a14.276,14.276,0,0,0,2.712-2.783,1.426,1.426,0,0,1,1.686-.474L533,71.759l1.57-3.863-4.776-1.943a1.428,1.428,0,0,1-.864-1.591,14.271,14.271,0,0,0,.114-4.653,1.428,1.428,0,0,1,.86-1.509l4.593-1.937-1.622-3.844-4.339,1.831a1.429,1.429,0,0,1-1.745-.527,14.235,14.235,0,0,0-4.055-4.05,1.426,1.426,0,0,1-.536-1.729l1.943-4.776L520.279,41.6l-2.018,4.964a1.433,1.433,0,0,1-1.517.876,14.239,14.239,0,0,0-3.885,0,1.429,1.429,0,0,1-1.509-.859l-1.937-4.594L505.57,43.6l1.83,4.339a1.428,1.428,0,0,1-.527,1.745,14.231,14.231,0,0,0-4.049,4.055,1.429,1.429,0,0,1-1.73.537l-4.008-1.631-1.572,3.864,4.2,1.707a1.426,1.426,0,0,1,.876,1.515,14.252,14.252,0,0,0,.182,4.964,1.428,1.428,0,0,1-.841,1.617l-4.34,1.829,1.621,3.844,4.6-1.937a1.428,1.428,0,0,1,1.68.439,14.282,14.282,0,0,0,4.065,3.556,1.427,1.427,0,0,1,.6,1.769Zm8.634-11.1a7.861,7.861,0,1,1,3.046-.618,7.877,7.877,0,0,1-3.046.618m-.017-12.878a5.012,5.012,0,1,0,1.954,9.63h0a5.012,5.012,0,0,0-1.955-9.63" fill="#94eeff"/>
                <path id="Trazado_610972" data-name="Trazado 610972" d="M274.225,426.217a20.365,20.365,0,1,1,20.365-20.365,20.388,20.388,0,0,1-20.365,20.365m0-37.875a17.51,17.51,0,1,0,17.511,17.51,17.531,17.531,0,0,0-17.511-17.51" fill="#94eeff"/>
                <path id="Trazado_610973" data-name="Trazado 610973" d="M268.674,415.412l-.078,0a1.428,1.428,0,0,1-1.035-.532l-3.694-4.6a1.427,1.427,0,1,1,2.226-1.787l2.7,3.363,15.139-15.14a1.427,1.427,0,1,1,2.018,2.018l-16.265,16.266a1.427,1.427,0,0,1-1.009.418" fill="#94eeff"/>
                <path id="Trazado_610974" data-name="Trazado 610974" d="M73.668,456.8l-14.545-8.952h-34.8a5.931,5.931,0,0,1-5.924-5.925V416.673a5.93,5.93,0,0,1,5.924-5.924H65.635a5.931,5.931,0,0,1,5.924,5.924v25.619l4.213,12.843a1.427,1.427,0,0,1-2.1,1.66M24.324,413.6a3.074,3.074,0,0,0-3.07,3.07v25.245a3.073,3.073,0,0,0,3.07,3.07h35.2a1.432,1.432,0,0,1,.748.212l11.569,7.122-3.069-9.357a1.433,1.433,0,0,1-.071-.445V416.673a3.075,3.075,0,0,0-3.07-3.07Z" fill="#76becc"/>
                <path id="Trazado_610975" data-name="Trazado 610975" d="M53.091,429.619a3.4,3.4,0,1,0,3.4-3.4,3.4,3.4,0,0,0-3.4,3.4" fill="#76becc"/>
                <path id="Trazado_610976" data-name="Trazado 610976" d="M40.794,429.619a3.4,3.4,0,1,0,3.4-3.4,3.4,3.4,0,0,0-3.4,3.4" fill="#76becc"/>
                <path id="Trazado_610977" data-name="Trazado 610977" d="M28.5,429.619a3.4,3.4,0,1,0,3.4-3.4,3.4,3.4,0,0,0-3.4,3.4" fill="#76becc"/>
              </g>
            </g>
          </g>
        </g>
        <text id="Bla_bla" data-name="Bla, bla" transform="translate(660 6060)" fill="#fff" font-size="18" font-family="Roboto-Black, Roboto" font-weight="800"><tspan x="0" y="0">Bla, bla</tspan></text>
      </g>
    </g>
    <rect id="Rectángulo_378301" data-name="Rectángulo 378301" width="148" height="51" rx="17" transform="translate(350 6082)" fill="#ffe7af"/>
    <rect id="Rectángulo_378302" data-name="Rectángulo 378302" width="130" height="51" rx="17" transform="translate(1161 6293)" fill="#ffe7af"/>
    <rect id="Rectángulo_378306" data-name="Rectángulo 378306" width="136" height="51" rx="17" transform="translate(759 6019)" fill="#ffe7af"/>
    <rect id="Rectángulo_378304" data-name="Rectángulo 378304" width="134" height="51" rx="17" transform="translate(878 6106)" fill="#ffe7af"/>
    <rect id="Rectángulo_378305" data-name="Rectángulo 378305" width="114" height="51" rx="17" transform="translate(591 6357)" fill="#ffe7af"/>
    <path id="Trazado_611221" data-name="Trazado 611221" d="M8.9-5.432H4.052v3.059h5.73V0H.967V-12.8H9.8v2.382H4.052v2.7H8.9ZM13.7-9.51l.1,1.116a3.27,3.27,0,0,1,2.716-1.292,2.407,2.407,0,0,1,2.435,1.433,3.165,3.165,0,0,1,2.795-1.433q2.892,0,2.971,3.5V0H21.744V-6A1.813,1.813,0,0,0,21.5-7.066a1.048,1.048,0,0,0-.9-.334,1.4,1.4,0,0,0-1.31.782L19.3-6.5V0H16.33V-5.985a1.906,1.906,0,0,0-.237-1.081,1.045,1.045,0,0,0-.905-.334,1.42,1.42,0,0,0-1.3.782V0H10.925V-9.51ZM29.531,0H26.561V-9.51h2.971ZM26.385-11.962A1.322,1.322,0,0,1,26.842-13a1.724,1.724,0,0,1,1.187-.4,1.724,1.724,0,0,1,1.187.4,1.322,1.322,0,0,1,.457,1.037,1.322,1.322,0,0,1-.457,1.037,1.724,1.724,0,0,1-1.187.4,1.724,1.724,0,0,1-1.187-.4A1.322,1.322,0,0,1,26.385-11.962Zm9.949,9.29a.684.684,0,0,0-.4-.606,6.016,6.016,0,0,0-1.5-.475A6.853,6.853,0,0,1,32.607-4.4a3.062,3.062,0,0,1-1.1-.971,2.319,2.319,0,0,1-.378-1.31,2.628,2.628,0,0,1,1.081-2.158,4.453,4.453,0,0,1,2.83-.848,4.934,4.934,0,0,1,3.023.853,2.666,2.666,0,0,1,1.143,2.241H36.237q0-1.143-1.2-1.143a1.194,1.194,0,0,0-.782.259.8.8,0,0,0-.316.646.737.737,0,0,0,.387.642,3.654,3.654,0,0,0,1.235.4,10.671,10.671,0,0,1,1.49.378A2.706,2.706,0,0,1,39.19-2.76,2.491,2.491,0,0,1,38.035-.642a5.068,5.068,0,0,1-2.993.817,5.172,5.172,0,0,1-2.18-.439,3.645,3.645,0,0,1-1.494-1.2,2.707,2.707,0,0,1-.536-1.591H33.6a1.145,1.145,0,0,0,.439.962,1.808,1.808,0,0,0,1.081.3,1.422,1.422,0,0,0,.91-.246A.787.787,0,0,0,36.334-2.672ZM40.2-4.843a5.613,5.613,0,0,1,.554-2.536,3.96,3.96,0,0,1,1.591-1.709,4.791,4.791,0,0,1,2.435-.6,4.373,4.373,0,0,1,3.366,1.323,5.076,5.076,0,0,1,1.23,3.6v.105a4.925,4.925,0,0,1-1.235,3.529A4.384,4.384,0,0,1,44.8.176a4.434,4.434,0,0,1-3.261-1.217,4.761,4.761,0,0,1-1.327-3.3Zm2.962.185a3.538,3.538,0,0,0,.413,1.934,1.376,1.376,0,0,0,1.222.615q1.582,0,1.617-2.435v-.3q0-2.558-1.635-2.558-1.485,0-1.608,2.206ZM56.435-6.829l-.976-.07a1.752,1.752,0,0,0-1.793.879V0H50.7V-9.51h2.777l.1,1.222a2.294,2.294,0,0,1,2.083-1.4,2.888,2.888,0,0,1,.826.105ZM0,1H56.672V2H0Z" transform="translate(396 6115)" fill="#12263f"/>
    <path id="Trazado_611224" data-name="Trazado 611224" d="M5.722-4.526H4.052V0H.967V-12.8H6a5.621,5.621,0,0,1,3.56,1.01,3.421,3.421,0,0,1,1.283,2.853,4.155,4.155,0,0,1-.541,2.213A3.837,3.837,0,0,1,8.613-5.3L11.285-.132V0H7.98ZM4.052-6.9H6a1.751,1.751,0,0,0,1.323-.463A1.788,1.788,0,0,0,7.77-8.653a1.809,1.809,0,0,0-.448-1.3A1.735,1.735,0,0,0,6-10.424H4.052ZM17.174.176a4.889,4.889,0,0,1-3.542-1.305,4.507,4.507,0,0,1-1.354-3.4v-.246a5.84,5.84,0,0,1,.541-2.575A3.955,3.955,0,0,1,14.4-9.075a4.763,4.763,0,0,1,2.461-.611,4.117,4.117,0,0,1,3.164,1.244,4.887,4.887,0,0,1,1.16,3.467v1.151H15.293a2.135,2.135,0,0,0,.694,1.257,2.066,2.066,0,0,0,1.389.457,2.662,2.662,0,0,0,2.2-.984l1.354,1.6A3.784,3.784,0,0,1,19.358-.277,5.3,5.3,0,0,1,17.174.176ZM16.84-7.4q-1.3,0-1.547,1.723h2.988v-.229a1.467,1.467,0,0,0-.36-1.1A1.434,1.434,0,0,0,16.84-7.4Zm9.554,5.291a1.317,1.317,0,0,0,.967-.338,1.241,1.241,0,0,0,.334-.945h2.777A3.288,3.288,0,0,1,29.351-.826a4.168,4.168,0,0,1-2.887,1,4.22,4.22,0,0,1-3.27-1.3,5.125,5.125,0,0,1-1.2-3.6v-.123A5.792,5.792,0,0,1,22.531-7.4a3.872,3.872,0,0,1,1.534-1.7,4.573,4.573,0,0,1,2.373-.593,4.116,4.116,0,0,1,2.944,1.028,3.647,3.647,0,0,1,1.09,2.786H27.694A1.626,1.626,0,0,0,27.334-7a1.244,1.244,0,0,0-.967-.4q-1.151,0-1.345,1.468a10.357,10.357,0,0,0-.062,1.283A4.068,4.068,0,0,0,25.3-2.663,1.187,1.187,0,0,0,26.394-2.109ZM36.325.176a4.889,4.889,0,0,1-3.542-1.305,4.507,4.507,0,0,1-1.354-3.4v-.246a5.84,5.84,0,0,1,.541-2.575,3.955,3.955,0,0,1,1.578-1.727,4.763,4.763,0,0,1,2.461-.611,4.117,4.117,0,0,1,3.164,1.244,4.887,4.887,0,0,1,1.16,3.467v1.151H34.444a2.135,2.135,0,0,0,.694,1.257,2.066,2.066,0,0,0,1.389.457,2.662,2.662,0,0,0,2.2-.984l1.354,1.6A3.784,3.784,0,0,1,38.509-.277,5.3,5.3,0,0,1,36.325.176ZM35.991-7.4q-1.3,0-1.547,1.723h2.988v-.229a1.467,1.467,0,0,0-.36-1.1A1.434,1.434,0,0,0,35.991-7.4ZM50.353-4.685a5.735,5.735,0,0,1-1,3.538A3.2,3.2,0,0,1,46.661.176a2.742,2.742,0,0,1-2.153-.958V3.656H41.546V-9.51h2.769l.088.879a2.742,2.742,0,0,1,2.241-1.055,3.224,3.224,0,0,1,2.733,1.3,5.805,5.805,0,0,1,.976,3.564Zm-2.962-.185q0-2.531-1.477-2.531a1.394,1.394,0,0,0-1.406.756V-2.9a1.439,1.439,0,0,0,1.424.791q1.415,0,1.459-2.443Zm7.717-7V-9.51h1.564v2.057H55.107V-3.1a1.111,1.111,0,0,0,.193.747,1.037,1.037,0,0,0,.765.211A4.345,4.345,0,0,0,56.8-2.2V-.079a5.466,5.466,0,0,1-1.67.255,3.1,3.1,0,0,1-2.259-.721,2.954,2.954,0,0,1-.729-2.188v-4.72H50.933V-9.51h1.213v-2.364ZM57.2-4.843a5.613,5.613,0,0,1,.554-2.536,3.96,3.96,0,0,1,1.591-1.709,4.791,4.791,0,0,1,2.435-.6,4.373,4.373,0,0,1,3.366,1.323,5.076,5.076,0,0,1,1.23,3.6v.105A4.925,4.925,0,0,1,65.14-1.129,4.384,4.384,0,0,1,61.8.176a4.434,4.434,0,0,1-3.261-1.217,4.761,4.761,0,0,1-1.327-3.3Zm2.962.185a3.538,3.538,0,0,0,.413,1.934,1.376,1.376,0,0,0,1.222.615q1.582,0,1.617-2.435v-.3q0-2.558-1.635-2.558-1.485,0-1.608,2.206ZM73.433-6.829l-.976-.07a1.752,1.752,0,0,0-1.793.879V0H67.7V-9.51h2.777l.1,1.222a2.294,2.294,0,0,1,2.083-1.4,2.888,2.888,0,0,1,.826.105ZM0,1H40.546V2H0ZM45.508,1H73.67V2H45.508Z" transform="translate(1189 6325)" fill="#12263f"/>
    <path id="Trazado_611222" data-name="Trazado 611222" d="M11.32-4.333a4.673,4.673,0,0,1-.721,2.36A4.35,4.35,0,0,1,8.75-.387a6.3,6.3,0,0,1-2.72.563A5.025,5.025,0,0,1,2.057-1.468,6.786,6.786,0,0,1,.606-6.108v-.633a7.746,7.746,0,0,1,.655-3.292,4.961,4.961,0,0,1,1.885-2.18,5.26,5.26,0,0,1,2.848-.769,5.516,5.516,0,0,1,3.744,1.226,4.844,4.844,0,0,1,1.608,3.379H8.271a2.292,2.292,0,0,0-.589-1.679,2.422,2.422,0,0,0-1.687-.51A1.843,1.843,0,0,0,4.307-9.7a5.536,5.536,0,0,0-.562,2.751v.905A6.125,6.125,0,0,0,4.258-3.12a1.882,1.882,0,0,0,1.771.879,2.369,2.369,0,0,0,1.626-.5,2.126,2.126,0,0,0,.6-1.591Zm.949-.51a5.613,5.613,0,0,1,.554-2.536,3.96,3.96,0,0,1,1.591-1.709,4.791,4.791,0,0,1,2.435-.6,4.373,4.373,0,0,1,3.366,1.323,5.076,5.076,0,0,1,1.23,3.6v.105A4.925,4.925,0,0,1,20.21-1.129,4.384,4.384,0,0,1,16.866.176a4.434,4.434,0,0,1-3.261-1.217,4.761,4.761,0,0,1-1.327-3.3Zm2.962.185a3.538,3.538,0,0,0,.413,1.934,1.376,1.376,0,0,0,1.222.615q1.582,0,1.617-2.435v-.3q0-2.558-1.635-2.558-1.485,0-1.608,2.206ZM17.253-13.5h3.129l-2.443,2.76-2.417,0Zm5.124,8.675a5.809,5.809,0,0,1,.976-3.56,3.211,3.211,0,0,1,2.725-1.3,2.731,2.731,0,0,1,2.145,1V-13.5h2.971V0H28.529L28.38-1.02a2.8,2.8,0,0,1-2.32,1.2,3.205,3.205,0,0,1-2.689-1.3A5.993,5.993,0,0,1,22.377-4.825Zm2.962.185q0,2.531,1.477,2.531a1.458,1.458,0,0,0,1.406-.826V-6.557A1.419,1.419,0,0,0,26.833-7.4q-1.371,0-1.485,2.215ZM36,0H33.029V-9.51H36ZM32.854-11.962A1.322,1.322,0,0,1,33.311-13a1.724,1.724,0,0,1,1.187-.4,1.724,1.724,0,0,1,1.187.4,1.322,1.322,0,0,1,.457,1.037,1.322,1.322,0,0,1-.457,1.037,1.724,1.724,0,0,1-1.187.4,1.724,1.724,0,0,1-1.187-.4A1.322,1.322,0,0,1,32.854-11.962Zm4.623,7.137a6.421,6.421,0,0,1,.475-2.549,3.821,3.821,0,0,1,1.362-1.709,3.591,3.591,0,0,1,2.065-.6,2.855,2.855,0,0,1,2.32,1L43.8-9.51h2.689V-.36a4.009,4.009,0,0,1-.584,2.184,3.75,3.75,0,0,1-1.692,1.424,6.219,6.219,0,0,1-2.566.5,5.365,5.365,0,0,1-2.026-.4,3.657,3.657,0,0,1-1.5-1.028L39.366.58a2.716,2.716,0,0,0,2.18.976A1.764,1.764,0,0,0,43.515-.466v-.3a2.781,2.781,0,0,1-2.153.94,3.437,3.437,0,0,1-2.812-1.332A5.517,5.517,0,0,1,37.477-4.72Zm2.971.185a3.383,3.383,0,0,0,.439,1.85,1.386,1.386,0,0,0,1.23.681,1.573,1.573,0,0,0,1.4-.642v-4a1.534,1.534,0,0,0-1.38-.65,1.4,1.4,0,0,0-1.239.708A3.858,3.858,0,0,0,40.447-4.641Zm7.356-.2a5.613,5.613,0,0,1,.554-2.536,3.96,3.96,0,0,1,1.591-1.709,4.791,4.791,0,0,1,2.435-.6,4.373,4.373,0,0,1,3.366,1.323,5.076,5.076,0,0,1,1.23,3.6v.105a4.925,4.925,0,0,1-1.235,3.529A4.384,4.384,0,0,1,52.4.176,4.434,4.434,0,0,1,49.14-1.042a4.761,4.761,0,0,1-1.327-3.3Zm2.962.185a3.538,3.538,0,0,0,.413,1.934,1.376,1.376,0,0,0,1.222.615q1.582,0,1.617-2.435v-.3q0-2.558-1.635-2.558-1.485,0-1.608,2.206ZM0,1H37.127V2H0ZM47.293,1H57.454V2H47.293Z" transform="translate(799 6052)" fill="#12263f"/>
    <path id="Trazado_611223" data-name="Trazado 611223" d="M5.019-12.8l2.856,8.9,2.848-8.9h4.061V0H11.689V-2.988l.3-6.117L8.895,0H6.855l-3.1-9.114.3,6.126V0H.967V-12.8ZM21.208.176a4.889,4.889,0,0,1-3.542-1.305,4.507,4.507,0,0,1-1.354-3.4v-.246a5.84,5.84,0,0,1,.541-2.575,3.955,3.955,0,0,1,1.578-1.727,4.763,4.763,0,0,1,2.461-.611,4.117,4.117,0,0,1,3.164,1.244,4.887,4.887,0,0,1,1.16,3.467v1.151H19.327a2.135,2.135,0,0,0,.694,1.257,2.066,2.066,0,0,0,1.389.457,2.662,2.662,0,0,0,2.2-.984l1.354,1.6A3.784,3.784,0,0,1,23.392-.277,5.3,5.3,0,0,1,21.208.176ZM20.874-7.4q-1.3,0-1.547,1.723h2.988v-.229a1.467,1.467,0,0,0-.36-1.1A1.434,1.434,0,0,0,20.874-7.4ZM29.127-9.51l.1,1.116a3.225,3.225,0,0,1,2.716-1.292,2.713,2.713,0,0,1,2.219.888,4.226,4.226,0,0,1,.76,2.672V0H31.948V-6a1.6,1.6,0,0,0-.29-1.059A1.342,1.342,0,0,0,30.6-7.4a1.413,1.413,0,0,0-1.292.686V0H26.35V-9.51Zm12.41,6.838a.684.684,0,0,0-.4-.606,6.016,6.016,0,0,0-1.5-.475A6.853,6.853,0,0,1,37.811-4.4a3.062,3.062,0,0,1-1.1-.971,2.319,2.319,0,0,1-.378-1.31,2.628,2.628,0,0,1,1.081-2.158,4.453,4.453,0,0,1,2.83-.848,4.934,4.934,0,0,1,3.023.853,2.666,2.666,0,0,1,1.143,2.241H41.44q0-1.143-1.2-1.143a1.194,1.194,0,0,0-.782.259.8.8,0,0,0-.316.646.737.737,0,0,0,.387.642,3.654,3.654,0,0,0,1.235.4,10.671,10.671,0,0,1,1.49.378A2.706,2.706,0,0,1,44.394-2.76,2.491,2.491,0,0,1,43.238-.642a5.068,5.068,0,0,1-2.993.817,5.172,5.172,0,0,1-2.18-.439,3.645,3.645,0,0,1-1.494-1.2,2.707,2.707,0,0,1-.536-1.591H38.8a1.145,1.145,0,0,0,.439.962,1.808,1.808,0,0,0,1.081.3,1.422,1.422,0,0,0,.91-.246A.787.787,0,0,0,41.537-2.672ZM51.135,0a3.344,3.344,0,0,1-.281-.853A2.754,2.754,0,0,1,48.568.176a3.374,3.374,0,0,1-2.285-.813,2.588,2.588,0,0,1-.94-2.043,2.66,2.66,0,0,1,1.143-2.338,5.821,5.821,0,0,1,3.322-.791h.914v-.5q0-1.316-1.134-1.316a.927.927,0,0,0-1.055,1.042H45.571a2.655,2.655,0,0,1,1.173-2.239,4.931,4.931,0,0,1,2.993-.86,4.323,4.323,0,0,1,2.874.888,3.086,3.086,0,0,1,1.081,2.435v4.21a4.311,4.311,0,0,0,.4,2V0ZM49.28-1.934a1.652,1.652,0,0,0,.918-.237,1.487,1.487,0,0,0,.523-.536V-4.228H49.86q-1.547,0-1.547,1.389a.848.848,0,0,0,.272.655A.986.986,0,0,0,49.28-1.934ZM58.518-9.51V.325a3.452,3.452,0,0,1-.967,2.6,3.714,3.714,0,0,1-2.672.914,6.308,6.308,0,0,1-1.4-.149V1.45a5.667,5.667,0,0,0,.835.079A1.084,1.084,0,0,0,55.547.308V-9.51Zm-3.19-2.452A1.322,1.322,0,0,1,55.784-13a1.724,1.724,0,0,1,1.187-.4,1.724,1.724,0,0,1,1.187.4,1.322,1.322,0,0,1,.457,1.037,1.322,1.322,0,0,1-.457,1.037,1.724,1.724,0,0,1-1.187.4,1.724,1.724,0,0,1-1.187-.4A1.322,1.322,0,0,1,55.327-11.962ZM64.793.176a4.889,4.889,0,0,1-3.542-1.305,4.507,4.507,0,0,1-1.354-3.4v-.246a5.84,5.84,0,0,1,.541-2.575,3.955,3.955,0,0,1,1.578-1.727,4.763,4.763,0,0,1,2.461-.611,4.117,4.117,0,0,1,3.164,1.244A4.887,4.887,0,0,1,68.8-4.975v1.151H62.912a2.135,2.135,0,0,0,.694,1.257A2.066,2.066,0,0,0,65-2.109a2.662,2.662,0,0,0,2.2-.984l1.354,1.6A3.784,3.784,0,0,1,66.977-.277,5.3,5.3,0,0,1,64.793.176ZM64.459-7.4q-1.3,0-1.547,1.723H65.9v-.229a1.467,1.467,0,0,0-.36-1.1A1.434,1.434,0,0,0,64.459-7.4ZM0,1H52.481V2H0ZM59.509,1h9.652V2H59.509Z" transform="translate(915 6138)" fill="#12263f"/>
    <path id="Trazado_611225" data-name="Trazado 611225" d="M11.32-4.333a4.673,4.673,0,0,1-.721,2.36A4.35,4.35,0,0,1,8.75-.387a6.3,6.3,0,0,1-2.72.563A5.025,5.025,0,0,1,2.057-1.468,6.786,6.786,0,0,1,.606-6.108v-.633a7.746,7.746,0,0,1,.655-3.292,4.961,4.961,0,0,1,1.885-2.18,5.26,5.26,0,0,1,2.848-.769,5.516,5.516,0,0,1,3.744,1.226,4.844,4.844,0,0,1,1.608,3.379H8.271a2.292,2.292,0,0,0-.589-1.679,2.422,2.422,0,0,0-1.687-.51A1.843,1.843,0,0,0,4.307-9.7a5.536,5.536,0,0,0-.562,2.751v.905A6.125,6.125,0,0,0,4.258-3.12a1.882,1.882,0,0,0,1.771.879,2.369,2.369,0,0,0,1.626-.5,2.126,2.126,0,0,0,.6-1.591ZM18,0a3.344,3.344,0,0,1-.281-.853A2.754,2.754,0,0,1,15.434.176a3.374,3.374,0,0,1-2.285-.813,2.588,2.588,0,0,1-.94-2.043,2.66,2.66,0,0,1,1.143-2.338,5.821,5.821,0,0,1,3.322-.791h.914v-.5q0-1.316-1.134-1.316A.927.927,0,0,0,15.4-6.587H12.437A2.655,2.655,0,0,1,13.61-8.825a4.931,4.931,0,0,1,2.993-.86,4.323,4.323,0,0,1,2.874.888,3.086,3.086,0,0,1,1.081,2.435v4.21a4.311,4.311,0,0,0,.4,2V0ZM16.146-1.934a1.652,1.652,0,0,0,.918-.237,1.487,1.487,0,0,0,.523-.536V-4.228h-.861q-1.547,0-1.547,1.389a.848.848,0,0,0,.272.655A.986.986,0,0,0,16.146-1.934ZM24.917-9.51l.1,1.116a3.225,3.225,0,0,1,2.716-1.292,2.713,2.713,0,0,1,2.219.888,4.226,4.226,0,0,1,.76,2.672V0H27.738V-6a1.6,1.6,0,0,0-.29-1.059A1.342,1.342,0,0,0,26.394-7.4a1.413,1.413,0,0,0-1.292.686V0H22.14V-9.51ZM37.705,0a3.344,3.344,0,0,1-.281-.853A2.754,2.754,0,0,1,35.139.176a3.374,3.374,0,0,1-2.285-.813,2.588,2.588,0,0,1-.94-2.043,2.66,2.66,0,0,1,1.143-2.338,5.821,5.821,0,0,1,3.322-.791h.914v-.5q0-1.316-1.134-1.316A.927.927,0,0,0,35.1-6.587H32.142a2.655,2.655,0,0,1,1.173-2.239,4.931,4.931,0,0,1,2.993-.86,4.323,4.323,0,0,1,2.874.888,3.086,3.086,0,0,1,1.081,2.435v4.21a4.311,4.311,0,0,0,.4,2V0ZM35.851-1.934a1.652,1.652,0,0,0,.918-.237,1.487,1.487,0,0,0,.523-.536V-4.228h-.861q-1.547,0-1.547,1.389a.848.848,0,0,0,.272.655A.986.986,0,0,0,35.851-1.934ZM45.026,0H42.056V-13.5h2.971ZM0,1H46.02V2H0Z" transform="translate(625 6390)" fill="#12263f"/>
  </g>
</svg>
