<svg xmlns="http://www.w3.org/2000/svg" width="35.861" height="28.689" viewBox="0 0 35.861 28.689">
  <path id="building-circle-arrow-right-solid" d="M0,2.69A2.69,2.69,0,0,1,2.69,0H18.827a2.69,2.69,0,0,1,2.69,2.69V13.011a9.865,9.865,0,0,0-.6,14.681,2.673,2.673,0,0,1-2.09,1H13.448V24.206a2.69,2.69,0,0,0-5.379,0v4.483H2.69A2.69,2.69,0,0,1,0,26Zm4.483,9.862a.9.9,0,0,0-.9.9v1.793a.9.9,0,0,0,.9.9H6.276a.9.9,0,0,0,.9-.9V13.448a.9.9,0,0,0-.9-.9Zm4.483.9v1.793a.9.9,0,0,0,.9.9h1.793a.9.9,0,0,0,.9-.9V13.448a.9.9,0,0,0-.9-.9H9.862A.9.9,0,0,0,8.965,13.448Zm6.276-.9a.9.9,0,0,0-.9.9v1.793a.9.9,0,0,0,.9.9h1.793a.9.9,0,0,0,.9-.9V13.448a.9.9,0,0,0-.9-.9ZM3.586,6.276V8.069a.9.9,0,0,0,.9.9H6.276a.9.9,0,0,0,.9-.9V6.276a.9.9,0,0,0-.9-.9H4.483A.9.9,0,0,0,3.586,6.276Zm6.276-.9a.9.9,0,0,0-.9.9V8.069a.9.9,0,0,0,.9.9h1.793a.9.9,0,0,0,.9-.9V6.276a.9.9,0,0,0-.9-.9Zm4.483.9V8.069a.9.9,0,0,0,.9.9h1.793a.9.9,0,0,0,.9-.9V6.276a.9.9,0,0,0-.9-.9H15.241A.9.9,0,0,0,14.344,6.276ZM19.723,20.62a8.069,8.069,0,1,1,8.069,8.069,8.069,8.069,0,0,1-8.069-8.069Zm7.884-3.771a.9.9,0,0,0,0,1.266l1.608,1.608H24.206a.9.9,0,0,0,0,1.793h5.009l-1.608,1.608a.9.9,0,0,0,1.266,1.266l3.138-3.138a.9.9,0,0,0,0-1.266l-3.138-3.138a.9.9,0,0,0-1.266,0Z" fill="#4f4836"/>
</svg>
